%TF.GenerationSoftware,KiCad,Pcbnew,8.0.6*%
%TF.CreationDate,2025-01-06T03:54:34-07:00*%
%TF.ProjectId,left_circuit,6c656674-5f63-4697-9263-7569742e6b69,v1.0.0*%
%TF.SameCoordinates,Original*%
%TF.FileFunction,Legend,Bot*%
%TF.FilePolarity,Positive*%
%FSLAX46Y46*%
G04 Gerber Fmt 4.6, Leading zero omitted, Abs format (unit mm)*
G04 Created by KiCad (PCBNEW 8.0.6) date 2025-01-06 03:54:34*
%MOMM*%
%LPD*%
G01*
G04 APERTURE LIST*
%ADD10C,0.150000*%
%ADD11C,0.381000*%
%ADD12C,0.100000*%
%ADD13C,1.752600*%
G04 APERTURE END LIST*
D10*
X267032672Y-147424102D02*
X267110145Y-147388689D01*
X267110145Y-147388689D02*
X267224361Y-147392678D01*
X267224361Y-147392678D02*
X267337248Y-147434738D01*
X267337248Y-147434738D02*
X267410733Y-147513542D01*
X267410733Y-147513542D02*
X267446146Y-147591015D01*
X267446146Y-147591015D02*
X267478900Y-147744633D01*
X267478900Y-147744633D02*
X267474911Y-147858849D01*
X267474911Y-147858849D02*
X267431521Y-148009807D01*
X267431521Y-148009807D02*
X267390790Y-148084622D01*
X267390790Y-148084622D02*
X267311987Y-148158107D01*
X267311987Y-148158107D02*
X267196442Y-148192191D01*
X267196442Y-148192191D02*
X267120298Y-148189532D01*
X267120298Y-148189532D02*
X267007411Y-148147471D01*
X267007411Y-148147471D02*
X266970668Y-148108070D01*
X266970668Y-148108070D02*
X266979975Y-147841565D01*
X266979975Y-147841565D02*
X267132263Y-147846883D01*
X266625361Y-148172248D02*
X266653281Y-147372735D01*
X266653281Y-147372735D02*
X266168497Y-148156294D01*
X266168497Y-148156294D02*
X266196416Y-147356781D01*
X265787777Y-148142999D02*
X265815696Y-147343486D01*
X265815696Y-147343486D02*
X265625336Y-147336839D01*
X265625336Y-147336839D02*
X265509791Y-147370922D01*
X265509791Y-147370922D02*
X265430987Y-147444407D01*
X265430987Y-147444407D02*
X265390256Y-147519222D01*
X265390256Y-147519222D02*
X265346866Y-147670181D01*
X265346866Y-147670181D02*
X265342878Y-147784397D01*
X265342878Y-147784397D02*
X265375632Y-147938014D01*
X265375632Y-147938014D02*
X265411045Y-148015488D01*
X265411045Y-148015488D02*
X265484530Y-148094291D01*
X265484530Y-148094291D02*
X265597417Y-148136351D01*
X265597417Y-148136351D02*
X265787777Y-148142999D01*
X256212299Y-144504698D02*
X256289772Y-144469285D01*
X256289772Y-144469285D02*
X256403988Y-144473274D01*
X256403988Y-144473274D02*
X256516875Y-144515334D01*
X256516875Y-144515334D02*
X256590360Y-144594138D01*
X256590360Y-144594138D02*
X256625773Y-144671611D01*
X256625773Y-144671611D02*
X256658527Y-144825229D01*
X256658527Y-144825229D02*
X256654538Y-144939445D01*
X256654538Y-144939445D02*
X256611148Y-145090403D01*
X256611148Y-145090403D02*
X256570417Y-145165218D01*
X256570417Y-145165218D02*
X256491614Y-145238703D01*
X256491614Y-145238703D02*
X256376069Y-145272787D01*
X256376069Y-145272787D02*
X256299925Y-145270128D01*
X256299925Y-145270128D02*
X256187038Y-145228067D01*
X256187038Y-145228067D02*
X256150295Y-145188666D01*
X256150295Y-145188666D02*
X256159602Y-144922161D01*
X256159602Y-144922161D02*
X256311890Y-144927479D01*
X255804988Y-145252844D02*
X255832908Y-144453331D01*
X255832908Y-144453331D02*
X255348124Y-145236890D01*
X255348124Y-145236890D02*
X255376043Y-144437377D01*
X254967404Y-145223595D02*
X254995323Y-144424082D01*
X254995323Y-144424082D02*
X254804963Y-144417435D01*
X254804963Y-144417435D02*
X254689418Y-144451518D01*
X254689418Y-144451518D02*
X254610614Y-144525003D01*
X254610614Y-144525003D02*
X254569883Y-144599818D01*
X254569883Y-144599818D02*
X254526493Y-144750777D01*
X254526493Y-144750777D02*
X254522505Y-144864993D01*
X254522505Y-144864993D02*
X254555259Y-145018610D01*
X254555259Y-145018610D02*
X254590672Y-145096084D01*
X254590672Y-145096084D02*
X254664157Y-145174887D01*
X254664157Y-145174887D02*
X254777044Y-145216947D01*
X254777044Y-145216947D02*
X254967404Y-145223595D01*
X267122867Y-152482236D02*
X267046723Y-152479577D01*
X267046723Y-152479577D02*
X266969249Y-152514990D01*
X266969249Y-152514990D02*
X266929848Y-152551733D01*
X266929848Y-152551733D02*
X266889116Y-152626547D01*
X266889116Y-152626547D02*
X266845726Y-152777506D01*
X266845726Y-152777506D02*
X266839079Y-152967866D01*
X266839079Y-152967866D02*
X266871833Y-153121483D01*
X266871833Y-153121483D02*
X266907246Y-153198957D01*
X266907246Y-153198957D02*
X266943988Y-153238359D01*
X266943988Y-153238359D02*
X267018803Y-153279090D01*
X267018803Y-153279090D02*
X267094947Y-153281749D01*
X267094947Y-153281749D02*
X267172421Y-153246336D01*
X267172421Y-153246336D02*
X267211822Y-153209593D01*
X267211822Y-153209593D02*
X267252553Y-153134779D01*
X267252553Y-153134779D02*
X267295943Y-152983820D01*
X267295943Y-152983820D02*
X267302591Y-152793460D01*
X267302591Y-152793460D02*
X267269837Y-152639842D01*
X267269837Y-152639842D02*
X267234424Y-152562369D01*
X267234424Y-152562369D02*
X267197681Y-152522967D01*
X267197681Y-152522967D02*
X267122867Y-152482236D01*
X266067002Y-153245852D02*
X266523866Y-153261806D01*
X266295434Y-153253829D02*
X266323354Y-152454316D01*
X266323354Y-152454316D02*
X266395509Y-152571191D01*
X266395509Y-152571191D02*
X266468994Y-152649995D01*
X266468994Y-152649995D02*
X266543809Y-152690726D01*
X265828417Y-152437033D02*
X265295409Y-152418420D01*
X265295409Y-152418420D02*
X265610137Y-153229898D01*
X255523713Y-167316468D02*
X255447569Y-167313809D01*
X255447569Y-167313809D02*
X255370095Y-167349222D01*
X255370095Y-167349222D02*
X255330694Y-167385965D01*
X255330694Y-167385965D02*
X255289962Y-167460779D01*
X255289962Y-167460779D02*
X255246572Y-167611738D01*
X255246572Y-167611738D02*
X255239925Y-167802098D01*
X255239925Y-167802098D02*
X255272679Y-167955715D01*
X255272679Y-167955715D02*
X255308092Y-168033189D01*
X255308092Y-168033189D02*
X255344834Y-168072591D01*
X255344834Y-168072591D02*
X255419649Y-168113322D01*
X255419649Y-168113322D02*
X255495793Y-168115981D01*
X255495793Y-168115981D02*
X255573267Y-168080568D01*
X255573267Y-168080568D02*
X255612668Y-168043825D01*
X255612668Y-168043825D02*
X255653399Y-167969011D01*
X255653399Y-167969011D02*
X255696789Y-167818052D01*
X255696789Y-167818052D02*
X255703437Y-167627692D01*
X255703437Y-167627692D02*
X255670683Y-167474074D01*
X255670683Y-167474074D02*
X255635270Y-167396601D01*
X255635270Y-167396601D02*
X255598527Y-167357199D01*
X255598527Y-167357199D02*
X255523713Y-167316468D01*
X254467848Y-168080084D02*
X254924712Y-168096038D01*
X254696280Y-168088061D02*
X254724200Y-167288548D01*
X254724200Y-167288548D02*
X254796355Y-167405423D01*
X254796355Y-167405423D02*
X254869840Y-167484227D01*
X254869840Y-167484227D02*
X254944655Y-167524958D01*
X254000831Y-167263288D02*
X253924687Y-167260629D01*
X253924687Y-167260629D02*
X253847213Y-167296042D01*
X253847213Y-167296042D02*
X253807812Y-167332784D01*
X253807812Y-167332784D02*
X253767081Y-167407599D01*
X253767081Y-167407599D02*
X253723691Y-167558557D01*
X253723691Y-167558557D02*
X253717043Y-167748918D01*
X253717043Y-167748918D02*
X253749797Y-167902535D01*
X253749797Y-167902535D02*
X253785210Y-167980009D01*
X253785210Y-167980009D02*
X253821953Y-168019410D01*
X253821953Y-168019410D02*
X253896767Y-168060141D01*
X253896767Y-168060141D02*
X253972911Y-168062800D01*
X253972911Y-168062800D02*
X254050385Y-168027387D01*
X254050385Y-168027387D02*
X254089786Y-167990645D01*
X254089786Y-167990645D02*
X254130518Y-167915830D01*
X254130518Y-167915830D02*
X254173908Y-167764872D01*
X254173908Y-167764872D02*
X254180555Y-167574512D01*
X254180555Y-167574512D02*
X254147801Y-167420894D01*
X254147801Y-167420894D02*
X254112388Y-167343420D01*
X254112388Y-167343420D02*
X254075646Y-167304019D01*
X254075646Y-167304019D02*
X254000831Y-167263288D01*
X255495223Y-160491316D02*
X255952087Y-160507270D01*
X255723655Y-160499293D02*
X255751575Y-159699780D01*
X255751575Y-159699780D02*
X255823730Y-159816656D01*
X255823730Y-159816656D02*
X255897215Y-159895459D01*
X255897215Y-159895459D02*
X255972030Y-159936190D01*
X254733782Y-160464726D02*
X255190646Y-160480680D01*
X254962214Y-160472703D02*
X254990134Y-159673190D01*
X254990134Y-159673190D02*
X255062289Y-159790065D01*
X255062289Y-159790065D02*
X255135774Y-159868869D01*
X255135774Y-159868869D02*
X255210589Y-159909600D01*
X254038333Y-159639953D02*
X254419053Y-159653248D01*
X254419053Y-159653248D02*
X254443830Y-160035298D01*
X254443830Y-160035298D02*
X254407088Y-159995896D01*
X254407088Y-159995896D02*
X254332273Y-159955165D01*
X254332273Y-159955165D02*
X254141913Y-159948518D01*
X254141913Y-159948518D02*
X254064439Y-159983931D01*
X254064439Y-159983931D02*
X254025038Y-160020673D01*
X254025038Y-160020673D02*
X253984307Y-160095488D01*
X253984307Y-160095488D02*
X253977659Y-160285848D01*
X253977659Y-160285848D02*
X254013072Y-160363321D01*
X254013072Y-160363321D02*
X254049815Y-160402723D01*
X254049815Y-160402723D02*
X254124629Y-160443454D01*
X254124629Y-160443454D02*
X254314989Y-160450101D01*
X254314989Y-160450101D02*
X254392463Y-160414688D01*
X254392463Y-160414688D02*
X254431865Y-160377946D01*
X256055581Y-152085752D02*
X255979437Y-152083093D01*
X255979437Y-152083093D02*
X255901963Y-152118506D01*
X255901963Y-152118506D02*
X255862562Y-152155249D01*
X255862562Y-152155249D02*
X255821830Y-152230063D01*
X255821830Y-152230063D02*
X255778440Y-152381022D01*
X255778440Y-152381022D02*
X255771793Y-152571382D01*
X255771793Y-152571382D02*
X255804547Y-152724999D01*
X255804547Y-152724999D02*
X255839960Y-152802473D01*
X255839960Y-152802473D02*
X255876702Y-152841875D01*
X255876702Y-152841875D02*
X255951517Y-152882606D01*
X255951517Y-152882606D02*
X256027661Y-152885265D01*
X256027661Y-152885265D02*
X256105135Y-152849852D01*
X256105135Y-152849852D02*
X256144536Y-152813109D01*
X256144536Y-152813109D02*
X256185267Y-152738295D01*
X256185267Y-152738295D02*
X256228657Y-152587336D01*
X256228657Y-152587336D02*
X256235305Y-152396976D01*
X256235305Y-152396976D02*
X256202551Y-152243358D01*
X256202551Y-152243358D02*
X256167138Y-152165885D01*
X256167138Y-152165885D02*
X256130395Y-152126483D01*
X256130395Y-152126483D02*
X256055581Y-152085752D01*
X255522572Y-152067139D02*
X255027636Y-152049855D01*
X255027636Y-152049855D02*
X255283504Y-152363738D01*
X255283504Y-152363738D02*
X255169288Y-152359750D01*
X255169288Y-152359750D02*
X255091814Y-152395163D01*
X255091814Y-152395163D02*
X255052413Y-152431905D01*
X255052413Y-152431905D02*
X255011682Y-152506720D01*
X255011682Y-152506720D02*
X255005034Y-152697080D01*
X255005034Y-152697080D02*
X255040447Y-152774553D01*
X255040447Y-152774553D02*
X255077190Y-152813955D01*
X255077190Y-152813955D02*
X255152004Y-152854686D01*
X255152004Y-152854686D02*
X255380436Y-152862663D01*
X255380436Y-152862663D02*
X255457910Y-152827250D01*
X255457910Y-152827250D02*
X255497311Y-152790507D01*
X254238275Y-152822778D02*
X254695140Y-152838732D01*
X254466707Y-152830755D02*
X254494627Y-152031242D01*
X254494627Y-152031242D02*
X254566782Y-152148117D01*
X254566782Y-152148117D02*
X254640268Y-152226920D01*
X254640268Y-152226920D02*
X254715082Y-152267651D01*
X266474213Y-163416259D02*
X266931077Y-163432213D01*
X266702645Y-163424236D02*
X266730565Y-162624723D01*
X266730565Y-162624723D02*
X266802720Y-162741599D01*
X266802720Y-162741599D02*
X266876205Y-162820402D01*
X266876205Y-162820402D02*
X266951020Y-162861133D01*
X266007196Y-162599463D02*
X265931052Y-162596804D01*
X265931052Y-162596804D02*
X265853578Y-162632217D01*
X265853578Y-162632217D02*
X265814177Y-162668959D01*
X265814177Y-162668959D02*
X265773446Y-162743774D01*
X265773446Y-162743774D02*
X265730056Y-162894733D01*
X265730056Y-162894733D02*
X265723408Y-163085093D01*
X265723408Y-163085093D02*
X265756162Y-163238710D01*
X265756162Y-163238710D02*
X265791575Y-163316184D01*
X265791575Y-163316184D02*
X265828318Y-163355585D01*
X265828318Y-163355585D02*
X265903132Y-163396317D01*
X265903132Y-163396317D02*
X265979276Y-163398976D01*
X265979276Y-163398976D02*
X266056750Y-163363563D01*
X266056750Y-163363563D02*
X266096151Y-163326820D01*
X266096151Y-163326820D02*
X266136882Y-163252005D01*
X266136882Y-163252005D02*
X266180272Y-163101047D01*
X266180272Y-163101047D02*
X266186920Y-162910687D01*
X266186920Y-162910687D02*
X266154166Y-162757069D01*
X266154166Y-162757069D02*
X266118753Y-162679595D01*
X266118753Y-162679595D02*
X266082010Y-162640194D01*
X266082010Y-162640194D02*
X266007196Y-162599463D01*
X265245755Y-162572873D02*
X265169611Y-162570214D01*
X265169611Y-162570214D02*
X265092137Y-162605627D01*
X265092137Y-162605627D02*
X265052736Y-162642369D01*
X265052736Y-162642369D02*
X265012005Y-162717184D01*
X265012005Y-162717184D02*
X264968615Y-162868142D01*
X264968615Y-162868142D02*
X264961967Y-163058503D01*
X264961967Y-163058503D02*
X264994721Y-163212120D01*
X264994721Y-163212120D02*
X265030134Y-163289594D01*
X265030134Y-163289594D02*
X265066877Y-163328995D01*
X265066877Y-163328995D02*
X265141691Y-163369726D01*
X265141691Y-163369726D02*
X265217835Y-163372385D01*
X265217835Y-163372385D02*
X265295309Y-163336972D01*
X265295309Y-163336972D02*
X265334710Y-163300230D01*
X265334710Y-163300230D02*
X265375442Y-163225415D01*
X265375442Y-163225415D02*
X265418832Y-163074457D01*
X265418832Y-163074457D02*
X265425479Y-162884097D01*
X265425479Y-162884097D02*
X265392725Y-162730479D01*
X265392725Y-162730479D02*
X265357312Y-162653005D01*
X265357312Y-162653005D02*
X265320570Y-162613604D01*
X265320570Y-162613604D02*
X265245755Y-162572873D01*
X255406578Y-163029769D02*
X255863442Y-163045723D01*
X255635010Y-163037746D02*
X255662930Y-162238233D01*
X255662930Y-162238233D02*
X255735085Y-162355109D01*
X255735085Y-162355109D02*
X255808570Y-162433912D01*
X255808570Y-162433912D02*
X255883385Y-162474643D01*
X254645137Y-163003179D02*
X255102001Y-163019133D01*
X254873569Y-163011156D02*
X254901489Y-162211643D01*
X254901489Y-162211643D02*
X254973644Y-162328518D01*
X254973644Y-162328518D02*
X255047129Y-162407322D01*
X255047129Y-162407322D02*
X255121944Y-162448053D01*
X254406552Y-162194360D02*
X253911616Y-162177076D01*
X253911616Y-162177076D02*
X254167484Y-162490959D01*
X254167484Y-162490959D02*
X254053268Y-162486971D01*
X254053268Y-162486971D02*
X253975794Y-162522384D01*
X253975794Y-162522384D02*
X253936393Y-162559126D01*
X253936393Y-162559126D02*
X253895662Y-162633941D01*
X253895662Y-162633941D02*
X253889014Y-162824301D01*
X253889014Y-162824301D02*
X253924427Y-162901774D01*
X253924427Y-162901774D02*
X253961170Y-162941176D01*
X253961170Y-162941176D02*
X254035984Y-162981907D01*
X254035984Y-162981907D02*
X254264416Y-162989884D01*
X254264416Y-162989884D02*
X254341890Y-162954471D01*
X254341890Y-162954471D02*
X254381292Y-162917728D01*
X266944880Y-157579129D02*
X266868736Y-157576470D01*
X266868736Y-157576470D02*
X266791262Y-157611883D01*
X266791262Y-157611883D02*
X266751861Y-157648626D01*
X266751861Y-157648626D02*
X266711129Y-157723440D01*
X266711129Y-157723440D02*
X266667739Y-157874399D01*
X266667739Y-157874399D02*
X266661092Y-158064759D01*
X266661092Y-158064759D02*
X266693846Y-158218376D01*
X266693846Y-158218376D02*
X266729259Y-158295850D01*
X266729259Y-158295850D02*
X266766001Y-158335252D01*
X266766001Y-158335252D02*
X266840816Y-158375983D01*
X266840816Y-158375983D02*
X266916960Y-158378642D01*
X266916960Y-158378642D02*
X266994434Y-158343229D01*
X266994434Y-158343229D02*
X267033835Y-158306486D01*
X267033835Y-158306486D02*
X267074566Y-158231672D01*
X267074566Y-158231672D02*
X267117956Y-158080713D01*
X267117956Y-158080713D02*
X267124604Y-157890353D01*
X267124604Y-157890353D02*
X267091850Y-157736735D01*
X267091850Y-157736735D02*
X267056437Y-157659262D01*
X267056437Y-157659262D02*
X267019694Y-157619860D01*
X267019694Y-157619860D02*
X266944880Y-157579129D01*
X266371140Y-157635330D02*
X266334397Y-157595929D01*
X266334397Y-157595929D02*
X266259583Y-157555198D01*
X266259583Y-157555198D02*
X266069223Y-157548550D01*
X266069223Y-157548550D02*
X265991749Y-157583963D01*
X265991749Y-157583963D02*
X265952348Y-157620706D01*
X265952348Y-157620706D02*
X265911617Y-157695520D01*
X265911617Y-157695520D02*
X265908958Y-157771665D01*
X265908958Y-157771665D02*
X265943041Y-157887210D01*
X265943041Y-157887210D02*
X266383951Y-158360029D01*
X266383951Y-158360029D02*
X265889015Y-158342745D01*
X265609699Y-157608740D02*
X265572957Y-157569339D01*
X265572957Y-157569339D02*
X265498142Y-157528608D01*
X265498142Y-157528608D02*
X265307782Y-157521960D01*
X265307782Y-157521960D02*
X265230308Y-157557373D01*
X265230308Y-157557373D02*
X265190907Y-157594116D01*
X265190907Y-157594116D02*
X265150176Y-157668930D01*
X265150176Y-157668930D02*
X265147517Y-157745074D01*
X265147517Y-157745074D02*
X265181600Y-157860620D01*
X265181600Y-157860620D02*
X265622511Y-158333438D01*
X265622511Y-158333438D02*
X265127574Y-158316155D01*
X256410730Y-149556606D02*
X256116306Y-150346812D01*
X256116306Y-150346812D02*
X255877721Y-149537992D01*
X255129093Y-150236100D02*
X255165835Y-150275502D01*
X255165835Y-150275502D02*
X255278722Y-150317563D01*
X255278722Y-150317563D02*
X255354866Y-150320222D01*
X255354866Y-150320222D02*
X255470411Y-150286138D01*
X255470411Y-150286138D02*
X255549214Y-150212653D01*
X255549214Y-150212653D02*
X255589945Y-150137838D01*
X255589945Y-150137838D02*
X255633336Y-149986880D01*
X255633336Y-149986880D02*
X255637324Y-149872664D01*
X255637324Y-149872664D02*
X255604570Y-149719046D01*
X255604570Y-149719046D02*
X255569157Y-149641573D01*
X255569157Y-149641573D02*
X255495672Y-149562769D01*
X255495672Y-149562769D02*
X255382785Y-149520709D01*
X255382785Y-149520709D02*
X255306641Y-149518050D01*
X255306641Y-149518050D02*
X255191096Y-149552133D01*
X255191096Y-149552133D02*
X255151694Y-149588876D01*
X254329580Y-150208181D02*
X254366322Y-150247582D01*
X254366322Y-150247582D02*
X254479209Y-150289643D01*
X254479209Y-150289643D02*
X254555353Y-150292302D01*
X254555353Y-150292302D02*
X254670899Y-150258218D01*
X254670899Y-150258218D02*
X254749702Y-150184733D01*
X254749702Y-150184733D02*
X254790433Y-150109919D01*
X254790433Y-150109919D02*
X254833823Y-149958960D01*
X254833823Y-149958960D02*
X254837811Y-149844744D01*
X254837811Y-149844744D02*
X254805057Y-149691126D01*
X254805057Y-149691126D02*
X254769644Y-149613653D01*
X254769644Y-149613653D02*
X254696159Y-149534850D01*
X254696159Y-149534850D02*
X254583273Y-149492789D01*
X254583273Y-149492789D02*
X254507129Y-149490130D01*
X254507129Y-149490130D02*
X254391583Y-149524214D01*
X254391583Y-149524214D02*
X254352181Y-149560956D01*
X255317934Y-165568221D02*
X255774798Y-165584175D01*
X255546366Y-165576198D02*
X255574286Y-164776685D01*
X255574286Y-164776685D02*
X255646441Y-164893561D01*
X255646441Y-164893561D02*
X255719926Y-164972364D01*
X255719926Y-164972364D02*
X255794741Y-165013095D01*
X254556493Y-165541631D02*
X255013357Y-165557585D01*
X254784925Y-165549608D02*
X254812845Y-164750095D01*
X254812845Y-164750095D02*
X254885000Y-164866970D01*
X254885000Y-164866970D02*
X254958485Y-164945774D01*
X254958485Y-164945774D02*
X255033300Y-164986505D01*
X253795052Y-165515041D02*
X254251917Y-165530995D01*
X254023484Y-165523018D02*
X254051404Y-164723505D01*
X254051404Y-164723505D02*
X254123559Y-164840380D01*
X254123559Y-164840380D02*
X254197045Y-164919183D01*
X254197045Y-164919183D02*
X254271859Y-164959914D01*
X267391593Y-144786927D02*
X267315449Y-144784268D01*
X267315449Y-144784268D02*
X267237975Y-144819681D01*
X267237975Y-144819681D02*
X267198574Y-144856424D01*
X267198574Y-144856424D02*
X267157842Y-144931238D01*
X267157842Y-144931238D02*
X267114452Y-145082197D01*
X267114452Y-145082197D02*
X267107805Y-145272557D01*
X267107805Y-145272557D02*
X267140559Y-145426174D01*
X267140559Y-145426174D02*
X267175972Y-145503648D01*
X267175972Y-145503648D02*
X267212714Y-145543050D01*
X267212714Y-145543050D02*
X267287529Y-145583781D01*
X267287529Y-145583781D02*
X267363673Y-145586440D01*
X267363673Y-145586440D02*
X267441147Y-145551027D01*
X267441147Y-145551027D02*
X267480548Y-145514284D01*
X267480548Y-145514284D02*
X267521279Y-145439470D01*
X267521279Y-145439470D02*
X267564669Y-145288511D01*
X267564669Y-145288511D02*
X267571317Y-145098151D01*
X267571317Y-145098151D02*
X267538563Y-144944533D01*
X267538563Y-144944533D02*
X267503150Y-144867060D01*
X267503150Y-144867060D02*
X267466407Y-144827658D01*
X267466407Y-144827658D02*
X267391593Y-144786927D01*
X266630152Y-144760337D02*
X266554008Y-144757678D01*
X266554008Y-144757678D02*
X266476534Y-144793091D01*
X266476534Y-144793091D02*
X266437133Y-144829833D01*
X266437133Y-144829833D02*
X266396402Y-144904648D01*
X266396402Y-144904648D02*
X266353012Y-145055607D01*
X266353012Y-145055607D02*
X266346364Y-145245967D01*
X266346364Y-145245967D02*
X266379118Y-145399584D01*
X266379118Y-145399584D02*
X266414531Y-145477058D01*
X266414531Y-145477058D02*
X266451274Y-145516459D01*
X266451274Y-145516459D02*
X266526088Y-145557191D01*
X266526088Y-145557191D02*
X266602232Y-145559850D01*
X266602232Y-145559850D02*
X266679706Y-145524437D01*
X266679706Y-145524437D02*
X266719107Y-145487694D01*
X266719107Y-145487694D02*
X266759838Y-145412879D01*
X266759838Y-145412879D02*
X266803228Y-145261921D01*
X266803228Y-145261921D02*
X266809876Y-145071561D01*
X266809876Y-145071561D02*
X266777122Y-144917943D01*
X266777122Y-144917943D02*
X266741709Y-144840469D01*
X266741709Y-144840469D02*
X266704966Y-144801068D01*
X266704966Y-144801068D02*
X266630152Y-144760337D01*
X265894817Y-145077725D02*
X265972291Y-145042312D01*
X265972291Y-145042312D02*
X266011693Y-145005569D01*
X266011693Y-145005569D02*
X266052424Y-144930754D01*
X266052424Y-144930754D02*
X266053753Y-144892682D01*
X266053753Y-144892682D02*
X266018340Y-144815209D01*
X266018340Y-144815209D02*
X265981598Y-144775807D01*
X265981598Y-144775807D02*
X265906783Y-144735076D01*
X265906783Y-144735076D02*
X265754495Y-144729758D01*
X265754495Y-144729758D02*
X265677021Y-144765171D01*
X265677021Y-144765171D02*
X265637620Y-144801914D01*
X265637620Y-144801914D02*
X265596889Y-144876728D01*
X265596889Y-144876728D02*
X265595559Y-144914800D01*
X265595559Y-144914800D02*
X265630972Y-144992274D01*
X265630972Y-144992274D02*
X265667715Y-145031675D01*
X265667715Y-145031675D02*
X265742529Y-145072407D01*
X265742529Y-145072407D02*
X265894817Y-145077725D01*
X265894817Y-145077725D02*
X265969632Y-145118456D01*
X265969632Y-145118456D02*
X266006375Y-145157857D01*
X266006375Y-145157857D02*
X266041788Y-145235331D01*
X266041788Y-145235331D02*
X266036470Y-145387619D01*
X266036470Y-145387619D02*
X265995738Y-145462433D01*
X265995738Y-145462433D02*
X265956337Y-145499176D01*
X265956337Y-145499176D02*
X265878863Y-145534589D01*
X265878863Y-145534589D02*
X265726575Y-145529271D01*
X265726575Y-145529271D02*
X265651761Y-145488540D01*
X265651761Y-145488540D02*
X265615018Y-145449138D01*
X265615018Y-145449138D02*
X265579605Y-145371665D01*
X265579605Y-145371665D02*
X265584923Y-145219377D01*
X265584923Y-145219377D02*
X265625654Y-145144562D01*
X265625654Y-145144562D02*
X265665056Y-145107820D01*
X265665056Y-145107820D02*
X265742529Y-145072407D01*
X255878292Y-157162657D02*
X255802148Y-157159998D01*
X255802148Y-157159998D02*
X255724674Y-157195411D01*
X255724674Y-157195411D02*
X255685273Y-157232154D01*
X255685273Y-157232154D02*
X255644541Y-157306968D01*
X255644541Y-157306968D02*
X255601151Y-157457927D01*
X255601151Y-157457927D02*
X255594504Y-157648287D01*
X255594504Y-157648287D02*
X255627258Y-157801904D01*
X255627258Y-157801904D02*
X255662671Y-157879378D01*
X255662671Y-157879378D02*
X255699413Y-157918780D01*
X255699413Y-157918780D02*
X255774228Y-157959511D01*
X255774228Y-157959511D02*
X255850372Y-157962170D01*
X255850372Y-157962170D02*
X255927846Y-157926757D01*
X255927846Y-157926757D02*
X255967247Y-157890014D01*
X255967247Y-157890014D02*
X256007978Y-157815200D01*
X256007978Y-157815200D02*
X256051368Y-157664241D01*
X256051368Y-157664241D02*
X256058016Y-157473881D01*
X256058016Y-157473881D02*
X256025262Y-157320263D01*
X256025262Y-157320263D02*
X255989849Y-157242790D01*
X255989849Y-157242790D02*
X255953106Y-157203388D01*
X255953106Y-157203388D02*
X255878292Y-157162657D01*
X255116851Y-157136067D02*
X255040707Y-157133408D01*
X255040707Y-157133408D02*
X254963233Y-157168821D01*
X254963233Y-157168821D02*
X254923832Y-157205563D01*
X254923832Y-157205563D02*
X254883101Y-157280378D01*
X254883101Y-157280378D02*
X254839711Y-157431337D01*
X254839711Y-157431337D02*
X254833063Y-157621697D01*
X254833063Y-157621697D02*
X254865817Y-157775314D01*
X254865817Y-157775314D02*
X254901230Y-157852788D01*
X254901230Y-157852788D02*
X254937973Y-157892189D01*
X254937973Y-157892189D02*
X255012787Y-157932921D01*
X255012787Y-157932921D02*
X255088931Y-157935580D01*
X255088931Y-157935580D02*
X255166405Y-157900167D01*
X255166405Y-157900167D02*
X255205806Y-157863424D01*
X255205806Y-157863424D02*
X255246537Y-157788609D01*
X255246537Y-157788609D02*
X255289927Y-157637651D01*
X255289927Y-157637651D02*
X255296575Y-157447291D01*
X255296575Y-157447291D02*
X255263821Y-157293673D01*
X255263821Y-157293673D02*
X255228408Y-157216199D01*
X255228408Y-157216199D02*
X255191665Y-157176798D01*
X255191665Y-157176798D02*
X255116851Y-157136067D01*
X254543111Y-157192268D02*
X254506369Y-157152867D01*
X254506369Y-157152867D02*
X254431554Y-157112136D01*
X254431554Y-157112136D02*
X254241194Y-157105488D01*
X254241194Y-157105488D02*
X254163720Y-157140901D01*
X254163720Y-157140901D02*
X254124319Y-157177644D01*
X254124319Y-157177644D02*
X254083588Y-157252458D01*
X254083588Y-157252458D02*
X254080929Y-157328602D01*
X254080929Y-157328602D02*
X254115012Y-157444148D01*
X254115012Y-157444148D02*
X254555923Y-157916966D01*
X254555923Y-157916966D02*
X254060986Y-157899683D01*
X267032128Y-155080652D02*
X266955984Y-155077993D01*
X266955984Y-155077993D02*
X266878510Y-155113406D01*
X266878510Y-155113406D02*
X266839109Y-155150149D01*
X266839109Y-155150149D02*
X266798377Y-155224963D01*
X266798377Y-155224963D02*
X266754987Y-155375922D01*
X266754987Y-155375922D02*
X266748340Y-155566282D01*
X266748340Y-155566282D02*
X266781094Y-155719899D01*
X266781094Y-155719899D02*
X266816507Y-155797373D01*
X266816507Y-155797373D02*
X266853249Y-155836775D01*
X266853249Y-155836775D02*
X266928064Y-155877506D01*
X266928064Y-155877506D02*
X267004208Y-155880165D01*
X267004208Y-155880165D02*
X267081682Y-155844752D01*
X267081682Y-155844752D02*
X267121083Y-155808009D01*
X267121083Y-155808009D02*
X267161814Y-155733195D01*
X267161814Y-155733195D02*
X267205204Y-155582236D01*
X267205204Y-155582236D02*
X267211852Y-155391876D01*
X267211852Y-155391876D02*
X267179098Y-155238258D01*
X267179098Y-155238258D02*
X267143685Y-155160785D01*
X267143685Y-155160785D02*
X267106942Y-155121383D01*
X267106942Y-155121383D02*
X267032128Y-155080652D01*
X266458388Y-155136853D02*
X266421645Y-155097452D01*
X266421645Y-155097452D02*
X266346831Y-155056721D01*
X266346831Y-155056721D02*
X266156471Y-155050073D01*
X266156471Y-155050073D02*
X266078997Y-155085486D01*
X266078997Y-155085486D02*
X266039596Y-155122229D01*
X266039596Y-155122229D02*
X265998865Y-155197043D01*
X265998865Y-155197043D02*
X265996206Y-155273188D01*
X265996206Y-155273188D02*
X266030289Y-155388733D01*
X266030289Y-155388733D02*
X266471199Y-155861552D01*
X266471199Y-155861552D02*
X265976263Y-155844268D01*
X265509246Y-155027472D02*
X265433102Y-155024813D01*
X265433102Y-155024813D02*
X265355628Y-155060226D01*
X265355628Y-155060226D02*
X265316227Y-155096968D01*
X265316227Y-155096968D02*
X265275496Y-155171783D01*
X265275496Y-155171783D02*
X265232106Y-155322741D01*
X265232106Y-155322741D02*
X265225458Y-155513102D01*
X265225458Y-155513102D02*
X265258212Y-155666719D01*
X265258212Y-155666719D02*
X265293625Y-155744193D01*
X265293625Y-155744193D02*
X265330368Y-155783594D01*
X265330368Y-155783594D02*
X265405182Y-155824325D01*
X265405182Y-155824325D02*
X265481326Y-155826984D01*
X265481326Y-155826984D02*
X265558800Y-155791571D01*
X265558800Y-155791571D02*
X265598201Y-155754829D01*
X265598201Y-155754829D02*
X265638933Y-155680014D01*
X265638933Y-155680014D02*
X265682323Y-155529056D01*
X265682323Y-155529056D02*
X265688970Y-155338696D01*
X265688970Y-155338696D02*
X265656216Y-155185078D01*
X265656216Y-155185078D02*
X265620803Y-155107604D01*
X265620803Y-155107604D02*
X265584061Y-155068203D01*
X265584061Y-155068203D02*
X265509246Y-155027472D01*
X255966936Y-154624204D02*
X255890792Y-154621545D01*
X255890792Y-154621545D02*
X255813318Y-154656958D01*
X255813318Y-154656958D02*
X255773917Y-154693701D01*
X255773917Y-154693701D02*
X255733185Y-154768515D01*
X255733185Y-154768515D02*
X255689795Y-154919474D01*
X255689795Y-154919474D02*
X255683148Y-155109834D01*
X255683148Y-155109834D02*
X255715902Y-155263451D01*
X255715902Y-155263451D02*
X255751315Y-155340925D01*
X255751315Y-155340925D02*
X255788057Y-155380327D01*
X255788057Y-155380327D02*
X255862872Y-155421058D01*
X255862872Y-155421058D02*
X255939016Y-155423717D01*
X255939016Y-155423717D02*
X256016490Y-155388304D01*
X256016490Y-155388304D02*
X256055891Y-155351561D01*
X256055891Y-155351561D02*
X256096622Y-155276747D01*
X256096622Y-155276747D02*
X256140012Y-155125788D01*
X256140012Y-155125788D02*
X256146660Y-154935428D01*
X256146660Y-154935428D02*
X256113906Y-154781810D01*
X256113906Y-154781810D02*
X256078493Y-154704337D01*
X256078493Y-154704337D02*
X256041750Y-154664935D01*
X256041750Y-154664935D02*
X255966936Y-154624204D01*
X255393196Y-154680405D02*
X255356453Y-154641004D01*
X255356453Y-154641004D02*
X255281639Y-154600273D01*
X255281639Y-154600273D02*
X255091279Y-154593625D01*
X255091279Y-154593625D02*
X255013805Y-154629038D01*
X255013805Y-154629038D02*
X254974404Y-154665781D01*
X254974404Y-154665781D02*
X254933673Y-154740595D01*
X254933673Y-154740595D02*
X254931014Y-154816740D01*
X254931014Y-154816740D02*
X254965097Y-154932285D01*
X254965097Y-154932285D02*
X255406007Y-155405104D01*
X255406007Y-155405104D02*
X254911071Y-155387820D01*
X254530350Y-155374525D02*
X254378062Y-155369207D01*
X254378062Y-155369207D02*
X254303248Y-155328476D01*
X254303248Y-155328476D02*
X254266505Y-155289074D01*
X254266505Y-155289074D02*
X254194350Y-155172199D01*
X254194350Y-155172199D02*
X254161596Y-155018582D01*
X254161596Y-155018582D02*
X254172232Y-154714005D01*
X254172232Y-154714005D02*
X254212963Y-154639191D01*
X254212963Y-154639191D02*
X254252364Y-154602448D01*
X254252364Y-154602448D02*
X254329838Y-154567035D01*
X254329838Y-154567035D02*
X254482126Y-154572353D01*
X254482126Y-154572353D02*
X254556941Y-154613084D01*
X254556941Y-154613084D02*
X254593683Y-154652486D01*
X254593683Y-154652486D02*
X254629096Y-154729959D01*
X254629096Y-154729959D02*
X254622449Y-154920320D01*
X254622449Y-154920320D02*
X254581718Y-154995134D01*
X254581718Y-154995134D02*
X254542316Y-155031877D01*
X254542316Y-155031877D02*
X254464842Y-155067290D01*
X254464842Y-155067290D02*
X254312554Y-155061972D01*
X254312554Y-155061972D02*
X254237740Y-155021241D01*
X254237740Y-155021241D02*
X254200997Y-154981839D01*
X254200997Y-154981839D02*
X254165584Y-154904366D01*
X255792489Y-147793955D02*
X256072288Y-147422542D01*
X256249353Y-147809909D02*
X256277273Y-147010397D01*
X256277273Y-147010397D02*
X255972696Y-146999761D01*
X255972696Y-146999761D02*
X255895223Y-147035174D01*
X255895223Y-147035174D02*
X255855821Y-147071916D01*
X255855821Y-147071916D02*
X255815090Y-147146731D01*
X255815090Y-147146731D02*
X255811102Y-147260947D01*
X255811102Y-147260947D02*
X255846515Y-147338420D01*
X255846515Y-147338420D02*
X255883257Y-147377822D01*
X255883257Y-147377822D02*
X255958072Y-147418553D01*
X255958072Y-147418553D02*
X256262648Y-147429189D01*
X255489242Y-147745247D02*
X255373696Y-147779331D01*
X255373696Y-147779331D02*
X255183336Y-147772683D01*
X255183336Y-147772683D02*
X255108522Y-147731952D01*
X255108522Y-147731952D02*
X255071779Y-147692551D01*
X255071779Y-147692551D02*
X255036366Y-147615077D01*
X255036366Y-147615077D02*
X255039025Y-147538933D01*
X255039025Y-147538933D02*
X255079756Y-147464118D01*
X255079756Y-147464118D02*
X255119158Y-147427376D01*
X255119158Y-147427376D02*
X255196631Y-147391963D01*
X255196631Y-147391963D02*
X255350249Y-147359209D01*
X255350249Y-147359209D02*
X255427722Y-147323796D01*
X255427722Y-147323796D02*
X255467124Y-147287053D01*
X255467124Y-147287053D02*
X255507855Y-147212239D01*
X255507855Y-147212239D02*
X255510514Y-147136095D01*
X255510514Y-147136095D02*
X255475101Y-147058621D01*
X255475101Y-147058621D02*
X255438358Y-147019220D01*
X255438358Y-147019220D02*
X255363544Y-146978489D01*
X255363544Y-146978489D02*
X255173184Y-146971841D01*
X255173184Y-146971841D02*
X255057638Y-147005925D01*
X254830535Y-146959876D02*
X254373671Y-146943921D01*
X254574183Y-147751411D02*
X254602103Y-146951899D01*
X256198209Y-142725027D02*
X256478008Y-142353613D01*
X256655073Y-142740981D02*
X256682993Y-141941468D01*
X256682993Y-141941468D02*
X256378417Y-141930832D01*
X256378417Y-141930832D02*
X256300943Y-141966245D01*
X256300943Y-141966245D02*
X256261542Y-142002988D01*
X256261542Y-142002988D02*
X256220811Y-142077802D01*
X256220811Y-142077802D02*
X256216822Y-142192018D01*
X256216822Y-142192018D02*
X256252235Y-142269492D01*
X256252235Y-142269492D02*
X256288978Y-142308894D01*
X256288978Y-142308894D02*
X256363792Y-142349625D01*
X256363792Y-142349625D02*
X256668368Y-142360261D01*
X255901610Y-142485959D02*
X255520889Y-142472664D01*
X255969777Y-142717050D02*
X255731192Y-141908231D01*
X255731192Y-141908231D02*
X255436768Y-142698437D01*
X255274328Y-141892277D02*
X255056048Y-142685142D01*
X255056048Y-142685142D02*
X254923703Y-142108743D01*
X254923703Y-142108743D02*
X254751472Y-142674506D01*
X254751472Y-142674506D02*
X254589032Y-141868346D01*
X266296924Y-168493164D02*
X266753788Y-168509118D01*
X266525356Y-168501141D02*
X266553276Y-167701628D01*
X266553276Y-167701628D02*
X266625431Y-167818504D01*
X266625431Y-167818504D02*
X266698916Y-167897307D01*
X266698916Y-167897307D02*
X266773731Y-167938038D01*
X265829907Y-167676368D02*
X265753763Y-167673709D01*
X265753763Y-167673709D02*
X265676289Y-167709122D01*
X265676289Y-167709122D02*
X265636888Y-167745864D01*
X265636888Y-167745864D02*
X265596157Y-167820679D01*
X265596157Y-167820679D02*
X265552767Y-167971638D01*
X265552767Y-167971638D02*
X265546119Y-168161998D01*
X265546119Y-168161998D02*
X265578873Y-168315615D01*
X265578873Y-168315615D02*
X265614286Y-168393089D01*
X265614286Y-168393089D02*
X265651029Y-168432490D01*
X265651029Y-168432490D02*
X265725843Y-168473222D01*
X265725843Y-168473222D02*
X265801987Y-168475881D01*
X265801987Y-168475881D02*
X265879461Y-168440468D01*
X265879461Y-168440468D02*
X265918862Y-168403725D01*
X265918862Y-168403725D02*
X265959593Y-168328910D01*
X265959593Y-168328910D02*
X266002983Y-168177952D01*
X266002983Y-168177952D02*
X266009631Y-167987592D01*
X266009631Y-167987592D02*
X265976877Y-167833974D01*
X265976877Y-167833974D02*
X265941464Y-167756500D01*
X265941464Y-167756500D02*
X265904721Y-167717099D01*
X265904721Y-167717099D02*
X265829907Y-167676368D01*
X264868799Y-167909634D02*
X264850186Y-168442643D01*
X265069795Y-167611706D02*
X265240213Y-168189434D01*
X265240213Y-168189434D02*
X264745277Y-168172150D01*
X266944027Y-149962554D02*
X267021500Y-149927141D01*
X267021500Y-149927141D02*
X267135716Y-149931130D01*
X267135716Y-149931130D02*
X267248603Y-149973190D01*
X267248603Y-149973190D02*
X267322088Y-150051994D01*
X267322088Y-150051994D02*
X267357501Y-150129467D01*
X267357501Y-150129467D02*
X267390255Y-150283085D01*
X267390255Y-150283085D02*
X267386266Y-150397301D01*
X267386266Y-150397301D02*
X267342876Y-150548259D01*
X267342876Y-150548259D02*
X267302145Y-150623074D01*
X267302145Y-150623074D02*
X267223342Y-150696559D01*
X267223342Y-150696559D02*
X267107797Y-150730643D01*
X267107797Y-150730643D02*
X267031653Y-150727984D01*
X267031653Y-150727984D02*
X266918766Y-150685923D01*
X266918766Y-150685923D02*
X266882023Y-150646522D01*
X266882023Y-150646522D02*
X266891330Y-150380017D01*
X266891330Y-150380017D02*
X267043618Y-150385335D01*
X266536716Y-150710700D02*
X266564636Y-149911187D01*
X266564636Y-149911187D02*
X266079852Y-150694746D01*
X266079852Y-150694746D02*
X266107771Y-149895233D01*
X265699132Y-150681451D02*
X265727051Y-149881938D01*
X265727051Y-149881938D02*
X265536691Y-149875291D01*
X265536691Y-149875291D02*
X265421146Y-149909374D01*
X265421146Y-149909374D02*
X265342342Y-149982859D01*
X265342342Y-149982859D02*
X265301611Y-150057674D01*
X265301611Y-150057674D02*
X265258221Y-150208633D01*
X265258221Y-150208633D02*
X265254233Y-150322849D01*
X265254233Y-150322849D02*
X265286987Y-150476466D01*
X265286987Y-150476466D02*
X265322400Y-150553940D01*
X265322400Y-150553940D02*
X265395885Y-150632743D01*
X265395885Y-150632743D02*
X265508772Y-150674803D01*
X265508772Y-150674803D02*
X265699132Y-150681451D01*
X267477795Y-142318431D02*
X267401651Y-142315772D01*
X267401651Y-142315772D02*
X267324177Y-142351185D01*
X267324177Y-142351185D02*
X267284776Y-142387928D01*
X267284776Y-142387928D02*
X267244044Y-142462742D01*
X267244044Y-142462742D02*
X267200654Y-142613701D01*
X267200654Y-142613701D02*
X267194007Y-142804061D01*
X267194007Y-142804061D02*
X267226761Y-142957678D01*
X267226761Y-142957678D02*
X267262174Y-143035152D01*
X267262174Y-143035152D02*
X267298916Y-143074554D01*
X267298916Y-143074554D02*
X267373731Y-143115285D01*
X267373731Y-143115285D02*
X267449875Y-143117944D01*
X267449875Y-143117944D02*
X267527349Y-143082531D01*
X267527349Y-143082531D02*
X267566750Y-143045788D01*
X267566750Y-143045788D02*
X267607481Y-142970974D01*
X267607481Y-142970974D02*
X267650871Y-142820015D01*
X267650871Y-142820015D02*
X267657519Y-142629655D01*
X267657519Y-142629655D02*
X267624765Y-142476037D01*
X267624765Y-142476037D02*
X267589352Y-142398564D01*
X267589352Y-142398564D02*
X267552609Y-142359162D01*
X267552609Y-142359162D02*
X267477795Y-142318431D01*
X266716354Y-142291841D02*
X266640210Y-142289182D01*
X266640210Y-142289182D02*
X266562736Y-142324595D01*
X266562736Y-142324595D02*
X266523335Y-142361337D01*
X266523335Y-142361337D02*
X266482604Y-142436152D01*
X266482604Y-142436152D02*
X266439214Y-142587111D01*
X266439214Y-142587111D02*
X266432566Y-142777471D01*
X266432566Y-142777471D02*
X266465320Y-142931088D01*
X266465320Y-142931088D02*
X266500733Y-143008562D01*
X266500733Y-143008562D02*
X266537476Y-143047963D01*
X266537476Y-143047963D02*
X266612290Y-143088695D01*
X266612290Y-143088695D02*
X266688434Y-143091354D01*
X266688434Y-143091354D02*
X266765908Y-143055941D01*
X266765908Y-143055941D02*
X266805309Y-143019198D01*
X266805309Y-143019198D02*
X266846040Y-142944383D01*
X266846040Y-142944383D02*
X266889430Y-142793425D01*
X266889430Y-142793425D02*
X266896078Y-142603065D01*
X266896078Y-142603065D02*
X266863324Y-142449447D01*
X266863324Y-142449447D02*
X266827911Y-142371973D01*
X266827911Y-142371973D02*
X266791168Y-142332572D01*
X266791168Y-142332572D02*
X266716354Y-142291841D01*
X265764553Y-142258603D02*
X265916841Y-142263921D01*
X265916841Y-142263921D02*
X265991655Y-142304652D01*
X265991655Y-142304652D02*
X266028398Y-142344054D01*
X266028398Y-142344054D02*
X266100554Y-142460929D01*
X266100554Y-142460929D02*
X266133308Y-142614547D01*
X266133308Y-142614547D02*
X266122672Y-142919123D01*
X266122672Y-142919123D02*
X266081940Y-142993937D01*
X266081940Y-142993937D02*
X266042539Y-143030680D01*
X266042539Y-143030680D02*
X265965065Y-143066093D01*
X265965065Y-143066093D02*
X265812777Y-143060775D01*
X265812777Y-143060775D02*
X265737963Y-143020044D01*
X265737963Y-143020044D02*
X265701220Y-142980642D01*
X265701220Y-142980642D02*
X265665807Y-142903169D01*
X265665807Y-142903169D02*
X265672455Y-142712809D01*
X265672455Y-142712809D02*
X265713186Y-142637994D01*
X265713186Y-142637994D02*
X265752587Y-142601252D01*
X265752587Y-142601252D02*
X265830061Y-142565839D01*
X265830061Y-142565839D02*
X265982349Y-142571157D01*
X265982349Y-142571157D02*
X266057164Y-142611888D01*
X266057164Y-142611888D02*
X266093906Y-142651289D01*
X266093906Y-142651289D02*
X266129319Y-142728763D01*
X266857282Y-160087600D02*
X266781138Y-160084941D01*
X266781138Y-160084941D02*
X266703664Y-160120354D01*
X266703664Y-160120354D02*
X266664263Y-160157097D01*
X266664263Y-160157097D02*
X266623531Y-160231911D01*
X266623531Y-160231911D02*
X266580141Y-160382870D01*
X266580141Y-160382870D02*
X266573494Y-160573230D01*
X266573494Y-160573230D02*
X266606248Y-160726847D01*
X266606248Y-160726847D02*
X266641661Y-160804321D01*
X266641661Y-160804321D02*
X266678403Y-160843723D01*
X266678403Y-160843723D02*
X266753218Y-160884454D01*
X266753218Y-160884454D02*
X266829362Y-160887113D01*
X266829362Y-160887113D02*
X266906836Y-160851700D01*
X266906836Y-160851700D02*
X266946237Y-160814957D01*
X266946237Y-160814957D02*
X266986968Y-160740143D01*
X266986968Y-160740143D02*
X267030358Y-160589184D01*
X267030358Y-160589184D02*
X267037006Y-160398824D01*
X267037006Y-160398824D02*
X267004252Y-160245206D01*
X267004252Y-160245206D02*
X266968839Y-160167733D01*
X266968839Y-160167733D02*
X266932096Y-160128331D01*
X266932096Y-160128331D02*
X266857282Y-160087600D01*
X266283542Y-160143801D02*
X266246799Y-160104400D01*
X266246799Y-160104400D02*
X266171985Y-160063669D01*
X266171985Y-160063669D02*
X265981625Y-160057021D01*
X265981625Y-160057021D02*
X265904151Y-160092434D01*
X265904151Y-160092434D02*
X265864750Y-160129177D01*
X265864750Y-160129177D02*
X265824019Y-160203991D01*
X265824019Y-160203991D02*
X265821360Y-160280136D01*
X265821360Y-160280136D02*
X265855443Y-160395681D01*
X265855443Y-160395681D02*
X266296353Y-160868500D01*
X266296353Y-160868500D02*
X265801417Y-160851216D01*
X265134733Y-160294276D02*
X265116120Y-160827285D01*
X265335729Y-159996348D02*
X265506147Y-160574076D01*
X265506147Y-160574076D02*
X265011211Y-160556792D01*
D11*
%TO.C,MCU1*%
X251225191Y-171416655D02*
X268994360Y-172037168D01*
X252377573Y-138416770D02*
X251225191Y-171416655D01*
X268994360Y-172037168D02*
X270146746Y-139037283D01*
X270146746Y-139037283D02*
X252377573Y-138416770D01*
D12*
%TO.C,D11*%
X205524683Y-120924035D02*
X205923161Y-120958896D01*
X205923161Y-120958896D02*
X205875225Y-121506805D01*
X205923161Y-120958896D02*
X205971097Y-120410990D01*
X205923161Y-120958896D02*
X206555740Y-120612713D01*
X206486015Y-121409669D02*
X205923161Y-120958896D01*
X206520878Y-121011191D02*
X207018975Y-121054769D01*
X206555740Y-120612713D02*
X206486015Y-121409669D01*
%TO.C,D3*%
X150263757Y-165707765D02*
X150663757Y-165707765D01*
X150663757Y-165707765D02*
X150663757Y-165157765D01*
X150663757Y-165707765D02*
X150663757Y-166257765D01*
X150663757Y-165707765D02*
X151263757Y-165307765D01*
X151263757Y-165307765D02*
X151263757Y-166107765D01*
X151263757Y-165707765D02*
X151763757Y-165707765D01*
X151263757Y-166107765D02*
X150663757Y-165707765D01*
%TO.C,D14*%
X225630348Y-121718478D02*
X226030348Y-121718478D01*
X226030348Y-121718478D02*
X226030348Y-121168478D01*
X226030348Y-121718478D02*
X226030348Y-122268478D01*
X226030348Y-121718478D02*
X226630348Y-121318478D01*
X226630348Y-121318478D02*
X226630348Y-122118478D01*
X226630348Y-121718478D02*
X227130348Y-121718478D01*
X226630348Y-122118478D02*
X226030348Y-121718478D01*
%TO.C,D16*%
X249797704Y-205985148D02*
X250188963Y-206068313D01*
X250188963Y-206068313D02*
X250074612Y-206606294D01*
X250188963Y-206068313D02*
X250303315Y-205530332D01*
X250188963Y-206068313D02*
X250859017Y-205801801D01*
X250692687Y-206584319D02*
X250188963Y-206068313D01*
X250775852Y-206193060D02*
X251264926Y-206297016D01*
X250859017Y-205801801D02*
X250692687Y-206584319D01*
%TO.C,D9*%
X202212765Y-158779433D02*
X202611243Y-158814294D01*
X202611243Y-158814294D02*
X202563307Y-159362203D01*
X202611243Y-158814294D02*
X202659179Y-158266388D01*
X202611243Y-158814294D02*
X203243822Y-158468111D01*
X203174097Y-159265067D02*
X202611243Y-158814294D01*
X203208960Y-158866589D02*
X203707057Y-158910167D01*
X203243822Y-158468111D02*
X203174097Y-159265067D01*
%TO.C,D18*%
X272763006Y-212803459D02*
X273138883Y-212940267D01*
X273138883Y-212940267D02*
X272950772Y-213457098D01*
X273138883Y-212940267D02*
X273326994Y-212423436D01*
X273138883Y-212940267D02*
X273839506Y-212769602D01*
X273565890Y-213521356D02*
X273138883Y-212940267D01*
X273702698Y-213145479D02*
X274172544Y-213316489D01*
X273839506Y-212769602D02*
X273565890Y-213521356D01*
%TO.C,D17*%
X252883671Y-185242957D02*
X253283427Y-185256917D01*
X253283427Y-185256917D02*
X253264232Y-185806582D01*
X253283427Y-185256917D02*
X253302622Y-184707252D01*
X253283427Y-185256917D02*
X253897026Y-184878101D01*
X253869102Y-185677613D02*
X253283427Y-185256917D01*
X253883062Y-185277857D02*
X254382757Y-185295307D01*
X253897026Y-184878101D02*
X253869102Y-185677613D01*
%TO.C,D1*%
X131010742Y-183942195D02*
X131373265Y-183773147D01*
X131373265Y-183773147D02*
X131140825Y-183274678D01*
X131373265Y-183773147D02*
X131605705Y-184271617D01*
X131373265Y-183773147D02*
X131748003Y-183157053D01*
X131748003Y-183157053D02*
X132086097Y-183882100D01*
X131917050Y-183519576D02*
X132370204Y-183308267D01*
X132086097Y-183882100D02*
X131373265Y-183773147D01*
%TO.C,D4*%
X150263757Y-146707765D02*
X150663757Y-146707765D01*
X150663757Y-146707765D02*
X150663757Y-146157765D01*
X150663757Y-146707765D02*
X150663757Y-147257765D01*
X150663757Y-146707765D02*
X151263757Y-146307765D01*
X151263757Y-146307765D02*
X151263757Y-147107765D01*
X151263757Y-146707765D02*
X151763757Y-146707765D01*
X151263757Y-147107765D02*
X150663757Y-146707765D01*
%TO.C,D6*%
X176263757Y-155707765D02*
X176663757Y-155707765D01*
X176663757Y-155707765D02*
X176663757Y-155157765D01*
X176663757Y-155707765D02*
X176663757Y-156257765D01*
X176663757Y-155707765D02*
X177263757Y-155307765D01*
X177263757Y-155307765D02*
X177263757Y-156107765D01*
X177263757Y-155707765D02*
X177763757Y-155707765D01*
X177263757Y-156107765D02*
X176663757Y-155707765D01*
%TO.C,D12*%
X221712074Y-161408326D02*
X222105997Y-161477785D01*
X222105997Y-161477785D02*
X222010491Y-162019429D01*
X222105997Y-161477785D02*
X222201504Y-160936141D01*
X222105997Y-161477785D02*
X222766341Y-161188051D01*
X222627423Y-161975897D02*
X222105997Y-161477785D01*
X222696882Y-161581974D02*
X223189286Y-161668798D01*
X222766341Y-161188051D02*
X222627423Y-161975897D01*
%TO.C,D10*%
X203868724Y-139851734D02*
X204267202Y-139886595D01*
X204267202Y-139886595D02*
X204219266Y-140434504D01*
X204267202Y-139886595D02*
X204315138Y-139338689D01*
X204267202Y-139886595D02*
X204899781Y-139540412D01*
X204830056Y-140337368D02*
X204267202Y-139886595D01*
X204864919Y-139938890D02*
X205363016Y-139982468D01*
X204899781Y-139540412D02*
X204830056Y-140337368D01*
%TO.C,D2*%
X122905945Y-165013358D02*
X123281822Y-164876550D01*
X123281822Y-164876550D02*
X123093711Y-164359719D01*
X123281822Y-164876550D02*
X123469933Y-165393381D01*
X123281822Y-164876550D02*
X123708829Y-164295461D01*
X123708829Y-164295461D02*
X123982445Y-165047215D01*
X123845637Y-164671338D02*
X124315483Y-164500328D01*
X123982445Y-165047215D02*
X123281822Y-164876550D01*
%TO.C,D8*%
X176263757Y-117707765D02*
X176663757Y-117707765D01*
X176663757Y-117707765D02*
X176663757Y-117157765D01*
X176663757Y-117707765D02*
X176663757Y-118257765D01*
X176663757Y-117707765D02*
X177263757Y-117307765D01*
X177263757Y-117307765D02*
X177263757Y-118107765D01*
X177263757Y-117707765D02*
X177763757Y-117707765D01*
X177263757Y-118107765D02*
X176663757Y-117707765D01*
%TO.C,D13*%
X224537659Y-141648940D02*
X224936137Y-141683801D01*
X224936137Y-141683801D02*
X224888201Y-142231710D01*
X224936137Y-141683801D02*
X224984073Y-141135895D01*
X224936137Y-141683801D02*
X225568716Y-141337618D01*
X225498991Y-142134574D02*
X224936137Y-141683801D01*
X225533854Y-141736096D02*
X226031951Y-141779674D01*
X225568716Y-141337618D02*
X225498991Y-142134574D01*
%TO.C,D15*%
X225536637Y-201976621D02*
X225935115Y-202011482D01*
X225935115Y-202011482D02*
X225887179Y-202559391D01*
X225935115Y-202011482D02*
X225983051Y-201463576D01*
X225935115Y-202011482D02*
X226567694Y-201665299D01*
X226497969Y-202462255D02*
X225935115Y-202011482D01*
X226532832Y-202063777D02*
X227030929Y-202107355D01*
X226567694Y-201665299D02*
X226497969Y-202462255D01*
%TO.C,D7*%
X176263757Y-136707765D02*
X176663757Y-136707765D01*
X176663757Y-136707765D02*
X176663757Y-136157765D01*
X176663757Y-136707765D02*
X176663757Y-137257765D01*
X176663757Y-136707765D02*
X177263757Y-136307765D01*
X177263757Y-136307765D02*
X177263757Y-137107765D01*
X177263757Y-136707765D02*
X177763757Y-136707765D01*
X177263757Y-137107765D02*
X176663757Y-136707765D01*
%TO.C,D5*%
X150263757Y-127707765D02*
X150663757Y-127707765D01*
X150663757Y-127707765D02*
X150663757Y-127157765D01*
X150663757Y-127707765D02*
X150663757Y-128257765D01*
X150663757Y-127707765D02*
X151263757Y-127307765D01*
X151263757Y-127307765D02*
X151263757Y-128107765D01*
X151263757Y-127707765D02*
X151763757Y-127707765D01*
X151263757Y-128107765D02*
X150663757Y-127707765D01*
%TD*%
D13*
%TO.C,MCU1*%
X268744548Y-142800639D03*
X268655903Y-145339092D03*
X268567259Y-147877545D03*
X268478614Y-150415997D03*
X268389969Y-152954450D03*
X268301324Y-155492903D03*
X268212680Y-158031356D03*
X268124035Y-160569808D03*
X268035390Y-163108261D03*
X267946746Y-165646714D03*
X267858101Y-168185166D03*
X267769456Y-170723619D03*
X252538740Y-170191751D03*
X252627385Y-167653298D03*
X252716029Y-165114845D03*
X252804674Y-162576393D03*
X252893319Y-160037940D03*
X252981964Y-157499487D03*
X253070608Y-154961034D03*
X253159253Y-152422582D03*
X253247898Y-149884129D03*
X253336542Y-147345676D03*
X253425187Y-144807224D03*
X253513832Y-142268771D03*
%TD*%
M02*
