%TF.GenerationSoftware,KiCad,Pcbnew,8.0.6*%
%TF.CreationDate,2025-01-06T03:54:34-07:00*%
%TF.ProjectId,left_circuit,6c656674-5f63-4697-9263-7569742e6b69,v1.0.0*%
%TF.SameCoordinates,Original*%
%TF.FileFunction,Copper,L2,Bot*%
%TF.FilePolarity,Positive*%
%FSLAX46Y46*%
G04 Gerber Fmt 4.6, Leading zero omitted, Abs format (unit mm)*
G04 Created by KiCad (PCBNEW 8.0.6) date 2025-01-06 03:54:34*
%MOMM*%
%LPD*%
G01*
G04 APERTURE LIST*
G04 Aperture macros list*
%AMHorizOval*
0 Thick line with rounded ends*
0 $1 width*
0 $2 $3 position (X,Y) of the first rounded end (center of the circle)*
0 $4 $5 position (X,Y) of the second rounded end (center of the circle)*
0 Add line between two ends*
20,1,$1,$2,$3,$4,$5,0*
0 Add two circle primitives to create the rounded ends*
1,1,$1,$2,$3*
1,1,$1,$4,$5*%
%AMRotRect*
0 Rectangle, with rotation*
0 The origin of the aperture is its center*
0 $1 length*
0 $2 width*
0 $3 Rotation angle, in degrees counterclockwise*
0 Add horizontal line*
21,1,$1,$2,0,0,$3*%
G04 Aperture macros list end*
%TA.AperFunction,WasherPad*%
%ADD10C,1.000000*%
%TD*%
%TA.AperFunction,ComponentPad*%
%ADD11RotRect,1.200000X1.700000X88.000000*%
%TD*%
%TA.AperFunction,ComponentPad*%
%ADD12HorizOval,1.200000X-0.249848X0.008725X0.249848X-0.008725X0*%
%TD*%
%TA.AperFunction,ComponentPad*%
%ADD13C,1.752600*%
%TD*%
%TA.AperFunction,SMDPad,CuDef*%
%ADD14RotRect,2.600000X2.600000X25.000000*%
%TD*%
%TA.AperFunction,ComponentPad*%
%ADD15RotRect,1.778000X1.778000X355.000000*%
%TD*%
%TA.AperFunction,SMDPad,CuDef*%
%ADD16RotRect,0.900000X1.200000X355.000000*%
%TD*%
%TA.AperFunction,ComponentPad*%
%ADD17C,1.905000*%
%TD*%
%TA.AperFunction,SMDPad,CuDef*%
%ADD18RotRect,2.600000X2.600000X350.000000*%
%TD*%
%TA.AperFunction,SMDPad,CuDef*%
%ADD19R,2.600000X2.600000*%
%TD*%
%TA.AperFunction,SMDPad,CuDef*%
%ADD20RotRect,2.600000X2.600000X355.000000*%
%TD*%
%TA.AperFunction,ComponentPad*%
%ADD21R,1.778000X1.778000*%
%TD*%
%TA.AperFunction,SMDPad,CuDef*%
%ADD22R,0.900000X1.200000*%
%TD*%
%TA.AperFunction,ComponentPad*%
%ADD23RotRect,1.778000X1.778000X348.000000*%
%TD*%
%TA.AperFunction,SMDPad,CuDef*%
%ADD24RotRect,0.900000X1.200000X348.000000*%
%TD*%
%TA.AperFunction,ComponentPad*%
%ADD25RotRect,1.778000X1.778000X340.000000*%
%TD*%
%TA.AperFunction,SMDPad,CuDef*%
%ADD26RotRect,0.900000X1.200000X340.000000*%
%TD*%
%TA.AperFunction,ComponentPad*%
%ADD27RotRect,1.778000X1.778000X358.000000*%
%TD*%
%TA.AperFunction,SMDPad,CuDef*%
%ADD28RotRect,0.900000X1.200000X358.000000*%
%TD*%
%TA.AperFunction,SMDPad,CuDef*%
%ADD29RotRect,2.600000X2.600000X340.000000*%
%TD*%
%TA.AperFunction,SMDPad,CuDef*%
%ADD30RotRect,2.600000X2.600000X348.000000*%
%TD*%
%TA.AperFunction,ComponentPad*%
%ADD31RotRect,1.778000X1.778000X25.000000*%
%TD*%
%TA.AperFunction,SMDPad,CuDef*%
%ADD32RotRect,0.900000X1.200000X25.000000*%
%TD*%
%TA.AperFunction,ComponentPad*%
%ADD33RotRect,1.778000X1.778000X350.000000*%
%TD*%
%TA.AperFunction,SMDPad,CuDef*%
%ADD34RotRect,0.900000X1.200000X350.000000*%
%TD*%
%TA.AperFunction,ComponentPad*%
%ADD35RotRect,1.778000X1.778000X20.000000*%
%TD*%
%TA.AperFunction,SMDPad,CuDef*%
%ADD36RotRect,0.900000X1.200000X20.000000*%
%TD*%
%TA.AperFunction,SMDPad,CuDef*%
%ADD37RotRect,2.600000X2.600000X358.000000*%
%TD*%
%TA.AperFunction,SMDPad,CuDef*%
%ADD38RotRect,2.600000X2.600000X20.000000*%
%TD*%
%TA.AperFunction,ViaPad*%
%ADD39C,0.600000*%
%TD*%
%TA.AperFunction,ViaPad*%
%ADD40C,0.800000*%
%TD*%
%TA.AperFunction,Conductor*%
%ADD41C,0.200000*%
%TD*%
%TA.AperFunction,Conductor*%
%ADD42C,0.250000*%
%TD*%
G04 APERTURE END LIST*
D10*
%TO.P,T1,*%
%TO.N,*%
X246454778Y-140535302D03*
X249452950Y-140640000D03*
%TD*%
D11*
%TO.P,JST1,1*%
%TO.N,pos*%
X238536594Y-176173887D03*
D12*
%TO.P,JST1,2*%
%TO.N,GND*%
X238606392Y-174175105D03*
%TD*%
D13*
%TO.P,MCU1,1*%
%TO.N,P006*%
X268744548Y-142800639D03*
%TO.P,MCU1,2*%
%TO.N,P008*%
X268655903Y-145339092D03*
%TO.P,MCU1,3*%
%TO.N,GND*%
X268567259Y-147877545D03*
%TO.P,MCU1,4*%
X268478614Y-150415997D03*
%TO.P,MCU1,5*%
%TO.N,P017*%
X268389969Y-152954450D03*
%TO.P,MCU1,6*%
%TO.N,P020*%
X268301324Y-155492903D03*
%TO.P,MCU1,7*%
%TO.N,P022*%
X268212680Y-158031356D03*
%TO.P,MCU1,8*%
%TO.N,P024*%
X268124035Y-160569808D03*
%TO.P,MCU1,9*%
%TO.N,P100*%
X268035390Y-163108261D03*
%TO.P,MCU1,10*%
%TO.N,P011*%
X267946746Y-165646714D03*
%TO.P,MCU1,11*%
%TO.N,P104*%
X267858101Y-168185166D03*
%TO.P,MCU1,12*%
%TO.N,P106*%
X267769456Y-170723619D03*
%TO.P,MCU1,13*%
%TO.N,P009*%
X252538740Y-170191751D03*
%TO.P,MCU1,14*%
%TO.N,P010*%
X252627385Y-167653298D03*
%TO.P,MCU1,15*%
%TO.N,P111*%
X252716029Y-165114845D03*
%TO.P,MCU1,16*%
%TO.N,P113*%
X252804674Y-162576393D03*
%TO.P,MCU1,17*%
%TO.N,P115*%
X252893319Y-160037940D03*
%TO.P,MCU1,18*%
%TO.N,P002*%
X252981964Y-157499487D03*
%TO.P,MCU1,19*%
%TO.N,P029*%
X253070608Y-154961034D03*
%TO.P,MCU1,20*%
%TO.N,P031*%
X253159253Y-152422582D03*
%TO.P,MCU1,21*%
%TO.N,VCC*%
X253247898Y-149884129D03*
%TO.P,MCU1,22*%
%TO.N,RST*%
X253336542Y-147345676D03*
%TO.P,MCU1,23*%
%TO.N,GND*%
X253425187Y-144807224D03*
%TO.P,MCU1,24*%
%TO.N,RAW*%
X253513832Y-142268771D03*
%TD*%
D14*
%TO.P,S1,1*%
%TO.N,one_bottom*%
X124517263Y-175991543D03*
%TO.P,S1,2*%
%TO.N,P113*%
X135914878Y-173104180D03*
%TD*%
D15*
%TO.P,D11,1*%
%TO.N,P031*%
X202476327Y-120657339D03*
D16*
X204628108Y-120845595D03*
%TO.P,D11,2*%
%TO.N,four_top*%
X207915550Y-121133209D03*
D17*
X210067331Y-121321465D03*
%TD*%
D18*
%TO.P,S12,1*%
%TO.N,inner_bottom*%
X220953233Y-151171027D03*
%TO.P,S12,2*%
%TO.N,P022*%
X231945737Y-155343241D03*
%TD*%
D19*
%TO.P,S6,1*%
%TO.N,three_bottom*%
X173738757Y-145757765D03*
%TO.P,S6,2*%
%TO.N,P029*%
X185288757Y-147957765D03*
%TD*%
D20*
%TO.P,S10,1*%
%TO.N,four_home*%
X202220532Y-129719528D03*
%TO.P,S10,2*%
%TO.N,P002*%
X213534838Y-132917806D03*
%TD*%
%TO.P,S9,1*%
%TO.N,four_bottom*%
X200564573Y-148647227D03*
%TO.P,S9,2*%
%TO.N,P002*%
X211878879Y-151845505D03*
%TD*%
D21*
%TO.P,D3,1*%
%TO.N,P100*%
X147203757Y-165707765D03*
D22*
X149363757Y-165707765D03*
%TO.P,D3,2*%
%TO.N,two_bottom*%
X152663757Y-165707765D03*
D17*
X154823757Y-165707765D03*
%TD*%
D21*
%TO.P,D14,1*%
%TO.N,P031*%
X222570348Y-121718478D03*
D22*
X224730348Y-121718478D03*
%TO.P,D14,2*%
%TO.N,inner_top*%
X228030348Y-121718478D03*
D17*
X230190348Y-121718478D03*
%TD*%
D20*
%TO.P,S13,1*%
%TO.N,inner_home*%
X222889467Y-131516734D03*
%TO.P,S13,2*%
%TO.N,P022*%
X234203773Y-134715012D03*
%TD*%
D19*
%TO.P,S3,1*%
%TO.N,two_bottom*%
X147738757Y-155757765D03*
%TO.P,S3,2*%
%TO.N,P115*%
X159288757Y-157957765D03*
%TD*%
D23*
%TO.P,D16,1*%
%TO.N,P100*%
X246804573Y-205348937D03*
D24*
X248917371Y-205798028D03*
%TO.P,D16,2*%
%TO.N,thumb_bottom*%
X252145259Y-206484136D03*
D17*
X254258057Y-206933227D03*
%TD*%
D15*
%TO.P,D9,1*%
%TO.N,P100*%
X199164409Y-158512737D03*
D16*
X201316190Y-158700993D03*
%TO.P,D9,2*%
%TO.N,four_bottom*%
X204603632Y-158988607D03*
D17*
X206755413Y-159176863D03*
%TD*%
D19*
%TO.P,S5,1*%
%TO.N,two_top*%
X147738757Y-117757765D03*
%TO.P,S5,2*%
%TO.N,P115*%
X159288757Y-119957765D03*
%TD*%
D25*
%TO.P,D18,1*%
%TO.N,P100*%
X269887546Y-211756877D03*
D26*
X271917282Y-212495641D03*
%TO.P,D18,2*%
%TO.N,thumb-outer_bottom*%
X275018268Y-213624307D03*
D17*
X277048004Y-214363071D03*
%TD*%
D27*
%TO.P,D17,1*%
%TO.N,P024*%
X249825535Y-185136165D03*
D28*
X251984219Y-185211548D03*
%TO.P,D17,2*%
%TO.N,thumb_home*%
X255282209Y-185326716D03*
D17*
X257440893Y-185402099D03*
%TD*%
D29*
%TO.P,S18,1*%
%TO.N,thumb-outer_bottom*%
X273793383Y-202589916D03*
%TO.P,S18,2*%
%TO.N,P104*%
X283894388Y-208607572D03*
%TD*%
D30*
%TO.P,S16,1*%
%TO.N,thumb_bottom*%
X249396603Y-195727603D03*
%TO.P,S16,2*%
%TO.N,P010*%
X260236802Y-200280908D03*
%TD*%
D19*
%TO.P,S7,1*%
%TO.N,three_home*%
X173738757Y-126757765D03*
%TO.P,S7,2*%
%TO.N,P029*%
X185288757Y-128957765D03*
%TD*%
D20*
%TO.P,S15,1*%
%TO.N,thumb-inner_bottom*%
X223888445Y-191844415D03*
%TO.P,S15,2*%
%TO.N,P111*%
X235202751Y-195042693D03*
%TD*%
D31*
%TO.P,D1,1*%
%TO.N,P100*%
X128237440Y-185235407D03*
D32*
X130195065Y-184322551D03*
%TO.P,D1,2*%
%TO.N,one_bottom*%
X133185881Y-182927911D03*
D17*
X135143506Y-182015055D03*
%TD*%
D20*
%TO.P,S11,1*%
%TO.N,four_top*%
X203876491Y-110791829D03*
%TO.P,S11,2*%
%TO.N,P002*%
X215190797Y-113990107D03*
%TD*%
D19*
%TO.P,S8,1*%
%TO.N,three_top*%
X173738757Y-107757765D03*
%TO.P,S8,2*%
%TO.N,P029*%
X185288757Y-109957765D03*
%TD*%
D21*
%TO.P,D4,1*%
%TO.N,P024*%
X147203757Y-146707765D03*
D22*
X149363757Y-146707765D03*
%TO.P,D4,2*%
%TO.N,two_home*%
X152663757Y-146707765D03*
D17*
X154823757Y-146707765D03*
%TD*%
D21*
%TO.P,D6,1*%
%TO.N,P100*%
X173203757Y-155707765D03*
D22*
X175363757Y-155707765D03*
%TO.P,D6,2*%
%TO.N,three_bottom*%
X178663757Y-155707765D03*
D17*
X180823757Y-155707765D03*
%TD*%
D33*
%TO.P,D12,1*%
%TO.N,P100*%
X218698560Y-160876962D03*
D34*
X220825747Y-161252043D03*
%TO.P,D12,2*%
%TO.N,inner_bottom*%
X224075613Y-161825081D03*
D17*
X226202800Y-162200162D03*
%TD*%
D15*
%TO.P,D10,1*%
%TO.N,P024*%
X200820368Y-139585038D03*
D16*
X202972149Y-139773294D03*
%TO.P,D10,2*%
%TO.N,four_home*%
X206259591Y-140060908D03*
D17*
X208411372Y-140249164D03*
%TD*%
D35*
%TO.P,D2,1*%
%TO.N,P024*%
X120030485Y-166059940D03*
D36*
X122060221Y-165321176D03*
%TO.P,D2,2*%
%TO.N,one_home*%
X125161207Y-164192510D03*
D17*
X127190943Y-163453746D03*
%TD*%
D21*
%TO.P,D8,1*%
%TO.N,P031*%
X173203757Y-117707765D03*
D22*
X175363757Y-117707765D03*
%TO.P,D8,2*%
%TO.N,three_top*%
X178663757Y-117707765D03*
D17*
X180823757Y-117707765D03*
%TD*%
D15*
%TO.P,D13,1*%
%TO.N,P024*%
X221489303Y-141382244D03*
D16*
X223641084Y-141570500D03*
%TO.P,D13,2*%
%TO.N,inner_home*%
X226928526Y-141858114D03*
D17*
X229080307Y-142046370D03*
%TD*%
D19*
%TO.P,S14,1*%
%TO.N,inner_top*%
X223105348Y-111768478D03*
%TO.P,S14,2*%
%TO.N,P022*%
X234655348Y-113968478D03*
%TD*%
D37*
%TO.P,S17,1*%
%TO.N,thumb_home*%
X250707459Y-175210898D03*
%TO.P,S17,2*%
%TO.N,P010*%
X262173644Y-177812647D03*
%TD*%
D38*
%TO.P,S2,1*%
%TO.N,one_home*%
X117130120Y-156527017D03*
%TO.P,S2,2*%
%TO.N,P113*%
X128736014Y-154644008D03*
%TD*%
D19*
%TO.P,S4,1*%
%TO.N,two_home*%
X147738757Y-136757765D03*
%TO.P,S4,2*%
%TO.N,P115*%
X159288757Y-138957765D03*
%TD*%
D15*
%TO.P,D15,1*%
%TO.N,P100*%
X222488281Y-201709925D03*
D16*
X224640062Y-201898181D03*
%TO.P,D15,2*%
%TO.N,thumb-inner_bottom*%
X227927504Y-202185795D03*
D17*
X230079285Y-202374051D03*
%TD*%
D21*
%TO.P,D7,1*%
%TO.N,P024*%
X173203757Y-136707765D03*
D22*
X175363757Y-136707765D03*
%TO.P,D7,2*%
%TO.N,three_home*%
X178663757Y-136707765D03*
D17*
X180823757Y-136707765D03*
%TD*%
D21*
%TO.P,D5,1*%
%TO.N,P031*%
X147203757Y-127707765D03*
D22*
X149363757Y-127707765D03*
%TO.P,D5,2*%
%TO.N,two_top*%
X152663757Y-127707765D03*
D17*
X154823757Y-127707765D03*
%TD*%
D39*
%TO.N,GND*%
X244000000Y-152000000D03*
%TO.N,pos*%
X241000000Y-155000000D03*
X250000000Y-144250000D03*
D40*
%TO.N,P115*%
X201000000Y-157000000D03*
X249000000Y-160000000D03*
X224000000Y-160000000D03*
%TO.N,P029*%
X247000000Y-154000000D03*
X210000000Y-146000000D03*
%TD*%
D41*
%TO.N,GND*%
X251192776Y-144807224D02*
X253425187Y-144807224D01*
X244000000Y-152000000D02*
X251192776Y-144807224D01*
%TO.N,pos*%
X241000000Y-153250000D02*
X241000000Y-155000000D01*
X250000000Y-144250000D02*
X241000000Y-153250000D01*
D42*
%TO.N,one_bottom*%
X124517263Y-175991543D02*
X124517263Y-179517263D01*
X133185881Y-182927911D02*
X134230650Y-182927911D01*
X127927911Y-182927911D02*
X133185881Y-182927911D01*
X124517263Y-179517263D02*
X127927911Y-182927911D01*
X134230650Y-182927911D02*
X135143506Y-182015055D01*
%TO.N,P113*%
X249190534Y-165000000D02*
X251614141Y-162576393D01*
X135914878Y-160439441D02*
X135914878Y-173104180D01*
X128736014Y-154644008D02*
X130119445Y-154644008D01*
X135914878Y-173104180D02*
X152895820Y-173104180D01*
X130119445Y-154644008D02*
X135914878Y-160439441D01*
X161000000Y-165000000D02*
X249190534Y-165000000D01*
X251614141Y-162576393D02*
X252804674Y-162576393D01*
X152895820Y-173104180D02*
X161000000Y-165000000D01*
%TO.N,one_home*%
X117130120Y-160130120D02*
X121192510Y-164192510D01*
X126452179Y-164192510D02*
X127190943Y-163453746D01*
X117130120Y-156527017D02*
X117130120Y-160130120D01*
X121192510Y-164192510D02*
X125161207Y-164192510D01*
X125161207Y-164192510D02*
X126452179Y-164192510D01*
%TO.N,two_bottom*%
X147738757Y-155757765D02*
X147738757Y-161482765D01*
X152663757Y-165707765D02*
X154823757Y-165707765D01*
X147738757Y-161482765D02*
X151963757Y-165707765D01*
X151963757Y-165707765D02*
X152663757Y-165707765D01*
%TO.N,P115*%
X224000000Y-160000000D02*
X249000000Y-160000000D01*
X199000000Y-157000000D02*
X201000000Y-157000000D01*
X159288757Y-138957765D02*
X159288757Y-119957765D01*
X160246522Y-157000000D02*
X199000000Y-157000000D01*
X159288757Y-157957765D02*
X160246522Y-157000000D01*
X159288757Y-157957765D02*
X159288757Y-138957765D01*
%TO.N,two_home*%
X147738757Y-142482765D02*
X151963757Y-146707765D01*
X151963757Y-146707765D02*
X152663757Y-146707765D01*
X147738757Y-136757765D02*
X147738757Y-142482765D01*
X152663757Y-146707765D02*
X154823757Y-146707765D01*
%TO.N,two_top*%
X152663757Y-127707765D02*
X154823757Y-127707765D01*
X147738757Y-123387764D02*
X152058758Y-127707765D01*
X152058758Y-127707765D02*
X152663757Y-127707765D01*
X147738757Y-117757765D02*
X147738757Y-123387764D01*
%TO.N,three_bottom*%
X177963757Y-155707765D02*
X178663757Y-155707765D01*
X173738757Y-145757765D02*
X173738757Y-151482765D01*
X173738757Y-151482765D02*
X177963757Y-155707765D01*
X178663757Y-155707765D02*
X180823757Y-155707765D01*
%TO.N,P029*%
X185288757Y-109957765D02*
X185288757Y-128957765D01*
X185288757Y-147957765D02*
X187246522Y-146000000D01*
X247961034Y-154961034D02*
X253070608Y-154961034D01*
X247000000Y-154000000D02*
X247961034Y-154961034D01*
X206000000Y-146000000D02*
X210000000Y-146000000D01*
X185288757Y-128957765D02*
X185288757Y-147957765D01*
X187246522Y-146000000D02*
X206000000Y-146000000D01*
%TO.N,three_home*%
X177963757Y-136707765D02*
X178663757Y-136707765D01*
X173738757Y-132482765D02*
X177963757Y-136707765D01*
X173738757Y-126757765D02*
X173738757Y-132482765D01*
X178663757Y-136707765D02*
X180823757Y-136707765D01*
%TO.N,three_top*%
X177883262Y-117707765D02*
X178663757Y-117707765D01*
X173738757Y-113563260D02*
X177883262Y-117707765D01*
X178663757Y-117707765D02*
X180823757Y-117707765D01*
X173738757Y-107757765D02*
X173738757Y-113563260D01*
%TO.N,four_bottom*%
X206567157Y-158988607D02*
X206755413Y-159176863D01*
X200564573Y-148647227D02*
X200564573Y-155401267D01*
X204603632Y-158988607D02*
X206567157Y-158988607D01*
X204151913Y-158988607D02*
X204603632Y-158988607D01*
X200564573Y-155401267D02*
X204151913Y-158988607D01*
%TO.N,P002*%
X211878879Y-134573765D02*
X213534838Y-132917806D01*
X246481451Y-164000000D02*
X252981964Y-157499487D01*
X211878879Y-151845505D02*
X211878879Y-134573765D01*
X211878879Y-156878879D02*
X219000000Y-164000000D01*
X215190797Y-129809203D02*
X215190797Y-113990107D01*
X213534838Y-131465162D02*
X215190797Y-129809203D01*
X213534838Y-132917806D02*
X213534838Y-131465162D01*
X211878879Y-151845505D02*
X211878879Y-156878879D01*
X219000000Y-164000000D02*
X246481451Y-164000000D01*
%TO.N,four_home*%
X202220532Y-136473568D02*
X205807872Y-140060908D01*
X205807872Y-140060908D02*
X206259591Y-140060908D01*
X206259591Y-140060908D02*
X208223116Y-140060908D01*
X202220532Y-129719528D02*
X202220532Y-136473568D01*
X208223116Y-140060908D02*
X208411372Y-140249164D01*
%TO.N,four_top*%
X203876491Y-117876491D02*
X207133209Y-121133209D01*
X207915550Y-121133209D02*
X209879075Y-121133209D01*
X209879075Y-121133209D02*
X210067331Y-121321465D01*
X207133209Y-121133209D02*
X207915550Y-121133209D01*
X203876491Y-110791829D02*
X203876491Y-117876491D01*
%TO.N,inner_bottom*%
X225827717Y-161825081D02*
X226202798Y-162200162D01*
X220953233Y-151171027D02*
X220953233Y-158702701D01*
X224075613Y-161825081D02*
X225827717Y-161825081D01*
X220953233Y-158702701D02*
X224075613Y-161825081D01*
%TO.N,P022*%
X234655348Y-113968478D02*
X234655348Y-134263437D01*
X234203773Y-153085205D02*
X231945737Y-155343241D01*
X231945737Y-155343241D02*
X232764830Y-156162334D01*
X234655348Y-134263437D02*
X234203773Y-134715012D01*
X234203773Y-134715012D02*
X234203773Y-153085205D01*
X232764830Y-156162334D02*
X266343658Y-156162334D01*
X266343658Y-156162334D02*
X268212680Y-158031356D01*
%TO.N,inner_home*%
X228892051Y-141858114D02*
X229080307Y-142046370D01*
X225858114Y-141858114D02*
X226928526Y-141858114D01*
X222889467Y-138889467D02*
X225858114Y-141858114D01*
X222889467Y-131516734D02*
X222889467Y-138889467D01*
X226928526Y-141858114D02*
X228892051Y-141858114D01*
%TO.N,inner_top*%
X226718478Y-121718478D02*
X228030348Y-121718478D01*
X223105348Y-111768478D02*
X223105348Y-118105348D01*
X223105348Y-118105348D02*
X226718478Y-121718478D01*
X228030348Y-121718478D02*
X230190348Y-121718478D01*
%TO.N,thumb-inner_bottom*%
X223888445Y-198888445D02*
X227185795Y-202185795D01*
X227185795Y-202185795D02*
X227927504Y-202185795D01*
X223888445Y-191844415D02*
X223888445Y-198888445D01*
X227927504Y-202185795D02*
X229891029Y-202185795D01*
X229891029Y-202185795D02*
X230079285Y-202374051D01*
%TO.N,P111*%
X235202751Y-186797249D02*
X251337440Y-170662560D01*
X235202751Y-195042693D02*
X235202751Y-186797249D01*
X251337440Y-167244348D02*
X252716029Y-165865759D01*
X252716029Y-165865759D02*
X252716029Y-165114845D01*
X251337440Y-170662560D02*
X251337440Y-167244348D01*
%TO.N,thumb_bottom*%
X252145259Y-206484136D02*
X253808967Y-206484136D01*
X249000000Y-196124206D02*
X249000000Y-203338877D01*
X249000000Y-203338877D02*
X252145259Y-206484136D01*
X253808967Y-206484136D02*
X254258057Y-206933226D01*
X249396603Y-195727603D02*
X249000000Y-196124206D01*
%TO.N,P010*%
X260236802Y-200280908D02*
X262173644Y-198344066D01*
X260236802Y-200280908D02*
X260236802Y-184700671D01*
X256000000Y-180463869D02*
X256000000Y-171025913D01*
X260236802Y-184700671D02*
X256000000Y-180463869D01*
X262173644Y-198344066D02*
X262173644Y-177812647D01*
X256000000Y-171025913D02*
X252627385Y-167653298D01*
%TO.N,thumb_home*%
X254326716Y-185326716D02*
X255282209Y-185326716D01*
X250707459Y-175210898D02*
X250707459Y-181707459D01*
X255282209Y-185326716D02*
X257365510Y-185326716D01*
X250707459Y-181707459D02*
X254326716Y-185326716D01*
X257365510Y-185326716D02*
X257440893Y-185402099D01*
%TO.N,thumb-outer_bottom*%
X273000000Y-211000000D02*
X273000000Y-211606039D01*
X272000000Y-210000000D02*
X273000000Y-211000000D01*
X272000000Y-204383299D02*
X272000000Y-210000000D01*
X273000000Y-211606039D02*
X275018268Y-213624307D01*
X275018268Y-213981732D02*
X275399607Y-214363071D01*
X275018268Y-213624307D02*
X275018268Y-213981732D01*
X273793383Y-202589916D02*
X272000000Y-204383299D01*
X275399607Y-214363071D02*
X277048004Y-214363071D01*
%TO.N,P104*%
X264558091Y-171485176D02*
X267858101Y-168185166D01*
X264558091Y-193705936D02*
X264558091Y-171485176D01*
X270852155Y-200000000D02*
X264558091Y-193705936D01*
X276670247Y-200000000D02*
X270852155Y-200000000D01*
X283894388Y-208607572D02*
X283894388Y-207224141D01*
X283894388Y-207224141D02*
X276670247Y-200000000D01*
%TO.N,P031*%
X175363757Y-117707765D02*
X173203757Y-117707765D01*
X204628108Y-120845595D02*
X202664583Y-120845595D01*
X149363757Y-127707765D02*
X147203757Y-127707765D01*
X202664583Y-120845595D02*
X202476327Y-120657339D01*
X224730348Y-121718478D02*
X222570348Y-121718478D01*
%TO.N,P024*%
X221677559Y-141570500D02*
X221489303Y-141382244D01*
X251984219Y-185211548D02*
X249900918Y-185211548D01*
X223641084Y-141570500D02*
X221677559Y-141570500D01*
X121321457Y-166059940D02*
X122060221Y-165321176D01*
X249900918Y-185211548D02*
X249825535Y-185136165D01*
X120030485Y-166059940D02*
X121321457Y-166059940D01*
X202972149Y-139773294D02*
X201008624Y-139773294D01*
X201008624Y-139773294D02*
X200820368Y-139585038D01*
X147203757Y-146707765D02*
X149363757Y-146707765D01*
X173203757Y-136707765D02*
X175363757Y-136707765D01*
%TO.N,P100*%
X219073643Y-161252043D02*
X218698562Y-160876962D01*
X248917371Y-205798028D02*
X247253663Y-205798028D01*
X129150296Y-184322551D02*
X128237440Y-185235407D01*
X199352665Y-158700993D02*
X199164409Y-158512737D01*
X224640062Y-201898181D02*
X222676537Y-201898181D01*
X271917282Y-212495641D02*
X270626310Y-212495641D01*
X175363757Y-155707765D02*
X173203757Y-155707765D01*
X222676537Y-201898181D02*
X222488281Y-201709925D01*
X270626310Y-212495641D02*
X269887546Y-211756877D01*
X220825747Y-161252043D02*
X219073643Y-161252043D01*
X130195065Y-184322551D02*
X129150296Y-184322551D01*
X149363757Y-165707765D02*
X147203757Y-165707765D01*
X247253663Y-205798028D02*
X246804573Y-205348938D01*
X201316190Y-158700993D02*
X199352665Y-158700993D01*
%TD*%
M02*
