M48
; DRILL file {KiCad 8.0.6} date 2025-01-06T03:54:33-0700
; FORMAT={-:-/ absolute / inch / decimal}
; #@! TF.CreationDate,2025-01-06T03:54:33-07:00
; #@! TF.GenerationSoftware,Kicad,Pcbnew,8.0.6
; #@! TF.FileFunction,NonPlated,1,2,NPTH
FMAT,2
INCH
; #@! TA.AperFunction,NonPlated,NPTH,ComponentDrill
T1C0.0354
; #@! TA.AperFunction,NonPlated,NPTH,ComponentDrill
T2C0.0670
; #@! TA.AperFunction,NonPlated,NPTH,ComponentDrill
T3C0.0866
; #@! TA.AperFunction,NonPlated,NPTH,ComponentDrill
T4C0.1181
; #@! TA.AperFunction,NonPlated,NPTH,ComponentDrill
T5C0.1350
%
G90
G05
T1
X9.7029Y-5.5329
X9.821Y-5.537
T2
X4.6092Y-6.4126
X4.9219Y-7.1781
X5.0162Y-6.2644
X5.3144Y-6.9951
X5.7289Y-4.8704
X5.7289Y-5.6184
X5.7289Y-6.3664
X6.162Y-4.8704
X6.162Y-5.6184
X6.162Y-6.3664
X6.7525Y-4.4767
X6.7525Y-5.2247
X6.7525Y-5.9727
X7.1856Y-4.4767
X7.1856Y-5.2247
X7.1856Y-5.9727
X7.7886Y-6.078
X7.8538Y-5.3328
X7.919Y-4.5876
X8.22Y-6.1157
X8.2852Y-5.3705
X8.3504Y-4.6254
X8.572Y-6.1671
X8.6675Y-5.4036
X8.6961Y-4.6346
X8.7068Y-7.7787
X8.9985Y-6.2423
X9.0989Y-5.4413
X9.1291Y-4.6346
X9.1382Y-7.8164
X9.6844Y-7.9167
X9.7747Y-7.1291
X10.108Y-8.0068
X10.2075Y-7.1442
X10.6168Y-8.1661
X11.0238Y-8.3143
T3
X4.2028Y-6.1886
X4.9362Y-7.822
X5.5417Y-4.4543
X6.2077Y-6.8298
X6.3646Y-8.1583
X6.4504Y-5.2992
X7.5807Y-4.1295
X8.4776Y-5.3858
X8.6083Y-6.6831
X9.3468Y-8.2437
X9.3772Y-4.239
X9.387Y-5.4272
X9.6185Y-6.6406
X10.5795Y-6.9283
X10.73Y-5.5149
X11.1091Y-8.7457
X11.385Y-7.9626
T4
X4.7326Y-6.1184
X4.9472Y-6.1324
X5.0191Y-6.8743
X5.2341Y-6.8696
X5.9454Y-4.6361
X5.9454Y-5.3842
X5.9454Y-6.1322
X6.1423Y-4.7227
X6.1423Y-5.4708
X6.1423Y-6.2188
X6.969Y-4.2424
X6.969Y-4.9905
X6.969Y-5.7385
X7.1659Y-4.329
X7.1659Y-5.0771
X7.1659Y-5.8251
X8.0247Y-5.8635
X8.0899Y-5.1183
X8.1551Y-4.3731
X8.2132Y-5.9669
X8.2784Y-5.2217
X8.3436Y-4.4766
X8.8259Y-5.974
X8.9036Y-5.1891
X8.9126Y-4.4003
X8.943Y-7.5642
X9.0047Y-6.0935
X9.0922Y-5.2925
X9.1095Y-4.4869
X9.1315Y-7.6676
X9.9449Y-7.7326
X9.9992Y-6.9026
X10.1194Y-7.8583
X10.1929Y-6.996
X10.9004Y-8.0201
X11.0558Y-8.1688
T5
X4.8127Y-6.3385
X5.1181Y-7.0866
X5.9454Y-4.8704
X5.9454Y-5.6184
X5.9454Y-6.3664
X6.969Y-4.4767
X6.969Y-5.2247
X6.969Y-5.9727
X8.0043Y-6.0969
X8.0695Y-5.3517
X8.1347Y-4.6065
X8.7852Y-6.2047
X8.8832Y-5.4224
X8.9126Y-4.6346
X8.9225Y-7.7975
X9.8962Y-7.9618
X9.9911Y-7.1367
X10.8203Y-8.2402
M30
