%TF.GenerationSoftware,KiCad,Pcbnew,8.0.6*%
%TF.CreationDate,2025-01-06T03:54:34-07:00*%
%TF.ProjectId,left_circuit,6c656674-5f63-4697-9263-7569742e6b69,v1.0.0*%
%TF.SameCoordinates,Original*%
%TF.FileFunction,Paste,Bot*%
%TF.FilePolarity,Positive*%
%FSLAX46Y46*%
G04 Gerber Fmt 4.6, Leading zero omitted, Abs format (unit mm)*
G04 Created by KiCad (PCBNEW 8.0.6) date 2025-01-06 03:54:34*
%MOMM*%
%LPD*%
G01*
G04 APERTURE LIST*
G04 Aperture macros list*
%AMRotRect*
0 Rectangle, with rotation*
0 The origin of the aperture is its center*
0 $1 length*
0 $2 width*
0 $3 Rotation angle, in degrees counterclockwise*
0 Add horizontal line*
21,1,$1,$2,0,0,$3*%
G04 Aperture macros list end*
%ADD10RotRect,2.600000X2.600000X25.000000*%
%ADD11RotRect,0.900000X1.200000X355.000000*%
%ADD12RotRect,2.600000X2.600000X350.000000*%
%ADD13R,2.600000X2.600000*%
%ADD14RotRect,2.600000X2.600000X355.000000*%
%ADD15R,0.900000X1.200000*%
%ADD16RotRect,0.900000X1.200000X348.000000*%
%ADD17RotRect,0.900000X1.200000X340.000000*%
%ADD18RotRect,0.900000X1.200000X358.000000*%
%ADD19RotRect,2.600000X2.600000X340.000000*%
%ADD20RotRect,2.600000X2.600000X348.000000*%
%ADD21RotRect,0.900000X1.200000X25.000000*%
%ADD22RotRect,0.900000X1.200000X350.000000*%
%ADD23RotRect,0.900000X1.200000X20.000000*%
%ADD24RotRect,2.600000X2.600000X358.000000*%
%ADD25RotRect,2.600000X2.600000X20.000000*%
G04 APERTURE END LIST*
D10*
%TO.C,S1*%
X124517263Y-175991543D03*
X135914878Y-173104180D03*
%TD*%
D11*
%TO.C,D11*%
X204628108Y-120845595D03*
X207915550Y-121133209D03*
%TD*%
D12*
%TO.C,S12*%
X220953233Y-151171027D03*
X231945737Y-155343241D03*
%TD*%
D13*
%TO.C,S6*%
X173738757Y-145757765D03*
X185288757Y-147957765D03*
%TD*%
D14*
%TO.C,S10*%
X202220532Y-129719528D03*
X213534838Y-132917806D03*
%TD*%
%TO.C,S9*%
X200564573Y-148647227D03*
X211878879Y-151845505D03*
%TD*%
D15*
%TO.C,D3*%
X149363757Y-165707765D03*
X152663757Y-165707765D03*
%TD*%
%TO.C,D14*%
X224730348Y-121718478D03*
X228030348Y-121718478D03*
%TD*%
D14*
%TO.C,S13*%
X222889467Y-131516734D03*
X234203773Y-134715012D03*
%TD*%
D13*
%TO.C,S3*%
X147738757Y-155757765D03*
X159288757Y-157957765D03*
%TD*%
D16*
%TO.C,D16*%
X248917371Y-205798028D03*
X252145259Y-206484136D03*
%TD*%
D11*
%TO.C,D9*%
X201316190Y-158700993D03*
X204603632Y-158988607D03*
%TD*%
D13*
%TO.C,S5*%
X147738757Y-117757765D03*
X159288757Y-119957765D03*
%TD*%
D17*
%TO.C,D18*%
X271917282Y-212495641D03*
X275018268Y-213624307D03*
%TD*%
D18*
%TO.C,D17*%
X251984219Y-185211548D03*
X255282209Y-185326716D03*
%TD*%
D19*
%TO.C,S18*%
X273793383Y-202589916D03*
X283894388Y-208607572D03*
%TD*%
D20*
%TO.C,S16*%
X249396603Y-195727603D03*
X260236802Y-200280908D03*
%TD*%
D13*
%TO.C,S7*%
X173738757Y-126757765D03*
X185288757Y-128957765D03*
%TD*%
D14*
%TO.C,S15*%
X223888445Y-191844415D03*
X235202751Y-195042693D03*
%TD*%
D21*
%TO.C,D1*%
X130195065Y-184322551D03*
X133185881Y-182927911D03*
%TD*%
D14*
%TO.C,S11*%
X203876491Y-110791829D03*
X215190797Y-113990107D03*
%TD*%
D13*
%TO.C,S8*%
X173738757Y-107757765D03*
X185288757Y-109957765D03*
%TD*%
D15*
%TO.C,D4*%
X149363757Y-146707765D03*
X152663757Y-146707765D03*
%TD*%
%TO.C,D6*%
X175363757Y-155707765D03*
X178663757Y-155707765D03*
%TD*%
D22*
%TO.C,D12*%
X220825747Y-161252043D03*
X224075613Y-161825081D03*
%TD*%
D11*
%TO.C,D10*%
X202972149Y-139773294D03*
X206259591Y-140060908D03*
%TD*%
D23*
%TO.C,D2*%
X122060221Y-165321176D03*
X125161207Y-164192510D03*
%TD*%
D15*
%TO.C,D8*%
X175363757Y-117707765D03*
X178663757Y-117707765D03*
%TD*%
D11*
%TO.C,D13*%
X223641084Y-141570500D03*
X226928526Y-141858114D03*
%TD*%
D13*
%TO.C,S14*%
X223105348Y-111768478D03*
X234655348Y-113968478D03*
%TD*%
D24*
%TO.C,S17*%
X250707459Y-175210898D03*
X262173644Y-177812647D03*
%TD*%
D25*
%TO.C,S2*%
X117130120Y-156527017D03*
X128736014Y-154644008D03*
%TD*%
D13*
%TO.C,S4*%
X147738757Y-136757765D03*
X159288757Y-138957765D03*
%TD*%
D11*
%TO.C,D15*%
X224640062Y-201898181D03*
X227927504Y-202185795D03*
%TD*%
D15*
%TO.C,D7*%
X175363757Y-136707765D03*
X178663757Y-136707765D03*
%TD*%
%TO.C,D5*%
X149363757Y-127707765D03*
X152663757Y-127707765D03*
%TD*%
M02*
