%TF.GenerationSoftware,KiCad,Pcbnew,8.0.6*%
%TF.CreationDate,2025-01-06T03:54:34-07:00*%
%TF.ProjectId,left_circuit,6c656674-5f63-4697-9263-7569742e6b69,v1.0.0*%
%TF.SameCoordinates,Original*%
%TF.FileFunction,Soldermask,Bot*%
%TF.FilePolarity,Negative*%
%FSLAX46Y46*%
G04 Gerber Fmt 4.6, Leading zero omitted, Abs format (unit mm)*
G04 Created by KiCad (PCBNEW 8.0.6) date 2025-01-06 03:54:34*
%MOMM*%
%LPD*%
G01*
G04 APERTURE LIST*
G04 Aperture macros list*
%AMRoundRect*
0 Rectangle with rounded corners*
0 $1 Rounding radius*
0 $2 $3 $4 $5 $6 $7 $8 $9 X,Y pos of 4 corners*
0 Add a 4 corners polygon primitive as box body*
4,1,4,$2,$3,$4,$5,$6,$7,$8,$9,$2,$3,0*
0 Add four circle primitives for the rounded corners*
1,1,$1+$1,$2,$3*
1,1,$1+$1,$4,$5*
1,1,$1+$1,$6,$7*
1,1,$1+$1,$8,$9*
0 Add four rect primitives between the rounded corners*
20,1,$1+$1,$2,$3,$4,$5,0*
20,1,$1+$1,$4,$5,$6,$7,0*
20,1,$1+$1,$6,$7,$8,$9,0*
20,1,$1+$1,$8,$9,$2,$3,0*%
%AMHorizOval*
0 Thick line with rounded ends*
0 $1 width*
0 $2 $3 position (X,Y) of the first rounded end (center of the circle)*
0 $4 $5 position (X,Y) of the second rounded end (center of the circle)*
0 Add line between two ends*
20,1,$1,$2,$3,$4,$5,0*
0 Add two circle primitives to create the rounded ends*
1,1,$1,$2,$3*
1,1,$1,$4,$5*%
G04 Aperture macros list end*
%ADD10C,2.300000*%
%ADD11C,1.100000*%
%ADD12RoundRect,0.050000X0.828543X-0.629299X0.870422X0.569970X-0.828543X0.629299X-0.870422X-0.569970X0*%
%ADD13HorizOval,1.300000X-0.249848X0.008725X0.249848X-0.008725X0*%
%ADD14C,1.852600*%
%ADD15C,1.801800*%
%ADD16C,3.100000*%
%ADD17C,3.529000*%
%ADD18RoundRect,0.050000X-0.628796X-1.727604X1.727604X-0.628796X0.628796X1.727604X-1.727604X0.628796X0*%
%ADD19RoundRect,0.050000X-0.963099X-0.808136X0.808136X-0.963099X0.963099X0.808136X-0.808136X0.963099X0*%
%ADD20RoundRect,0.050000X-0.500581X-0.558497X0.395994X-0.636937X0.500581X0.558497X-0.395994X0.636937X0*%
%ADD21C,2.005000*%
%ADD22RoundRect,0.050000X-1.505993X-1.054507X1.054507X-1.505993X1.505993X1.054507X-1.054507X1.505993X0*%
%ADD23RoundRect,0.050000X-1.300000X-1.300000X1.300000X-1.300000X1.300000X1.300000X-1.300000X1.300000X0*%
%ADD24RoundRect,0.050000X-1.408356X-1.181751X1.181751X-1.408356X1.408356X1.181751X-1.181751X1.408356X0*%
%ADD25RoundRect,0.050000X-0.889000X-0.889000X0.889000X-0.889000X0.889000X0.889000X-0.889000X0.889000X0*%
%ADD26RoundRect,0.050000X-0.450000X-0.600000X0.450000X-0.600000X0.450000X0.600000X-0.450000X0.600000X0*%
%ADD27RoundRect,0.050000X-1.054407X-0.684740X0.684740X-1.054407X1.054407X0.684740X-0.684740X1.054407X0*%
%ADD28RoundRect,0.050000X-0.564913X-0.493328X0.315419X-0.680449X0.564913X0.493328X-0.315419X0.680449X0*%
%ADD29RoundRect,0.050000X-1.139443X-0.531331X0.531331X-1.139443X1.139443X0.531331X-0.531331X1.139443X0*%
%ADD30RoundRect,0.050000X-0.628074X-0.409907X0.217650X-0.717725X0.628074X0.409907X-0.217650X0.717725X0*%
%ADD31RoundRect,0.050000X-0.919484X-0.857433X0.857433X-0.919484X0.919484X0.857433X-0.857433X0.919484X0*%
%ADD32RoundRect,0.050000X-0.470666X-0.583930X0.428786X-0.615339X0.470666X0.583930X-0.428786X0.615339X0*%
%ADD33RoundRect,0.050000X-1.666227X-0.776974X0.776974X-1.666227X1.666227X0.776974X-0.776974X1.666227X0*%
%ADD34RoundRect,0.050000X-1.541877X-1.001307X1.001307X-1.541877X1.541877X1.001307X-1.001307X1.541877X0*%
%ADD35RoundRect,0.050000X-0.430000X-1.181415X1.181415X-0.430000X0.430000X1.181415X-1.181415X0.430000X0*%
%ADD36RoundRect,0.050000X-0.154268X-0.733963X0.661409X-0.353606X0.154268X0.733963X-0.661409X0.353606X0*%
%ADD37RoundRect,0.050000X-1.029867X-0.721121X0.721121X-1.029867X1.029867X0.721121X-0.721121X1.029867X0*%
%ADD38RoundRect,0.050000X-0.547352X-0.512743X0.338975X-0.669026X0.547352X0.512743X-0.338975X0.669026X0*%
%ADD39RoundRect,0.050000X-0.531331X-1.139443X1.139443X-0.531331X0.531331X1.139443X-1.139443X0.531331X0*%
%ADD40RoundRect,0.050000X-0.217650X-0.717725X0.628074X-0.409907X0.217650X0.717725X-0.628074X0.409907X0*%
%ADD41RoundRect,0.050000X-1.344577X-1.253839X1.253839X-1.344577X1.344577X1.253839X-1.253839X1.344577X0*%
%ADD42RoundRect,0.050000X-0.776974X-1.666227X1.666227X-0.776974X0.776974X1.666227X-1.666227X0.776974X0*%
G04 APERTURE END LIST*
D10*
%TO.C,MH1*%
X244310000Y-168670000D03*
%TD*%
%TO.C,MH1*%
X215330000Y-136800000D03*
%TD*%
%TO.C,MH1*%
X218650000Y-169750000D03*
%TD*%
%TO.C,MH1*%
X163840000Y-134600000D03*
%TD*%
%TO.C,MH1*%
X157674545Y-173478077D03*
%TD*%
%TO.C,MH1*%
X140760000Y-113140000D03*
%TD*%
%TO.C,MH1*%
X192550000Y-104890000D03*
%TD*%
%TO.C,MH1*%
X238180000Y-107670000D03*
%TD*%
%TO.C,MH1*%
X238430000Y-137850000D03*
%TD*%
%TO.C,MH1*%
X272542147Y-140079121D03*
%TD*%
%TO.C,MH1*%
X268720000Y-175980000D03*
%TD*%
%TO.C,MH1*%
X289180000Y-202250000D03*
%TD*%
%TO.C,MH1*%
X282170000Y-222140000D03*
%TD*%
%TO.C,MH1*%
X237409103Y-209388775D03*
%TD*%
%TO.C,MH1*%
X161660000Y-207220000D03*
%TD*%
%TO.C,MH1*%
X125380000Y-198680000D03*
%TD*%
D11*
%TO.C,T1*%
X246454778Y-140535302D03*
X249452950Y-140640000D03*
%TD*%
D12*
%TO.C,JST1*%
X238536594Y-176173887D03*
D13*
X238606392Y-174175105D03*
%TD*%
D14*
%TO.C,MCU1*%
X268744548Y-142800639D03*
X268655903Y-145339092D03*
X268567259Y-147877545D03*
X268478614Y-150415997D03*
X268389969Y-152954450D03*
X268301324Y-155492903D03*
X268212680Y-158031356D03*
X268124035Y-160569808D03*
X268035390Y-163108261D03*
X267946746Y-165646714D03*
X267858101Y-168185166D03*
X267769456Y-170723619D03*
X252538740Y-170191751D03*
X252627385Y-167653298D03*
X252716029Y-165114845D03*
X252804674Y-162576393D03*
X252893319Y-160037940D03*
X252981964Y-157499487D03*
X253070608Y-154961034D03*
X253159253Y-152422582D03*
X253247898Y-149884129D03*
X253336542Y-147345676D03*
X253425187Y-144807224D03*
X253513832Y-142268771D03*
%TD*%
D15*
%TO.C,S1*%
X125015307Y-182324400D03*
D16*
X127485421Y-174607469D03*
D17*
X130000000Y-180000000D03*
D16*
X132946720Y-174488254D03*
D15*
X134984693Y-177675600D03*
D18*
X124517263Y-175991543D03*
X135914878Y-173104180D03*
%TD*%
D19*
%TO.C,D11*%
X202476327Y-120657339D03*
D20*
X204628108Y-120845595D03*
X207915550Y-121133209D03*
D21*
X210067331Y-121321465D03*
%TD*%
D15*
%TO.C,S12*%
X217728829Y-156644266D03*
D16*
X224178479Y-151739725D03*
D17*
X223145272Y-157599331D03*
D16*
X228720491Y-154774543D03*
D15*
X228561715Y-158554396D03*
D22*
X220953233Y-151171027D03*
X231945737Y-155343241D03*
%TD*%
D15*
%TO.C,S6*%
X171513757Y-151707765D03*
D16*
X177013757Y-145757765D03*
D17*
X177013757Y-151707765D03*
D16*
X182013757Y-147957765D03*
D15*
X182513757Y-151707765D03*
D23*
X173738757Y-145757765D03*
X185288757Y-147957765D03*
%TD*%
D15*
%TO.C,S10*%
X199485422Y-135452965D03*
D16*
X205483070Y-130004964D03*
D17*
X204964493Y-135932322D03*
D16*
X210272304Y-132632371D03*
D15*
X210443564Y-136411679D03*
D24*
X202220532Y-129719528D03*
X213534838Y-132917806D03*
%TD*%
D15*
%TO.C,S9*%
X197829463Y-154380664D03*
D16*
X203827111Y-148932663D03*
D17*
X203308534Y-154860021D03*
D16*
X208616345Y-151560070D03*
D15*
X208787605Y-155339378D03*
D24*
X200564573Y-148647227D03*
X211878879Y-151845505D03*
%TD*%
D25*
%TO.C,D3*%
X147203757Y-165707765D03*
D26*
X149363757Y-165707765D03*
X152663757Y-165707765D03*
D21*
X154823757Y-165707765D03*
%TD*%
D25*
%TO.C,D14*%
X222570348Y-121718478D03*
D26*
X224730348Y-121718478D03*
X228030348Y-121718478D03*
D21*
X230190348Y-121718478D03*
%TD*%
D15*
%TO.C,S13*%
X220154357Y-137250171D03*
D16*
X226152005Y-131802170D03*
D17*
X225633428Y-137729528D03*
D16*
X230941239Y-134429577D03*
D15*
X231112499Y-138208885D03*
D24*
X222889467Y-131516734D03*
X234203773Y-134715012D03*
%TD*%
D15*
%TO.C,S3*%
X145513757Y-161707765D03*
D16*
X151013757Y-155757765D03*
D17*
X151013757Y-161707765D03*
D16*
X156013757Y-157957765D03*
D15*
X156513757Y-161707765D03*
D23*
X147738757Y-155757765D03*
X159288757Y-157957765D03*
%TD*%
D27*
%TO.C,D16*%
X246804573Y-205348937D03*
D28*
X248917371Y-205798028D03*
X252145259Y-206484136D03*
D21*
X254258057Y-206933227D03*
%TD*%
D19*
%TO.C,D9*%
X199164409Y-158512737D03*
D20*
X201316190Y-158700993D03*
X204603632Y-158988607D03*
D21*
X206755413Y-159176863D03*
%TD*%
D15*
%TO.C,S5*%
X145513757Y-123707765D03*
D16*
X151013757Y-117757765D03*
D17*
X151013757Y-123707765D03*
D16*
X156013757Y-119957765D03*
D15*
X156513757Y-123707765D03*
D23*
X147738757Y-117757765D03*
X159288757Y-119957765D03*
%TD*%
D29*
%TO.C,D18*%
X269887546Y-211756877D03*
D30*
X271917282Y-212495641D03*
X275018268Y-213624307D03*
D21*
X277048004Y-214363071D03*
%TD*%
D31*
%TO.C,D17*%
X249825535Y-185136165D03*
D32*
X251984219Y-185211548D03*
X255282209Y-185326716D03*
D21*
X257440893Y-185402099D03*
%TD*%
D15*
%TO.C,S18*%
X269667547Y-207420092D03*
D16*
X276870876Y-203710032D03*
D17*
X274835856Y-209301203D03*
D16*
X280816895Y-207487456D03*
D15*
X280004165Y-211182314D03*
D33*
X273793383Y-202589916D03*
X283894388Y-208607572D03*
%TD*%
D15*
%TO.C,S16*%
X245983150Y-201084978D03*
D16*
X252600037Y-196408514D03*
D17*
X251362962Y-202228492D03*
D16*
X257033369Y-199599997D03*
D15*
X256742774Y-203372006D03*
D34*
X249396603Y-195727603D03*
X260236802Y-200280908D03*
%TD*%
D15*
%TO.C,S7*%
X171513757Y-132707765D03*
D16*
X177013757Y-126757765D03*
D17*
X177013757Y-132707765D03*
D16*
X182013757Y-128957765D03*
D15*
X182513757Y-132707765D03*
D23*
X173738757Y-126757765D03*
X185288757Y-128957765D03*
%TD*%
D15*
%TO.C,S15*%
X221153335Y-197577852D03*
D16*
X227150983Y-192129851D03*
D17*
X226632406Y-198057209D03*
D16*
X231940217Y-194757258D03*
D15*
X232111477Y-198536566D03*
D24*
X223888445Y-191844415D03*
X235202751Y-195042693D03*
%TD*%
D10*
%TO.C,MH1*%
X106750000Y-157190000D03*
%TD*%
D35*
%TO.C,D1*%
X128237440Y-185235407D03*
D36*
X130195065Y-184322551D03*
X133185881Y-182927911D03*
D21*
X135143506Y-182015055D03*
%TD*%
D15*
%TO.C,S11*%
X201141381Y-116525266D03*
D16*
X207139029Y-111077265D03*
D17*
X206620452Y-117004623D03*
D16*
X211928263Y-113704672D03*
D15*
X212099523Y-117483980D03*
D24*
X203876491Y-110791829D03*
X215190797Y-113990107D03*
%TD*%
D15*
%TO.C,S8*%
X171513757Y-113707765D03*
D16*
X177013757Y-107757765D03*
D17*
X177013757Y-113707765D03*
D16*
X182013757Y-109957765D03*
D15*
X182513757Y-113707765D03*
D23*
X173738757Y-107757765D03*
X185288757Y-109957765D03*
%TD*%
D25*
%TO.C,D4*%
X147203757Y-146707765D03*
D26*
X149363757Y-146707765D03*
X152663757Y-146707765D03*
D21*
X154823757Y-146707765D03*
%TD*%
D25*
%TO.C,D6*%
X173203757Y-155707765D03*
D26*
X175363757Y-155707765D03*
X178663757Y-155707765D03*
D21*
X180823757Y-155707765D03*
%TD*%
D37*
%TO.C,D12*%
X218698560Y-160876962D03*
D38*
X220825747Y-161252043D03*
X224075613Y-161825081D03*
D21*
X226202800Y-162200162D03*
%TD*%
D19*
%TO.C,D10*%
X200820368Y-139585038D03*
D20*
X202972149Y-139773294D03*
X206259591Y-140060908D03*
D21*
X208411372Y-140249164D03*
%TD*%
D39*
%TO.C,D2*%
X120030485Y-166059940D03*
D40*
X122060221Y-165321176D03*
X125161207Y-164192510D03*
D21*
X127190943Y-163453746D03*
%TD*%
D25*
%TO.C,D8*%
X173203757Y-117707765D03*
D26*
X175363757Y-117707765D03*
X178663757Y-117707765D03*
D21*
X180823757Y-117707765D03*
%TD*%
D19*
%TO.C,D13*%
X221489303Y-141382244D03*
D20*
X223641084Y-141570500D03*
X226928526Y-141858114D03*
D21*
X229080307Y-142046370D03*
%TD*%
D15*
%TO.C,S14*%
X220880348Y-117718478D03*
D16*
X226380348Y-111768478D03*
D17*
X226380348Y-117718478D03*
D16*
X231380348Y-113968478D03*
D15*
X231880348Y-117718478D03*
D23*
X223105348Y-111768478D03*
X234655348Y-113968478D03*
%TD*%
D15*
%TO.C,S17*%
X248276162Y-181079622D03*
D16*
X253980464Y-175325194D03*
D17*
X253772812Y-181271569D03*
D16*
X258900639Y-177698351D03*
D15*
X259269462Y-181463516D03*
D41*
X250707459Y-175210898D03*
X262173644Y-177812647D03*
%TD*%
D15*
%TO.C,S2*%
X117074324Y-162879183D03*
D16*
X120207613Y-155406901D03*
D17*
X122242633Y-160998072D03*
D16*
X125658521Y-155764124D03*
D15*
X127410942Y-159116961D03*
D42*
X117130120Y-156527017D03*
X128736014Y-154644008D03*
%TD*%
D15*
%TO.C,S4*%
X145513757Y-142707765D03*
D16*
X151013757Y-136757765D03*
D17*
X151013757Y-142707765D03*
D16*
X156013757Y-138957765D03*
D15*
X156513757Y-142707765D03*
D23*
X147738757Y-136757765D03*
X159288757Y-138957765D03*
%TD*%
D19*
%TO.C,D15*%
X222488281Y-201709925D03*
D20*
X224640062Y-201898181D03*
X227927504Y-202185795D03*
D21*
X230079285Y-202374051D03*
%TD*%
D25*
%TO.C,D7*%
X173203757Y-136707765D03*
D26*
X175363757Y-136707765D03*
X178663757Y-136707765D03*
D21*
X180823757Y-136707765D03*
%TD*%
D25*
%TO.C,D5*%
X147203757Y-127707765D03*
D26*
X149363757Y-127707765D03*
X152663757Y-127707765D03*
D21*
X154823757Y-127707765D03*
%TD*%
M02*
