M48
; DRILL file {KiCad 8.0.6} date 2025-01-06T03:54:33-0700
; FORMAT={-:-/ absolute / inch / decimal}
; #@! TF.CreationDate,2025-01-06T03:54:33-07:00
; #@! TF.GenerationSoftware,Kicad,Pcbnew,8.0.6
; #@! TF.FileFunction,Plated,1,2,PTH
FMAT,2
INCH
; #@! TA.AperFunction,Plated,PTH,ViaDrill
T1C0.0118
; #@! TA.AperFunction,Plated,PTH,ViaDrill
T2C0.0157
; #@! TA.AperFunction,Plated,PTH,ComponentDrill
T3C0.0295
; #@! TA.AperFunction,Plated,PTH,ComponentDrill
T4C0.0390
; #@! TA.AperFunction,Plated,PTH,ComponentDrill
T5C0.0430
%
G90
G05
T1
X9.4882Y-6.1024
X9.6063Y-5.9843
X9.8425Y-5.6791
T2
X7.9134Y-6.1811
X8.2677Y-5.748
X8.8189Y-6.2992
X9.7244Y-6.063
X9.8031Y-6.2992
T3
X9.3912Y-6.936
X9.394Y-6.8573
T4
X4.7256Y-6.5378
X5.0075Y-6.4352
X5.0487Y-7.2927
X5.3206Y-7.1659
X5.7954Y-5.0279
X5.7954Y-5.7759
X5.7954Y-6.5239
X6.0954Y-5.0279
X6.0954Y-5.7759
X6.0954Y-6.5239
X6.819Y-4.6342
X6.819Y-5.3822
X6.819Y-6.1302
X7.119Y-4.6342
X7.119Y-5.3822
X7.119Y-6.1302
X7.8411Y-6.2407
X7.9063Y-5.4955
X7.9715Y-4.7503
X8.14Y-6.2668
X8.2052Y-5.5216
X8.2704Y-4.7764
X8.6102Y-6.3337
X8.7201Y-5.5662
X8.7594Y-7.9413
X8.7626Y-4.7921
X8.9056Y-6.3858
X9.0189Y-5.5924
X9.0582Y-7.9675
X9.0626Y-4.7921
X9.7167Y-8.0846
X9.8357Y-7.2888
X10.0102Y-8.147
X10.1355Y-7.2993
X10.6255Y-8.3369
X10.9074Y-8.4395
T5
X9.9425Y-6.7005
X9.946Y-6.6005
X9.9494Y-6.5006
X9.9529Y-6.4006
X9.9564Y-6.3007
X9.9599Y-6.2008
X9.9634Y-6.1008
X9.9669Y-6.0009
X9.9704Y-5.9009
X9.9739Y-5.801
X9.9774Y-5.7011
X9.9809Y-5.6011
X10.5421Y-6.7214
X10.5456Y-6.6215
X10.5491Y-6.5215
X10.5526Y-6.4216
X10.5561Y-6.3216
X10.5596Y-6.2217
X10.563Y-6.1218
X10.5665Y-6.0218
X10.57Y-5.9219
X10.5735Y-5.822
X10.577Y-5.722
X10.5805Y-5.6221
M30
