%TF.GenerationSoftware,KiCad,Pcbnew,8.0.6*%
%TF.CreationDate,2025-01-06T03:54:34-07:00*%
%TF.ProjectId,left_circuit,6c656674-5f63-4697-9263-7569742e6b69,v1.0.0*%
%TF.SameCoordinates,Original*%
%TF.FileFunction,Legend,Top*%
%TF.FilePolarity,Positive*%
%FSLAX46Y46*%
G04 Gerber Fmt 4.6, Leading zero omitted, Abs format (unit mm)*
G04 Created by KiCad (PCBNEW 8.0.6) date 2025-01-06 03:54:34*
%MOMM*%
%LPD*%
G01*
G04 APERTURE LIST*
%ADD10C,0.120000*%
%ADD11C,0.100000*%
%ADD12C,1.000000*%
%ADD13C,0.125000*%
%ADD14C,0.300000*%
%ADD15C,0.150000*%
%ADD16C,0.381000*%
%ADD17C,1.752600*%
G04 APERTURE END LIST*
D10*
X147400000Y-193600000D02*
X147200000Y-193600000D01*
X148400000Y-191700000D02*
X148800000Y-191300000D01*
X153100000Y-193300000D02*
X153800000Y-194300000D01*
X147400000Y-189900000D02*
X147900000Y-189900000D01*
X147500000Y-185300000D02*
X147400000Y-185100000D01*
X146200000Y-196000000D02*
X146700000Y-195500000D01*
X152400000Y-191900000D02*
X153600000Y-191600000D01*
X165000000Y-179000000D02*
X212000000Y-179000000D01*
X146900000Y-194500000D02*
X146600000Y-194300000D01*
X149000000Y-194000000D02*
X148900000Y-194200000D01*
X147900000Y-182900000D02*
X147700000Y-182100000D01*
X184000000Y-192000000D02*
X193000000Y-192000000D01*
X146550000Y-192150000D02*
X147000000Y-192400000D01*
X149200000Y-192500000D02*
X148900000Y-192700000D01*
X148800000Y-187800000D02*
X147700000Y-187700000D01*
X150200000Y-198900000D02*
X148500000Y-198500000D01*
X148700000Y-190300000D02*
X148000000Y-190000000D01*
X145700000Y-189700000D02*
X145700000Y-189400000D01*
X153000000Y-192350000D02*
X153000000Y-192100000D01*
X153900000Y-191600000D02*
X154900000Y-191200000D01*
X146300000Y-193100000D02*
X145600000Y-192900000D01*
X155500000Y-192900000D02*
X155700000Y-193200000D01*
X146200000Y-192100000D02*
X145500000Y-191900000D01*
X155900000Y-193300000D02*
X156000000Y-193100000D01*
X147900000Y-185800000D02*
X147900000Y-185400000D01*
X148400000Y-193900000D02*
X148500000Y-194100000D01*
X156100000Y-191400000D02*
X155500000Y-191000000D01*
X146600000Y-195100000D02*
X146700000Y-194900000D01*
X149600000Y-189100000D02*
X149600000Y-190000000D01*
X148700000Y-190000000D02*
X149300000Y-190400000D01*
X147400000Y-195400000D02*
X147100000Y-196300000D01*
X147200000Y-181600000D02*
X147800000Y-181800000D01*
X149500000Y-190100000D02*
X149300000Y-190100000D01*
X143600000Y-195400000D02*
X144200000Y-195700000D01*
X145400000Y-195200000D02*
X146600000Y-195100000D01*
X155500000Y-191000000D02*
X156100000Y-191400000D01*
X156000000Y-191500000D01*
X155600000Y-191400000D01*
X155300000Y-191075000D01*
X155300000Y-190970000D01*
X155500000Y-191000000D01*
G36*
X155500000Y-191000000D02*
G01*
X156100000Y-191400000D01*
X156000000Y-191500000D01*
X155600000Y-191400000D01*
X155300000Y-191075000D01*
X155300000Y-190970000D01*
X155500000Y-191000000D01*
G37*
X148400000Y-193100000D02*
X148600000Y-193100000D01*
X153600000Y-192800000D02*
X154300000Y-194800000D01*
X143100000Y-193900000D02*
X143100000Y-193600000D01*
X156000000Y-193100000D02*
X155800000Y-192900000D01*
X145600000Y-191800000D02*
X146000000Y-191700000D01*
X142900000Y-193200000D02*
X142800000Y-192600000D01*
X146700000Y-186500000D02*
X146600000Y-185500000D01*
X146300000Y-183200000D02*
X146300000Y-182600000D01*
X155400000Y-191200000D02*
X155200000Y-190950000D01*
X149900000Y-189500000D02*
X149800000Y-190400000D01*
X149800000Y-191000000D01*
X149700000Y-191600000D01*
X151300000Y-191900000D01*
X152300000Y-192400000D01*
X153100000Y-193300000D01*
X153800000Y-194300000D01*
X153200000Y-194700000D01*
X152400000Y-193700000D01*
X151300000Y-193000000D01*
X150100000Y-192500000D01*
X149200000Y-192500000D01*
X148900000Y-192700000D01*
X149100000Y-193100000D01*
X149000000Y-193300000D01*
X148800000Y-192900000D01*
X148440000Y-192410000D01*
X148680000Y-192460000D01*
X149020000Y-192460000D01*
X149050000Y-192250000D01*
X149100000Y-192300000D01*
X149150000Y-192200000D01*
X149500000Y-191000000D01*
X149300000Y-190400000D01*
X149120000Y-190280000D01*
X149300000Y-190100000D01*
X149500000Y-190100000D01*
X149600000Y-190000000D01*
X149600000Y-189100000D01*
X149500000Y-189000000D01*
X149600000Y-188350000D01*
X149900000Y-189500000D01*
G36*
X149900000Y-189500000D02*
G01*
X149800000Y-190400000D01*
X149800000Y-191000000D01*
X149700000Y-191600000D01*
X151300000Y-191900000D01*
X152300000Y-192400000D01*
X153100000Y-193300000D01*
X153800000Y-194300000D01*
X153200000Y-194700000D01*
X152400000Y-193700000D01*
X151300000Y-193000000D01*
X150100000Y-192500000D01*
X149200000Y-192500000D01*
X148900000Y-192700000D01*
X149100000Y-193100000D01*
X149000000Y-193300000D01*
X148800000Y-192900000D01*
X148440000Y-192410000D01*
X148680000Y-192460000D01*
X149020000Y-192460000D01*
X149050000Y-192250000D01*
X149100000Y-192300000D01*
X149150000Y-192200000D01*
X149500000Y-191000000D01*
X149300000Y-190400000D01*
X149120000Y-190280000D01*
X149300000Y-190100000D01*
X149500000Y-190100000D01*
X149600000Y-190000000D01*
X149600000Y-189100000D01*
X149500000Y-189000000D01*
X149600000Y-188350000D01*
X149900000Y-189500000D01*
G37*
X149200000Y-189500000D02*
X149200000Y-189200000D01*
X148800000Y-192900000D02*
X148500000Y-192500000D01*
X149200000Y-189200000D02*
X149100000Y-189200000D01*
X145700000Y-189400000D02*
X145900000Y-189300000D01*
X149100000Y-192300000D02*
X149000000Y-192200000D01*
X155700000Y-191600000D02*
X156000000Y-191500000D01*
X144900000Y-192800000D02*
X144200000Y-192800000D01*
X153700000Y-191800000D02*
X153900000Y-191600000D01*
X153600000Y-191600000D02*
X154400000Y-191100000D01*
X148000000Y-192600000D02*
X147900000Y-192800000D01*
X147700000Y-187700000D02*
X147500000Y-187400000D01*
X146300000Y-193900000D02*
X146700000Y-193800000D01*
X156100000Y-191400000D02*
X156700000Y-194100000D01*
X147500000Y-194500000D02*
X146900000Y-194500000D01*
X155300000Y-192700000D02*
X155500000Y-192900000D01*
X150700000Y-197600000D02*
X148600000Y-197500000D01*
X147600000Y-184800000D02*
X147500000Y-184500000D01*
X149000000Y-188000000D02*
X148800000Y-187800000D01*
X155200000Y-193200000D02*
X154600000Y-192800000D01*
X144000000Y-188500000D02*
X144400000Y-187800000D01*
D11*
X155150000Y-191220000D02*
X155200000Y-191390000D01*
X155390000Y-191580000D01*
X155690000Y-191590000D01*
X156130000Y-191460000D01*
X156680000Y-194060000D01*
X155900000Y-193320000D01*
X155980000Y-193070000D01*
X155000000Y-192190000D01*
X153750000Y-191780000D01*
X153900000Y-191620000D01*
X154930000Y-191210000D01*
X155150000Y-191220000D01*
G36*
X155150000Y-191220000D02*
G01*
X155200000Y-191390000D01*
X155390000Y-191580000D01*
X155690000Y-191590000D01*
X156130000Y-191460000D01*
X156680000Y-194060000D01*
X155900000Y-193320000D01*
X155980000Y-193070000D01*
X155000000Y-192190000D01*
X153750000Y-191780000D01*
X153900000Y-191620000D01*
X154930000Y-191210000D01*
X155150000Y-191220000D01*
G37*
D10*
X148400000Y-198900000D02*
X147600000Y-197900000D01*
X148000000Y-192100000D02*
X147000000Y-192350000D01*
X147300000Y-195000000D02*
X147400000Y-195400000D01*
X148700000Y-194400000D02*
X149000000Y-194800000D01*
X149500000Y-191000000D02*
X149300000Y-191700000D01*
X146100000Y-189800000D02*
X145800000Y-189900000D01*
X147400000Y-189900000D02*
X146500000Y-189900000D01*
X147500000Y-184500000D02*
X147500000Y-184100000D01*
X142700000Y-194100000D02*
X143100000Y-193900000D01*
X153000000Y-192100000D02*
X153200000Y-192000000D01*
X148800000Y-189500000D02*
X148400000Y-189500000D01*
X151600000Y-191700000D02*
X152400000Y-191900000D01*
X153600000Y-192800000D01*
X152700000Y-192850000D01*
X150260000Y-191630000D01*
X151600000Y-191700000D01*
G36*
X151600000Y-191700000D02*
G01*
X152400000Y-191900000D01*
X153600000Y-192800000D01*
X152700000Y-192850000D01*
X150260000Y-191630000D01*
X151600000Y-191700000D01*
G37*
X149000000Y-188600000D02*
X149000000Y-188000000D01*
X147400000Y-185100000D02*
X147400000Y-184900000D01*
X145600000Y-191900000D02*
X145600000Y-191800000D01*
X145900000Y-189300000D02*
X146500000Y-189300000D01*
X149700000Y-191600000D02*
X150400000Y-191600000D01*
X144800000Y-187400000D02*
X145200000Y-187300000D01*
X154800000Y-199500000D02*
X152600000Y-199300000D01*
X156700000Y-194100000D02*
X156600000Y-194000000D01*
X156700000Y-194000000D01*
X156700000Y-194100000D01*
G36*
X156700000Y-194100000D02*
G01*
X156600000Y-194000000D01*
X156700000Y-194000000D01*
X156700000Y-194100000D01*
G37*
X151300000Y-191900000D02*
X152300000Y-192400000D01*
X147400000Y-184900000D02*
X147600000Y-184800000D01*
X147900000Y-192200000D02*
X147000000Y-192200000D01*
X148700000Y-186400000D02*
X148900000Y-187000000D01*
X148700000Y-189000000D02*
X149000000Y-188600000D01*
X147600000Y-197900000D02*
X146500000Y-197000000D01*
X153200000Y-194700000D02*
X152400000Y-193700000D01*
X149800000Y-191000000D02*
X149700000Y-191600000D01*
X146400000Y-184900000D02*
X146200000Y-184000000D01*
X146500000Y-189900000D02*
X145700000Y-189700000D01*
X155200000Y-191400000D02*
X155400000Y-191600000D01*
X148700000Y-194400000D02*
X147500000Y-194500000D01*
D12*
X215000000Y-202000000D02*
X215000000Y-166000000D01*
D10*
X147800000Y-193800000D02*
X148100000Y-193500000D01*
X148900000Y-194200000D02*
X148700000Y-194400000D01*
X143100000Y-192400000D02*
X143000000Y-192700000D01*
X143300000Y-193400000D02*
X143700000Y-194000000D01*
X144600000Y-193900000D02*
X144700000Y-193800000D01*
X149500000Y-189000000D02*
X149600000Y-189100000D01*
X146600000Y-194300000D02*
X144800000Y-194000000D01*
X145800000Y-189900000D02*
X144600000Y-189800000D01*
X147400000Y-186900000D02*
X147600000Y-186600000D01*
X149100000Y-193100000D02*
X149100000Y-193500000D01*
X144700000Y-193800000D02*
X145000000Y-193800000D01*
X147000000Y-192400000D02*
X147800000Y-192400000D01*
X153900000Y-197600000D02*
X152400000Y-198600000D01*
X146500000Y-189900000D02*
X148000000Y-190000000D01*
X148700000Y-190300000D01*
X148900000Y-190700000D01*
X148800000Y-191300000D01*
X148400000Y-191700000D01*
X146000000Y-191700000D01*
X145600000Y-191800000D01*
X145600000Y-191900000D01*
X146100000Y-192100000D01*
X146550000Y-192150000D01*
X147000000Y-192400000D01*
X147800000Y-192400000D01*
X147900000Y-192500000D01*
X147950000Y-192700000D01*
X147900000Y-192800000D01*
X147900000Y-193100000D01*
X147500000Y-193550000D01*
X147200000Y-193600000D01*
X146900000Y-193300000D01*
X145600000Y-192900000D01*
X144900000Y-192800000D01*
X144200000Y-192800000D01*
X143100000Y-192400000D01*
X142800000Y-192100000D01*
X143100000Y-191800000D01*
X143050000Y-191300000D01*
X143200000Y-190400000D01*
X143800000Y-189900000D01*
X144600000Y-189800000D01*
X145800000Y-189900000D01*
X146100000Y-189800000D01*
X146500000Y-189900000D01*
G36*
X146500000Y-189900000D02*
G01*
X148000000Y-190000000D01*
X148700000Y-190300000D01*
X148900000Y-190700000D01*
X148800000Y-191300000D01*
X148400000Y-191700000D01*
X146000000Y-191700000D01*
X145600000Y-191800000D01*
X145600000Y-191900000D01*
X146100000Y-192100000D01*
X146550000Y-192150000D01*
X147000000Y-192400000D01*
X147800000Y-192400000D01*
X147900000Y-192500000D01*
X147950000Y-192700000D01*
X147900000Y-192800000D01*
X147900000Y-193100000D01*
X147500000Y-193550000D01*
X147200000Y-193600000D01*
X146900000Y-193300000D01*
X145600000Y-192900000D01*
X144900000Y-192800000D01*
X144200000Y-192800000D01*
X143100000Y-192400000D01*
X142800000Y-192100000D01*
X143100000Y-191800000D01*
X143050000Y-191300000D01*
X143200000Y-190400000D01*
X143800000Y-189900000D01*
X144600000Y-189800000D01*
X145800000Y-189900000D01*
X146100000Y-189800000D01*
X146500000Y-189900000D01*
G37*
X152400000Y-191900000D02*
X153600000Y-192800000D01*
X149600000Y-190000000D02*
X149500000Y-190100000D01*
X147000000Y-189400000D02*
X148200000Y-189300000D01*
X150400000Y-191600000D02*
X151600000Y-191700000D01*
X148100000Y-193500000D02*
X148400000Y-193100000D01*
X149300000Y-190100000D02*
X149200000Y-189500000D01*
X147900000Y-185400000D02*
X147500000Y-185300000D01*
X144600000Y-193900000D02*
X144800000Y-194000000D01*
X149000000Y-193300000D02*
X148800000Y-192900000D01*
X149000000Y-191500000D02*
X149100000Y-191300000D01*
X155700000Y-193200000D02*
X155800000Y-193300000D01*
X153300000Y-196000000D02*
X153200000Y-194700000D01*
X146800000Y-194600000D02*
X146900000Y-194500000D01*
X148200000Y-182500000D02*
X148500000Y-183200000D01*
X143100000Y-195600000D02*
X142700000Y-194500000D01*
X155600000Y-191400000D02*
X155400000Y-191200000D01*
X144400000Y-187800000D02*
X144800000Y-187400000D01*
X149300000Y-199200000D02*
X148400000Y-198900000D01*
X154600000Y-192800000D02*
X153800000Y-192600000D01*
X149700000Y-188700000D02*
X149900000Y-189500000D01*
X146300000Y-182600000D02*
X146300000Y-182000000D01*
X145600000Y-192900000D02*
X144900000Y-192800000D01*
X155200000Y-191000000D02*
X154340000Y-191250000D01*
X154400000Y-191100000D01*
X154900000Y-190900000D01*
X155200000Y-191000000D01*
G36*
X155200000Y-191000000D02*
G01*
X154340000Y-191250000D01*
X154400000Y-191100000D01*
X154900000Y-190900000D01*
X155200000Y-191000000D01*
G37*
X155000000Y-192200000D02*
X154100000Y-191900000D01*
X143500000Y-189600000D02*
X143900000Y-189300000D01*
X156700000Y-194100000D02*
X156700000Y-196500000D01*
X155400000Y-191600000D02*
X155700000Y-191600000D01*
X165000000Y-190000000D02*
X165000000Y-179000000D01*
X142700000Y-194500000D02*
X142700000Y-194100000D01*
X146600000Y-185500000D02*
X146400000Y-184900000D01*
X148800000Y-191300000D02*
X148900000Y-190700000D01*
X155900000Y-195400000D02*
X155900000Y-194800000D01*
X154000000Y-192200000D02*
X154700000Y-192400000D01*
X148500000Y-193500000D02*
X148400000Y-193900000D01*
X146700000Y-195500000D02*
X146800000Y-195000000D01*
X154100000Y-195900000D02*
X153900000Y-197600000D01*
X154900000Y-191200000D02*
X155200000Y-191200000D01*
X147900000Y-183500000D02*
X147900000Y-182900000D01*
X145000000Y-193800000D02*
X145400000Y-193900000D01*
D12*
X162000000Y-166000000D02*
X162000000Y-202000000D01*
D10*
X155200000Y-191200000D02*
X155200000Y-191400000D01*
X146000000Y-191700000D02*
X147800000Y-191700000D01*
X148400000Y-191900000D02*
X148000000Y-192100000D01*
X149500000Y-188400000D02*
X149500000Y-188800000D01*
X148200000Y-189300000D02*
X148700000Y-189000000D01*
X148900000Y-187000000D02*
X149000000Y-187600000D01*
X148500000Y-183200000D02*
X148700000Y-184500000D01*
X146900000Y-194500000D02*
X147300000Y-195000000D01*
X149500000Y-188800000D02*
X149500000Y-189000000D01*
X143100000Y-195600000D02*
X144700000Y-196000000D01*
X147800000Y-192600000D02*
X146200000Y-192100000D01*
X144300000Y-195000000D02*
X145400000Y-195200000D01*
X146300000Y-182000000D02*
X146700000Y-181700000D01*
X143900000Y-189300000D02*
X144000000Y-188500000D01*
X147600000Y-193500000D02*
X147400000Y-193600000D01*
X155000000Y-197300000D02*
X155400000Y-196600000D01*
X156700000Y-196500000D02*
X156100000Y-198700000D01*
X144200000Y-195700000D02*
X145300000Y-196000000D01*
X152300000Y-192400000D02*
X153100000Y-193300000D01*
X143100000Y-191800000D02*
X143000000Y-190800000D01*
X152400000Y-193700000D02*
X151300000Y-193000000D01*
X146000000Y-187300000D02*
X146500000Y-187400000D01*
X149900000Y-195100000D02*
X150700000Y-195400000D01*
X147300000Y-181850000D02*
X147600000Y-182000000D01*
X147800000Y-182500000D01*
X147900000Y-182900000D01*
X147900000Y-183500000D01*
X147500000Y-184100000D01*
X147500000Y-184500000D01*
X147600000Y-184800000D01*
X147400000Y-185000000D01*
X147400000Y-185100000D01*
X147500000Y-185300000D01*
X147900000Y-185400000D01*
X147900000Y-185800000D01*
X147750000Y-186200000D01*
X147400000Y-186900000D01*
X147700000Y-187700000D01*
X148800000Y-187800000D01*
X149000000Y-188000000D01*
X149000000Y-188600000D01*
X148700000Y-189000000D01*
X148200000Y-189300000D01*
X147000000Y-189400000D01*
X146500000Y-189300000D01*
X145900000Y-189300000D01*
X145700000Y-189400000D01*
X144200000Y-189200000D01*
X144200000Y-189000000D01*
X144100000Y-188500000D01*
X144100000Y-188300000D01*
X144400000Y-187800000D01*
X144800000Y-187400000D01*
X145200000Y-187300000D01*
X146000000Y-187300000D01*
X146500000Y-187400000D01*
X146700000Y-186500000D01*
X146650000Y-186000000D01*
X146500000Y-185200000D01*
X146300000Y-184450000D01*
X146250000Y-183600000D01*
X146300000Y-182600000D01*
X146300000Y-182000000D01*
X146500000Y-181850000D01*
X147100000Y-181800000D01*
X147300000Y-181850000D01*
G36*
X147300000Y-181850000D02*
G01*
X147600000Y-182000000D01*
X147800000Y-182500000D01*
X147900000Y-182900000D01*
X147900000Y-183500000D01*
X147500000Y-184100000D01*
X147500000Y-184500000D01*
X147600000Y-184800000D01*
X147400000Y-185000000D01*
X147400000Y-185100000D01*
X147500000Y-185300000D01*
X147900000Y-185400000D01*
X147900000Y-185800000D01*
X147750000Y-186200000D01*
X147400000Y-186900000D01*
X147700000Y-187700000D01*
X148800000Y-187800000D01*
X149000000Y-188000000D01*
X149000000Y-188600000D01*
X148700000Y-189000000D01*
X148200000Y-189300000D01*
X147000000Y-189400000D01*
X146500000Y-189300000D01*
X145900000Y-189300000D01*
X145700000Y-189400000D01*
X144200000Y-189200000D01*
X144200000Y-189000000D01*
X144100000Y-188500000D01*
X144100000Y-188300000D01*
X144400000Y-187800000D01*
X144800000Y-187400000D01*
X145200000Y-187300000D01*
X146000000Y-187300000D01*
X146500000Y-187400000D01*
X146700000Y-186500000D01*
X146650000Y-186000000D01*
X146500000Y-185200000D01*
X146300000Y-184450000D01*
X146250000Y-183600000D01*
X146300000Y-182600000D01*
X146300000Y-182000000D01*
X146500000Y-181850000D01*
X147100000Y-181800000D01*
X147300000Y-181850000D01*
G37*
X151300000Y-193000000D02*
X150100000Y-192500000D01*
X149000000Y-191100000D02*
X149100000Y-190900000D01*
X146500000Y-189300000D02*
X147000000Y-189400000D01*
X147900000Y-192800000D02*
X147900000Y-193100000D01*
X146500000Y-187400000D02*
X146700000Y-186500000D01*
X148500000Y-198500000D02*
X147600000Y-197900000D01*
X147000000Y-192200000D02*
X146100000Y-192100000D01*
X153200000Y-192000000D02*
X154000000Y-192200000D01*
X143100000Y-194900000D02*
X143600000Y-195400000D01*
X212000000Y-190000000D02*
X165000000Y-190000000D01*
X155500000Y-194300000D02*
X155200000Y-193200000D01*
X155200000Y-191000000D02*
X154000000Y-191350000D01*
X144200000Y-196300000D02*
X143100000Y-195600000D01*
X148500000Y-194100000D02*
X148700000Y-194100000D01*
X149000000Y-187600000D02*
X149500000Y-188000000D01*
X154700000Y-192400000D02*
X155300000Y-192700000D01*
X149500000Y-188000000D02*
X149700000Y-188700000D01*
X146800000Y-195000000D02*
X146900000Y-194500000D01*
X154100000Y-191900000D02*
X153700000Y-191800000D01*
X145400000Y-193900000D02*
X146300000Y-193900000D01*
X149900000Y-189500000D02*
X149800000Y-190400000D01*
X193000000Y-192000000D02*
X193000000Y-190000000D01*
X147300000Y-195000000D02*
X148100000Y-194450000D01*
X152600000Y-199300000D02*
X149300000Y-199200000D01*
X146200000Y-184000000D02*
X146300000Y-183200000D01*
X147700000Y-182100000D02*
X147500000Y-181900000D01*
X143100000Y-193600000D02*
X142900000Y-193200000D01*
X148900000Y-192700000D02*
X149100000Y-193100000D01*
X150700000Y-195400000D02*
X152500000Y-195900000D01*
X155900000Y-194800000D02*
X155500000Y-194300000D01*
X146700000Y-194900000D02*
X146800000Y-194600000D01*
X147100000Y-181800000D02*
X146500000Y-181850000D01*
X153800000Y-194300000D02*
X154100000Y-195900000D01*
X155800000Y-192900000D02*
X155000000Y-192200000D01*
X149100000Y-193500000D02*
X149000000Y-194000000D01*
X149000000Y-193300000D02*
X149100000Y-193500000D01*
X147800000Y-192400000D02*
X148000000Y-192600000D01*
X146900000Y-193300000D02*
X146300000Y-193100000D01*
X151600000Y-191700000D02*
X152400000Y-191900000D01*
X147500000Y-181900000D02*
X147100000Y-181800000D01*
X147600000Y-186600000D02*
X147900000Y-185800000D01*
X149800000Y-190400000D02*
X149800000Y-191000000D01*
D12*
X162000000Y-202000000D02*
X215000000Y-202000000D01*
D10*
X156100000Y-198700000D02*
X155900000Y-199200000D01*
X147800000Y-181800000D02*
X148200000Y-182500000D01*
X154300000Y-196900000D02*
X155000000Y-197300000D01*
X147200000Y-193600000D02*
X146900000Y-193300000D01*
X146700000Y-193800000D02*
X147800000Y-193800000D01*
X149000000Y-191700000D02*
X149000000Y-191500000D01*
X149700000Y-191600000D02*
X151300000Y-191900000D01*
X147500000Y-184100000D02*
X147900000Y-183500000D01*
X147900000Y-189900000D02*
X148700000Y-190000000D01*
X152500000Y-195900000D02*
X153300000Y-196000000D01*
X149100000Y-190900000D02*
X148900000Y-190700000D01*
X148000000Y-190000000D02*
X147400000Y-189900000D01*
X149100000Y-191300000D02*
X149000000Y-191100000D01*
X149300000Y-191700000D02*
X149200000Y-192100000D01*
X146100000Y-192100000D02*
X145600000Y-191900000D01*
X149300000Y-188000000D02*
X149500000Y-188400000D01*
X184000000Y-190000000D02*
X184000000Y-192000000D01*
X146700000Y-181700000D02*
X147200000Y-181600000D01*
X144700000Y-196000000D02*
X146200000Y-196000000D01*
X155400000Y-196600000D02*
X155900000Y-195400000D01*
X154900000Y-190900000D02*
X154400000Y-191100000D01*
X147900000Y-193100000D02*
X147600000Y-193500000D01*
X156000000Y-191500000D02*
X155600000Y-191400000D01*
X155900000Y-199200000D02*
X154800000Y-199500000D01*
X152400000Y-198600000D02*
X150200000Y-198900000D01*
X142800000Y-192600000D02*
X142800000Y-192100000D01*
X145700000Y-189400000D02*
X144500000Y-189300000D01*
X144600000Y-189800000D02*
X143800000Y-189900000D01*
X148400000Y-189500000D02*
X148200000Y-189300000D01*
X147500000Y-187400000D02*
X147400000Y-186900000D01*
X148600000Y-193100000D02*
X148500000Y-193500000D01*
X148900000Y-187900000D02*
X149300000Y-188000000D01*
X148800000Y-193900000D02*
X149000000Y-193300000D01*
D12*
X215000000Y-166000000D02*
X162000000Y-166000000D01*
D10*
X154300000Y-194800000D02*
X154300000Y-196900000D01*
X155500000Y-191000000D02*
X154900000Y-190900000D01*
X150100000Y-192500000D02*
X149200000Y-192500000D01*
X144800000Y-194000000D02*
X146600000Y-194300000D01*
X146900000Y-194500000D01*
X146600000Y-195100000D01*
X145400000Y-195200000D01*
X143500000Y-194900000D01*
X143200000Y-194600000D01*
X142900000Y-194500000D01*
X143100000Y-194200000D01*
X143700000Y-194200000D01*
X143700000Y-194000000D01*
X144260000Y-193910000D01*
X144650000Y-193850000D01*
X144800000Y-194000000D01*
G36*
X144800000Y-194000000D02*
G01*
X146600000Y-194300000D01*
X146900000Y-194500000D01*
X146600000Y-195100000D01*
X145400000Y-195200000D01*
X143500000Y-194900000D01*
X143200000Y-194600000D01*
X142900000Y-194500000D01*
X143100000Y-194200000D01*
X143700000Y-194200000D01*
X143700000Y-194000000D01*
X144260000Y-193910000D01*
X144650000Y-193850000D01*
X144800000Y-194000000D01*
G37*
X149000000Y-192200000D02*
X149000000Y-191700000D01*
X148700000Y-184500000D02*
X148700000Y-185500000D01*
X149200000Y-192100000D02*
X149100000Y-192300000D01*
X143000000Y-190800000D02*
X143100000Y-190000000D01*
X149000000Y-194800000D02*
X149900000Y-195100000D01*
X148600000Y-197500000D02*
X147250000Y-195850000D01*
X212000000Y-179000000D02*
X212000000Y-190000000D01*
X148700000Y-185500000D02*
X148700000Y-186400000D01*
X149100000Y-189200000D02*
X148800000Y-189500000D01*
X145200000Y-187300000D02*
X146000000Y-187300000D01*
X149300000Y-190400000D02*
X149500000Y-191000000D01*
X155800000Y-193300000D02*
X155900000Y-193300000D01*
X148500000Y-192500000D02*
X147900000Y-192200000D01*
X147800000Y-191700000D02*
X148400000Y-191700000D01*
X148700000Y-194100000D02*
X148800000Y-193900000D01*
X148900000Y-190700000D02*
X148700000Y-190300000D01*
X144500000Y-189300000D02*
X144200000Y-189200000D01*
X143000000Y-192700000D02*
X143300000Y-193400000D01*
X153300000Y-196000000D02*
X150700000Y-197600000D01*
D13*
G36*
X166901325Y-188320000D02*
G01*
X166901325Y-187286364D01*
X169054570Y-187286364D01*
X169465753Y-187265237D01*
X169850968Y-187190962D01*
X170210541Y-187027558D01*
X170310956Y-186948332D01*
X170550060Y-186636943D01*
X170667268Y-186255254D01*
X170680251Y-186055380D01*
X170680251Y-186039748D01*
X170636012Y-185630703D01*
X170488243Y-185263228D01*
X170365666Y-185097948D01*
X170042668Y-184868964D01*
X169664078Y-184766388D01*
X169328122Y-184744284D01*
X166901325Y-184744284D01*
X166901325Y-183738004D01*
X169328122Y-183738004D01*
X169717711Y-183703371D01*
X170108698Y-183559115D01*
X170260153Y-183444912D01*
X170485954Y-183110891D01*
X170569822Y-182725556D01*
X170574738Y-182589085D01*
X170525553Y-182184436D01*
X170343844Y-181819308D01*
X170224982Y-181698087D01*
X169883082Y-181505792D01*
X169465015Y-181415300D01*
X169175715Y-181401088D01*
X166901325Y-181401088D01*
X166901325Y-180369406D01*
X169378925Y-180369406D01*
X169798206Y-180389946D01*
X170234059Y-180465827D01*
X170612504Y-180597621D01*
X170974716Y-180816707D01*
X171127704Y-180953635D01*
X171379030Y-181270785D01*
X171558548Y-181638004D01*
X171666259Y-182055293D01*
X171701602Y-182461493D01*
X171702163Y-182522651D01*
X171660834Y-182920593D01*
X171536849Y-183294985D01*
X171352407Y-183614905D01*
X171064618Y-183912517D01*
X170720847Y-184109743D01*
X170344562Y-184227535D01*
X170252337Y-184246029D01*
X170641519Y-184341736D01*
X171012310Y-184528200D01*
X171318225Y-184799004D01*
X171397348Y-184896692D01*
X171612701Y-185250424D01*
X171748294Y-185635068D01*
X171804127Y-186050625D01*
X171805722Y-186137445D01*
X171805722Y-186155031D01*
X171775615Y-186562701D01*
X171667477Y-186984417D01*
X171480692Y-187358994D01*
X171215261Y-187686432D01*
X171176552Y-187724047D01*
X170834002Y-187984776D01*
X170435519Y-188171011D01*
X170040966Y-188272859D01*
X169603590Y-188317672D01*
X169470760Y-188320000D01*
X166901325Y-188320000D01*
G37*
G36*
X166244801Y-188320000D02*
G01*
X166244801Y-180369406D01*
X167354640Y-180369406D01*
X167354640Y-188320000D01*
X166244801Y-188320000D01*
G37*
G36*
X172544312Y-188320000D02*
G01*
X175475226Y-180369406D01*
X176426796Y-180369406D01*
X179357711Y-188320000D01*
X178156036Y-188320000D01*
X175951988Y-181905205D01*
X173747941Y-188320000D01*
X172544312Y-188320000D01*
G37*
G36*
X173894487Y-186575129D02*
G01*
X173894487Y-185514138D01*
X178077878Y-185514138D01*
X178077878Y-186575129D01*
X173894487Y-186575129D01*
G37*
G36*
X181489462Y-188320000D02*
G01*
X181489462Y-181020069D01*
X182605164Y-181020069D01*
X182605164Y-188320000D01*
X181489462Y-188320000D01*
G37*
G36*
X179242428Y-181428443D02*
G01*
X179242428Y-180369406D01*
X184854152Y-180369406D01*
X184854152Y-181428443D01*
X179242428Y-181428443D01*
G37*
G36*
X187703000Y-188320000D02*
G01*
X187703000Y-181020069D01*
X188818702Y-181020069D01*
X188818702Y-188320000D01*
X187703000Y-188320000D01*
G37*
G36*
X185455966Y-181428443D02*
G01*
X185455966Y-180369406D01*
X191067690Y-180369406D01*
X191067690Y-181428443D01*
X185455966Y-181428443D01*
G37*
G36*
X192161898Y-188320000D02*
G01*
X192161898Y-180369406D01*
X193277599Y-180369406D01*
X193277599Y-188320000D01*
X192161898Y-188320000D01*
G37*
G36*
X192703140Y-188320000D02*
G01*
X192703140Y-187259009D01*
X197269504Y-187259009D01*
X197269504Y-188320000D01*
X192703140Y-188320000D01*
G37*
G36*
X192703140Y-184902554D02*
G01*
X192703140Y-183841563D01*
X196667690Y-183841563D01*
X196667690Y-184902554D01*
X192703140Y-184902554D01*
G37*
G36*
X192703140Y-181428443D02*
G01*
X192703140Y-180369406D01*
X197269504Y-180369406D01*
X197269504Y-181428443D01*
X192703140Y-181428443D01*
G37*
G36*
X199338729Y-184957264D02*
G01*
X199338729Y-183896273D01*
X202050802Y-183896273D01*
X202439866Y-183831572D01*
X202775375Y-183618651D01*
X202832379Y-183558241D01*
X203034070Y-183218866D01*
X203120221Y-182828718D01*
X203127425Y-182659427D01*
X203078731Y-182243085D01*
X202917378Y-181875499D01*
X202832379Y-181764521D01*
X202513699Y-181520489D01*
X202110871Y-181425864D01*
X202050802Y-181424535D01*
X199338729Y-181424535D01*
X199338729Y-180363545D01*
X202007815Y-180363545D01*
X202424364Y-180391594D01*
X202806947Y-180475744D01*
X203188560Y-180633103D01*
X203221214Y-180650774D01*
X203551066Y-180875027D01*
X203825967Y-181152846D01*
X204028192Y-181451891D01*
X204191722Y-181826429D01*
X204287372Y-182243451D01*
X204315422Y-182659427D01*
X204286990Y-183073724D01*
X204190039Y-183490662D01*
X204024284Y-183866964D01*
X203798457Y-184194591D01*
X203518602Y-184468191D01*
X203217306Y-184670034D01*
X202841655Y-184833565D01*
X202423982Y-184929214D01*
X202007815Y-184957264D01*
X199338729Y-184957264D01*
G37*
G36*
X198852198Y-188320000D02*
G01*
X198852198Y-180363545D01*
X199967899Y-180363545D01*
X199967899Y-188320000D01*
X198852198Y-188320000D01*
G37*
G36*
X203324773Y-188320000D02*
G01*
X201503698Y-184711067D01*
X202613538Y-184459009D01*
X204649546Y-188320000D01*
X203324773Y-188320000D01*
G37*
G36*
X210909979Y-180369406D02*
G01*
X208487090Y-185088178D01*
X208487090Y-188320000D01*
X207371388Y-188320000D01*
X207371388Y-185088178D01*
X204948499Y-180369406D01*
X206189253Y-180369406D01*
X207928262Y-183956845D01*
X209667271Y-180369406D01*
X210909979Y-180369406D01*
G37*
D14*
X165554510Y-204800828D02*
X165554510Y-203300828D01*
X165554510Y-203300828D02*
X165911653Y-203300828D01*
X165911653Y-203300828D02*
X166125939Y-203372257D01*
X166125939Y-203372257D02*
X166268796Y-203515114D01*
X166268796Y-203515114D02*
X166340225Y-203657971D01*
X166340225Y-203657971D02*
X166411653Y-203943685D01*
X166411653Y-203943685D02*
X166411653Y-204157971D01*
X166411653Y-204157971D02*
X166340225Y-204443685D01*
X166340225Y-204443685D02*
X166268796Y-204586542D01*
X166268796Y-204586542D02*
X166125939Y-204729400D01*
X166125939Y-204729400D02*
X165911653Y-204800828D01*
X165911653Y-204800828D02*
X165554510Y-204800828D01*
X167625939Y-204729400D02*
X167483082Y-204800828D01*
X167483082Y-204800828D02*
X167197368Y-204800828D01*
X167197368Y-204800828D02*
X167054510Y-204729400D01*
X167054510Y-204729400D02*
X166983082Y-204586542D01*
X166983082Y-204586542D02*
X166983082Y-204015114D01*
X166983082Y-204015114D02*
X167054510Y-203872257D01*
X167054510Y-203872257D02*
X167197368Y-203800828D01*
X167197368Y-203800828D02*
X167483082Y-203800828D01*
X167483082Y-203800828D02*
X167625939Y-203872257D01*
X167625939Y-203872257D02*
X167697368Y-204015114D01*
X167697368Y-204015114D02*
X167697368Y-204157971D01*
X167697368Y-204157971D02*
X166983082Y-204300828D01*
X168268796Y-204729400D02*
X168411653Y-204800828D01*
X168411653Y-204800828D02*
X168697367Y-204800828D01*
X168697367Y-204800828D02*
X168840224Y-204729400D01*
X168840224Y-204729400D02*
X168911653Y-204586542D01*
X168911653Y-204586542D02*
X168911653Y-204515114D01*
X168911653Y-204515114D02*
X168840224Y-204372257D01*
X168840224Y-204372257D02*
X168697367Y-204300828D01*
X168697367Y-204300828D02*
X168483082Y-204300828D01*
X168483082Y-204300828D02*
X168340224Y-204229400D01*
X168340224Y-204229400D02*
X168268796Y-204086542D01*
X168268796Y-204086542D02*
X168268796Y-204015114D01*
X168268796Y-204015114D02*
X168340224Y-203872257D01*
X168340224Y-203872257D02*
X168483082Y-203800828D01*
X168483082Y-203800828D02*
X168697367Y-203800828D01*
X168697367Y-203800828D02*
X168840224Y-203872257D01*
X169554510Y-204800828D02*
X169554510Y-203800828D01*
X169554510Y-203300828D02*
X169483082Y-203372257D01*
X169483082Y-203372257D02*
X169554510Y-203443685D01*
X169554510Y-203443685D02*
X169625939Y-203372257D01*
X169625939Y-203372257D02*
X169554510Y-203300828D01*
X169554510Y-203300828D02*
X169554510Y-203443685D01*
X170911654Y-203800828D02*
X170911654Y-205015114D01*
X170911654Y-205015114D02*
X170840225Y-205157971D01*
X170840225Y-205157971D02*
X170768796Y-205229400D01*
X170768796Y-205229400D02*
X170625939Y-205300828D01*
X170625939Y-205300828D02*
X170411654Y-205300828D01*
X170411654Y-205300828D02*
X170268796Y-205229400D01*
X170911654Y-204729400D02*
X170768796Y-204800828D01*
X170768796Y-204800828D02*
X170483082Y-204800828D01*
X170483082Y-204800828D02*
X170340225Y-204729400D01*
X170340225Y-204729400D02*
X170268796Y-204657971D01*
X170268796Y-204657971D02*
X170197368Y-204515114D01*
X170197368Y-204515114D02*
X170197368Y-204086542D01*
X170197368Y-204086542D02*
X170268796Y-203943685D01*
X170268796Y-203943685D02*
X170340225Y-203872257D01*
X170340225Y-203872257D02*
X170483082Y-203800828D01*
X170483082Y-203800828D02*
X170768796Y-203800828D01*
X170768796Y-203800828D02*
X170911654Y-203872257D01*
X171625939Y-203800828D02*
X171625939Y-204800828D01*
X171625939Y-203943685D02*
X171697368Y-203872257D01*
X171697368Y-203872257D02*
X171840225Y-203800828D01*
X171840225Y-203800828D02*
X172054511Y-203800828D01*
X172054511Y-203800828D02*
X172197368Y-203872257D01*
X172197368Y-203872257D02*
X172268797Y-204015114D01*
X172268797Y-204015114D02*
X172268797Y-204800828D01*
X173554511Y-204729400D02*
X173411654Y-204800828D01*
X173411654Y-204800828D02*
X173125940Y-204800828D01*
X173125940Y-204800828D02*
X172983082Y-204729400D01*
X172983082Y-204729400D02*
X172911654Y-204586542D01*
X172911654Y-204586542D02*
X172911654Y-204015114D01*
X172911654Y-204015114D02*
X172983082Y-203872257D01*
X172983082Y-203872257D02*
X173125940Y-203800828D01*
X173125940Y-203800828D02*
X173411654Y-203800828D01*
X173411654Y-203800828D02*
X173554511Y-203872257D01*
X173554511Y-203872257D02*
X173625940Y-204015114D01*
X173625940Y-204015114D02*
X173625940Y-204157971D01*
X173625940Y-204157971D02*
X172911654Y-204300828D01*
X174911654Y-204800828D02*
X174911654Y-203300828D01*
X174911654Y-204729400D02*
X174768796Y-204800828D01*
X174768796Y-204800828D02*
X174483082Y-204800828D01*
X174483082Y-204800828D02*
X174340225Y-204729400D01*
X174340225Y-204729400D02*
X174268796Y-204657971D01*
X174268796Y-204657971D02*
X174197368Y-204515114D01*
X174197368Y-204515114D02*
X174197368Y-204086542D01*
X174197368Y-204086542D02*
X174268796Y-203943685D01*
X174268796Y-203943685D02*
X174340225Y-203872257D01*
X174340225Y-203872257D02*
X174483082Y-203800828D01*
X174483082Y-203800828D02*
X174768796Y-203800828D01*
X174768796Y-203800828D02*
X174911654Y-203872257D01*
X176554511Y-203800828D02*
X177125939Y-203800828D01*
X176768796Y-204800828D02*
X176768796Y-203515114D01*
X176768796Y-203515114D02*
X176840225Y-203372257D01*
X176840225Y-203372257D02*
X176983082Y-203300828D01*
X176983082Y-203300828D02*
X177125939Y-203300828D01*
X177625939Y-204800828D02*
X177625939Y-203800828D01*
X177625939Y-204086542D02*
X177697368Y-203943685D01*
X177697368Y-203943685D02*
X177768797Y-203872257D01*
X177768797Y-203872257D02*
X177911654Y-203800828D01*
X177911654Y-203800828D02*
X178054511Y-203800828D01*
X178768796Y-204800828D02*
X178625939Y-204729400D01*
X178625939Y-204729400D02*
X178554510Y-204657971D01*
X178554510Y-204657971D02*
X178483082Y-204515114D01*
X178483082Y-204515114D02*
X178483082Y-204086542D01*
X178483082Y-204086542D02*
X178554510Y-203943685D01*
X178554510Y-203943685D02*
X178625939Y-203872257D01*
X178625939Y-203872257D02*
X178768796Y-203800828D01*
X178768796Y-203800828D02*
X178983082Y-203800828D01*
X178983082Y-203800828D02*
X179125939Y-203872257D01*
X179125939Y-203872257D02*
X179197368Y-203943685D01*
X179197368Y-203943685D02*
X179268796Y-204086542D01*
X179268796Y-204086542D02*
X179268796Y-204515114D01*
X179268796Y-204515114D02*
X179197368Y-204657971D01*
X179197368Y-204657971D02*
X179125939Y-204729400D01*
X179125939Y-204729400D02*
X178983082Y-204800828D01*
X178983082Y-204800828D02*
X178768796Y-204800828D01*
X179911653Y-204800828D02*
X179911653Y-203800828D01*
X179911653Y-203943685D02*
X179983082Y-203872257D01*
X179983082Y-203872257D02*
X180125939Y-203800828D01*
X180125939Y-203800828D02*
X180340225Y-203800828D01*
X180340225Y-203800828D02*
X180483082Y-203872257D01*
X180483082Y-203872257D02*
X180554511Y-204015114D01*
X180554511Y-204015114D02*
X180554511Y-204800828D01*
X180554511Y-204015114D02*
X180625939Y-203872257D01*
X180625939Y-203872257D02*
X180768796Y-203800828D01*
X180768796Y-203800828D02*
X180983082Y-203800828D01*
X180983082Y-203800828D02*
X181125939Y-203872257D01*
X181125939Y-203872257D02*
X181197368Y-204015114D01*
X181197368Y-204015114D02*
X181197368Y-204800828D01*
X182983082Y-204729400D02*
X183125939Y-204800828D01*
X183125939Y-204800828D02*
X183411653Y-204800828D01*
X183411653Y-204800828D02*
X183554510Y-204729400D01*
X183554510Y-204729400D02*
X183625939Y-204586542D01*
X183625939Y-204586542D02*
X183625939Y-204515114D01*
X183625939Y-204515114D02*
X183554510Y-204372257D01*
X183554510Y-204372257D02*
X183411653Y-204300828D01*
X183411653Y-204300828D02*
X183197368Y-204300828D01*
X183197368Y-204300828D02*
X183054510Y-204229400D01*
X183054510Y-204229400D02*
X182983082Y-204086542D01*
X182983082Y-204086542D02*
X182983082Y-204015114D01*
X182983082Y-204015114D02*
X183054510Y-203872257D01*
X183054510Y-203872257D02*
X183197368Y-203800828D01*
X183197368Y-203800828D02*
X183411653Y-203800828D01*
X183411653Y-203800828D02*
X183554510Y-203872257D01*
X184911654Y-204729400D02*
X184768796Y-204800828D01*
X184768796Y-204800828D02*
X184483082Y-204800828D01*
X184483082Y-204800828D02*
X184340225Y-204729400D01*
X184340225Y-204729400D02*
X184268796Y-204657971D01*
X184268796Y-204657971D02*
X184197368Y-204515114D01*
X184197368Y-204515114D02*
X184197368Y-204086542D01*
X184197368Y-204086542D02*
X184268796Y-203943685D01*
X184268796Y-203943685D02*
X184340225Y-203872257D01*
X184340225Y-203872257D02*
X184483082Y-203800828D01*
X184483082Y-203800828D02*
X184768796Y-203800828D01*
X184768796Y-203800828D02*
X184911654Y-203872257D01*
X185554510Y-204800828D02*
X185554510Y-203800828D01*
X185554510Y-204086542D02*
X185625939Y-203943685D01*
X185625939Y-203943685D02*
X185697368Y-203872257D01*
X185697368Y-203872257D02*
X185840225Y-203800828D01*
X185840225Y-203800828D02*
X185983082Y-203800828D01*
X187125939Y-204800828D02*
X187125939Y-204015114D01*
X187125939Y-204015114D02*
X187054510Y-203872257D01*
X187054510Y-203872257D02*
X186911653Y-203800828D01*
X186911653Y-203800828D02*
X186625939Y-203800828D01*
X186625939Y-203800828D02*
X186483081Y-203872257D01*
X187125939Y-204729400D02*
X186983081Y-204800828D01*
X186983081Y-204800828D02*
X186625939Y-204800828D01*
X186625939Y-204800828D02*
X186483081Y-204729400D01*
X186483081Y-204729400D02*
X186411653Y-204586542D01*
X186411653Y-204586542D02*
X186411653Y-204443685D01*
X186411653Y-204443685D02*
X186483081Y-204300828D01*
X186483081Y-204300828D02*
X186625939Y-204229400D01*
X186625939Y-204229400D02*
X186983081Y-204229400D01*
X186983081Y-204229400D02*
X187125939Y-204157971D01*
X187625939Y-203800828D02*
X188197367Y-203800828D01*
X187840224Y-203300828D02*
X187840224Y-204586542D01*
X187840224Y-204586542D02*
X187911653Y-204729400D01*
X187911653Y-204729400D02*
X188054510Y-204800828D01*
X188054510Y-204800828D02*
X188197367Y-204800828D01*
X189340225Y-204729400D02*
X189197367Y-204800828D01*
X189197367Y-204800828D02*
X188911653Y-204800828D01*
X188911653Y-204800828D02*
X188768796Y-204729400D01*
X188768796Y-204729400D02*
X188697367Y-204657971D01*
X188697367Y-204657971D02*
X188625939Y-204515114D01*
X188625939Y-204515114D02*
X188625939Y-204086542D01*
X188625939Y-204086542D02*
X188697367Y-203943685D01*
X188697367Y-203943685D02*
X188768796Y-203872257D01*
X188768796Y-203872257D02*
X188911653Y-203800828D01*
X188911653Y-203800828D02*
X189197367Y-203800828D01*
X189197367Y-203800828D02*
X189340225Y-203872257D01*
X189983081Y-204800828D02*
X189983081Y-203300828D01*
X190625939Y-204800828D02*
X190625939Y-204015114D01*
X190625939Y-204015114D02*
X190554510Y-203872257D01*
X190554510Y-203872257D02*
X190411653Y-203800828D01*
X190411653Y-203800828D02*
X190197367Y-203800828D01*
X190197367Y-203800828D02*
X190054510Y-203872257D01*
X190054510Y-203872257D02*
X189983081Y-203943685D01*
X192483081Y-204800828D02*
X192483081Y-203300828D01*
X192483081Y-203872257D02*
X192625939Y-203800828D01*
X192625939Y-203800828D02*
X192911653Y-203800828D01*
X192911653Y-203800828D02*
X193054510Y-203872257D01*
X193054510Y-203872257D02*
X193125939Y-203943685D01*
X193125939Y-203943685D02*
X193197367Y-204086542D01*
X193197367Y-204086542D02*
X193197367Y-204515114D01*
X193197367Y-204515114D02*
X193125939Y-204657971D01*
X193125939Y-204657971D02*
X193054510Y-204729400D01*
X193054510Y-204729400D02*
X192911653Y-204800828D01*
X192911653Y-204800828D02*
X192625939Y-204800828D01*
X192625939Y-204800828D02*
X192483081Y-204729400D01*
X193697367Y-203800828D02*
X194054510Y-204800828D01*
X194411653Y-203800828D02*
X194054510Y-204800828D01*
X194054510Y-204800828D02*
X193911653Y-205157971D01*
X193911653Y-205157971D02*
X193840224Y-205229400D01*
X193840224Y-205229400D02*
X193697367Y-205300828D01*
X196054510Y-204372257D02*
X196768796Y-204372257D01*
X195911653Y-204800828D02*
X196411653Y-203300828D01*
X196411653Y-203300828D02*
X196911653Y-204800828D01*
X197411652Y-204800828D02*
X197411652Y-203800828D01*
X197411652Y-203943685D02*
X197483081Y-203872257D01*
X197483081Y-203872257D02*
X197625938Y-203800828D01*
X197625938Y-203800828D02*
X197840224Y-203800828D01*
X197840224Y-203800828D02*
X197983081Y-203872257D01*
X197983081Y-203872257D02*
X198054510Y-204015114D01*
X198054510Y-204015114D02*
X198054510Y-204800828D01*
X198054510Y-204015114D02*
X198125938Y-203872257D01*
X198125938Y-203872257D02*
X198268795Y-203800828D01*
X198268795Y-203800828D02*
X198483081Y-203800828D01*
X198483081Y-203800828D02*
X198625938Y-203872257D01*
X198625938Y-203872257D02*
X198697367Y-204015114D01*
X198697367Y-204015114D02*
X198697367Y-204800828D01*
X199411652Y-204800828D02*
X199411652Y-203800828D01*
X199411652Y-203943685D02*
X199483081Y-203872257D01*
X199483081Y-203872257D02*
X199625938Y-203800828D01*
X199625938Y-203800828D02*
X199840224Y-203800828D01*
X199840224Y-203800828D02*
X199983081Y-203872257D01*
X199983081Y-203872257D02*
X200054510Y-204015114D01*
X200054510Y-204015114D02*
X200054510Y-204800828D01*
X200054510Y-204015114D02*
X200125938Y-203872257D01*
X200125938Y-203872257D02*
X200268795Y-203800828D01*
X200268795Y-203800828D02*
X200483081Y-203800828D01*
X200483081Y-203800828D02*
X200625938Y-203872257D01*
X200625938Y-203872257D02*
X200697367Y-204015114D01*
X200697367Y-204015114D02*
X200697367Y-204800828D01*
X201625938Y-204800828D02*
X201483081Y-204729400D01*
X201483081Y-204729400D02*
X201411652Y-204657971D01*
X201411652Y-204657971D02*
X201340224Y-204515114D01*
X201340224Y-204515114D02*
X201340224Y-204086542D01*
X201340224Y-204086542D02*
X201411652Y-203943685D01*
X201411652Y-203943685D02*
X201483081Y-203872257D01*
X201483081Y-203872257D02*
X201625938Y-203800828D01*
X201625938Y-203800828D02*
X201840224Y-203800828D01*
X201840224Y-203800828D02*
X201983081Y-203872257D01*
X201983081Y-203872257D02*
X202054510Y-203943685D01*
X202054510Y-203943685D02*
X202125938Y-204086542D01*
X202125938Y-204086542D02*
X202125938Y-204515114D01*
X202125938Y-204515114D02*
X202054510Y-204657971D01*
X202054510Y-204657971D02*
X201983081Y-204729400D01*
X201983081Y-204729400D02*
X201840224Y-204800828D01*
X201840224Y-204800828D02*
X201625938Y-204800828D01*
X202768795Y-203800828D02*
X202768795Y-204800828D01*
X202768795Y-203943685D02*
X202840224Y-203872257D01*
X202840224Y-203872257D02*
X202983081Y-203800828D01*
X202983081Y-203800828D02*
X203197367Y-203800828D01*
X203197367Y-203800828D02*
X203340224Y-203872257D01*
X203340224Y-203872257D02*
X203411653Y-204015114D01*
X203411653Y-204015114D02*
X203411653Y-204800828D01*
X205768795Y-204015114D02*
X205983081Y-204086542D01*
X205983081Y-204086542D02*
X206054510Y-204157971D01*
X206054510Y-204157971D02*
X206125938Y-204300828D01*
X206125938Y-204300828D02*
X206125938Y-204515114D01*
X206125938Y-204515114D02*
X206054510Y-204657971D01*
X206054510Y-204657971D02*
X205983081Y-204729400D01*
X205983081Y-204729400D02*
X205840224Y-204800828D01*
X205840224Y-204800828D02*
X205268795Y-204800828D01*
X205268795Y-204800828D02*
X205268795Y-203300828D01*
X205268795Y-203300828D02*
X205768795Y-203300828D01*
X205768795Y-203300828D02*
X205911653Y-203372257D01*
X205911653Y-203372257D02*
X205983081Y-203443685D01*
X205983081Y-203443685D02*
X206054510Y-203586542D01*
X206054510Y-203586542D02*
X206054510Y-203729400D01*
X206054510Y-203729400D02*
X205983081Y-203872257D01*
X205983081Y-203872257D02*
X205911653Y-203943685D01*
X205911653Y-203943685D02*
X205768795Y-204015114D01*
X205768795Y-204015114D02*
X205268795Y-204015114D01*
X206768795Y-204800828D02*
X206768795Y-203800828D01*
X206768795Y-203300828D02*
X206697367Y-203372257D01*
X206697367Y-203372257D02*
X206768795Y-203443685D01*
X206768795Y-203443685D02*
X206840224Y-203372257D01*
X206840224Y-203372257D02*
X206768795Y-203300828D01*
X206768795Y-203300828D02*
X206768795Y-203443685D01*
X207411653Y-204729400D02*
X207554510Y-204800828D01*
X207554510Y-204800828D02*
X207840224Y-204800828D01*
X207840224Y-204800828D02*
X207983081Y-204729400D01*
X207983081Y-204729400D02*
X208054510Y-204586542D01*
X208054510Y-204586542D02*
X208054510Y-204515114D01*
X208054510Y-204515114D02*
X207983081Y-204372257D01*
X207983081Y-204372257D02*
X207840224Y-204300828D01*
X207840224Y-204300828D02*
X207625939Y-204300828D01*
X207625939Y-204300828D02*
X207483081Y-204229400D01*
X207483081Y-204229400D02*
X207411653Y-204086542D01*
X207411653Y-204086542D02*
X207411653Y-204015114D01*
X207411653Y-204015114D02*
X207483081Y-203872257D01*
X207483081Y-203872257D02*
X207625939Y-203800828D01*
X207625939Y-203800828D02*
X207840224Y-203800828D01*
X207840224Y-203800828D02*
X207983081Y-203872257D01*
X208697367Y-204800828D02*
X208697367Y-203300828D01*
X209340225Y-204800828D02*
X209340225Y-204015114D01*
X209340225Y-204015114D02*
X209268796Y-203872257D01*
X209268796Y-203872257D02*
X209125939Y-203800828D01*
X209125939Y-203800828D02*
X208911653Y-203800828D01*
X208911653Y-203800828D02*
X208768796Y-203872257D01*
X208768796Y-203872257D02*
X208697367Y-203943685D01*
X210268796Y-204800828D02*
X210125939Y-204729400D01*
X210125939Y-204729400D02*
X210054510Y-204657971D01*
X210054510Y-204657971D02*
X209983082Y-204515114D01*
X209983082Y-204515114D02*
X209983082Y-204086542D01*
X209983082Y-204086542D02*
X210054510Y-203943685D01*
X210054510Y-203943685D02*
X210125939Y-203872257D01*
X210125939Y-203872257D02*
X210268796Y-203800828D01*
X210268796Y-203800828D02*
X210483082Y-203800828D01*
X210483082Y-203800828D02*
X210625939Y-203872257D01*
X210625939Y-203872257D02*
X210697368Y-203943685D01*
X210697368Y-203943685D02*
X210768796Y-204086542D01*
X210768796Y-204086542D02*
X210768796Y-204515114D01*
X210768796Y-204515114D02*
X210697368Y-204657971D01*
X210697368Y-204657971D02*
X210625939Y-204729400D01*
X210625939Y-204729400D02*
X210483082Y-204800828D01*
X210483082Y-204800828D02*
X210268796Y-204800828D01*
X211411653Y-203800828D02*
X211411653Y-205300828D01*
X211411653Y-203872257D02*
X211554511Y-203800828D01*
X211554511Y-203800828D02*
X211840225Y-203800828D01*
X211840225Y-203800828D02*
X211983082Y-203872257D01*
X211983082Y-203872257D02*
X212054511Y-203943685D01*
X212054511Y-203943685D02*
X212125939Y-204086542D01*
X212125939Y-204086542D02*
X212125939Y-204515114D01*
X212125939Y-204515114D02*
X212054511Y-204657971D01*
X212054511Y-204657971D02*
X211983082Y-204729400D01*
X211983082Y-204729400D02*
X211840225Y-204800828D01*
X211840225Y-204800828D02*
X211554511Y-204800828D01*
X211554511Y-204800828D02*
X211411653Y-204729400D01*
D13*
X184867950Y-190722071D02*
X185239378Y-190722071D01*
X185239378Y-190722071D02*
X185039378Y-190950642D01*
X185039378Y-190950642D02*
X185125093Y-190950642D01*
X185125093Y-190950642D02*
X185182236Y-190979214D01*
X185182236Y-190979214D02*
X185210807Y-191007785D01*
X185210807Y-191007785D02*
X185239378Y-191064928D01*
X185239378Y-191064928D02*
X185239378Y-191207785D01*
X185239378Y-191207785D02*
X185210807Y-191264928D01*
X185210807Y-191264928D02*
X185182236Y-191293500D01*
X185182236Y-191293500D02*
X185125093Y-191322071D01*
X185125093Y-191322071D02*
X184953664Y-191322071D01*
X184953664Y-191322071D02*
X184896521Y-191293500D01*
X184896521Y-191293500D02*
X184867950Y-191264928D01*
X185496522Y-191264928D02*
X185525093Y-191293500D01*
X185525093Y-191293500D02*
X185496522Y-191322071D01*
X185496522Y-191322071D02*
X185467950Y-191293500D01*
X185467950Y-191293500D02*
X185496522Y-191264928D01*
X185496522Y-191264928D02*
X185496522Y-191322071D01*
X185725093Y-190722071D02*
X186125093Y-190722071D01*
X186125093Y-190722071D02*
X185867950Y-191322071D01*
X186267950Y-190722071D02*
X186467950Y-191322071D01*
X186467950Y-191322071D02*
X186667950Y-190722071D01*
X186896522Y-191293500D02*
X186896522Y-191322071D01*
X186896522Y-191322071D02*
X186867951Y-191379214D01*
X186867951Y-191379214D02*
X186839379Y-191407785D01*
X187925093Y-191322071D02*
X187582236Y-191322071D01*
X187753665Y-191322071D02*
X187753665Y-190722071D01*
X187753665Y-190722071D02*
X187696522Y-190807785D01*
X187696522Y-190807785D02*
X187639379Y-190864928D01*
X187639379Y-190864928D02*
X187582236Y-190893500D01*
X188267951Y-190979214D02*
X188210808Y-190950642D01*
X188210808Y-190950642D02*
X188182237Y-190922071D01*
X188182237Y-190922071D02*
X188153665Y-190864928D01*
X188153665Y-190864928D02*
X188153665Y-190836357D01*
X188153665Y-190836357D02*
X188182237Y-190779214D01*
X188182237Y-190779214D02*
X188210808Y-190750642D01*
X188210808Y-190750642D02*
X188267951Y-190722071D01*
X188267951Y-190722071D02*
X188382237Y-190722071D01*
X188382237Y-190722071D02*
X188439380Y-190750642D01*
X188439380Y-190750642D02*
X188467951Y-190779214D01*
X188467951Y-190779214D02*
X188496522Y-190836357D01*
X188496522Y-190836357D02*
X188496522Y-190864928D01*
X188496522Y-190864928D02*
X188467951Y-190922071D01*
X188467951Y-190922071D02*
X188439380Y-190950642D01*
X188439380Y-190950642D02*
X188382237Y-190979214D01*
X188382237Y-190979214D02*
X188267951Y-190979214D01*
X188267951Y-190979214D02*
X188210808Y-191007785D01*
X188210808Y-191007785D02*
X188182237Y-191036357D01*
X188182237Y-191036357D02*
X188153665Y-191093500D01*
X188153665Y-191093500D02*
X188153665Y-191207785D01*
X188153665Y-191207785D02*
X188182237Y-191264928D01*
X188182237Y-191264928D02*
X188210808Y-191293500D01*
X188210808Y-191293500D02*
X188267951Y-191322071D01*
X188267951Y-191322071D02*
X188382237Y-191322071D01*
X188382237Y-191322071D02*
X188439380Y-191293500D01*
X188439380Y-191293500D02*
X188467951Y-191264928D01*
X188467951Y-191264928D02*
X188496522Y-191207785D01*
X188496522Y-191207785D02*
X188496522Y-191093500D01*
X188496522Y-191093500D02*
X188467951Y-191036357D01*
X188467951Y-191036357D02*
X188439380Y-191007785D01*
X188439380Y-191007785D02*
X188382237Y-190979214D01*
X188867951Y-190722071D02*
X188925094Y-190722071D01*
X188925094Y-190722071D02*
X188982237Y-190750642D01*
X188982237Y-190750642D02*
X189010809Y-190779214D01*
X189010809Y-190779214D02*
X189039380Y-190836357D01*
X189039380Y-190836357D02*
X189067951Y-190950642D01*
X189067951Y-190950642D02*
X189067951Y-191093500D01*
X189067951Y-191093500D02*
X189039380Y-191207785D01*
X189039380Y-191207785D02*
X189010809Y-191264928D01*
X189010809Y-191264928D02*
X188982237Y-191293500D01*
X188982237Y-191293500D02*
X188925094Y-191322071D01*
X188925094Y-191322071D02*
X188867951Y-191322071D01*
X188867951Y-191322071D02*
X188810809Y-191293500D01*
X188810809Y-191293500D02*
X188782237Y-191264928D01*
X188782237Y-191264928D02*
X188753666Y-191207785D01*
X188753666Y-191207785D02*
X188725094Y-191093500D01*
X188725094Y-191093500D02*
X188725094Y-190950642D01*
X188725094Y-190950642D02*
X188753666Y-190836357D01*
X188753666Y-190836357D02*
X188782237Y-190779214D01*
X188782237Y-190779214D02*
X188810809Y-190750642D01*
X188810809Y-190750642D02*
X188867951Y-190722071D01*
X189439380Y-190722071D02*
X189496523Y-190722071D01*
X189496523Y-190722071D02*
X189553666Y-190750642D01*
X189553666Y-190750642D02*
X189582238Y-190779214D01*
X189582238Y-190779214D02*
X189610809Y-190836357D01*
X189610809Y-190836357D02*
X189639380Y-190950642D01*
X189639380Y-190950642D02*
X189639380Y-191093500D01*
X189639380Y-191093500D02*
X189610809Y-191207785D01*
X189610809Y-191207785D02*
X189582238Y-191264928D01*
X189582238Y-191264928D02*
X189553666Y-191293500D01*
X189553666Y-191293500D02*
X189496523Y-191322071D01*
X189496523Y-191322071D02*
X189439380Y-191322071D01*
X189439380Y-191322071D02*
X189382238Y-191293500D01*
X189382238Y-191293500D02*
X189353666Y-191264928D01*
X189353666Y-191264928D02*
X189325095Y-191207785D01*
X189325095Y-191207785D02*
X189296523Y-191093500D01*
X189296523Y-191093500D02*
X189296523Y-190950642D01*
X189296523Y-190950642D02*
X189325095Y-190836357D01*
X189325095Y-190836357D02*
X189353666Y-190779214D01*
X189353666Y-190779214D02*
X189382238Y-190750642D01*
X189382238Y-190750642D02*
X189439380Y-190722071D01*
X189896524Y-191322071D02*
X189896524Y-190922071D01*
X189896524Y-190979214D02*
X189925095Y-190950642D01*
X189925095Y-190950642D02*
X189982238Y-190922071D01*
X189982238Y-190922071D02*
X190067952Y-190922071D01*
X190067952Y-190922071D02*
X190125095Y-190950642D01*
X190125095Y-190950642D02*
X190153667Y-191007785D01*
X190153667Y-191007785D02*
X190153667Y-191322071D01*
X190153667Y-191007785D02*
X190182238Y-190950642D01*
X190182238Y-190950642D02*
X190239381Y-190922071D01*
X190239381Y-190922071D02*
X190325095Y-190922071D01*
X190325095Y-190922071D02*
X190382238Y-190950642D01*
X190382238Y-190950642D02*
X190410809Y-191007785D01*
X190410809Y-191007785D02*
X190410809Y-191322071D01*
X190667952Y-191150642D02*
X190953667Y-191150642D01*
X190610809Y-191322071D02*
X190810809Y-190722071D01*
X190810809Y-190722071D02*
X191010809Y-191322071D01*
X191210810Y-191322071D02*
X191210810Y-190722071D01*
X191467953Y-191322071D02*
X191467953Y-191007785D01*
X191467953Y-191007785D02*
X191439381Y-190950642D01*
X191439381Y-190950642D02*
X191382238Y-190922071D01*
X191382238Y-190922071D02*
X191296524Y-190922071D01*
X191296524Y-190922071D02*
X191239381Y-190950642D01*
X191239381Y-190950642D02*
X191210810Y-190979214D01*
D10*
X184250000Y-190250000D02*
X192750000Y-190250000D01*
X192750000Y-191750000D01*
X184250000Y-191750000D01*
X184250000Y-190250000D01*
D15*
X265408196Y-163379033D02*
X264951332Y-163363079D01*
X265179764Y-163371056D02*
X265207684Y-162571543D01*
X265207684Y-162571543D02*
X265127551Y-162683100D01*
X265127551Y-162683100D02*
X265048748Y-162756585D01*
X265048748Y-162756585D02*
X264971274Y-162791998D01*
X265931053Y-162596804D02*
X266007197Y-162599463D01*
X266007197Y-162599463D02*
X266082011Y-162640194D01*
X266082011Y-162640194D02*
X266118754Y-162679595D01*
X266118754Y-162679595D02*
X266154167Y-162757069D01*
X266154167Y-162757069D02*
X266186921Y-162910687D01*
X266186921Y-162910687D02*
X266180273Y-163101047D01*
X266180273Y-163101047D02*
X266136883Y-163252005D01*
X266136883Y-163252005D02*
X266096152Y-163326820D01*
X266096152Y-163326820D02*
X266056751Y-163363563D01*
X266056751Y-163363563D02*
X265979277Y-163398976D01*
X265979277Y-163398976D02*
X265903133Y-163396317D01*
X265903133Y-163396317D02*
X265828318Y-163355586D01*
X265828318Y-163355586D02*
X265791576Y-163316184D01*
X265791576Y-163316184D02*
X265756163Y-163238710D01*
X265756163Y-163238710D02*
X265723409Y-163085093D01*
X265723409Y-163085093D02*
X265730056Y-162894733D01*
X265730056Y-162894733D02*
X265773446Y-162743774D01*
X265773446Y-162743774D02*
X265814177Y-162668959D01*
X265814177Y-162668959D02*
X265853579Y-162632217D01*
X265853579Y-162632217D02*
X265931053Y-162596804D01*
X266692493Y-162623394D02*
X266768637Y-162626053D01*
X266768637Y-162626053D02*
X266843452Y-162666784D01*
X266843452Y-162666784D02*
X266880195Y-162706186D01*
X266880195Y-162706186D02*
X266915608Y-162783659D01*
X266915608Y-162783659D02*
X266948362Y-162937277D01*
X266948362Y-162937277D02*
X266941714Y-163127637D01*
X266941714Y-163127637D02*
X266898324Y-163278596D01*
X266898324Y-163278596D02*
X266857593Y-163353410D01*
X266857593Y-163353410D02*
X266818191Y-163390153D01*
X266818191Y-163390153D02*
X266740718Y-163425566D01*
X266740718Y-163425566D02*
X266664574Y-163422907D01*
X266664574Y-163422907D02*
X266589759Y-163382176D01*
X266589759Y-163382176D02*
X266553017Y-163342774D01*
X266553017Y-163342774D02*
X266517604Y-163265301D01*
X266517604Y-163265301D02*
X266484850Y-163111683D01*
X266484850Y-163111683D02*
X266491497Y-162921323D01*
X266491497Y-162921323D02*
X266534887Y-162770364D01*
X266534887Y-162770364D02*
X266575618Y-162695550D01*
X266575618Y-162695550D02*
X266615020Y-162658807D01*
X266615020Y-162658807D02*
X266692493Y-162623394D01*
X254278696Y-149482153D02*
X254517281Y-150290972D01*
X254517281Y-150290972D02*
X254811705Y-149500766D01*
X255509813Y-150249395D02*
X255470411Y-150286138D01*
X255470411Y-150286138D02*
X255354865Y-150320222D01*
X255354865Y-150320222D02*
X255278721Y-150317563D01*
X255278721Y-150317563D02*
X255165835Y-150275502D01*
X255165835Y-150275502D02*
X255092350Y-150196699D01*
X255092350Y-150196699D02*
X255056937Y-150119225D01*
X255056937Y-150119225D02*
X255024183Y-149965608D01*
X255024183Y-149965608D02*
X255028171Y-149851392D01*
X255028171Y-149851392D02*
X255071561Y-149700433D01*
X255071561Y-149700433D02*
X255112292Y-149625618D01*
X255112292Y-149625618D02*
X255191095Y-149552133D01*
X255191095Y-149552133D02*
X255306641Y-149518050D01*
X255306641Y-149518050D02*
X255382785Y-149520709D01*
X255382785Y-149520709D02*
X255495672Y-149562769D01*
X255495672Y-149562769D02*
X255532414Y-149602171D01*
X256309325Y-150277315D02*
X256269924Y-150314058D01*
X256269924Y-150314058D02*
X256154378Y-150348141D01*
X256154378Y-150348141D02*
X256078234Y-150345482D01*
X256078234Y-150345482D02*
X255965347Y-150303422D01*
X255965347Y-150303422D02*
X255891862Y-150224619D01*
X255891862Y-150224619D02*
X255856449Y-150147145D01*
X255856449Y-150147145D02*
X255823695Y-149993527D01*
X255823695Y-149993527D02*
X255827684Y-149879311D01*
X255827684Y-149879311D02*
X255871074Y-149728353D01*
X255871074Y-149728353D02*
X255911805Y-149653538D01*
X255911805Y-149653538D02*
X255990608Y-149580053D01*
X255990608Y-149580053D02*
X256106154Y-149545969D01*
X256106154Y-149545969D02*
X256182298Y-149548628D01*
X256182298Y-149548628D02*
X256295184Y-149590689D01*
X256295184Y-149590689D02*
X256331927Y-149630091D01*
X253924688Y-167260629D02*
X254000832Y-167263288D01*
X254000832Y-167263288D02*
X254075646Y-167304019D01*
X254075646Y-167304019D02*
X254112389Y-167343420D01*
X254112389Y-167343420D02*
X254147802Y-167420894D01*
X254147802Y-167420894D02*
X254180556Y-167574512D01*
X254180556Y-167574512D02*
X254173908Y-167764872D01*
X254173908Y-167764872D02*
X254130518Y-167915830D01*
X254130518Y-167915830D02*
X254089787Y-167990645D01*
X254089787Y-167990645D02*
X254050386Y-168027387D01*
X254050386Y-168027387D02*
X253972912Y-168062800D01*
X253972912Y-168062800D02*
X253896768Y-168060141D01*
X253896768Y-168060141D02*
X253821954Y-168019410D01*
X253821954Y-168019410D02*
X253785211Y-167980009D01*
X253785211Y-167980009D02*
X253749798Y-167902535D01*
X253749798Y-167902535D02*
X253717044Y-167748918D01*
X253717044Y-167748918D02*
X253723691Y-167558558D01*
X253723691Y-167558558D02*
X253767082Y-167407599D01*
X253767082Y-167407599D02*
X253807813Y-167332784D01*
X253807813Y-167332784D02*
X253847214Y-167296042D01*
X253847214Y-167296042D02*
X253924688Y-167260629D01*
X254924713Y-168096038D02*
X254467849Y-168080084D01*
X254696281Y-168088061D02*
X254724201Y-167288548D01*
X254724201Y-167288548D02*
X254644068Y-167400105D01*
X254644068Y-167400105D02*
X254565265Y-167473591D01*
X254565265Y-167473591D02*
X254487791Y-167509004D01*
X255447569Y-167313809D02*
X255523713Y-167316468D01*
X255523713Y-167316468D02*
X255598528Y-167357199D01*
X255598528Y-167357199D02*
X255635271Y-167396601D01*
X255635271Y-167396601D02*
X255670684Y-167474074D01*
X255670684Y-167474074D02*
X255703438Y-167627692D01*
X255703438Y-167627692D02*
X255696790Y-167818052D01*
X255696790Y-167818052D02*
X255653400Y-167969011D01*
X255653400Y-167969011D02*
X255612669Y-168043825D01*
X255612669Y-168043825D02*
X255573267Y-168080568D01*
X255573267Y-168080568D02*
X255495794Y-168115981D01*
X255495794Y-168115981D02*
X255419650Y-168113322D01*
X255419650Y-168113322D02*
X255344835Y-168072591D01*
X255344835Y-168072591D02*
X255308093Y-168033189D01*
X255308093Y-168033189D02*
X255272680Y-167955716D01*
X255272680Y-167955716D02*
X255239926Y-167802098D01*
X255239926Y-167802098D02*
X255246573Y-167611738D01*
X255246573Y-167611738D02*
X255289963Y-167460779D01*
X255289963Y-167460779D02*
X255330694Y-167385965D01*
X255330694Y-167385965D02*
X255370096Y-167349222D01*
X255370096Y-167349222D02*
X255447569Y-167313809D01*
X265523842Y-152426397D02*
X265599986Y-152429056D01*
X265599986Y-152429056D02*
X265674800Y-152469787D01*
X265674800Y-152469787D02*
X265711543Y-152509188D01*
X265711543Y-152509188D02*
X265746956Y-152586662D01*
X265746956Y-152586662D02*
X265779710Y-152740280D01*
X265779710Y-152740280D02*
X265773062Y-152930640D01*
X265773062Y-152930640D02*
X265729672Y-153081598D01*
X265729672Y-153081598D02*
X265688941Y-153156413D01*
X265688941Y-153156413D02*
X265649540Y-153193155D01*
X265649540Y-153193155D02*
X265572066Y-153228568D01*
X265572066Y-153228568D02*
X265495922Y-153225909D01*
X265495922Y-153225909D02*
X265421108Y-153185178D01*
X265421108Y-153185178D02*
X265384365Y-153145777D01*
X265384365Y-153145777D02*
X265348952Y-153068303D01*
X265348952Y-153068303D02*
X265316198Y-152914686D01*
X265316198Y-152914686D02*
X265322845Y-152724326D01*
X265322845Y-152724326D02*
X265366236Y-152573367D01*
X265366236Y-152573367D02*
X265406967Y-152498552D01*
X265406967Y-152498552D02*
X265446368Y-152461810D01*
X265446368Y-152461810D02*
X265523842Y-152426397D01*
X266523867Y-153261806D02*
X266067003Y-153245852D01*
X266295435Y-153253829D02*
X266323355Y-152454316D01*
X266323355Y-152454316D02*
X266243222Y-152565873D01*
X266243222Y-152565873D02*
X266164419Y-152639359D01*
X266164419Y-152639359D02*
X266086945Y-152674772D01*
X266818291Y-152471600D02*
X267351300Y-152490213D01*
X267351300Y-152490213D02*
X266980732Y-153277760D01*
X255094120Y-142686471D02*
X254840911Y-142296444D01*
X254637256Y-142670517D02*
X254665175Y-141871005D01*
X254665175Y-141871005D02*
X254969752Y-141881641D01*
X254969752Y-141881641D02*
X255044566Y-141922372D01*
X255044566Y-141922372D02*
X255081309Y-141961773D01*
X255081309Y-141961773D02*
X255116722Y-142039247D01*
X255116722Y-142039247D02*
X255112733Y-142153463D01*
X255112733Y-142153463D02*
X255072002Y-142228277D01*
X255072002Y-142228277D02*
X255032601Y-142265020D01*
X255032601Y-142265020D02*
X254955127Y-142300433D01*
X254955127Y-142300433D02*
X254650551Y-142289797D01*
X255406673Y-142468675D02*
X255787394Y-142481970D01*
X255322552Y-142694448D02*
X255616976Y-141904242D01*
X255616976Y-141904242D02*
X255855561Y-142713061D01*
X256073840Y-141920196D02*
X256236281Y-142726356D01*
X256236281Y-142726356D02*
X256408511Y-142160594D01*
X256408511Y-142160594D02*
X256540857Y-142736992D01*
X256540857Y-142736992D02*
X256759137Y-141944127D01*
X265345855Y-157523290D02*
X265421999Y-157525949D01*
X265421999Y-157525949D02*
X265496813Y-157566680D01*
X265496813Y-157566680D02*
X265533556Y-157606081D01*
X265533556Y-157606081D02*
X265568969Y-157683555D01*
X265568969Y-157683555D02*
X265601723Y-157837173D01*
X265601723Y-157837173D02*
X265595075Y-158027533D01*
X265595075Y-158027533D02*
X265551685Y-158178491D01*
X265551685Y-158178491D02*
X265510954Y-158253306D01*
X265510954Y-158253306D02*
X265471553Y-158290048D01*
X265471553Y-158290048D02*
X265394079Y-158325461D01*
X265394079Y-158325461D02*
X265317935Y-158322802D01*
X265317935Y-158322802D02*
X265243121Y-158282071D01*
X265243121Y-158282071D02*
X265206378Y-158242670D01*
X265206378Y-158242670D02*
X265170965Y-158165196D01*
X265170965Y-158165196D02*
X265138211Y-158011579D01*
X265138211Y-158011579D02*
X265144858Y-157821219D01*
X265144858Y-157821219D02*
X265188249Y-157670260D01*
X265188249Y-157670260D02*
X265228980Y-157595445D01*
X265228980Y-157595445D02*
X265268381Y-157558703D01*
X265268381Y-157558703D02*
X265345855Y-157523290D01*
X265914276Y-157619376D02*
X265953678Y-157582634D01*
X265953678Y-157582634D02*
X266031151Y-157547221D01*
X266031151Y-157547221D02*
X266221512Y-157553868D01*
X266221512Y-157553868D02*
X266296326Y-157594599D01*
X266296326Y-157594599D02*
X266333069Y-157634001D01*
X266333069Y-157634001D02*
X266368482Y-157711475D01*
X266368482Y-157711475D02*
X266365823Y-157787619D01*
X266365823Y-157787619D02*
X266323762Y-157900505D01*
X266323762Y-157900505D02*
X265850944Y-158341416D01*
X265850944Y-158341416D02*
X266345880Y-158358699D01*
X266675717Y-157645967D02*
X266715119Y-157609224D01*
X266715119Y-157609224D02*
X266792592Y-157573811D01*
X266792592Y-157573811D02*
X266982952Y-157580458D01*
X266982952Y-157580458D02*
X267057767Y-157621190D01*
X267057767Y-157621190D02*
X267094510Y-157660591D01*
X267094510Y-157660591D02*
X267129923Y-157738065D01*
X267129923Y-157738065D02*
X267127264Y-157814209D01*
X267127264Y-157814209D02*
X267085203Y-157927095D01*
X267085203Y-157927095D02*
X266612385Y-158368006D01*
X266612385Y-158368006D02*
X267107321Y-158385289D01*
X254340561Y-162992543D02*
X253883697Y-162976589D01*
X254112129Y-162984566D02*
X254140049Y-162185053D01*
X254140049Y-162185053D02*
X254059916Y-162296610D01*
X254059916Y-162296610D02*
X253981113Y-162370095D01*
X253981113Y-162370095D02*
X253903639Y-162405508D01*
X255102002Y-163019133D02*
X254645138Y-163003179D01*
X254873570Y-163011156D02*
X254901490Y-162211643D01*
X254901490Y-162211643D02*
X254821357Y-162323200D01*
X254821357Y-162323200D02*
X254742554Y-162396686D01*
X254742554Y-162396686D02*
X254665080Y-162432099D01*
X255396426Y-162228927D02*
X255891363Y-162246211D01*
X255891363Y-162246211D02*
X255614222Y-162541480D01*
X255614222Y-162541480D02*
X255728438Y-162545469D01*
X255728438Y-162545469D02*
X255803253Y-162586200D01*
X255803253Y-162586200D02*
X255839996Y-162625601D01*
X255839996Y-162625601D02*
X255875409Y-162703075D01*
X255875409Y-162703075D02*
X255868761Y-162893435D01*
X255868761Y-162893435D02*
X255828030Y-162968250D01*
X255828030Y-162968250D02*
X255788628Y-163004992D01*
X255788628Y-163004992D02*
X255711155Y-163040405D01*
X255711155Y-163040405D02*
X255482723Y-163032428D01*
X255482723Y-163032428D02*
X255407908Y-162991697D01*
X255407908Y-162991697D02*
X255371166Y-162952296D01*
X265725723Y-149920010D02*
X265650908Y-149879279D01*
X265650908Y-149879279D02*
X265536692Y-149875291D01*
X265536692Y-149875291D02*
X265421147Y-149909374D01*
X265421147Y-149909374D02*
X265342343Y-149982859D01*
X265342343Y-149982859D02*
X265301612Y-150057674D01*
X265301612Y-150057674D02*
X265258222Y-150208633D01*
X265258222Y-150208633D02*
X265254234Y-150322849D01*
X265254234Y-150322849D02*
X265286988Y-150476466D01*
X265286988Y-150476466D02*
X265322401Y-150553940D01*
X265322401Y-150553940D02*
X265395886Y-150632743D01*
X265395886Y-150632743D02*
X265508773Y-150674803D01*
X265508773Y-150674803D02*
X265584917Y-150677462D01*
X265584917Y-150677462D02*
X265700462Y-150643379D01*
X265700462Y-150643379D02*
X265739864Y-150606636D01*
X265739864Y-150606636D02*
X265749170Y-150340132D01*
X265749170Y-150340132D02*
X265596882Y-150334814D01*
X266079853Y-150694746D02*
X266107773Y-149895233D01*
X266107773Y-149895233D02*
X266536717Y-150710700D01*
X266536717Y-150710700D02*
X266564637Y-149911187D01*
X266917437Y-150723995D02*
X266945357Y-149924482D01*
X266945357Y-149924482D02*
X267135717Y-149931130D01*
X267135717Y-149931130D02*
X267248604Y-149973191D01*
X267248604Y-149973191D02*
X267322089Y-150051994D01*
X267322089Y-150051994D02*
X267357502Y-150129467D01*
X267357502Y-150129467D02*
X267390256Y-150283085D01*
X267390256Y-150283085D02*
X267386267Y-150397301D01*
X267386267Y-150397301D02*
X267342877Y-150548260D01*
X267342877Y-150548260D02*
X267302146Y-150623074D01*
X267302146Y-150623074D02*
X267223343Y-150696559D01*
X267223343Y-150696559D02*
X267107798Y-150730643D01*
X267107798Y-150730643D02*
X266917437Y-150723995D01*
X254279267Y-157106818D02*
X254355411Y-157109477D01*
X254355411Y-157109477D02*
X254430225Y-157150208D01*
X254430225Y-157150208D02*
X254466968Y-157189609D01*
X254466968Y-157189609D02*
X254502381Y-157267083D01*
X254502381Y-157267083D02*
X254535135Y-157420701D01*
X254535135Y-157420701D02*
X254528487Y-157611061D01*
X254528487Y-157611061D02*
X254485097Y-157762019D01*
X254485097Y-157762019D02*
X254444366Y-157836834D01*
X254444366Y-157836834D02*
X254404965Y-157873576D01*
X254404965Y-157873576D02*
X254327491Y-157908989D01*
X254327491Y-157908989D02*
X254251347Y-157906330D01*
X254251347Y-157906330D02*
X254176533Y-157865599D01*
X254176533Y-157865599D02*
X254139790Y-157826198D01*
X254139790Y-157826198D02*
X254104377Y-157748724D01*
X254104377Y-157748724D02*
X254071623Y-157595107D01*
X254071623Y-157595107D02*
X254078270Y-157404747D01*
X254078270Y-157404747D02*
X254121661Y-157253788D01*
X254121661Y-157253788D02*
X254162392Y-157178973D01*
X254162392Y-157178973D02*
X254201793Y-157142231D01*
X254201793Y-157142231D02*
X254279267Y-157106818D01*
X255040708Y-157133408D02*
X255116852Y-157136067D01*
X255116852Y-157136067D02*
X255191666Y-157176798D01*
X255191666Y-157176798D02*
X255228409Y-157216199D01*
X255228409Y-157216199D02*
X255263822Y-157293673D01*
X255263822Y-157293673D02*
X255296576Y-157447291D01*
X255296576Y-157447291D02*
X255289928Y-157637651D01*
X255289928Y-157637651D02*
X255246538Y-157788609D01*
X255246538Y-157788609D02*
X255205807Y-157863424D01*
X255205807Y-157863424D02*
X255166406Y-157900167D01*
X255166406Y-157900167D02*
X255088932Y-157935580D01*
X255088932Y-157935580D02*
X255012788Y-157932921D01*
X255012788Y-157932921D02*
X254937973Y-157892190D01*
X254937973Y-157892190D02*
X254901231Y-157852788D01*
X254901231Y-157852788D02*
X254865818Y-157775314D01*
X254865818Y-157775314D02*
X254833064Y-157621697D01*
X254833064Y-157621697D02*
X254839711Y-157431337D01*
X254839711Y-157431337D02*
X254883101Y-157280378D01*
X254883101Y-157280378D02*
X254923832Y-157205563D01*
X254923832Y-157205563D02*
X254963234Y-157168821D01*
X254963234Y-157168821D02*
X255040708Y-157133408D01*
X255609129Y-157229495D02*
X255648531Y-157192752D01*
X255648531Y-157192752D02*
X255726004Y-157157339D01*
X255726004Y-157157339D02*
X255916364Y-157163986D01*
X255916364Y-157163986D02*
X255991179Y-157204718D01*
X255991179Y-157204718D02*
X256027922Y-157244119D01*
X256027922Y-157244119D02*
X256063335Y-157321593D01*
X256063335Y-157321593D02*
X256060676Y-157397737D01*
X256060676Y-157397737D02*
X256018615Y-157510623D01*
X256018615Y-157510623D02*
X255545797Y-157951534D01*
X255545797Y-157951534D02*
X256040733Y-157968817D01*
X254429206Y-160454090D02*
X253972342Y-160438136D01*
X254200774Y-160446113D02*
X254228694Y-159646600D01*
X254228694Y-159646600D02*
X254148561Y-159758157D01*
X254148561Y-159758157D02*
X254069758Y-159831642D01*
X254069758Y-159831642D02*
X253992284Y-159867055D01*
X255190647Y-160480680D02*
X254733783Y-160464726D01*
X254962215Y-160472703D02*
X254990135Y-159673190D01*
X254990135Y-159673190D02*
X254910002Y-159784747D01*
X254910002Y-159784747D02*
X254831199Y-159858233D01*
X254831199Y-159858233D02*
X254753725Y-159893646D01*
X255941936Y-159706428D02*
X255561215Y-159693133D01*
X255561215Y-159693133D02*
X255509848Y-160072524D01*
X255509848Y-160072524D02*
X255549250Y-160035781D01*
X255549250Y-160035781D02*
X255626723Y-160000368D01*
X255626723Y-160000368D02*
X255817083Y-160007016D01*
X255817083Y-160007016D02*
X255891898Y-160047747D01*
X255891898Y-160047747D02*
X255928641Y-160087148D01*
X255928641Y-160087148D02*
X255964054Y-160164622D01*
X255964054Y-160164622D02*
X255957406Y-160354982D01*
X255957406Y-160354982D02*
X255916675Y-160429797D01*
X255916675Y-160429797D02*
X255877273Y-160466539D01*
X255877273Y-160466539D02*
X255799800Y-160501952D01*
X255799800Y-160501952D02*
X255609440Y-160495305D01*
X255609440Y-160495305D02*
X255534625Y-160454574D01*
X255534625Y-160454574D02*
X255497883Y-160415172D01*
X254916833Y-147763377D02*
X254663623Y-147373350D01*
X254459968Y-147747423D02*
X254487888Y-146947910D01*
X254487888Y-146947910D02*
X254792464Y-146958546D01*
X254792464Y-146958546D02*
X254867279Y-146999277D01*
X254867279Y-146999277D02*
X254904021Y-147038679D01*
X254904021Y-147038679D02*
X254939434Y-147116152D01*
X254939434Y-147116152D02*
X254935446Y-147230368D01*
X254935446Y-147230368D02*
X254894715Y-147305183D01*
X254894715Y-147305183D02*
X254855313Y-147341925D01*
X254855313Y-147341925D02*
X254777839Y-147377338D01*
X254777839Y-147377338D02*
X254473263Y-147366702D01*
X255222738Y-147735941D02*
X255335625Y-147778001D01*
X255335625Y-147778001D02*
X255525985Y-147784649D01*
X255525985Y-147784649D02*
X255603459Y-147749236D01*
X255603459Y-147749236D02*
X255642860Y-147712493D01*
X255642860Y-147712493D02*
X255683591Y-147637679D01*
X255683591Y-147637679D02*
X255686250Y-147561535D01*
X255686250Y-147561535D02*
X255650837Y-147484061D01*
X255650837Y-147484061D02*
X255614095Y-147444660D01*
X255614095Y-147444660D02*
X255539280Y-147403929D01*
X255539280Y-147403929D02*
X255388321Y-147360538D01*
X255388321Y-147360538D02*
X255313507Y-147319807D01*
X255313507Y-147319807D02*
X255276764Y-147280406D01*
X255276764Y-147280406D02*
X255241351Y-147202932D01*
X255241351Y-147202932D02*
X255244010Y-147126788D01*
X255244010Y-147126788D02*
X255284741Y-147051974D01*
X255284741Y-147051974D02*
X255324143Y-147015231D01*
X255324143Y-147015231D02*
X255401616Y-146979818D01*
X255401616Y-146979818D02*
X255591977Y-146986466D01*
X255591977Y-146986466D02*
X255704863Y-147028526D01*
X255934625Y-146998431D02*
X256391490Y-147014385D01*
X256135138Y-147805921D02*
X256163057Y-147006408D01*
X265258257Y-160031761D02*
X265334401Y-160034420D01*
X265334401Y-160034420D02*
X265409215Y-160075151D01*
X265409215Y-160075151D02*
X265445958Y-160114552D01*
X265445958Y-160114552D02*
X265481371Y-160192026D01*
X265481371Y-160192026D02*
X265514125Y-160345644D01*
X265514125Y-160345644D02*
X265507477Y-160536004D01*
X265507477Y-160536004D02*
X265464087Y-160686962D01*
X265464087Y-160686962D02*
X265423356Y-160761777D01*
X265423356Y-160761777D02*
X265383955Y-160798519D01*
X265383955Y-160798519D02*
X265306481Y-160833932D01*
X265306481Y-160833932D02*
X265230337Y-160831273D01*
X265230337Y-160831273D02*
X265155523Y-160790542D01*
X265155523Y-160790542D02*
X265118780Y-160751141D01*
X265118780Y-160751141D02*
X265083367Y-160673667D01*
X265083367Y-160673667D02*
X265050613Y-160520050D01*
X265050613Y-160520050D02*
X265057260Y-160329690D01*
X265057260Y-160329690D02*
X265100651Y-160178731D01*
X265100651Y-160178731D02*
X265141382Y-160103916D01*
X265141382Y-160103916D02*
X265180783Y-160067174D01*
X265180783Y-160067174D02*
X265258257Y-160031761D01*
X265826678Y-160127847D02*
X265866080Y-160091105D01*
X265866080Y-160091105D02*
X265943553Y-160055692D01*
X265943553Y-160055692D02*
X266133914Y-160062339D01*
X266133914Y-160062339D02*
X266208728Y-160103070D01*
X266208728Y-160103070D02*
X266245471Y-160142472D01*
X266245471Y-160142472D02*
X266280884Y-160219946D01*
X266280884Y-160219946D02*
X266278225Y-160296090D01*
X266278225Y-160296090D02*
X266236164Y-160408976D01*
X266236164Y-160408976D02*
X265763346Y-160849887D01*
X265763346Y-160849887D02*
X266258282Y-160867170D01*
X266962192Y-160358093D02*
X266943579Y-160891101D01*
X266782468Y-160046869D02*
X266572165Y-160611302D01*
X266572165Y-160611302D02*
X267067102Y-160628585D01*
X265792568Y-144731088D02*
X265868712Y-144733747D01*
X265868712Y-144733747D02*
X265943526Y-144774478D01*
X265943526Y-144774478D02*
X265980269Y-144813879D01*
X265980269Y-144813879D02*
X266015682Y-144891353D01*
X266015682Y-144891353D02*
X266048436Y-145044971D01*
X266048436Y-145044971D02*
X266041788Y-145235331D01*
X266041788Y-145235331D02*
X265998398Y-145386289D01*
X265998398Y-145386289D02*
X265957667Y-145461104D01*
X265957667Y-145461104D02*
X265918266Y-145497846D01*
X265918266Y-145497846D02*
X265840792Y-145533259D01*
X265840792Y-145533259D02*
X265764648Y-145530600D01*
X265764648Y-145530600D02*
X265689834Y-145489869D01*
X265689834Y-145489869D02*
X265653091Y-145450468D01*
X265653091Y-145450468D02*
X265617678Y-145372994D01*
X265617678Y-145372994D02*
X265584924Y-145219377D01*
X265584924Y-145219377D02*
X265591571Y-145029017D01*
X265591571Y-145029017D02*
X265634962Y-144878058D01*
X265634962Y-144878058D02*
X265675693Y-144803243D01*
X265675693Y-144803243D02*
X265715094Y-144766501D01*
X265715094Y-144766501D02*
X265792568Y-144731088D01*
X266554009Y-144757678D02*
X266630153Y-144760337D01*
X266630153Y-144760337D02*
X266704967Y-144801068D01*
X266704967Y-144801068D02*
X266741710Y-144840469D01*
X266741710Y-144840469D02*
X266777123Y-144917943D01*
X266777123Y-144917943D02*
X266809877Y-145071561D01*
X266809877Y-145071561D02*
X266803229Y-145261921D01*
X266803229Y-145261921D02*
X266759839Y-145412879D01*
X266759839Y-145412879D02*
X266719108Y-145487694D01*
X266719108Y-145487694D02*
X266679707Y-145524437D01*
X266679707Y-145524437D02*
X266602233Y-145559850D01*
X266602233Y-145559850D02*
X266526089Y-145557191D01*
X266526089Y-145557191D02*
X266451274Y-145516460D01*
X266451274Y-145516460D02*
X266414532Y-145477058D01*
X266414532Y-145477058D02*
X266379119Y-145399584D01*
X266379119Y-145399584D02*
X266346365Y-145245967D01*
X266346365Y-145245967D02*
X266353012Y-145055607D01*
X266353012Y-145055607D02*
X266396402Y-144904648D01*
X266396402Y-144904648D02*
X266437133Y-144829833D01*
X266437133Y-144829833D02*
X266476535Y-144793091D01*
X266476535Y-144793091D02*
X266554009Y-144757678D01*
X267265412Y-145125587D02*
X267190597Y-145084856D01*
X267190597Y-145084856D02*
X267153855Y-145045454D01*
X267153855Y-145045454D02*
X267118442Y-144967981D01*
X267118442Y-144967981D02*
X267119771Y-144929909D01*
X267119771Y-144929909D02*
X267160502Y-144855094D01*
X267160502Y-144855094D02*
X267199904Y-144818352D01*
X267199904Y-144818352D02*
X267277377Y-144782938D01*
X267277377Y-144782938D02*
X267429665Y-144788256D01*
X267429665Y-144788256D02*
X267504480Y-144828988D01*
X267504480Y-144828988D02*
X267541223Y-144868389D01*
X267541223Y-144868389D02*
X267576636Y-144945863D01*
X267576636Y-144945863D02*
X267575306Y-144983935D01*
X267575306Y-144983935D02*
X267534575Y-145058749D01*
X267534575Y-145058749D02*
X267495174Y-145095492D01*
X267495174Y-145095492D02*
X267417700Y-145130905D01*
X267417700Y-145130905D02*
X267265412Y-145125587D01*
X267265412Y-145125587D02*
X267187938Y-145161000D01*
X267187938Y-145161000D02*
X267148537Y-145197742D01*
X267148537Y-145197742D02*
X267107806Y-145272557D01*
X267107806Y-145272557D02*
X267102488Y-145424845D01*
X267102488Y-145424845D02*
X267137901Y-145502319D01*
X267137901Y-145502319D02*
X267174643Y-145541720D01*
X267174643Y-145541720D02*
X267249458Y-145582451D01*
X267249458Y-145582451D02*
X267401746Y-145587769D01*
X267401746Y-145587769D02*
X267479219Y-145552356D01*
X267479219Y-145552356D02*
X267518621Y-145515614D01*
X267518621Y-145515614D02*
X267559352Y-145440799D01*
X267559352Y-145440799D02*
X267564670Y-145288511D01*
X267564670Y-145288511D02*
X267529257Y-145211037D01*
X267529257Y-145211037D02*
X267492515Y-145171636D01*
X267492515Y-145171636D02*
X267417700Y-145130905D01*
X254251917Y-165530995D02*
X253795053Y-165515041D01*
X254023485Y-165523018D02*
X254051405Y-164723505D01*
X254051405Y-164723505D02*
X253971272Y-164835062D01*
X253971272Y-164835062D02*
X253892469Y-164908547D01*
X253892469Y-164908547D02*
X253814995Y-164943960D01*
X255013358Y-165557585D02*
X254556494Y-165541631D01*
X254784926Y-165549608D02*
X254812846Y-164750095D01*
X254812846Y-164750095D02*
X254732713Y-164861652D01*
X254732713Y-164861652D02*
X254653910Y-164935138D01*
X254653910Y-164935138D02*
X254576436Y-164970551D01*
X255774799Y-165584175D02*
X255317935Y-165568221D01*
X255546367Y-165576198D02*
X255574286Y-164776685D01*
X255574286Y-164776685D02*
X255494154Y-164888243D01*
X255494154Y-164888243D02*
X255415351Y-164961728D01*
X255415351Y-164961728D02*
X255337877Y-164997141D01*
X254367911Y-154568365D02*
X254444055Y-154571024D01*
X254444055Y-154571024D02*
X254518869Y-154611755D01*
X254518869Y-154611755D02*
X254555612Y-154651156D01*
X254555612Y-154651156D02*
X254591025Y-154728630D01*
X254591025Y-154728630D02*
X254623779Y-154882248D01*
X254623779Y-154882248D02*
X254617131Y-155072608D01*
X254617131Y-155072608D02*
X254573741Y-155223566D01*
X254573741Y-155223566D02*
X254533010Y-155298381D01*
X254533010Y-155298381D02*
X254493609Y-155335123D01*
X254493609Y-155335123D02*
X254416135Y-155370536D01*
X254416135Y-155370536D02*
X254339991Y-155367877D01*
X254339991Y-155367877D02*
X254265177Y-155327146D01*
X254265177Y-155327146D02*
X254228434Y-155287745D01*
X254228434Y-155287745D02*
X254193021Y-155210271D01*
X254193021Y-155210271D02*
X254160267Y-155056654D01*
X254160267Y-155056654D02*
X254166914Y-154866294D01*
X254166914Y-154866294D02*
X254210305Y-154715335D01*
X254210305Y-154715335D02*
X254251036Y-154640520D01*
X254251036Y-154640520D02*
X254290437Y-154603778D01*
X254290437Y-154603778D02*
X254367911Y-154568365D01*
X254936332Y-154664451D02*
X254975734Y-154627709D01*
X254975734Y-154627709D02*
X255053207Y-154592296D01*
X255053207Y-154592296D02*
X255243568Y-154598943D01*
X255243568Y-154598943D02*
X255318382Y-154639674D01*
X255318382Y-154639674D02*
X255355125Y-154679076D01*
X255355125Y-154679076D02*
X255390538Y-154756550D01*
X255390538Y-154756550D02*
X255387879Y-154832694D01*
X255387879Y-154832694D02*
X255345818Y-154945580D01*
X255345818Y-154945580D02*
X254873000Y-155386491D01*
X254873000Y-155386491D02*
X255367936Y-155403774D01*
X255748657Y-155417069D02*
X255900945Y-155422387D01*
X255900945Y-155422387D02*
X255978418Y-155386974D01*
X255978418Y-155386974D02*
X256017820Y-155350232D01*
X256017820Y-155350232D02*
X256097953Y-155238675D01*
X256097953Y-155238675D02*
X256141343Y-155087716D01*
X256141343Y-155087716D02*
X256151979Y-154783140D01*
X256151979Y-154783140D02*
X256116566Y-154705666D01*
X256116566Y-154705666D02*
X256079823Y-154666265D01*
X256079823Y-154666265D02*
X256005008Y-154625533D01*
X256005008Y-154625533D02*
X255852720Y-154620215D01*
X255852720Y-154620215D02*
X255775247Y-154655629D01*
X255775247Y-154655629D02*
X255735845Y-154692371D01*
X255735845Y-154692371D02*
X255695114Y-154767186D01*
X255695114Y-154767186D02*
X255688467Y-154957546D01*
X255688467Y-154957546D02*
X255723880Y-155035019D01*
X255723880Y-155035019D02*
X255760622Y-155074421D01*
X255760622Y-155074421D02*
X255835437Y-155115152D01*
X255835437Y-155115152D02*
X255987725Y-155120470D01*
X255987725Y-155120470D02*
X256065198Y-155085057D01*
X256065198Y-155085057D02*
X256104600Y-155048314D01*
X256104600Y-155048314D02*
X256145331Y-154973500D01*
X254993995Y-144462154D02*
X254919180Y-144421423D01*
X254919180Y-144421423D02*
X254804964Y-144417435D01*
X254804964Y-144417435D02*
X254689419Y-144451518D01*
X254689419Y-144451518D02*
X254610615Y-144525003D01*
X254610615Y-144525003D02*
X254569884Y-144599818D01*
X254569884Y-144599818D02*
X254526494Y-144750777D01*
X254526494Y-144750777D02*
X254522506Y-144864993D01*
X254522506Y-144864993D02*
X254555260Y-145018610D01*
X254555260Y-145018610D02*
X254590673Y-145096084D01*
X254590673Y-145096084D02*
X254664158Y-145174887D01*
X254664158Y-145174887D02*
X254777045Y-145216947D01*
X254777045Y-145216947D02*
X254853189Y-145219606D01*
X254853189Y-145219606D02*
X254968734Y-145185523D01*
X254968734Y-145185523D02*
X255008136Y-145148780D01*
X255008136Y-145148780D02*
X255017442Y-144882276D01*
X255017442Y-144882276D02*
X254865154Y-144876958D01*
X255348125Y-145236890D02*
X255376045Y-144437377D01*
X255376045Y-144437377D02*
X255804989Y-145252844D01*
X255804989Y-145252844D02*
X255832909Y-144453331D01*
X256185709Y-145266139D02*
X256213629Y-144466626D01*
X256213629Y-144466626D02*
X256403989Y-144473274D01*
X256403989Y-144473274D02*
X256516876Y-144515335D01*
X256516876Y-144515335D02*
X256590361Y-144594138D01*
X256590361Y-144594138D02*
X256625774Y-144671611D01*
X256625774Y-144671611D02*
X256658528Y-144825229D01*
X256658528Y-144825229D02*
X256654539Y-144939445D01*
X256654539Y-144939445D02*
X256611149Y-145090404D01*
X256611149Y-145090404D02*
X256570418Y-145165218D01*
X256570418Y-145165218D02*
X256491615Y-145238703D01*
X256491615Y-145238703D02*
X256376070Y-145272787D01*
X256376070Y-145272787D02*
X256185709Y-145266139D01*
X265433103Y-155024813D02*
X265509247Y-155027472D01*
X265509247Y-155027472D02*
X265584061Y-155068203D01*
X265584061Y-155068203D02*
X265620804Y-155107604D01*
X265620804Y-155107604D02*
X265656217Y-155185078D01*
X265656217Y-155185078D02*
X265688971Y-155338696D01*
X265688971Y-155338696D02*
X265682323Y-155529056D01*
X265682323Y-155529056D02*
X265638933Y-155680014D01*
X265638933Y-155680014D02*
X265598202Y-155754829D01*
X265598202Y-155754829D02*
X265558801Y-155791571D01*
X265558801Y-155791571D02*
X265481327Y-155826984D01*
X265481327Y-155826984D02*
X265405183Y-155824325D01*
X265405183Y-155824325D02*
X265330369Y-155783594D01*
X265330369Y-155783594D02*
X265293626Y-155744193D01*
X265293626Y-155744193D02*
X265258213Y-155666719D01*
X265258213Y-155666719D02*
X265225459Y-155513102D01*
X265225459Y-155513102D02*
X265232106Y-155322742D01*
X265232106Y-155322742D02*
X265275497Y-155171783D01*
X265275497Y-155171783D02*
X265316228Y-155096968D01*
X265316228Y-155096968D02*
X265355629Y-155060226D01*
X265355629Y-155060226D02*
X265433103Y-155024813D01*
X266001524Y-155120899D02*
X266040926Y-155084157D01*
X266040926Y-155084157D02*
X266118399Y-155048744D01*
X266118399Y-155048744D02*
X266308760Y-155055391D01*
X266308760Y-155055391D02*
X266383574Y-155096122D01*
X266383574Y-155096122D02*
X266420317Y-155135524D01*
X266420317Y-155135524D02*
X266455730Y-155212998D01*
X266455730Y-155212998D02*
X266453071Y-155289142D01*
X266453071Y-155289142D02*
X266411010Y-155402028D01*
X266411010Y-155402028D02*
X265938192Y-155842939D01*
X265938192Y-155842939D02*
X266433128Y-155860222D01*
X266955984Y-155077993D02*
X267032128Y-155080652D01*
X267032128Y-155080652D02*
X267106943Y-155121383D01*
X267106943Y-155121383D02*
X267143686Y-155160785D01*
X267143686Y-155160785D02*
X267179099Y-155238258D01*
X267179099Y-155238258D02*
X267211853Y-155391876D01*
X267211853Y-155391876D02*
X267205205Y-155582236D01*
X267205205Y-155582236D02*
X267161815Y-155733195D01*
X267161815Y-155733195D02*
X267121084Y-155808009D01*
X267121084Y-155808009D02*
X267081682Y-155844752D01*
X267081682Y-155844752D02*
X267004209Y-155880165D01*
X267004209Y-155880165D02*
X266928065Y-155877506D01*
X266928065Y-155877506D02*
X266853250Y-155836775D01*
X266853250Y-155836775D02*
X266816508Y-155797373D01*
X266816508Y-155797373D02*
X266781095Y-155719900D01*
X266781095Y-155719900D02*
X266748341Y-155566282D01*
X266748341Y-155566282D02*
X266754988Y-155375922D01*
X266754988Y-155375922D02*
X266798378Y-155224963D01*
X266798378Y-155224963D02*
X266839109Y-155150149D01*
X266839109Y-155150149D02*
X266878511Y-155113406D01*
X266878511Y-155113406D02*
X266955984Y-155077993D01*
D14*
X254896561Y-169443910D02*
X254861662Y-170443301D01*
X254891576Y-169586680D02*
X254965453Y-169517788D01*
X254965453Y-169517788D02*
X255110716Y-169451389D01*
X255110716Y-169451389D02*
X255324872Y-169458867D01*
X255324872Y-169458867D02*
X255465149Y-169535238D01*
X255465149Y-169535238D02*
X255531548Y-169680501D01*
X255531548Y-169680501D02*
X255504127Y-170465736D01*
X256217978Y-170490665D02*
X256252877Y-169491274D01*
X256270327Y-168991578D02*
X256196449Y-169060471D01*
X256196449Y-169060471D02*
X256265342Y-169134348D01*
X256265342Y-169134348D02*
X256339219Y-169065456D01*
X256339219Y-169065456D02*
X256270327Y-168991578D01*
X256270327Y-168991578D02*
X256265342Y-169134348D01*
X257576787Y-170466643D02*
X257431524Y-170533043D01*
X257431524Y-170533043D02*
X257145984Y-170523071D01*
X257145984Y-170523071D02*
X257005707Y-170446701D01*
X257005707Y-170446701D02*
X256936814Y-170372823D01*
X256936814Y-170372823D02*
X256870415Y-170227560D01*
X256870415Y-170227560D02*
X256885372Y-169799249D01*
X256885372Y-169799249D02*
X256961743Y-169658972D01*
X256961743Y-169658972D02*
X257035621Y-169590080D01*
X257035621Y-169590080D02*
X257180883Y-169523680D01*
X257180883Y-169523680D02*
X257466424Y-169533652D01*
X257466424Y-169533652D02*
X257606701Y-169610022D01*
X258790333Y-170509021D02*
X258645070Y-170575420D01*
X258645070Y-170575420D02*
X258359530Y-170565449D01*
X258359530Y-170565449D02*
X258219252Y-170489079D01*
X258219252Y-170489079D02*
X258152853Y-170343816D01*
X258152853Y-170343816D02*
X258172796Y-169772735D01*
X258172796Y-169772735D02*
X258249166Y-169632458D01*
X258249166Y-169632458D02*
X258394429Y-169566058D01*
X258394429Y-169566058D02*
X258679969Y-169576030D01*
X258679969Y-169576030D02*
X258820247Y-169652400D01*
X258820247Y-169652400D02*
X258886646Y-169797663D01*
X258886646Y-169797663D02*
X258881660Y-169940433D01*
X258881660Y-169940433D02*
X258162824Y-170058275D01*
X259506676Y-170462564D02*
X259575568Y-170536442D01*
X259575568Y-170536442D02*
X259501690Y-170605334D01*
X259501690Y-170605334D02*
X259432798Y-170531456D01*
X259432798Y-170531456D02*
X259506676Y-170462564D01*
X259506676Y-170462564D02*
X259501690Y-170605334D01*
X259521633Y-170034254D02*
X259480162Y-169175140D01*
X259480162Y-169175140D02*
X259554040Y-169106248D01*
X259554040Y-169106248D02*
X259622932Y-169180126D01*
X259622932Y-169180126D02*
X259521633Y-170034254D01*
X259521633Y-170034254D02*
X259554040Y-169106248D01*
X260250441Y-169630872D02*
X260215541Y-170630263D01*
X260245455Y-169773642D02*
X260319333Y-169704750D01*
X260319333Y-169704750D02*
X260464596Y-169638350D01*
X260464596Y-169638350D02*
X260678751Y-169645829D01*
X260678751Y-169645829D02*
X260819028Y-169722199D01*
X260819028Y-169722199D02*
X260885428Y-169867462D01*
X260885428Y-169867462D02*
X260858007Y-170652698D01*
X262214323Y-170700062D02*
X262241744Y-169914826D01*
X262241744Y-169914826D02*
X262175345Y-169769563D01*
X262175345Y-169769563D02*
X262035067Y-169693192D01*
X262035067Y-169693192D02*
X261749527Y-169683221D01*
X261749527Y-169683221D02*
X261604264Y-169749620D01*
X262216816Y-170628676D02*
X262071553Y-170695076D01*
X262071553Y-170695076D02*
X261714628Y-170682612D01*
X261714628Y-170682612D02*
X261574350Y-170606241D01*
X261574350Y-170606241D02*
X261507951Y-170460978D01*
X261507951Y-170460978D02*
X261512937Y-170318208D01*
X261512937Y-170318208D02*
X261589307Y-170177931D01*
X261589307Y-170177931D02*
X261734570Y-170111531D01*
X261734570Y-170111531D02*
X262091495Y-170123995D01*
X262091495Y-170123995D02*
X262236758Y-170057596D01*
X262963073Y-169725599D02*
X262928174Y-170724990D01*
X262958088Y-169868369D02*
X263031965Y-169799477D01*
X263031965Y-169799477D02*
X263177228Y-169733077D01*
X263177228Y-169733077D02*
X263391384Y-169740556D01*
X263391384Y-169740556D02*
X263531661Y-169816927D01*
X263531661Y-169816927D02*
X263598060Y-169962190D01*
X263598060Y-169962190D02*
X263570639Y-170747425D01*
X264498645Y-170779832D02*
X264358368Y-170703461D01*
X264358368Y-170703461D02*
X264289476Y-170629583D01*
X264289476Y-170629583D02*
X264223076Y-170484320D01*
X264223076Y-170484320D02*
X264238033Y-170056010D01*
X264238033Y-170056010D02*
X264314404Y-169915733D01*
X264314404Y-169915733D02*
X264388282Y-169846840D01*
X264388282Y-169846840D02*
X264533545Y-169780441D01*
X264533545Y-169780441D02*
X264747700Y-169787919D01*
X264747700Y-169787919D02*
X264887977Y-169864290D01*
X264887977Y-169864290D02*
X264956869Y-169938168D01*
X264956869Y-169938168D02*
X265023269Y-170083431D01*
X265023269Y-170083431D02*
X265008312Y-170511741D01*
X265008312Y-170511741D02*
X264931941Y-170652019D01*
X264931941Y-170652019D02*
X264858063Y-170720911D01*
X264858063Y-170720911D02*
X264712800Y-170787310D01*
X264712800Y-170787310D02*
X264498645Y-170779832D01*
D15*
X265878770Y-142262592D02*
X265954914Y-142265251D01*
X265954914Y-142265251D02*
X266029728Y-142305982D01*
X266029728Y-142305982D02*
X266066471Y-142345383D01*
X266066471Y-142345383D02*
X266101884Y-142422857D01*
X266101884Y-142422857D02*
X266134638Y-142576475D01*
X266134638Y-142576475D02*
X266127990Y-142766835D01*
X266127990Y-142766835D02*
X266084600Y-142917793D01*
X266084600Y-142917793D02*
X266043869Y-142992608D01*
X266043869Y-142992608D02*
X266004468Y-143029350D01*
X266004468Y-143029350D02*
X265926994Y-143064763D01*
X265926994Y-143064763D02*
X265850850Y-143062104D01*
X265850850Y-143062104D02*
X265776036Y-143021373D01*
X265776036Y-143021373D02*
X265739293Y-142981972D01*
X265739293Y-142981972D02*
X265703880Y-142904498D01*
X265703880Y-142904498D02*
X265671126Y-142750881D01*
X265671126Y-142750881D02*
X265677773Y-142560521D01*
X265677773Y-142560521D02*
X265721164Y-142409562D01*
X265721164Y-142409562D02*
X265761895Y-142334747D01*
X265761895Y-142334747D02*
X265801296Y-142298005D01*
X265801296Y-142298005D02*
X265878770Y-142262592D01*
X266640211Y-142289182D02*
X266716355Y-142291841D01*
X266716355Y-142291841D02*
X266791169Y-142332572D01*
X266791169Y-142332572D02*
X266827912Y-142371973D01*
X266827912Y-142371973D02*
X266863325Y-142449447D01*
X266863325Y-142449447D02*
X266896079Y-142603065D01*
X266896079Y-142603065D02*
X266889431Y-142793425D01*
X266889431Y-142793425D02*
X266846041Y-142944383D01*
X266846041Y-142944383D02*
X266805310Y-143019198D01*
X266805310Y-143019198D02*
X266765909Y-143055941D01*
X266765909Y-143055941D02*
X266688435Y-143091354D01*
X266688435Y-143091354D02*
X266612291Y-143088695D01*
X266612291Y-143088695D02*
X266537476Y-143047964D01*
X266537476Y-143047964D02*
X266500734Y-143008562D01*
X266500734Y-143008562D02*
X266465321Y-142931088D01*
X266465321Y-142931088D02*
X266432567Y-142777471D01*
X266432567Y-142777471D02*
X266439214Y-142587111D01*
X266439214Y-142587111D02*
X266482604Y-142436152D01*
X266482604Y-142436152D02*
X266523335Y-142361337D01*
X266523335Y-142361337D02*
X266562737Y-142324595D01*
X266562737Y-142324595D02*
X266640211Y-142289182D01*
X267592012Y-142322420D02*
X267439723Y-142317101D01*
X267439723Y-142317101D02*
X267362250Y-142352515D01*
X267362250Y-142352515D02*
X267322848Y-142389257D01*
X267322848Y-142389257D02*
X267242716Y-142500814D01*
X267242716Y-142500814D02*
X267199326Y-142651773D01*
X267199326Y-142651773D02*
X267188690Y-142956349D01*
X267188690Y-142956349D02*
X267224103Y-143033823D01*
X267224103Y-143033823D02*
X267260845Y-143073224D01*
X267260845Y-143073224D02*
X267335660Y-143113955D01*
X267335660Y-143113955D02*
X267487948Y-143119273D01*
X267487948Y-143119273D02*
X267565421Y-143083860D01*
X267565421Y-143083860D02*
X267604823Y-143047118D01*
X267604823Y-143047118D02*
X267645554Y-142972303D01*
X267645554Y-142972303D02*
X267652202Y-142781943D01*
X267652202Y-142781943D02*
X267616789Y-142704469D01*
X267616789Y-142704469D02*
X267580046Y-142665068D01*
X267580046Y-142665068D02*
X267505231Y-142624337D01*
X267505231Y-142624337D02*
X267352943Y-142619019D01*
X267352943Y-142619019D02*
X267275470Y-142654432D01*
X267275470Y-142654432D02*
X267236068Y-142691174D01*
X267236068Y-142691174D02*
X267195337Y-142765989D01*
X254456556Y-152029913D02*
X254532700Y-152032572D01*
X254532700Y-152032572D02*
X254607514Y-152073303D01*
X254607514Y-152073303D02*
X254644257Y-152112704D01*
X254644257Y-152112704D02*
X254679670Y-152190178D01*
X254679670Y-152190178D02*
X254712424Y-152343796D01*
X254712424Y-152343796D02*
X254705776Y-152534156D01*
X254705776Y-152534156D02*
X254662386Y-152685114D01*
X254662386Y-152685114D02*
X254621655Y-152759929D01*
X254621655Y-152759929D02*
X254582254Y-152796671D01*
X254582254Y-152796671D02*
X254504780Y-152832084D01*
X254504780Y-152832084D02*
X254428636Y-152829425D01*
X254428636Y-152829425D02*
X254353822Y-152788694D01*
X254353822Y-152788694D02*
X254317079Y-152749293D01*
X254317079Y-152749293D02*
X254281666Y-152671819D01*
X254281666Y-152671819D02*
X254248912Y-152518202D01*
X254248912Y-152518202D02*
X254255559Y-152327842D01*
X254255559Y-152327842D02*
X254298950Y-152176883D01*
X254298950Y-152176883D02*
X254339681Y-152102068D01*
X254339681Y-152102068D02*
X254379082Y-152065326D01*
X254379082Y-152065326D02*
X254456556Y-152029913D01*
X254989564Y-152048526D02*
X255484501Y-152065809D01*
X255484501Y-152065809D02*
X255207360Y-152361079D01*
X255207360Y-152361079D02*
X255321577Y-152365068D01*
X255321577Y-152365068D02*
X255396391Y-152405799D01*
X255396391Y-152405799D02*
X255433134Y-152445200D01*
X255433134Y-152445200D02*
X255468547Y-152522674D01*
X255468547Y-152522674D02*
X255461899Y-152713034D01*
X255461899Y-152713034D02*
X255421168Y-152787849D01*
X255421168Y-152787849D02*
X255381767Y-152824591D01*
X255381767Y-152824591D02*
X255304293Y-152860004D01*
X255304293Y-152860004D02*
X255075861Y-152852027D01*
X255075861Y-152852027D02*
X255001046Y-152811296D01*
X255001046Y-152811296D02*
X254964304Y-152771894D01*
X256218022Y-152891912D02*
X255761158Y-152875958D01*
X255989590Y-152883935D02*
X256017509Y-152084422D01*
X256017509Y-152084422D02*
X255937377Y-152195980D01*
X255937377Y-152195980D02*
X255858574Y-152269465D01*
X255858574Y-152269465D02*
X255781100Y-152304878D01*
X265814368Y-147381558D02*
X265739553Y-147340827D01*
X265739553Y-147340827D02*
X265625337Y-147336839D01*
X265625337Y-147336839D02*
X265509792Y-147370922D01*
X265509792Y-147370922D02*
X265430988Y-147444407D01*
X265430988Y-147444407D02*
X265390257Y-147519222D01*
X265390257Y-147519222D02*
X265346867Y-147670181D01*
X265346867Y-147670181D02*
X265342879Y-147784397D01*
X265342879Y-147784397D02*
X265375633Y-147938014D01*
X265375633Y-147938014D02*
X265411046Y-148015488D01*
X265411046Y-148015488D02*
X265484531Y-148094291D01*
X265484531Y-148094291D02*
X265597418Y-148136351D01*
X265597418Y-148136351D02*
X265673562Y-148139010D01*
X265673562Y-148139010D02*
X265789107Y-148104927D01*
X265789107Y-148104927D02*
X265828509Y-148068184D01*
X265828509Y-148068184D02*
X265837815Y-147801680D01*
X265837815Y-147801680D02*
X265685527Y-147796362D01*
X266168498Y-148156294D02*
X266196418Y-147356781D01*
X266196418Y-147356781D02*
X266625362Y-148172248D01*
X266625362Y-148172248D02*
X266653282Y-147372735D01*
X267006082Y-148185543D02*
X267034002Y-147386030D01*
X267034002Y-147386030D02*
X267224362Y-147392678D01*
X267224362Y-147392678D02*
X267337249Y-147434739D01*
X267337249Y-147434739D02*
X267410734Y-147513542D01*
X267410734Y-147513542D02*
X267446147Y-147591015D01*
X267446147Y-147591015D02*
X267478901Y-147744633D01*
X267478901Y-147744633D02*
X267474912Y-147858849D01*
X267474912Y-147858849D02*
X267431522Y-148009808D01*
X267431522Y-148009808D02*
X267390791Y-148084622D01*
X267390791Y-148084622D02*
X267311988Y-148158107D01*
X267311988Y-148158107D02*
X267196443Y-148192191D01*
X267196443Y-148192191D02*
X267006082Y-148185543D01*
X265230907Y-168455938D02*
X264774043Y-168439984D01*
X265002475Y-168447961D02*
X265030395Y-167648448D01*
X265030395Y-167648448D02*
X264950262Y-167760005D01*
X264950262Y-167760005D02*
X264871459Y-167833490D01*
X264871459Y-167833490D02*
X264793985Y-167868903D01*
X265753764Y-167673709D02*
X265829908Y-167676368D01*
X265829908Y-167676368D02*
X265904722Y-167717099D01*
X265904722Y-167717099D02*
X265941465Y-167756500D01*
X265941465Y-167756500D02*
X265976878Y-167833974D01*
X265976878Y-167833974D02*
X266009632Y-167987592D01*
X266009632Y-167987592D02*
X266002984Y-168177952D01*
X266002984Y-168177952D02*
X265959594Y-168328910D01*
X265959594Y-168328910D02*
X265918863Y-168403725D01*
X265918863Y-168403725D02*
X265879462Y-168440468D01*
X265879462Y-168440468D02*
X265801988Y-168475881D01*
X265801988Y-168475881D02*
X265725844Y-168473222D01*
X265725844Y-168473222D02*
X265651029Y-168432491D01*
X265651029Y-168432491D02*
X265614287Y-168393089D01*
X265614287Y-168393089D02*
X265578874Y-168315615D01*
X265578874Y-168315615D02*
X265546120Y-168161998D01*
X265546120Y-168161998D02*
X265552767Y-167971638D01*
X265552767Y-167971638D02*
X265596157Y-167820679D01*
X265596157Y-167820679D02*
X265636888Y-167745864D01*
X265636888Y-167745864D02*
X265676290Y-167709122D01*
X265676290Y-167709122D02*
X265753764Y-167673709D01*
X266696258Y-167973451D02*
X266677645Y-168506459D01*
X266516534Y-167662227D02*
X266306231Y-168226660D01*
X266306231Y-168226660D02*
X266801168Y-168243943D01*
%TO.C,T1*%
X244603525Y-141971569D02*
X251199504Y-142201906D01*
X244702989Y-139123305D02*
X244603525Y-141971569D01*
X248000978Y-139238473D02*
X244702989Y-139123305D01*
X248000978Y-139238473D02*
X251298968Y-139353642D01*
X249949790Y-139306527D02*
X246052166Y-139170419D01*
X251199504Y-142201906D02*
X251298968Y-139353642D01*
%TO.C,JST1*%
X237119362Y-178075585D02*
X244714732Y-178340821D01*
X237143792Y-177376011D02*
X237119362Y-178075585D01*
X237300840Y-172878752D02*
X238899865Y-172934592D01*
X237325269Y-172179179D02*
X237300840Y-172878752D01*
X238742817Y-177431850D02*
X237143792Y-177376011D01*
X238899865Y-172934592D02*
X238742817Y-177431850D01*
X240035680Y-176226236D02*
X240535375Y-176243686D01*
X240276803Y-176484808D02*
X240294252Y-175985113D01*
X244714732Y-178340821D02*
X244920639Y-172444415D01*
X244920639Y-172444415D02*
X237325269Y-172179179D01*
D16*
%TO.C,MCU1*%
X251225191Y-171416655D02*
X268994360Y-172037168D01*
X252377573Y-138416770D02*
X251225191Y-171416655D01*
X268994360Y-172037168D02*
X270146746Y-139037283D01*
X270146746Y-139037283D02*
X252377573Y-138416770D01*
D11*
%TO.C,D11*%
X205524683Y-120924035D02*
X205923161Y-120958896D01*
X205923161Y-120958896D02*
X205875225Y-121506805D01*
X205923161Y-120958896D02*
X205971097Y-120410990D01*
X205923161Y-120958896D02*
X206555740Y-120612713D01*
X206486015Y-121409669D02*
X205923161Y-120958896D01*
X206520878Y-121011191D02*
X207018975Y-121054769D01*
X206555740Y-120612713D02*
X206486015Y-121409669D01*
%TO.C,D3*%
X150263757Y-165707765D02*
X150663757Y-165707765D01*
X150663757Y-165707765D02*
X150663757Y-165157765D01*
X150663757Y-165707765D02*
X150663757Y-166257765D01*
X150663757Y-165707765D02*
X151263757Y-165307765D01*
X151263757Y-165307765D02*
X151263757Y-166107765D01*
X151263757Y-165707765D02*
X151763757Y-165707765D01*
X151263757Y-166107765D02*
X150663757Y-165707765D01*
%TO.C,D14*%
X225630348Y-121718478D02*
X226030348Y-121718478D01*
X226030348Y-121718478D02*
X226030348Y-121168478D01*
X226030348Y-121718478D02*
X226030348Y-122268478D01*
X226030348Y-121718478D02*
X226630348Y-121318478D01*
X226630348Y-121318478D02*
X226630348Y-122118478D01*
X226630348Y-121718478D02*
X227130348Y-121718478D01*
X226630348Y-122118478D02*
X226030348Y-121718478D01*
%TO.C,D16*%
X249797704Y-205985148D02*
X250188963Y-206068313D01*
X250188963Y-206068313D02*
X250074612Y-206606294D01*
X250188963Y-206068313D02*
X250303315Y-205530332D01*
X250188963Y-206068313D02*
X250859017Y-205801801D01*
X250692687Y-206584319D02*
X250188963Y-206068313D01*
X250775852Y-206193060D02*
X251264926Y-206297016D01*
X250859017Y-205801801D02*
X250692687Y-206584319D01*
%TO.C,D9*%
X202212765Y-158779433D02*
X202611243Y-158814294D01*
X202611243Y-158814294D02*
X202563307Y-159362203D01*
X202611243Y-158814294D02*
X202659179Y-158266388D01*
X202611243Y-158814294D02*
X203243822Y-158468111D01*
X203174097Y-159265067D02*
X202611243Y-158814294D01*
X203208960Y-158866589D02*
X203707057Y-158910167D01*
X203243822Y-158468111D02*
X203174097Y-159265067D01*
%TO.C,D18*%
X272763006Y-212803459D02*
X273138883Y-212940267D01*
X273138883Y-212940267D02*
X272950772Y-213457098D01*
X273138883Y-212940267D02*
X273326994Y-212423436D01*
X273138883Y-212940267D02*
X273839506Y-212769602D01*
X273565890Y-213521356D02*
X273138883Y-212940267D01*
X273702698Y-213145479D02*
X274172544Y-213316489D01*
X273839506Y-212769602D02*
X273565890Y-213521356D01*
%TO.C,D17*%
X252883671Y-185242957D02*
X253283427Y-185256917D01*
X253283427Y-185256917D02*
X253264232Y-185806582D01*
X253283427Y-185256917D02*
X253302622Y-184707252D01*
X253283427Y-185256917D02*
X253897026Y-184878101D01*
X253869102Y-185677613D02*
X253283427Y-185256917D01*
X253883062Y-185277857D02*
X254382757Y-185295307D01*
X253897026Y-184878101D02*
X253869102Y-185677613D01*
%TO.C,D1*%
X131010742Y-183942195D02*
X131373265Y-183773147D01*
X131373265Y-183773147D02*
X131140825Y-183274678D01*
X131373265Y-183773147D02*
X131605705Y-184271617D01*
X131373265Y-183773147D02*
X131748003Y-183157053D01*
X131748003Y-183157053D02*
X132086097Y-183882100D01*
X131917050Y-183519576D02*
X132370204Y-183308267D01*
X132086097Y-183882100D02*
X131373265Y-183773147D01*
%TO.C,D4*%
X150263757Y-146707765D02*
X150663757Y-146707765D01*
X150663757Y-146707765D02*
X150663757Y-146157765D01*
X150663757Y-146707765D02*
X150663757Y-147257765D01*
X150663757Y-146707765D02*
X151263757Y-146307765D01*
X151263757Y-146307765D02*
X151263757Y-147107765D01*
X151263757Y-146707765D02*
X151763757Y-146707765D01*
X151263757Y-147107765D02*
X150663757Y-146707765D01*
%TO.C,D6*%
X176263757Y-155707765D02*
X176663757Y-155707765D01*
X176663757Y-155707765D02*
X176663757Y-155157765D01*
X176663757Y-155707765D02*
X176663757Y-156257765D01*
X176663757Y-155707765D02*
X177263757Y-155307765D01*
X177263757Y-155307765D02*
X177263757Y-156107765D01*
X177263757Y-155707765D02*
X177763757Y-155707765D01*
X177263757Y-156107765D02*
X176663757Y-155707765D01*
%TO.C,D12*%
X221712074Y-161408326D02*
X222105997Y-161477785D01*
X222105997Y-161477785D02*
X222010491Y-162019429D01*
X222105997Y-161477785D02*
X222201504Y-160936141D01*
X222105997Y-161477785D02*
X222766341Y-161188051D01*
X222627423Y-161975897D02*
X222105997Y-161477785D01*
X222696882Y-161581974D02*
X223189286Y-161668798D01*
X222766341Y-161188051D02*
X222627423Y-161975897D01*
%TO.C,D10*%
X203868724Y-139851734D02*
X204267202Y-139886595D01*
X204267202Y-139886595D02*
X204219266Y-140434504D01*
X204267202Y-139886595D02*
X204315138Y-139338689D01*
X204267202Y-139886595D02*
X204899781Y-139540412D01*
X204830056Y-140337368D02*
X204267202Y-139886595D01*
X204864919Y-139938890D02*
X205363016Y-139982468D01*
X204899781Y-139540412D02*
X204830056Y-140337368D01*
%TO.C,D2*%
X122905945Y-165013358D02*
X123281822Y-164876550D01*
X123281822Y-164876550D02*
X123093711Y-164359719D01*
X123281822Y-164876550D02*
X123469933Y-165393381D01*
X123281822Y-164876550D02*
X123708829Y-164295461D01*
X123708829Y-164295461D02*
X123982445Y-165047215D01*
X123845637Y-164671338D02*
X124315483Y-164500328D01*
X123982445Y-165047215D02*
X123281822Y-164876550D01*
%TO.C,D8*%
X176263757Y-117707765D02*
X176663757Y-117707765D01*
X176663757Y-117707765D02*
X176663757Y-117157765D01*
X176663757Y-117707765D02*
X176663757Y-118257765D01*
X176663757Y-117707765D02*
X177263757Y-117307765D01*
X177263757Y-117307765D02*
X177263757Y-118107765D01*
X177263757Y-117707765D02*
X177763757Y-117707765D01*
X177263757Y-118107765D02*
X176663757Y-117707765D01*
%TO.C,D13*%
X224537659Y-141648940D02*
X224936137Y-141683801D01*
X224936137Y-141683801D02*
X224888201Y-142231710D01*
X224936137Y-141683801D02*
X224984073Y-141135895D01*
X224936137Y-141683801D02*
X225568716Y-141337618D01*
X225498991Y-142134574D02*
X224936137Y-141683801D01*
X225533854Y-141736096D02*
X226031951Y-141779674D01*
X225568716Y-141337618D02*
X225498991Y-142134574D01*
%TO.C,D15*%
X225536637Y-201976621D02*
X225935115Y-202011482D01*
X225935115Y-202011482D02*
X225887179Y-202559391D01*
X225935115Y-202011482D02*
X225983051Y-201463576D01*
X225935115Y-202011482D02*
X226567694Y-201665299D01*
X226497969Y-202462255D02*
X225935115Y-202011482D01*
X226532832Y-202063777D02*
X227030929Y-202107355D01*
X226567694Y-201665299D02*
X226497969Y-202462255D01*
%TO.C,D7*%
X176263757Y-136707765D02*
X176663757Y-136707765D01*
X176663757Y-136707765D02*
X176663757Y-136157765D01*
X176663757Y-136707765D02*
X176663757Y-137257765D01*
X176663757Y-136707765D02*
X177263757Y-136307765D01*
X177263757Y-136307765D02*
X177263757Y-137107765D01*
X177263757Y-136707765D02*
X177763757Y-136707765D01*
X177263757Y-137107765D02*
X176663757Y-136707765D01*
%TO.C,D5*%
X150263757Y-127707765D02*
X150663757Y-127707765D01*
X150663757Y-127707765D02*
X150663757Y-127157765D01*
X150663757Y-127707765D02*
X150663757Y-128257765D01*
X150663757Y-127707765D02*
X151263757Y-127307765D01*
X151263757Y-127307765D02*
X151263757Y-128107765D01*
X151263757Y-127707765D02*
X151763757Y-127707765D01*
X151263757Y-128107765D02*
X150663757Y-127707765D01*
%TD*%
D17*
%TO.C,MCU1*%
X268744548Y-142800639D03*
X268655903Y-145339092D03*
X268567259Y-147877545D03*
X268478614Y-150415997D03*
X268389969Y-152954450D03*
X268301324Y-155492903D03*
X268212680Y-158031356D03*
X268124035Y-160569808D03*
X268035390Y-163108261D03*
X267946746Y-165646714D03*
X267858101Y-168185166D03*
X267769456Y-170723619D03*
X252538740Y-170191751D03*
X252627385Y-167653298D03*
X252716029Y-165114845D03*
X252804674Y-162576393D03*
X252893319Y-160037940D03*
X252981964Y-157499487D03*
X253070608Y-154961034D03*
X253159253Y-152422582D03*
X253247898Y-149884129D03*
X253336542Y-147345676D03*
X253425187Y-144807224D03*
X253513832Y-142268771D03*
%TD*%
M02*
