%TF.GenerationSoftware,KiCad,Pcbnew,8.0.6*%
%TF.CreationDate,2025-01-06T03:58:56-07:00*%
%TF.ProjectId,right_circuit,72696768-745f-4636-9972-637569742e6b,v1.0.0*%
%TF.SameCoordinates,Original*%
%TF.FileFunction,Legend,Top*%
%TF.FilePolarity,Positive*%
%FSLAX46Y46*%
G04 Gerber Fmt 4.6, Leading zero omitted, Abs format (unit mm)*
G04 Created by KiCad (PCBNEW 8.0.6) date 2025-01-06 03:58:56*
%MOMM*%
%LPD*%
G01*
G04 APERTURE LIST*
%ADD10C,0.120000*%
%ADD11C,1.000000*%
%ADD12C,0.100000*%
%ADD13C,0.125000*%
%ADD14C,0.300000*%
%ADD15C,0.150000*%
%ADD16C,0.381000*%
%ADD17C,1.752600*%
G04 APERTURE END LIST*
D10*
X247300000Y-171700000D02*
X246200000Y-172000000D01*
X242500000Y-164000000D02*
X242700000Y-163800000D01*
X235500000Y-167500000D02*
X235900000Y-167400000D01*
X242400000Y-168300000D02*
X242500000Y-168200000D01*
X244200000Y-171000000D02*
X244100000Y-171400000D01*
X242000000Y-164800000D02*
X242000000Y-165000000D01*
X245000000Y-163400000D02*
X244800000Y-162500000D01*
X242500000Y-170000000D02*
X242600000Y-170200000D01*
X245900000Y-168900000D02*
X246600000Y-168800000D01*
X244500000Y-168200000D02*
X245400000Y-168100000D01*
X247200000Y-171000000D02*
X246100000Y-171200000D01*
X248200000Y-169400000D02*
X247800000Y-170000000D01*
X242700000Y-165500000D02*
X243100000Y-165500000D01*
X247700000Y-165900000D02*
X248300000Y-166400000D01*
X248450000Y-167300000D01*
X248400000Y-167800000D01*
X248700000Y-168100000D01*
X248400000Y-168400000D01*
X247300000Y-168800000D01*
X246600000Y-168800000D01*
X245900000Y-168900000D01*
X244600000Y-169300000D01*
X244300000Y-169600000D01*
X244000000Y-169550000D01*
X243600000Y-169100000D01*
X243600000Y-168800000D01*
X243550000Y-168700000D01*
X243600000Y-168500000D01*
X243700000Y-168400000D01*
X244500000Y-168400000D01*
X244950000Y-168150000D01*
X245400000Y-168100000D01*
X245900000Y-167900000D01*
X245900000Y-167800000D01*
X245500000Y-167700000D01*
X243100000Y-167700000D01*
X242700000Y-167300000D01*
X242600000Y-166700000D01*
X242800000Y-166300000D01*
X243500000Y-166000000D01*
X245000000Y-165900000D01*
X245400000Y-165800000D01*
X245700000Y-165900000D01*
X246900000Y-165800000D01*
X247700000Y-165900000D01*
G36*
X247700000Y-165900000D02*
G01*
X248300000Y-166400000D01*
X248450000Y-167300000D01*
X248400000Y-167800000D01*
X248700000Y-168100000D01*
X248400000Y-168400000D01*
X247300000Y-168800000D01*
X246600000Y-168800000D01*
X245900000Y-168900000D01*
X244600000Y-169300000D01*
X244300000Y-169600000D01*
X244000000Y-169550000D01*
X243600000Y-169100000D01*
X243600000Y-168800000D01*
X243550000Y-168700000D01*
X243600000Y-168500000D01*
X243700000Y-168400000D01*
X244500000Y-168400000D01*
X244950000Y-168150000D01*
X245400000Y-168100000D01*
X245900000Y-167900000D01*
X245900000Y-167800000D01*
X245500000Y-167700000D01*
X243100000Y-167700000D01*
X242700000Y-167300000D01*
X242600000Y-166700000D01*
X242800000Y-166300000D01*
X243500000Y-166000000D01*
X245000000Y-165900000D01*
X245400000Y-165800000D01*
X245700000Y-165900000D01*
X246900000Y-165800000D01*
X247700000Y-165900000D01*
G37*
X245500000Y-163300000D02*
X245000000Y-163400000D01*
X243100000Y-167900000D02*
X243500000Y-168100000D01*
X243400000Y-169500000D02*
X243100000Y-169100000D01*
X242400000Y-165200000D02*
X242700000Y-165500000D01*
X236700000Y-175500000D02*
X238900000Y-175300000D01*
X229500000Y-152000000D02*
X229500000Y-168000000D01*
X241300000Y-174900000D02*
X243000000Y-174500000D01*
X239200000Y-168400000D02*
X238400000Y-169300000D01*
X248400000Y-170900000D02*
X247900000Y-171400000D01*
X242000000Y-164400000D02*
X242000000Y-164800000D01*
X242600000Y-163000000D02*
X242500000Y-163600000D01*
X243300000Y-165300000D02*
X242800000Y-165000000D01*
X239000000Y-171900000D02*
X238200000Y-172000000D01*
X242600000Y-170200000D02*
X242800000Y-170400000D01*
X236100000Y-172600000D02*
X235600000Y-171400000D01*
X242600000Y-168700000D02*
X242400000Y-169100000D01*
X246900000Y-169900000D02*
X246800000Y-169800000D01*
X246100000Y-171200000D02*
X244900000Y-171100000D01*
X243600000Y-168800000D02*
X243600000Y-169100000D01*
X238300000Y-170700000D02*
X239100000Y-169700000D01*
X245100000Y-160900000D02*
X245300000Y-160000000D01*
X244100000Y-165900000D02*
X243600000Y-165900000D01*
X243800000Y-163700000D02*
X244000000Y-163400000D01*
X235600000Y-171400000D02*
X235600000Y-170800000D01*
X239900000Y-167700000D02*
X239100000Y-167900000D01*
X245000000Y-157850000D02*
X245200000Y-158000000D01*
X245200000Y-158600000D01*
X245250000Y-159600000D01*
X245200000Y-160450000D01*
X245000000Y-161200000D01*
X244850000Y-162000000D01*
X244800000Y-162500000D01*
X245000000Y-163400000D01*
X245500000Y-163300000D01*
X246300000Y-163300000D01*
X246700000Y-163400000D01*
X247100000Y-163800000D01*
X247400000Y-164300000D01*
X247400000Y-164500000D01*
X247300000Y-165000000D01*
X247300000Y-165200000D01*
X245800000Y-165400000D01*
X245600000Y-165300000D01*
X245000000Y-165300000D01*
X244500000Y-165400000D01*
X243300000Y-165300000D01*
X242800000Y-165000000D01*
X242500000Y-164600000D01*
X242500000Y-164000000D01*
X242700000Y-163800000D01*
X243800000Y-163700000D01*
X244100000Y-162900000D01*
X243750000Y-162200000D01*
X243600000Y-161800000D01*
X243600000Y-161400000D01*
X244000000Y-161300000D01*
X244100000Y-161100000D01*
X244100000Y-161000000D01*
X243900000Y-160800000D01*
X244000000Y-160500000D01*
X244000000Y-160100000D01*
X243600000Y-159500000D01*
X243600000Y-158900000D01*
X243700000Y-158500000D01*
X243900000Y-158000000D01*
X244200000Y-157850000D01*
X244400000Y-157800000D01*
X245000000Y-157850000D01*
G36*
X245000000Y-157850000D02*
G01*
X245200000Y-158000000D01*
X245200000Y-158600000D01*
X245250000Y-159600000D01*
X245200000Y-160450000D01*
X245000000Y-161200000D01*
X244850000Y-162000000D01*
X244800000Y-162500000D01*
X245000000Y-163400000D01*
X245500000Y-163300000D01*
X246300000Y-163300000D01*
X246700000Y-163400000D01*
X247100000Y-163800000D01*
X247400000Y-164300000D01*
X247400000Y-164500000D01*
X247300000Y-165000000D01*
X247300000Y-165200000D01*
X245800000Y-165400000D01*
X245600000Y-165300000D01*
X245000000Y-165300000D01*
X244500000Y-165400000D01*
X243300000Y-165300000D01*
X242800000Y-165000000D01*
X242500000Y-164600000D01*
X242500000Y-164000000D01*
X242700000Y-163800000D01*
X243800000Y-163700000D01*
X244100000Y-162900000D01*
X243750000Y-162200000D01*
X243600000Y-161800000D01*
X243600000Y-161400000D01*
X244000000Y-161300000D01*
X244100000Y-161100000D01*
X244100000Y-161000000D01*
X243900000Y-160800000D01*
X244000000Y-160500000D01*
X244000000Y-160100000D01*
X243600000Y-159500000D01*
X243600000Y-158900000D01*
X243700000Y-158500000D01*
X243900000Y-158000000D01*
X244200000Y-157850000D01*
X244400000Y-157800000D01*
X245000000Y-157850000D01*
G37*
X241800000Y-164700000D02*
X241600000Y-165500000D01*
X244100000Y-160900000D02*
X243900000Y-160800000D01*
X246500000Y-169800000D02*
X246100000Y-169900000D01*
X244800000Y-162500000D02*
X244900000Y-161500000D01*
X235400000Y-167400000D02*
X234800000Y-170100000D01*
X243700000Y-167700000D02*
X243100000Y-167700000D01*
X247000000Y-165300000D02*
X247300000Y-165200000D01*
X246300000Y-163300000D02*
X245500000Y-163300000D01*
X179500000Y-155000000D02*
X179500000Y-166000000D01*
X244100000Y-169600000D02*
X244300000Y-169600000D01*
X243900000Y-169500000D02*
X244100000Y-169600000D01*
X244800000Y-169800000D02*
X243700000Y-169800000D01*
X245800000Y-165400000D02*
X247000000Y-165300000D01*
X243500000Y-168600000D02*
X243600000Y-168800000D01*
X244500000Y-168400000D02*
X243700000Y-168400000D01*
X244800000Y-170900000D02*
X244700000Y-170600000D01*
X242300000Y-168500000D02*
X242600000Y-168700000D01*
X242900000Y-169100000D02*
X243000000Y-169500000D01*
X248500000Y-166800000D02*
X248400000Y-166000000D01*
X241900000Y-166000000D02*
X242000000Y-166100000D01*
X241700000Y-167000000D02*
X241800000Y-167600000D01*
X241600000Y-165500000D02*
X241700000Y-166400000D01*
X244400000Y-157800000D02*
X245000000Y-157850000D01*
X248700000Y-168600000D02*
X248700000Y-168100000D01*
X235700000Y-169300000D02*
X235600000Y-169300000D01*
X236300000Y-167000000D02*
X237500000Y-167350000D01*
X245200000Y-158000000D02*
X244800000Y-157700000D01*
X237200000Y-172900000D02*
X236500000Y-173300000D01*
X244000000Y-170500000D02*
X244600000Y-170500000D01*
X245200000Y-169900000D02*
X244800000Y-169800000D01*
X246900000Y-165800000D02*
X247700000Y-165900000D01*
X235700000Y-168900000D02*
X236500000Y-168200000D01*
D11*
X229500000Y-178000000D02*
X176500000Y-178000000D01*
D10*
X245600000Y-165300000D02*
X245000000Y-165300000D01*
X245800000Y-165400000D02*
X245600000Y-165300000D01*
X243700000Y-157800000D02*
X243300000Y-158500000D01*
X244000000Y-160500000D02*
X244000000Y-160100000D01*
X234800000Y-172500000D02*
X235400000Y-174700000D01*
X242400000Y-169100000D02*
X242400000Y-169500000D01*
X239100000Y-169700000D02*
X240200000Y-169000000D01*
X244600000Y-170500000D02*
X244900000Y-170300000D01*
X245400000Y-165800000D02*
X245700000Y-165900000D01*
X244700000Y-171000000D02*
X244600000Y-170500000D01*
X243100000Y-174900000D02*
X243900000Y-173900000D01*
X242000000Y-165000000D02*
X241900000Y-165100000D01*
X244000000Y-163400000D02*
X244100000Y-162900000D01*
X243000000Y-159200000D02*
X242800000Y-160500000D01*
X242800000Y-170400000D02*
X242500000Y-170800000D01*
X242200000Y-167700000D02*
X242300000Y-168100000D01*
X243600000Y-159500000D02*
X243600000Y-158900000D01*
X237900000Y-168800000D02*
X237200000Y-170800000D01*
X243700000Y-169800000D02*
X243400000Y-169500000D01*
X244100000Y-162900000D02*
X243900000Y-162600000D01*
X248400000Y-168400000D02*
X248500000Y-168700000D01*
X236200000Y-168700000D02*
X236000000Y-168900000D01*
X243000000Y-169500000D02*
X243100000Y-169900000D01*
X242500000Y-167100000D02*
X242400000Y-166900000D01*
X242000000Y-165000000D02*
X241900000Y-165100000D01*
X241900000Y-166000000D01*
X242000000Y-166100000D01*
X242200000Y-166100000D01*
X242380000Y-166280000D01*
X242200000Y-166400000D01*
X242000000Y-167000000D01*
X242350000Y-168200000D01*
X242400000Y-168300000D01*
X242450000Y-168250000D01*
X242480000Y-168460000D01*
X242820000Y-168460000D01*
X243060000Y-168410000D01*
X242700000Y-168900000D01*
X242500000Y-169300000D01*
X242400000Y-169100000D01*
X242600000Y-168700000D01*
X242300000Y-168500000D01*
X241400000Y-168500000D01*
X240200000Y-169000000D01*
X239100000Y-169700000D01*
X238300000Y-170700000D01*
X237700000Y-170300000D01*
X238400000Y-169300000D01*
X239200000Y-168400000D01*
X240200000Y-167900000D01*
X241800000Y-167600000D01*
X241700000Y-167000000D01*
X241700000Y-166400000D01*
X241600000Y-165500000D01*
X241900000Y-164350000D01*
X242000000Y-165000000D01*
G36*
X242000000Y-165000000D02*
G01*
X241900000Y-165100000D01*
X241900000Y-166000000D01*
X242000000Y-166100000D01*
X242200000Y-166100000D01*
X242380000Y-166280000D01*
X242200000Y-166400000D01*
X242000000Y-167000000D01*
X242350000Y-168200000D01*
X242400000Y-168300000D01*
X242450000Y-168250000D01*
X242480000Y-168460000D01*
X242820000Y-168460000D01*
X243060000Y-168410000D01*
X242700000Y-168900000D01*
X242500000Y-169300000D01*
X242400000Y-169100000D01*
X242600000Y-168700000D01*
X242300000Y-168500000D01*
X241400000Y-168500000D01*
X240200000Y-169000000D01*
X239100000Y-169700000D01*
X238300000Y-170700000D01*
X237700000Y-170300000D01*
X238400000Y-169300000D01*
X239200000Y-168400000D01*
X240200000Y-167900000D01*
X241800000Y-167600000D01*
X241700000Y-167000000D01*
X241700000Y-166400000D01*
X241600000Y-165500000D01*
X241900000Y-164350000D01*
X242000000Y-165000000D01*
G37*
X207500000Y-168000000D02*
X198500000Y-168000000D01*
X242800000Y-165000000D02*
X242500000Y-164600000D01*
X238900000Y-175300000D02*
X242200000Y-175200000D01*
X179500000Y-166000000D02*
X226500000Y-166000000D01*
X237500000Y-168200000D02*
X236800000Y-168400000D01*
X245300000Y-172000000D02*
X244800000Y-171500000D01*
X247300000Y-172300000D02*
X248400000Y-171600000D01*
X244600000Y-169300000D02*
X245200000Y-169100000D01*
X242800000Y-162400000D02*
X242600000Y-163000000D01*
X244000000Y-157900000D02*
X244400000Y-157800000D01*
X246100000Y-169900000D02*
X245200000Y-169900000D01*
X243900000Y-162600000D02*
X243600000Y-161800000D01*
X235600000Y-170800000D02*
X236000000Y-170300000D01*
X248000000Y-165600000D02*
X247600000Y-165300000D01*
X246800000Y-169800000D02*
X246500000Y-169800000D01*
X244300000Y-169600000D02*
X244600000Y-169300000D01*
X236000000Y-167000000D02*
X236600000Y-166900000D01*
X238200000Y-172000000D02*
X238300000Y-170700000D01*
X242500000Y-169300000D02*
X242700000Y-168900000D01*
X244900000Y-161500000D02*
X245100000Y-160900000D01*
X242300000Y-165500000D02*
X242300000Y-165200000D01*
X243100000Y-165500000D02*
X243300000Y-165300000D01*
X237800000Y-167800000D02*
X237600000Y-167600000D01*
X244000000Y-161300000D02*
X244100000Y-161100000D01*
X242500000Y-170800000D02*
X241600000Y-171100000D01*
X236300000Y-167200000D02*
X236300000Y-167400000D01*
X243700000Y-168600000D02*
X245300000Y-168100000D01*
X242400000Y-166900000D02*
X242600000Y-166700000D01*
X207500000Y-166000000D02*
X207500000Y-168000000D01*
X240200000Y-167900000D02*
X239200000Y-168400000D01*
X242700000Y-168900000D02*
X243000000Y-168500000D01*
D11*
X176500000Y-142000000D02*
X229500000Y-142000000D01*
D10*
X240200000Y-169000000D02*
X241400000Y-168500000D01*
X246700000Y-163400000D02*
X246300000Y-163300000D01*
X236100000Y-167600000D02*
X235800000Y-167600000D01*
X248600000Y-169200000D02*
X248700000Y-168600000D01*
X237200000Y-170800000D02*
X237200000Y-172900000D01*
X242400000Y-167300000D02*
X242500000Y-167100000D01*
X245800000Y-165700000D02*
X245800000Y-165400000D01*
X244700000Y-170600000D02*
X244600000Y-170500000D01*
X247240000Y-169910000D02*
X247800000Y-170000000D01*
X247800000Y-170200000D01*
X248400000Y-170200000D01*
X248600000Y-170500000D01*
X248300000Y-170600000D01*
X248000000Y-170900000D01*
X246100000Y-171200000D01*
X244900000Y-171100000D01*
X244600000Y-170500000D01*
X244900000Y-170300000D01*
X246700000Y-170000000D01*
X246850000Y-169850000D01*
X247240000Y-169910000D01*
G36*
X247240000Y-169910000D02*
G01*
X247800000Y-170000000D01*
X247800000Y-170200000D01*
X248400000Y-170200000D01*
X248600000Y-170500000D01*
X248300000Y-170600000D01*
X248000000Y-170900000D01*
X246100000Y-171200000D01*
X244900000Y-171100000D01*
X244600000Y-170500000D01*
X244900000Y-170300000D01*
X246700000Y-170000000D01*
X246850000Y-169850000D01*
X247240000Y-169910000D01*
G37*
X244950000Y-168150000D02*
X244500000Y-168400000D01*
X245000000Y-165900000D02*
X245800000Y-165700000D01*
X243600000Y-161400000D02*
X244000000Y-161300000D01*
X242800000Y-160500000D02*
X242800000Y-161500000D01*
X242200000Y-164000000D02*
X242000000Y-164400000D01*
X241800000Y-167600000D02*
X240200000Y-167900000D01*
X243600000Y-169100000D02*
X243900000Y-169500000D01*
X242500000Y-168200000D02*
X242500000Y-167700000D01*
X237100000Y-167100000D02*
X237160000Y-167250000D01*
X236300000Y-167000000D01*
X236600000Y-166900000D01*
X237100000Y-167100000D01*
G36*
X237100000Y-167100000D02*
G01*
X237160000Y-167250000D01*
X236300000Y-167000000D01*
X236600000Y-166900000D01*
X237100000Y-167100000D01*
G37*
X243900000Y-173900000D02*
X245000000Y-173000000D01*
X245200000Y-159200000D02*
X245200000Y-158600000D01*
X242700000Y-167300000D02*
X242600000Y-166700000D01*
X242800000Y-166000000D02*
X242200000Y-166400000D01*
X241900000Y-165100000D02*
X241900000Y-166000000D01*
X198500000Y-168000000D02*
X198500000Y-166000000D01*
X242600000Y-166700000D02*
X242800000Y-166300000D01*
X243500000Y-166000000D02*
X244100000Y-165900000D01*
X243600000Y-161800000D02*
X243600000Y-161400000D01*
X237700000Y-170300000D02*
X237400000Y-171900000D01*
X242300000Y-165200000D02*
X242400000Y-165200000D01*
X244100000Y-165900000D02*
X245000000Y-165900000D01*
X245500000Y-167700000D02*
X243700000Y-167700000D01*
X242500000Y-163600000D02*
X242000000Y-164000000D01*
D12*
X237600000Y-167620000D02*
X237750000Y-167780000D01*
X236500000Y-168190000D01*
X235520000Y-169070000D01*
X235600000Y-169320000D01*
X234820000Y-170060000D01*
X235370000Y-167460000D01*
X235810000Y-167590000D01*
X236110000Y-167580000D01*
X236300000Y-167390000D01*
X236350000Y-167220000D01*
X236570000Y-167210000D01*
X237600000Y-167620000D01*
G36*
X237600000Y-167620000D02*
G01*
X237750000Y-167780000D01*
X236500000Y-168190000D01*
X235520000Y-169070000D01*
X235600000Y-169320000D01*
X234820000Y-170060000D01*
X235370000Y-167460000D01*
X235810000Y-167590000D01*
X236110000Y-167580000D01*
X236300000Y-167390000D01*
X236350000Y-167220000D01*
X236570000Y-167210000D01*
X237600000Y-167620000D01*
G37*
D10*
X240800000Y-171400000D02*
X239000000Y-171900000D01*
X245000000Y-165300000D02*
X244500000Y-165400000D01*
X237900000Y-167600000D02*
X237100000Y-167100000D01*
X235400000Y-167400000D02*
X236000000Y-167000000D01*
X242500000Y-169300000D02*
X242400000Y-169500000D01*
X243600000Y-168200000D02*
X244500000Y-168200000D01*
X244600000Y-170500000D02*
X244200000Y-171000000D01*
X239100000Y-167900000D02*
X237900000Y-168800000D01*
X244500000Y-165400000D02*
X243300000Y-165300000D01*
X236500000Y-168200000D02*
X237400000Y-167900000D01*
X245900000Y-167800000D02*
X245500000Y-167700000D01*
X236500000Y-173300000D02*
X236100000Y-172600000D01*
X248400000Y-167800000D02*
X248500000Y-166800000D01*
X244000000Y-160100000D02*
X243600000Y-159500000D01*
X248800000Y-170500000D02*
X248800000Y-170100000D01*
X237400000Y-171900000D02*
X237600000Y-173600000D01*
X242300000Y-168100000D02*
X242400000Y-168300000D01*
X246600000Y-168800000D02*
X247300000Y-168800000D01*
D11*
X176500000Y-178000000D02*
X176500000Y-142000000D01*
D10*
X238400000Y-169300000D02*
X237700000Y-170300000D01*
X241400000Y-168500000D02*
X242300000Y-168500000D01*
X243500000Y-168100000D02*
X244500000Y-168350000D01*
X242900000Y-173500000D02*
X244250000Y-171850000D01*
X241800000Y-167600000D02*
X241100000Y-167600000D01*
X238500000Y-168100000D02*
X238300000Y-168000000D01*
X243600000Y-165900000D02*
X242800000Y-166000000D01*
X236200000Y-167075000D02*
X235900000Y-167400000D01*
X235500000Y-167500000D01*
X235400000Y-167400000D01*
X236000000Y-167000000D01*
X236200000Y-166970000D01*
X236200000Y-167075000D01*
G36*
X236200000Y-167075000D02*
G01*
X235900000Y-167400000D01*
X235500000Y-167500000D01*
X235400000Y-167400000D01*
X236000000Y-167000000D01*
X236200000Y-166970000D01*
X236200000Y-167075000D01*
G37*
X236300000Y-169200000D02*
X236900000Y-168800000D01*
X245300000Y-160000000D02*
X245200000Y-159200000D01*
X236600000Y-166900000D02*
X237100000Y-167100000D01*
X239100000Y-174600000D02*
X241300000Y-174900000D01*
X237400000Y-167900000D02*
X237800000Y-167800000D01*
X236300000Y-167400000D02*
X236100000Y-167600000D01*
X248500000Y-168700000D02*
X248200000Y-169400000D01*
X235800000Y-169200000D02*
X235700000Y-169300000D01*
X247900000Y-171400000D02*
X247300000Y-171700000D01*
X237600000Y-167600000D02*
X236600000Y-167200000D01*
X242500000Y-164600000D02*
X242500000Y-164000000D01*
X236900000Y-168800000D02*
X237700000Y-168600000D01*
X244800000Y-171500000D02*
X244700000Y-171000000D01*
X235900000Y-167400000D02*
X236100000Y-167200000D01*
X237600000Y-173600000D02*
X239100000Y-174600000D01*
X242600000Y-163900000D02*
X242200000Y-164000000D01*
X245200000Y-169100000D02*
X245900000Y-168900000D01*
X245900000Y-167900000D02*
X245900000Y-167800000D01*
X243100000Y-167700000D02*
X242700000Y-167300000D01*
X248800000Y-170100000D02*
X248400000Y-169900000D01*
X247500000Y-164500000D02*
X247100000Y-163800000D01*
X244200000Y-171000000D02*
X243400000Y-170450000D01*
X241700000Y-166400000D02*
X241700000Y-167000000D01*
X244900000Y-170300000D02*
X246700000Y-170000000D01*
X243300000Y-158500000D02*
X243000000Y-159200000D01*
X248400000Y-171600000D02*
X246800000Y-172000000D01*
X235500000Y-169100000D02*
X235700000Y-168900000D01*
X242200000Y-166100000D02*
X242300000Y-165500000D01*
X245400000Y-168100000D02*
X245900000Y-167900000D01*
X244900000Y-171100000D02*
X244800000Y-170900000D01*
X245300000Y-168100000D02*
X246000000Y-167900000D01*
X242500000Y-167500000D02*
X242400000Y-167300000D01*
X243000000Y-174500000D02*
X243900000Y-173900000D01*
X239100000Y-167900000D02*
X237900000Y-167600000D01*
X242400000Y-169500000D02*
X242500000Y-170000000D01*
X242800000Y-170400000D02*
X244000000Y-170500000D01*
X236600000Y-167200000D02*
X236300000Y-167200000D01*
X243100000Y-169100000D02*
X242900000Y-169100000D01*
X242200000Y-175200000D02*
X243100000Y-174900000D01*
X243700000Y-168400000D02*
X243500000Y-168600000D01*
X238500000Y-168350000D02*
X238500000Y-168100000D01*
X248400000Y-169900000D02*
X248400000Y-169600000D01*
X243100000Y-169900000D02*
X243000000Y-170100000D01*
X238800000Y-168850000D02*
X237900000Y-168800000D01*
X239100000Y-167900000D01*
X239900000Y-167700000D01*
X241240000Y-167630000D01*
X238800000Y-168850000D01*
G36*
X238800000Y-168850000D02*
G01*
X237900000Y-168800000D01*
X239100000Y-167900000D01*
X239900000Y-167700000D01*
X241240000Y-167630000D01*
X238800000Y-168850000D01*
G37*
X243800000Y-158100000D02*
X244000000Y-157900000D01*
X243600000Y-158900000D02*
X243800000Y-158100000D01*
X244100000Y-161100000D02*
X244100000Y-160900000D01*
X244100000Y-171400000D02*
X244400000Y-172300000D01*
X235400000Y-174700000D02*
X235600000Y-175200000D01*
X234800000Y-170100000D02*
X234800000Y-170000000D01*
X234900000Y-170000000D01*
X234800000Y-170100000D01*
G36*
X234800000Y-170100000D02*
G01*
X234800000Y-170000000D01*
X234900000Y-170000000D01*
X234800000Y-170100000D01*
G37*
X245700000Y-165900000D02*
X246900000Y-165800000D01*
X235600000Y-175200000D02*
X236700000Y-175500000D01*
X247100000Y-163800000D02*
X246700000Y-163400000D01*
X241100000Y-167600000D02*
X239900000Y-167700000D01*
X240800000Y-173600000D02*
X242900000Y-173500000D01*
X242000000Y-166100000D02*
X242200000Y-166100000D01*
X246800000Y-172000000D02*
X245300000Y-172000000D01*
X236100000Y-167200000D02*
X236300000Y-166950000D01*
X242800000Y-166300000D02*
X243500000Y-166000000D01*
X236000000Y-170300000D02*
X236300000Y-169200000D01*
X246900000Y-169900000D02*
X246700000Y-170000000D01*
X243000000Y-168500000D02*
X243600000Y-168200000D01*
X241600000Y-171100000D02*
X240800000Y-171400000D01*
X235600000Y-169300000D02*
X235500000Y-169100000D01*
X235800000Y-167600000D02*
X235500000Y-167500000D01*
X242500000Y-167700000D02*
X242500000Y-167500000D01*
X245200000Y-158600000D02*
X245200000Y-158000000D01*
X238200000Y-172000000D02*
X240800000Y-173600000D01*
X242200000Y-166400000D02*
X242000000Y-167000000D01*
X243900000Y-160800000D02*
X244000000Y-160500000D01*
D11*
X229500000Y-142000000D02*
X229500000Y-178000000D01*
D10*
X236800000Y-168400000D02*
X236200000Y-168700000D01*
X242700000Y-163800000D02*
X243800000Y-163700000D01*
X244300000Y-157600000D02*
X243700000Y-157800000D01*
X226500000Y-166000000D02*
X226500000Y-155000000D01*
X238300000Y-168000000D02*
X237500000Y-168200000D01*
X242000000Y-167000000D02*
X242200000Y-167700000D01*
X247600000Y-165300000D02*
X247500000Y-164500000D01*
X234800000Y-170100000D02*
X234800000Y-172500000D01*
X244800000Y-157700000D02*
X244300000Y-157600000D01*
X226500000Y-155000000D02*
X179500000Y-155000000D01*
X242800000Y-170100000D02*
X242700000Y-169900000D01*
X242700000Y-169900000D02*
X242500000Y-169300000D01*
X243000000Y-170100000D02*
X242800000Y-170100000D01*
X242800000Y-161500000D02*
X242800000Y-162400000D01*
X236000000Y-168900000D02*
X235800000Y-169200000D01*
X248400000Y-171600000D02*
X248800000Y-170500000D01*
X248400000Y-169600000D02*
X248600000Y-169200000D01*
X242000000Y-164000000D02*
X241800000Y-164700000D01*
D13*
G36*
X182401325Y-164320000D02*
G01*
X182401325Y-163286364D01*
X184554570Y-163286364D01*
X184965753Y-163265237D01*
X185350968Y-163190962D01*
X185710541Y-163027558D01*
X185810956Y-162948332D01*
X186050060Y-162636943D01*
X186167268Y-162255254D01*
X186180251Y-162055380D01*
X186180251Y-162039748D01*
X186136012Y-161630703D01*
X185988243Y-161263228D01*
X185865666Y-161097948D01*
X185542668Y-160868964D01*
X185164078Y-160766388D01*
X184828122Y-160744284D01*
X182401325Y-160744284D01*
X182401325Y-159738004D01*
X184828122Y-159738004D01*
X185217711Y-159703371D01*
X185608698Y-159559115D01*
X185760153Y-159444912D01*
X185985954Y-159110891D01*
X186069822Y-158725556D01*
X186074738Y-158589085D01*
X186025553Y-158184436D01*
X185843844Y-157819308D01*
X185724982Y-157698087D01*
X185383082Y-157505792D01*
X184965015Y-157415300D01*
X184675715Y-157401088D01*
X182401325Y-157401088D01*
X182401325Y-156369406D01*
X184878925Y-156369406D01*
X185298206Y-156389946D01*
X185734059Y-156465827D01*
X186112504Y-156597621D01*
X186474716Y-156816707D01*
X186627704Y-156953635D01*
X186879030Y-157270785D01*
X187058548Y-157638004D01*
X187166259Y-158055293D01*
X187201602Y-158461493D01*
X187202163Y-158522651D01*
X187160834Y-158920593D01*
X187036849Y-159294985D01*
X186852407Y-159614905D01*
X186564618Y-159912517D01*
X186220847Y-160109743D01*
X185844562Y-160227535D01*
X185752337Y-160246029D01*
X186141519Y-160341736D01*
X186512310Y-160528200D01*
X186818225Y-160799004D01*
X186897348Y-160896692D01*
X187112701Y-161250424D01*
X187248294Y-161635068D01*
X187304127Y-162050625D01*
X187305722Y-162137445D01*
X187305722Y-162155031D01*
X187275615Y-162562701D01*
X187167477Y-162984417D01*
X186980692Y-163358994D01*
X186715261Y-163686432D01*
X186676552Y-163724047D01*
X186334002Y-163984776D01*
X185935519Y-164171011D01*
X185540966Y-164272859D01*
X185103590Y-164317672D01*
X184970760Y-164320000D01*
X182401325Y-164320000D01*
G37*
G36*
X181744801Y-164320000D02*
G01*
X181744801Y-156369406D01*
X182854640Y-156369406D01*
X182854640Y-164320000D01*
X181744801Y-164320000D01*
G37*
G36*
X188044312Y-164320000D02*
G01*
X190975226Y-156369406D01*
X191926796Y-156369406D01*
X194857711Y-164320000D01*
X193656036Y-164320000D01*
X191451988Y-157905205D01*
X189247941Y-164320000D01*
X188044312Y-164320000D01*
G37*
G36*
X189394487Y-162575129D02*
G01*
X189394487Y-161514138D01*
X193577878Y-161514138D01*
X193577878Y-162575129D01*
X189394487Y-162575129D01*
G37*
G36*
X196989462Y-164320000D02*
G01*
X196989462Y-157020069D01*
X198105164Y-157020069D01*
X198105164Y-164320000D01*
X196989462Y-164320000D01*
G37*
G36*
X194742428Y-157428443D02*
G01*
X194742428Y-156369406D01*
X200354152Y-156369406D01*
X200354152Y-157428443D01*
X194742428Y-157428443D01*
G37*
G36*
X203203000Y-164320000D02*
G01*
X203203000Y-157020069D01*
X204318702Y-157020069D01*
X204318702Y-164320000D01*
X203203000Y-164320000D01*
G37*
G36*
X200955966Y-157428443D02*
G01*
X200955966Y-156369406D01*
X206567690Y-156369406D01*
X206567690Y-157428443D01*
X200955966Y-157428443D01*
G37*
G36*
X207661898Y-164320000D02*
G01*
X207661898Y-156369406D01*
X208777599Y-156369406D01*
X208777599Y-164320000D01*
X207661898Y-164320000D01*
G37*
G36*
X208203140Y-164320000D02*
G01*
X208203140Y-163259009D01*
X212769504Y-163259009D01*
X212769504Y-164320000D01*
X208203140Y-164320000D01*
G37*
G36*
X208203140Y-160902554D02*
G01*
X208203140Y-159841563D01*
X212167690Y-159841563D01*
X212167690Y-160902554D01*
X208203140Y-160902554D01*
G37*
G36*
X208203140Y-157428443D02*
G01*
X208203140Y-156369406D01*
X212769504Y-156369406D01*
X212769504Y-157428443D01*
X208203140Y-157428443D01*
G37*
G36*
X214838729Y-160957264D02*
G01*
X214838729Y-159896273D01*
X217550802Y-159896273D01*
X217939866Y-159831572D01*
X218275375Y-159618651D01*
X218332379Y-159558241D01*
X218534070Y-159218866D01*
X218620221Y-158828718D01*
X218627425Y-158659427D01*
X218578731Y-158243085D01*
X218417378Y-157875499D01*
X218332379Y-157764521D01*
X218013699Y-157520489D01*
X217610871Y-157425864D01*
X217550802Y-157424535D01*
X214838729Y-157424535D01*
X214838729Y-156363545D01*
X217507815Y-156363545D01*
X217924364Y-156391594D01*
X218306947Y-156475744D01*
X218688560Y-156633103D01*
X218721214Y-156650774D01*
X219051066Y-156875027D01*
X219325967Y-157152846D01*
X219528192Y-157451891D01*
X219691722Y-157826429D01*
X219787372Y-158243451D01*
X219815422Y-158659427D01*
X219786990Y-159073724D01*
X219690039Y-159490662D01*
X219524284Y-159866964D01*
X219298457Y-160194591D01*
X219018602Y-160468191D01*
X218717306Y-160670034D01*
X218341655Y-160833565D01*
X217923982Y-160929214D01*
X217507815Y-160957264D01*
X214838729Y-160957264D01*
G37*
G36*
X214352198Y-164320000D02*
G01*
X214352198Y-156363545D01*
X215467899Y-156363545D01*
X215467899Y-164320000D01*
X214352198Y-164320000D01*
G37*
G36*
X218824773Y-164320000D02*
G01*
X217003698Y-160711067D01*
X218113538Y-160459009D01*
X220149546Y-164320000D01*
X218824773Y-164320000D01*
G37*
G36*
X226409979Y-156369406D02*
G01*
X223987090Y-161088178D01*
X223987090Y-164320000D01*
X222871388Y-164320000D01*
X222871388Y-161088178D01*
X220448499Y-156369406D01*
X221689253Y-156369406D01*
X223428262Y-159956845D01*
X225167271Y-156369406D01*
X226409979Y-156369406D01*
G37*
D14*
X179445488Y-180800828D02*
X179445488Y-179300828D01*
X179445488Y-179300828D02*
X179802631Y-179300828D01*
X179802631Y-179300828D02*
X180016917Y-179372257D01*
X180016917Y-179372257D02*
X180159774Y-179515114D01*
X180159774Y-179515114D02*
X180231203Y-179657971D01*
X180231203Y-179657971D02*
X180302631Y-179943685D01*
X180302631Y-179943685D02*
X180302631Y-180157971D01*
X180302631Y-180157971D02*
X180231203Y-180443685D01*
X180231203Y-180443685D02*
X180159774Y-180586542D01*
X180159774Y-180586542D02*
X180016917Y-180729400D01*
X180016917Y-180729400D02*
X179802631Y-180800828D01*
X179802631Y-180800828D02*
X179445488Y-180800828D01*
X181516917Y-180729400D02*
X181374060Y-180800828D01*
X181374060Y-180800828D02*
X181088346Y-180800828D01*
X181088346Y-180800828D02*
X180945488Y-180729400D01*
X180945488Y-180729400D02*
X180874060Y-180586542D01*
X180874060Y-180586542D02*
X180874060Y-180015114D01*
X180874060Y-180015114D02*
X180945488Y-179872257D01*
X180945488Y-179872257D02*
X181088346Y-179800828D01*
X181088346Y-179800828D02*
X181374060Y-179800828D01*
X181374060Y-179800828D02*
X181516917Y-179872257D01*
X181516917Y-179872257D02*
X181588346Y-180015114D01*
X181588346Y-180015114D02*
X181588346Y-180157971D01*
X181588346Y-180157971D02*
X180874060Y-180300828D01*
X182159774Y-180729400D02*
X182302631Y-180800828D01*
X182302631Y-180800828D02*
X182588345Y-180800828D01*
X182588345Y-180800828D02*
X182731202Y-180729400D01*
X182731202Y-180729400D02*
X182802631Y-180586542D01*
X182802631Y-180586542D02*
X182802631Y-180515114D01*
X182802631Y-180515114D02*
X182731202Y-180372257D01*
X182731202Y-180372257D02*
X182588345Y-180300828D01*
X182588345Y-180300828D02*
X182374060Y-180300828D01*
X182374060Y-180300828D02*
X182231202Y-180229400D01*
X182231202Y-180229400D02*
X182159774Y-180086542D01*
X182159774Y-180086542D02*
X182159774Y-180015114D01*
X182159774Y-180015114D02*
X182231202Y-179872257D01*
X182231202Y-179872257D02*
X182374060Y-179800828D01*
X182374060Y-179800828D02*
X182588345Y-179800828D01*
X182588345Y-179800828D02*
X182731202Y-179872257D01*
X183445488Y-180800828D02*
X183445488Y-179800828D01*
X183445488Y-179300828D02*
X183374060Y-179372257D01*
X183374060Y-179372257D02*
X183445488Y-179443685D01*
X183445488Y-179443685D02*
X183516917Y-179372257D01*
X183516917Y-179372257D02*
X183445488Y-179300828D01*
X183445488Y-179300828D02*
X183445488Y-179443685D01*
X184802632Y-179800828D02*
X184802632Y-181015114D01*
X184802632Y-181015114D02*
X184731203Y-181157971D01*
X184731203Y-181157971D02*
X184659774Y-181229400D01*
X184659774Y-181229400D02*
X184516917Y-181300828D01*
X184516917Y-181300828D02*
X184302632Y-181300828D01*
X184302632Y-181300828D02*
X184159774Y-181229400D01*
X184802632Y-180729400D02*
X184659774Y-180800828D01*
X184659774Y-180800828D02*
X184374060Y-180800828D01*
X184374060Y-180800828D02*
X184231203Y-180729400D01*
X184231203Y-180729400D02*
X184159774Y-180657971D01*
X184159774Y-180657971D02*
X184088346Y-180515114D01*
X184088346Y-180515114D02*
X184088346Y-180086542D01*
X184088346Y-180086542D02*
X184159774Y-179943685D01*
X184159774Y-179943685D02*
X184231203Y-179872257D01*
X184231203Y-179872257D02*
X184374060Y-179800828D01*
X184374060Y-179800828D02*
X184659774Y-179800828D01*
X184659774Y-179800828D02*
X184802632Y-179872257D01*
X185516917Y-179800828D02*
X185516917Y-180800828D01*
X185516917Y-179943685D02*
X185588346Y-179872257D01*
X185588346Y-179872257D02*
X185731203Y-179800828D01*
X185731203Y-179800828D02*
X185945489Y-179800828D01*
X185945489Y-179800828D02*
X186088346Y-179872257D01*
X186088346Y-179872257D02*
X186159775Y-180015114D01*
X186159775Y-180015114D02*
X186159775Y-180800828D01*
X187445489Y-180729400D02*
X187302632Y-180800828D01*
X187302632Y-180800828D02*
X187016918Y-180800828D01*
X187016918Y-180800828D02*
X186874060Y-180729400D01*
X186874060Y-180729400D02*
X186802632Y-180586542D01*
X186802632Y-180586542D02*
X186802632Y-180015114D01*
X186802632Y-180015114D02*
X186874060Y-179872257D01*
X186874060Y-179872257D02*
X187016918Y-179800828D01*
X187016918Y-179800828D02*
X187302632Y-179800828D01*
X187302632Y-179800828D02*
X187445489Y-179872257D01*
X187445489Y-179872257D02*
X187516918Y-180015114D01*
X187516918Y-180015114D02*
X187516918Y-180157971D01*
X187516918Y-180157971D02*
X186802632Y-180300828D01*
X188802632Y-180800828D02*
X188802632Y-179300828D01*
X188802632Y-180729400D02*
X188659774Y-180800828D01*
X188659774Y-180800828D02*
X188374060Y-180800828D01*
X188374060Y-180800828D02*
X188231203Y-180729400D01*
X188231203Y-180729400D02*
X188159774Y-180657971D01*
X188159774Y-180657971D02*
X188088346Y-180515114D01*
X188088346Y-180515114D02*
X188088346Y-180086542D01*
X188088346Y-180086542D02*
X188159774Y-179943685D01*
X188159774Y-179943685D02*
X188231203Y-179872257D01*
X188231203Y-179872257D02*
X188374060Y-179800828D01*
X188374060Y-179800828D02*
X188659774Y-179800828D01*
X188659774Y-179800828D02*
X188802632Y-179872257D01*
X190445489Y-179800828D02*
X191016917Y-179800828D01*
X190659774Y-180800828D02*
X190659774Y-179515114D01*
X190659774Y-179515114D02*
X190731203Y-179372257D01*
X190731203Y-179372257D02*
X190874060Y-179300828D01*
X190874060Y-179300828D02*
X191016917Y-179300828D01*
X191516917Y-180800828D02*
X191516917Y-179800828D01*
X191516917Y-180086542D02*
X191588346Y-179943685D01*
X191588346Y-179943685D02*
X191659775Y-179872257D01*
X191659775Y-179872257D02*
X191802632Y-179800828D01*
X191802632Y-179800828D02*
X191945489Y-179800828D01*
X192659774Y-180800828D02*
X192516917Y-180729400D01*
X192516917Y-180729400D02*
X192445488Y-180657971D01*
X192445488Y-180657971D02*
X192374060Y-180515114D01*
X192374060Y-180515114D02*
X192374060Y-180086542D01*
X192374060Y-180086542D02*
X192445488Y-179943685D01*
X192445488Y-179943685D02*
X192516917Y-179872257D01*
X192516917Y-179872257D02*
X192659774Y-179800828D01*
X192659774Y-179800828D02*
X192874060Y-179800828D01*
X192874060Y-179800828D02*
X193016917Y-179872257D01*
X193016917Y-179872257D02*
X193088346Y-179943685D01*
X193088346Y-179943685D02*
X193159774Y-180086542D01*
X193159774Y-180086542D02*
X193159774Y-180515114D01*
X193159774Y-180515114D02*
X193088346Y-180657971D01*
X193088346Y-180657971D02*
X193016917Y-180729400D01*
X193016917Y-180729400D02*
X192874060Y-180800828D01*
X192874060Y-180800828D02*
X192659774Y-180800828D01*
X193802631Y-180800828D02*
X193802631Y-179800828D01*
X193802631Y-179943685D02*
X193874060Y-179872257D01*
X193874060Y-179872257D02*
X194016917Y-179800828D01*
X194016917Y-179800828D02*
X194231203Y-179800828D01*
X194231203Y-179800828D02*
X194374060Y-179872257D01*
X194374060Y-179872257D02*
X194445489Y-180015114D01*
X194445489Y-180015114D02*
X194445489Y-180800828D01*
X194445489Y-180015114D02*
X194516917Y-179872257D01*
X194516917Y-179872257D02*
X194659774Y-179800828D01*
X194659774Y-179800828D02*
X194874060Y-179800828D01*
X194874060Y-179800828D02*
X195016917Y-179872257D01*
X195016917Y-179872257D02*
X195088346Y-180015114D01*
X195088346Y-180015114D02*
X195088346Y-180800828D01*
X196874060Y-180729400D02*
X197016917Y-180800828D01*
X197016917Y-180800828D02*
X197302631Y-180800828D01*
X197302631Y-180800828D02*
X197445488Y-180729400D01*
X197445488Y-180729400D02*
X197516917Y-180586542D01*
X197516917Y-180586542D02*
X197516917Y-180515114D01*
X197516917Y-180515114D02*
X197445488Y-180372257D01*
X197445488Y-180372257D02*
X197302631Y-180300828D01*
X197302631Y-180300828D02*
X197088346Y-180300828D01*
X197088346Y-180300828D02*
X196945488Y-180229400D01*
X196945488Y-180229400D02*
X196874060Y-180086542D01*
X196874060Y-180086542D02*
X196874060Y-180015114D01*
X196874060Y-180015114D02*
X196945488Y-179872257D01*
X196945488Y-179872257D02*
X197088346Y-179800828D01*
X197088346Y-179800828D02*
X197302631Y-179800828D01*
X197302631Y-179800828D02*
X197445488Y-179872257D01*
X198802632Y-180729400D02*
X198659774Y-180800828D01*
X198659774Y-180800828D02*
X198374060Y-180800828D01*
X198374060Y-180800828D02*
X198231203Y-180729400D01*
X198231203Y-180729400D02*
X198159774Y-180657971D01*
X198159774Y-180657971D02*
X198088346Y-180515114D01*
X198088346Y-180515114D02*
X198088346Y-180086542D01*
X198088346Y-180086542D02*
X198159774Y-179943685D01*
X198159774Y-179943685D02*
X198231203Y-179872257D01*
X198231203Y-179872257D02*
X198374060Y-179800828D01*
X198374060Y-179800828D02*
X198659774Y-179800828D01*
X198659774Y-179800828D02*
X198802632Y-179872257D01*
X199445488Y-180800828D02*
X199445488Y-179800828D01*
X199445488Y-180086542D02*
X199516917Y-179943685D01*
X199516917Y-179943685D02*
X199588346Y-179872257D01*
X199588346Y-179872257D02*
X199731203Y-179800828D01*
X199731203Y-179800828D02*
X199874060Y-179800828D01*
X201016917Y-180800828D02*
X201016917Y-180015114D01*
X201016917Y-180015114D02*
X200945488Y-179872257D01*
X200945488Y-179872257D02*
X200802631Y-179800828D01*
X200802631Y-179800828D02*
X200516917Y-179800828D01*
X200516917Y-179800828D02*
X200374059Y-179872257D01*
X201016917Y-180729400D02*
X200874059Y-180800828D01*
X200874059Y-180800828D02*
X200516917Y-180800828D01*
X200516917Y-180800828D02*
X200374059Y-180729400D01*
X200374059Y-180729400D02*
X200302631Y-180586542D01*
X200302631Y-180586542D02*
X200302631Y-180443685D01*
X200302631Y-180443685D02*
X200374059Y-180300828D01*
X200374059Y-180300828D02*
X200516917Y-180229400D01*
X200516917Y-180229400D02*
X200874059Y-180229400D01*
X200874059Y-180229400D02*
X201016917Y-180157971D01*
X201516917Y-179800828D02*
X202088345Y-179800828D01*
X201731202Y-179300828D02*
X201731202Y-180586542D01*
X201731202Y-180586542D02*
X201802631Y-180729400D01*
X201802631Y-180729400D02*
X201945488Y-180800828D01*
X201945488Y-180800828D02*
X202088345Y-180800828D01*
X203231203Y-180729400D02*
X203088345Y-180800828D01*
X203088345Y-180800828D02*
X202802631Y-180800828D01*
X202802631Y-180800828D02*
X202659774Y-180729400D01*
X202659774Y-180729400D02*
X202588345Y-180657971D01*
X202588345Y-180657971D02*
X202516917Y-180515114D01*
X202516917Y-180515114D02*
X202516917Y-180086542D01*
X202516917Y-180086542D02*
X202588345Y-179943685D01*
X202588345Y-179943685D02*
X202659774Y-179872257D01*
X202659774Y-179872257D02*
X202802631Y-179800828D01*
X202802631Y-179800828D02*
X203088345Y-179800828D01*
X203088345Y-179800828D02*
X203231203Y-179872257D01*
X203874059Y-180800828D02*
X203874059Y-179300828D01*
X204516917Y-180800828D02*
X204516917Y-180015114D01*
X204516917Y-180015114D02*
X204445488Y-179872257D01*
X204445488Y-179872257D02*
X204302631Y-179800828D01*
X204302631Y-179800828D02*
X204088345Y-179800828D01*
X204088345Y-179800828D02*
X203945488Y-179872257D01*
X203945488Y-179872257D02*
X203874059Y-179943685D01*
X206374059Y-180800828D02*
X206374059Y-179300828D01*
X206374059Y-179872257D02*
X206516917Y-179800828D01*
X206516917Y-179800828D02*
X206802631Y-179800828D01*
X206802631Y-179800828D02*
X206945488Y-179872257D01*
X206945488Y-179872257D02*
X207016917Y-179943685D01*
X207016917Y-179943685D02*
X207088345Y-180086542D01*
X207088345Y-180086542D02*
X207088345Y-180515114D01*
X207088345Y-180515114D02*
X207016917Y-180657971D01*
X207016917Y-180657971D02*
X206945488Y-180729400D01*
X206945488Y-180729400D02*
X206802631Y-180800828D01*
X206802631Y-180800828D02*
X206516917Y-180800828D01*
X206516917Y-180800828D02*
X206374059Y-180729400D01*
X207588345Y-179800828D02*
X207945488Y-180800828D01*
X208302631Y-179800828D02*
X207945488Y-180800828D01*
X207945488Y-180800828D02*
X207802631Y-181157971D01*
X207802631Y-181157971D02*
X207731202Y-181229400D01*
X207731202Y-181229400D02*
X207588345Y-181300828D01*
X209945488Y-180372257D02*
X210659774Y-180372257D01*
X209802631Y-180800828D02*
X210302631Y-179300828D01*
X210302631Y-179300828D02*
X210802631Y-180800828D01*
X211302630Y-180800828D02*
X211302630Y-179800828D01*
X211302630Y-179943685D02*
X211374059Y-179872257D01*
X211374059Y-179872257D02*
X211516916Y-179800828D01*
X211516916Y-179800828D02*
X211731202Y-179800828D01*
X211731202Y-179800828D02*
X211874059Y-179872257D01*
X211874059Y-179872257D02*
X211945488Y-180015114D01*
X211945488Y-180015114D02*
X211945488Y-180800828D01*
X211945488Y-180015114D02*
X212016916Y-179872257D01*
X212016916Y-179872257D02*
X212159773Y-179800828D01*
X212159773Y-179800828D02*
X212374059Y-179800828D01*
X212374059Y-179800828D02*
X212516916Y-179872257D01*
X212516916Y-179872257D02*
X212588345Y-180015114D01*
X212588345Y-180015114D02*
X212588345Y-180800828D01*
X213302630Y-180800828D02*
X213302630Y-179800828D01*
X213302630Y-179943685D02*
X213374059Y-179872257D01*
X213374059Y-179872257D02*
X213516916Y-179800828D01*
X213516916Y-179800828D02*
X213731202Y-179800828D01*
X213731202Y-179800828D02*
X213874059Y-179872257D01*
X213874059Y-179872257D02*
X213945488Y-180015114D01*
X213945488Y-180015114D02*
X213945488Y-180800828D01*
X213945488Y-180015114D02*
X214016916Y-179872257D01*
X214016916Y-179872257D02*
X214159773Y-179800828D01*
X214159773Y-179800828D02*
X214374059Y-179800828D01*
X214374059Y-179800828D02*
X214516916Y-179872257D01*
X214516916Y-179872257D02*
X214588345Y-180015114D01*
X214588345Y-180015114D02*
X214588345Y-180800828D01*
X215516916Y-180800828D02*
X215374059Y-180729400D01*
X215374059Y-180729400D02*
X215302630Y-180657971D01*
X215302630Y-180657971D02*
X215231202Y-180515114D01*
X215231202Y-180515114D02*
X215231202Y-180086542D01*
X215231202Y-180086542D02*
X215302630Y-179943685D01*
X215302630Y-179943685D02*
X215374059Y-179872257D01*
X215374059Y-179872257D02*
X215516916Y-179800828D01*
X215516916Y-179800828D02*
X215731202Y-179800828D01*
X215731202Y-179800828D02*
X215874059Y-179872257D01*
X215874059Y-179872257D02*
X215945488Y-179943685D01*
X215945488Y-179943685D02*
X216016916Y-180086542D01*
X216016916Y-180086542D02*
X216016916Y-180515114D01*
X216016916Y-180515114D02*
X215945488Y-180657971D01*
X215945488Y-180657971D02*
X215874059Y-180729400D01*
X215874059Y-180729400D02*
X215731202Y-180800828D01*
X215731202Y-180800828D02*
X215516916Y-180800828D01*
X216659773Y-179800828D02*
X216659773Y-180800828D01*
X216659773Y-179943685D02*
X216731202Y-179872257D01*
X216731202Y-179872257D02*
X216874059Y-179800828D01*
X216874059Y-179800828D02*
X217088345Y-179800828D01*
X217088345Y-179800828D02*
X217231202Y-179872257D01*
X217231202Y-179872257D02*
X217302631Y-180015114D01*
X217302631Y-180015114D02*
X217302631Y-180800828D01*
X219659773Y-180015114D02*
X219874059Y-180086542D01*
X219874059Y-180086542D02*
X219945488Y-180157971D01*
X219945488Y-180157971D02*
X220016916Y-180300828D01*
X220016916Y-180300828D02*
X220016916Y-180515114D01*
X220016916Y-180515114D02*
X219945488Y-180657971D01*
X219945488Y-180657971D02*
X219874059Y-180729400D01*
X219874059Y-180729400D02*
X219731202Y-180800828D01*
X219731202Y-180800828D02*
X219159773Y-180800828D01*
X219159773Y-180800828D02*
X219159773Y-179300828D01*
X219159773Y-179300828D02*
X219659773Y-179300828D01*
X219659773Y-179300828D02*
X219802631Y-179372257D01*
X219802631Y-179372257D02*
X219874059Y-179443685D01*
X219874059Y-179443685D02*
X219945488Y-179586542D01*
X219945488Y-179586542D02*
X219945488Y-179729400D01*
X219945488Y-179729400D02*
X219874059Y-179872257D01*
X219874059Y-179872257D02*
X219802631Y-179943685D01*
X219802631Y-179943685D02*
X219659773Y-180015114D01*
X219659773Y-180015114D02*
X219159773Y-180015114D01*
X220659773Y-180800828D02*
X220659773Y-179800828D01*
X220659773Y-179300828D02*
X220588345Y-179372257D01*
X220588345Y-179372257D02*
X220659773Y-179443685D01*
X220659773Y-179443685D02*
X220731202Y-179372257D01*
X220731202Y-179372257D02*
X220659773Y-179300828D01*
X220659773Y-179300828D02*
X220659773Y-179443685D01*
X221302631Y-180729400D02*
X221445488Y-180800828D01*
X221445488Y-180800828D02*
X221731202Y-180800828D01*
X221731202Y-180800828D02*
X221874059Y-180729400D01*
X221874059Y-180729400D02*
X221945488Y-180586542D01*
X221945488Y-180586542D02*
X221945488Y-180515114D01*
X221945488Y-180515114D02*
X221874059Y-180372257D01*
X221874059Y-180372257D02*
X221731202Y-180300828D01*
X221731202Y-180300828D02*
X221516917Y-180300828D01*
X221516917Y-180300828D02*
X221374059Y-180229400D01*
X221374059Y-180229400D02*
X221302631Y-180086542D01*
X221302631Y-180086542D02*
X221302631Y-180015114D01*
X221302631Y-180015114D02*
X221374059Y-179872257D01*
X221374059Y-179872257D02*
X221516917Y-179800828D01*
X221516917Y-179800828D02*
X221731202Y-179800828D01*
X221731202Y-179800828D02*
X221874059Y-179872257D01*
X222588345Y-180800828D02*
X222588345Y-179300828D01*
X223231203Y-180800828D02*
X223231203Y-180015114D01*
X223231203Y-180015114D02*
X223159774Y-179872257D01*
X223159774Y-179872257D02*
X223016917Y-179800828D01*
X223016917Y-179800828D02*
X222802631Y-179800828D01*
X222802631Y-179800828D02*
X222659774Y-179872257D01*
X222659774Y-179872257D02*
X222588345Y-179943685D01*
X224159774Y-180800828D02*
X224016917Y-180729400D01*
X224016917Y-180729400D02*
X223945488Y-180657971D01*
X223945488Y-180657971D02*
X223874060Y-180515114D01*
X223874060Y-180515114D02*
X223874060Y-180086542D01*
X223874060Y-180086542D02*
X223945488Y-179943685D01*
X223945488Y-179943685D02*
X224016917Y-179872257D01*
X224016917Y-179872257D02*
X224159774Y-179800828D01*
X224159774Y-179800828D02*
X224374060Y-179800828D01*
X224374060Y-179800828D02*
X224516917Y-179872257D01*
X224516917Y-179872257D02*
X224588346Y-179943685D01*
X224588346Y-179943685D02*
X224659774Y-180086542D01*
X224659774Y-180086542D02*
X224659774Y-180515114D01*
X224659774Y-180515114D02*
X224588346Y-180657971D01*
X224588346Y-180657971D02*
X224516917Y-180729400D01*
X224516917Y-180729400D02*
X224374060Y-180800828D01*
X224374060Y-180800828D02*
X224159774Y-180800828D01*
X225302631Y-179800828D02*
X225302631Y-181300828D01*
X225302631Y-179872257D02*
X225445489Y-179800828D01*
X225445489Y-179800828D02*
X225731203Y-179800828D01*
X225731203Y-179800828D02*
X225874060Y-179872257D01*
X225874060Y-179872257D02*
X225945489Y-179943685D01*
X225945489Y-179943685D02*
X226016917Y-180086542D01*
X226016917Y-180086542D02*
X226016917Y-180515114D01*
X226016917Y-180515114D02*
X225945489Y-180657971D01*
X225945489Y-180657971D02*
X225874060Y-180729400D01*
X225874060Y-180729400D02*
X225731203Y-180800828D01*
X225731203Y-180800828D02*
X225445489Y-180800828D01*
X225445489Y-180800828D02*
X225302631Y-180729400D01*
D13*
X199367950Y-166722071D02*
X199739378Y-166722071D01*
X199739378Y-166722071D02*
X199539378Y-166950642D01*
X199539378Y-166950642D02*
X199625093Y-166950642D01*
X199625093Y-166950642D02*
X199682236Y-166979214D01*
X199682236Y-166979214D02*
X199710807Y-167007785D01*
X199710807Y-167007785D02*
X199739378Y-167064928D01*
X199739378Y-167064928D02*
X199739378Y-167207785D01*
X199739378Y-167207785D02*
X199710807Y-167264928D01*
X199710807Y-167264928D02*
X199682236Y-167293500D01*
X199682236Y-167293500D02*
X199625093Y-167322071D01*
X199625093Y-167322071D02*
X199453664Y-167322071D01*
X199453664Y-167322071D02*
X199396521Y-167293500D01*
X199396521Y-167293500D02*
X199367950Y-167264928D01*
X199996522Y-167264928D02*
X200025093Y-167293500D01*
X200025093Y-167293500D02*
X199996522Y-167322071D01*
X199996522Y-167322071D02*
X199967950Y-167293500D01*
X199967950Y-167293500D02*
X199996522Y-167264928D01*
X199996522Y-167264928D02*
X199996522Y-167322071D01*
X200225093Y-166722071D02*
X200625093Y-166722071D01*
X200625093Y-166722071D02*
X200367950Y-167322071D01*
X200767950Y-166722071D02*
X200967950Y-167322071D01*
X200967950Y-167322071D02*
X201167950Y-166722071D01*
X201396522Y-167293500D02*
X201396522Y-167322071D01*
X201396522Y-167322071D02*
X201367951Y-167379214D01*
X201367951Y-167379214D02*
X201339379Y-167407785D01*
X202425093Y-167322071D02*
X202082236Y-167322071D01*
X202253665Y-167322071D02*
X202253665Y-166722071D01*
X202253665Y-166722071D02*
X202196522Y-166807785D01*
X202196522Y-166807785D02*
X202139379Y-166864928D01*
X202139379Y-166864928D02*
X202082236Y-166893500D01*
X202767951Y-166979214D02*
X202710808Y-166950642D01*
X202710808Y-166950642D02*
X202682237Y-166922071D01*
X202682237Y-166922071D02*
X202653665Y-166864928D01*
X202653665Y-166864928D02*
X202653665Y-166836357D01*
X202653665Y-166836357D02*
X202682237Y-166779214D01*
X202682237Y-166779214D02*
X202710808Y-166750642D01*
X202710808Y-166750642D02*
X202767951Y-166722071D01*
X202767951Y-166722071D02*
X202882237Y-166722071D01*
X202882237Y-166722071D02*
X202939380Y-166750642D01*
X202939380Y-166750642D02*
X202967951Y-166779214D01*
X202967951Y-166779214D02*
X202996522Y-166836357D01*
X202996522Y-166836357D02*
X202996522Y-166864928D01*
X202996522Y-166864928D02*
X202967951Y-166922071D01*
X202967951Y-166922071D02*
X202939380Y-166950642D01*
X202939380Y-166950642D02*
X202882237Y-166979214D01*
X202882237Y-166979214D02*
X202767951Y-166979214D01*
X202767951Y-166979214D02*
X202710808Y-167007785D01*
X202710808Y-167007785D02*
X202682237Y-167036357D01*
X202682237Y-167036357D02*
X202653665Y-167093500D01*
X202653665Y-167093500D02*
X202653665Y-167207785D01*
X202653665Y-167207785D02*
X202682237Y-167264928D01*
X202682237Y-167264928D02*
X202710808Y-167293500D01*
X202710808Y-167293500D02*
X202767951Y-167322071D01*
X202767951Y-167322071D02*
X202882237Y-167322071D01*
X202882237Y-167322071D02*
X202939380Y-167293500D01*
X202939380Y-167293500D02*
X202967951Y-167264928D01*
X202967951Y-167264928D02*
X202996522Y-167207785D01*
X202996522Y-167207785D02*
X202996522Y-167093500D01*
X202996522Y-167093500D02*
X202967951Y-167036357D01*
X202967951Y-167036357D02*
X202939380Y-167007785D01*
X202939380Y-167007785D02*
X202882237Y-166979214D01*
X203367951Y-166722071D02*
X203425094Y-166722071D01*
X203425094Y-166722071D02*
X203482237Y-166750642D01*
X203482237Y-166750642D02*
X203510809Y-166779214D01*
X203510809Y-166779214D02*
X203539380Y-166836357D01*
X203539380Y-166836357D02*
X203567951Y-166950642D01*
X203567951Y-166950642D02*
X203567951Y-167093500D01*
X203567951Y-167093500D02*
X203539380Y-167207785D01*
X203539380Y-167207785D02*
X203510809Y-167264928D01*
X203510809Y-167264928D02*
X203482237Y-167293500D01*
X203482237Y-167293500D02*
X203425094Y-167322071D01*
X203425094Y-167322071D02*
X203367951Y-167322071D01*
X203367951Y-167322071D02*
X203310809Y-167293500D01*
X203310809Y-167293500D02*
X203282237Y-167264928D01*
X203282237Y-167264928D02*
X203253666Y-167207785D01*
X203253666Y-167207785D02*
X203225094Y-167093500D01*
X203225094Y-167093500D02*
X203225094Y-166950642D01*
X203225094Y-166950642D02*
X203253666Y-166836357D01*
X203253666Y-166836357D02*
X203282237Y-166779214D01*
X203282237Y-166779214D02*
X203310809Y-166750642D01*
X203310809Y-166750642D02*
X203367951Y-166722071D01*
X203939380Y-166722071D02*
X203996523Y-166722071D01*
X203996523Y-166722071D02*
X204053666Y-166750642D01*
X204053666Y-166750642D02*
X204082238Y-166779214D01*
X204082238Y-166779214D02*
X204110809Y-166836357D01*
X204110809Y-166836357D02*
X204139380Y-166950642D01*
X204139380Y-166950642D02*
X204139380Y-167093500D01*
X204139380Y-167093500D02*
X204110809Y-167207785D01*
X204110809Y-167207785D02*
X204082238Y-167264928D01*
X204082238Y-167264928D02*
X204053666Y-167293500D01*
X204053666Y-167293500D02*
X203996523Y-167322071D01*
X203996523Y-167322071D02*
X203939380Y-167322071D01*
X203939380Y-167322071D02*
X203882238Y-167293500D01*
X203882238Y-167293500D02*
X203853666Y-167264928D01*
X203853666Y-167264928D02*
X203825095Y-167207785D01*
X203825095Y-167207785D02*
X203796523Y-167093500D01*
X203796523Y-167093500D02*
X203796523Y-166950642D01*
X203796523Y-166950642D02*
X203825095Y-166836357D01*
X203825095Y-166836357D02*
X203853666Y-166779214D01*
X203853666Y-166779214D02*
X203882238Y-166750642D01*
X203882238Y-166750642D02*
X203939380Y-166722071D01*
X204396524Y-167322071D02*
X204396524Y-166922071D01*
X204396524Y-166979214D02*
X204425095Y-166950642D01*
X204425095Y-166950642D02*
X204482238Y-166922071D01*
X204482238Y-166922071D02*
X204567952Y-166922071D01*
X204567952Y-166922071D02*
X204625095Y-166950642D01*
X204625095Y-166950642D02*
X204653667Y-167007785D01*
X204653667Y-167007785D02*
X204653667Y-167322071D01*
X204653667Y-167007785D02*
X204682238Y-166950642D01*
X204682238Y-166950642D02*
X204739381Y-166922071D01*
X204739381Y-166922071D02*
X204825095Y-166922071D01*
X204825095Y-166922071D02*
X204882238Y-166950642D01*
X204882238Y-166950642D02*
X204910809Y-167007785D01*
X204910809Y-167007785D02*
X204910809Y-167322071D01*
X205167952Y-167150642D02*
X205453667Y-167150642D01*
X205110809Y-167322071D02*
X205310809Y-166722071D01*
X205310809Y-166722071D02*
X205510809Y-167322071D01*
X205710810Y-167322071D02*
X205710810Y-166722071D01*
X205967953Y-167322071D02*
X205967953Y-167007785D01*
X205967953Y-167007785D02*
X205939381Y-166950642D01*
X205939381Y-166950642D02*
X205882238Y-166922071D01*
X205882238Y-166922071D02*
X205796524Y-166922071D01*
X205796524Y-166922071D02*
X205739381Y-166950642D01*
X205739381Y-166950642D02*
X205710810Y-166979214D01*
D10*
X207250000Y-166250000D02*
X198750000Y-166250000D01*
X198750000Y-167750000D01*
X207250000Y-167750000D01*
X207250000Y-166250000D01*
D15*
X134245635Y-122814437D02*
X134168162Y-122779024D01*
X134168162Y-122779024D02*
X134053946Y-122783013D01*
X134053946Y-122783013D02*
X133941059Y-122825073D01*
X133941059Y-122825073D02*
X133867574Y-122903877D01*
X133867574Y-122903877D02*
X133832161Y-122981350D01*
X133832161Y-122981350D02*
X133799407Y-123134968D01*
X133799407Y-123134968D02*
X133803396Y-123249184D01*
X133803396Y-123249184D02*
X133846786Y-123400142D01*
X133846786Y-123400142D02*
X133887517Y-123474957D01*
X133887517Y-123474957D02*
X133966320Y-123548442D01*
X133966320Y-123548442D02*
X134081865Y-123582526D01*
X134081865Y-123582526D02*
X134158009Y-123579867D01*
X134158009Y-123579867D02*
X134270896Y-123537806D01*
X134270896Y-123537806D02*
X134307639Y-123498405D01*
X134307639Y-123498405D02*
X134298332Y-123231900D01*
X134298332Y-123231900D02*
X134146044Y-123237218D01*
X134652946Y-123562583D02*
X134625026Y-122763070D01*
X134625026Y-122763070D02*
X135109810Y-123546629D01*
X135109810Y-123546629D02*
X135081891Y-122747116D01*
X135490530Y-123533334D02*
X135462611Y-122733821D01*
X135462611Y-122733821D02*
X135652971Y-122727174D01*
X135652971Y-122727174D02*
X135768516Y-122761257D01*
X135768516Y-122761257D02*
X135847320Y-122834742D01*
X135847320Y-122834742D02*
X135888051Y-122909557D01*
X135888051Y-122909557D02*
X135931441Y-123060516D01*
X135931441Y-123060516D02*
X135935429Y-123174732D01*
X135935429Y-123174732D02*
X135902675Y-123328349D01*
X135902675Y-123328349D02*
X135867262Y-123405823D01*
X135867262Y-123405823D02*
X135793777Y-123484626D01*
X135793777Y-123484626D02*
X135680890Y-123526686D01*
X135680890Y-123526686D02*
X135490530Y-123533334D01*
D14*
X124893416Y-145584635D02*
X124928315Y-146584026D01*
X124898401Y-145727405D02*
X124967294Y-145653527D01*
X124967294Y-145653527D02*
X125107571Y-145577156D01*
X125107571Y-145577156D02*
X125321726Y-145569678D01*
X125321726Y-145569678D02*
X125466989Y-145636077D01*
X125466989Y-145636077D02*
X125543360Y-145776355D01*
X125543360Y-145776355D02*
X125570781Y-146561590D01*
X126284632Y-146536662D02*
X126249732Y-145537271D01*
X126232282Y-145037576D02*
X126163390Y-145111454D01*
X126163390Y-145111454D02*
X126237268Y-145180346D01*
X126237268Y-145180346D02*
X126306160Y-145106468D01*
X126306160Y-145106468D02*
X126232282Y-145037576D01*
X126232282Y-145037576D02*
X126237268Y-145180346D01*
X127638455Y-146417913D02*
X127498178Y-146494284D01*
X127498178Y-146494284D02*
X127212638Y-146504255D01*
X127212638Y-146504255D02*
X127067375Y-146437856D01*
X127067375Y-146437856D02*
X126993497Y-146368964D01*
X126993497Y-146368964D02*
X126917126Y-146228686D01*
X126917126Y-146228686D02*
X126902169Y-145800376D01*
X126902169Y-145800376D02*
X126968569Y-145655113D01*
X126968569Y-145655113D02*
X127037461Y-145581235D01*
X127037461Y-145581235D02*
X127177738Y-145504865D01*
X127177738Y-145504865D02*
X127463278Y-145494893D01*
X127463278Y-145494893D02*
X127608541Y-145561293D01*
X128852001Y-146375536D02*
X128711724Y-146451906D01*
X128711724Y-146451906D02*
X128426183Y-146461877D01*
X128426183Y-146461877D02*
X128280920Y-146395478D01*
X128280920Y-146395478D02*
X128204550Y-146255201D01*
X128204550Y-146255201D02*
X128184607Y-145684120D01*
X128184607Y-145684120D02*
X128251007Y-145538857D01*
X128251007Y-145538857D02*
X128391284Y-145462487D01*
X128391284Y-145462487D02*
X128676824Y-145452515D01*
X128676824Y-145452515D02*
X128822087Y-145518915D01*
X128822087Y-145518915D02*
X128898458Y-145659192D01*
X128898458Y-145659192D02*
X128903443Y-145801962D01*
X128903443Y-145801962D02*
X128194578Y-145969661D01*
X129563358Y-146279222D02*
X129637236Y-146348114D01*
X129637236Y-146348114D02*
X129568344Y-146421992D01*
X129568344Y-146421992D02*
X129494466Y-146353100D01*
X129494466Y-146353100D02*
X129563358Y-146279222D01*
X129563358Y-146279222D02*
X129568344Y-146421992D01*
X129548401Y-145850912D02*
X129447103Y-144996784D01*
X129447103Y-144996784D02*
X129515995Y-144922906D01*
X129515995Y-144922906D02*
X129589873Y-144991798D01*
X129589873Y-144991798D02*
X129548401Y-145850912D01*
X129548401Y-145850912D02*
X129515995Y-144922906D01*
X130247295Y-145397673D02*
X130282195Y-146397064D01*
X130252281Y-145540443D02*
X130321173Y-145466566D01*
X130321173Y-145466566D02*
X130461451Y-145390195D01*
X130461451Y-145390195D02*
X130675606Y-145382716D01*
X130675606Y-145382716D02*
X130820869Y-145449116D01*
X130820869Y-145449116D02*
X130897239Y-145589393D01*
X130897239Y-145589393D02*
X130924660Y-146374629D01*
X132280977Y-146327265D02*
X132253556Y-145542029D01*
X132253556Y-145542029D02*
X132177185Y-145401752D01*
X132177185Y-145401752D02*
X132031922Y-145335353D01*
X132031922Y-145335353D02*
X131746382Y-145345324D01*
X131746382Y-145345324D02*
X131606104Y-145421695D01*
X132278484Y-146255880D02*
X132138207Y-146332251D01*
X132138207Y-146332251D02*
X131781281Y-146344715D01*
X131781281Y-146344715D02*
X131636018Y-146278315D01*
X131636018Y-146278315D02*
X131559648Y-146138038D01*
X131559648Y-146138038D02*
X131554662Y-145995268D01*
X131554662Y-145995268D02*
X131621061Y-145850005D01*
X131621061Y-145850005D02*
X131761339Y-145773634D01*
X131761339Y-145773634D02*
X132118264Y-145761170D01*
X132118264Y-145761170D02*
X132258541Y-145684800D01*
X132959928Y-145302946D02*
X132994827Y-146302337D01*
X132964914Y-145445716D02*
X133033806Y-145371838D01*
X133033806Y-145371838D02*
X133174083Y-145295468D01*
X133174083Y-145295468D02*
X133388238Y-145287989D01*
X133388238Y-145287989D02*
X133533501Y-145354389D01*
X133533501Y-145354389D02*
X133609872Y-145494666D01*
X133609872Y-145494666D02*
X133637293Y-146279902D01*
X134565299Y-146247495D02*
X134420036Y-146181095D01*
X134420036Y-146181095D02*
X134346158Y-146112203D01*
X134346158Y-146112203D02*
X134269787Y-145971926D01*
X134269787Y-145971926D02*
X134254830Y-145543616D01*
X134254830Y-145543616D02*
X134321230Y-145398353D01*
X134321230Y-145398353D02*
X134390122Y-145324475D01*
X134390122Y-145324475D02*
X134530399Y-145248104D01*
X134530399Y-145248104D02*
X134744555Y-145240626D01*
X134744555Y-145240626D02*
X134889817Y-145307025D01*
X134889817Y-145307025D02*
X134963695Y-145375917D01*
X134963695Y-145375917D02*
X135040066Y-145516195D01*
X135040066Y-145516195D02*
X135055023Y-145944505D01*
X135055023Y-145944505D02*
X134988624Y-146089768D01*
X134988624Y-146089768D02*
X134919731Y-146163646D01*
X134919731Y-146163646D02*
X134779454Y-146240016D01*
X134779454Y-146240016D02*
X134565299Y-146247495D01*
D15*
X123771611Y-143474466D02*
X123847755Y-143471807D01*
X123847755Y-143471807D02*
X123925229Y-143507220D01*
X123925229Y-143507220D02*
X123964630Y-143543963D01*
X123964630Y-143543963D02*
X124005362Y-143618777D01*
X124005362Y-143618777D02*
X124048752Y-143769736D01*
X124048752Y-143769736D02*
X124055399Y-143960096D01*
X124055399Y-143960096D02*
X124022645Y-144113713D01*
X124022645Y-144113713D02*
X123987232Y-144191187D01*
X123987232Y-144191187D02*
X123950490Y-144230589D01*
X123950490Y-144230589D02*
X123875675Y-144271320D01*
X123875675Y-144271320D02*
X123799531Y-144273979D01*
X123799531Y-144273979D02*
X123722057Y-144238566D01*
X123722057Y-144238566D02*
X123682656Y-144201823D01*
X123682656Y-144201823D02*
X123641925Y-144127009D01*
X123641925Y-144127009D02*
X123598535Y-143976050D01*
X123598535Y-143976050D02*
X123591887Y-143785690D01*
X123591887Y-143785690D02*
X123624641Y-143632072D01*
X123624641Y-143632072D02*
X123660054Y-143554599D01*
X123660054Y-143554599D02*
X123696797Y-143515197D01*
X123696797Y-143515197D02*
X123771611Y-143474466D01*
X124827476Y-144238082D02*
X124370612Y-144254036D01*
X124599044Y-144246059D02*
X124571124Y-143446546D01*
X124571124Y-143446546D02*
X124498969Y-143563421D01*
X124498969Y-143563421D02*
X124425484Y-143642225D01*
X124425484Y-143642225D02*
X124350669Y-143682956D01*
X125294493Y-143421286D02*
X125370637Y-143418627D01*
X125370637Y-143418627D02*
X125448111Y-143454040D01*
X125448111Y-143454040D02*
X125487512Y-143490782D01*
X125487512Y-143490782D02*
X125528243Y-143565597D01*
X125528243Y-143565597D02*
X125571633Y-143716555D01*
X125571633Y-143716555D02*
X125578281Y-143906916D01*
X125578281Y-143906916D02*
X125545527Y-144060533D01*
X125545527Y-144060533D02*
X125510114Y-144138007D01*
X125510114Y-144138007D02*
X125473371Y-144177408D01*
X125473371Y-144177408D02*
X125398557Y-144218139D01*
X125398557Y-144218139D02*
X125322413Y-144220798D01*
X125322413Y-144220798D02*
X125244939Y-144185385D01*
X125244939Y-144185385D02*
X125205538Y-144148643D01*
X125205538Y-144148643D02*
X125164806Y-144073828D01*
X125164806Y-144073828D02*
X125121416Y-143922870D01*
X125121416Y-143922870D02*
X125114769Y-143732510D01*
X125114769Y-143732510D02*
X125147523Y-143578892D01*
X125147523Y-143578892D02*
X125182936Y-143501418D01*
X125182936Y-143501418D02*
X125219678Y-143462017D01*
X125219678Y-143462017D02*
X125294493Y-143421286D01*
X134398461Y-130465670D02*
X134474605Y-130463011D01*
X134474605Y-130463011D02*
X134552079Y-130498424D01*
X134552079Y-130498424D02*
X134591480Y-130535167D01*
X134591480Y-130535167D02*
X134632212Y-130609981D01*
X134632212Y-130609981D02*
X134675602Y-130760940D01*
X134675602Y-130760940D02*
X134682249Y-130951300D01*
X134682249Y-130951300D02*
X134649495Y-131104917D01*
X134649495Y-131104917D02*
X134614082Y-131182391D01*
X134614082Y-131182391D02*
X134577340Y-131221793D01*
X134577340Y-131221793D02*
X134502525Y-131262524D01*
X134502525Y-131262524D02*
X134426381Y-131265183D01*
X134426381Y-131265183D02*
X134348907Y-131229770D01*
X134348907Y-131229770D02*
X134309506Y-131193027D01*
X134309506Y-131193027D02*
X134268775Y-131118213D01*
X134268775Y-131118213D02*
X134225385Y-130967254D01*
X134225385Y-130967254D02*
X134218737Y-130776894D01*
X134218737Y-130776894D02*
X134251491Y-130623276D01*
X134251491Y-130623276D02*
X134286904Y-130545803D01*
X134286904Y-130545803D02*
X134323647Y-130506401D01*
X134323647Y-130506401D02*
X134398461Y-130465670D01*
X134972201Y-130521871D02*
X135008944Y-130482470D01*
X135008944Y-130482470D02*
X135083758Y-130441739D01*
X135083758Y-130441739D02*
X135274118Y-130435091D01*
X135274118Y-130435091D02*
X135351592Y-130470504D01*
X135351592Y-130470504D02*
X135390993Y-130507247D01*
X135390993Y-130507247D02*
X135431724Y-130582061D01*
X135431724Y-130582061D02*
X135434383Y-130658206D01*
X135434383Y-130658206D02*
X135400300Y-130773751D01*
X135400300Y-130773751D02*
X134959390Y-131246570D01*
X134959390Y-131246570D02*
X135454326Y-131229286D01*
X135921343Y-130412490D02*
X135997487Y-130409831D01*
X135997487Y-130409831D02*
X136074961Y-130445244D01*
X136074961Y-130445244D02*
X136114362Y-130481986D01*
X136114362Y-130481986D02*
X136155093Y-130556801D01*
X136155093Y-130556801D02*
X136198483Y-130707759D01*
X136198483Y-130707759D02*
X136205131Y-130898120D01*
X136205131Y-130898120D02*
X136172377Y-131051737D01*
X136172377Y-131051737D02*
X136136964Y-131129211D01*
X136136964Y-131129211D02*
X136100221Y-131168612D01*
X136100221Y-131168612D02*
X136025407Y-131209343D01*
X136025407Y-131209343D02*
X135949263Y-131212002D01*
X135949263Y-131212002D02*
X135871789Y-131176589D01*
X135871789Y-131176589D02*
X135832388Y-131139847D01*
X135832388Y-131139847D02*
X135791656Y-131065032D01*
X135791656Y-131065032D02*
X135748266Y-130914074D01*
X135748266Y-130914074D02*
X135741619Y-130723714D01*
X135741619Y-130723714D02*
X135774373Y-130570096D01*
X135774373Y-130570096D02*
X135809786Y-130492622D01*
X135809786Y-130492622D02*
X135846528Y-130453221D01*
X135846528Y-130453221D02*
X135921343Y-130412490D01*
X134573312Y-135472618D02*
X134649456Y-135469959D01*
X134649456Y-135469959D02*
X134726930Y-135505372D01*
X134726930Y-135505372D02*
X134766331Y-135542115D01*
X134766331Y-135542115D02*
X134807063Y-135616929D01*
X134807063Y-135616929D02*
X134850453Y-135767888D01*
X134850453Y-135767888D02*
X134857100Y-135958248D01*
X134857100Y-135958248D02*
X134824346Y-136111865D01*
X134824346Y-136111865D02*
X134788933Y-136189339D01*
X134788933Y-136189339D02*
X134752191Y-136228741D01*
X134752191Y-136228741D02*
X134677376Y-136269472D01*
X134677376Y-136269472D02*
X134601232Y-136272131D01*
X134601232Y-136272131D02*
X134523758Y-136236718D01*
X134523758Y-136236718D02*
X134484357Y-136199975D01*
X134484357Y-136199975D02*
X134443626Y-136125161D01*
X134443626Y-136125161D02*
X134400236Y-135974202D01*
X134400236Y-135974202D02*
X134393588Y-135783842D01*
X134393588Y-135783842D02*
X134426342Y-135630224D01*
X134426342Y-135630224D02*
X134461755Y-135552751D01*
X134461755Y-135552751D02*
X134498498Y-135513349D01*
X134498498Y-135513349D02*
X134573312Y-135472618D01*
X135147052Y-135528819D02*
X135183795Y-135489418D01*
X135183795Y-135489418D02*
X135258609Y-135448687D01*
X135258609Y-135448687D02*
X135448969Y-135442039D01*
X135448969Y-135442039D02*
X135526443Y-135477452D01*
X135526443Y-135477452D02*
X135565844Y-135514195D01*
X135565844Y-135514195D02*
X135606575Y-135589009D01*
X135606575Y-135589009D02*
X135609234Y-135665154D01*
X135609234Y-135665154D02*
X135575151Y-135780699D01*
X135575151Y-135780699D02*
X135134241Y-136253518D01*
X135134241Y-136253518D02*
X135629177Y-136236234D01*
X136295861Y-135679294D02*
X136314474Y-136212303D01*
X136094865Y-135381366D02*
X135924447Y-135959094D01*
X135924447Y-135959094D02*
X136419383Y-135941810D01*
X134039001Y-120171944D02*
X134115145Y-120169285D01*
X134115145Y-120169285D02*
X134192619Y-120204698D01*
X134192619Y-120204698D02*
X134232020Y-120241441D01*
X134232020Y-120241441D02*
X134272752Y-120316255D01*
X134272752Y-120316255D02*
X134316142Y-120467214D01*
X134316142Y-120467214D02*
X134322789Y-120657574D01*
X134322789Y-120657574D02*
X134290035Y-120811191D01*
X134290035Y-120811191D02*
X134254622Y-120888665D01*
X134254622Y-120888665D02*
X134217880Y-120928067D01*
X134217880Y-120928067D02*
X134143065Y-120968798D01*
X134143065Y-120968798D02*
X134066921Y-120971457D01*
X134066921Y-120971457D02*
X133989447Y-120936044D01*
X133989447Y-120936044D02*
X133950046Y-120899301D01*
X133950046Y-120899301D02*
X133909315Y-120824487D01*
X133909315Y-120824487D02*
X133865925Y-120673528D01*
X133865925Y-120673528D02*
X133859277Y-120483168D01*
X133859277Y-120483168D02*
X133892031Y-120329550D01*
X133892031Y-120329550D02*
X133927444Y-120252077D01*
X133927444Y-120252077D02*
X133964187Y-120212675D01*
X133964187Y-120212675D02*
X134039001Y-120171944D01*
X134800442Y-120145354D02*
X134876586Y-120142695D01*
X134876586Y-120142695D02*
X134954060Y-120178108D01*
X134954060Y-120178108D02*
X134993461Y-120214850D01*
X134993461Y-120214850D02*
X135034192Y-120289665D01*
X135034192Y-120289665D02*
X135077582Y-120440624D01*
X135077582Y-120440624D02*
X135084230Y-120630984D01*
X135084230Y-120630984D02*
X135051476Y-120784601D01*
X135051476Y-120784601D02*
X135016063Y-120862075D01*
X135016063Y-120862075D02*
X134979320Y-120901476D01*
X134979320Y-120901476D02*
X134904506Y-120942208D01*
X134904506Y-120942208D02*
X134828362Y-120944867D01*
X134828362Y-120944867D02*
X134750888Y-120909454D01*
X134750888Y-120909454D02*
X134711487Y-120872711D01*
X134711487Y-120872711D02*
X134670756Y-120797896D01*
X134670756Y-120797896D02*
X134627366Y-120646938D01*
X134627366Y-120646938D02*
X134620718Y-120456578D01*
X134620718Y-120456578D02*
X134653472Y-120302960D01*
X134653472Y-120302960D02*
X134688885Y-120225486D01*
X134688885Y-120225486D02*
X134725628Y-120186085D01*
X134725628Y-120186085D02*
X134800442Y-120145354D01*
X135535777Y-120462742D02*
X135458303Y-120427329D01*
X135458303Y-120427329D02*
X135418901Y-120390586D01*
X135418901Y-120390586D02*
X135378170Y-120315771D01*
X135378170Y-120315771D02*
X135376841Y-120277699D01*
X135376841Y-120277699D02*
X135412254Y-120200226D01*
X135412254Y-120200226D02*
X135448996Y-120160824D01*
X135448996Y-120160824D02*
X135523811Y-120120093D01*
X135523811Y-120120093D02*
X135676099Y-120114775D01*
X135676099Y-120114775D02*
X135753573Y-120150188D01*
X135753573Y-120150188D02*
X135792974Y-120186931D01*
X135792974Y-120186931D02*
X135833705Y-120261745D01*
X135833705Y-120261745D02*
X135835035Y-120299817D01*
X135835035Y-120299817D02*
X135799622Y-120377291D01*
X135799622Y-120377291D02*
X135762879Y-120416692D01*
X135762879Y-120416692D02*
X135688065Y-120457424D01*
X135688065Y-120457424D02*
X135535777Y-120462742D01*
X135535777Y-120462742D02*
X135460962Y-120503473D01*
X135460962Y-120503473D02*
X135424219Y-120542874D01*
X135424219Y-120542874D02*
X135388806Y-120620348D01*
X135388806Y-120620348D02*
X135394124Y-120772636D01*
X135394124Y-120772636D02*
X135434856Y-120847450D01*
X135434856Y-120847450D02*
X135474257Y-120884193D01*
X135474257Y-120884193D02*
X135551731Y-120919606D01*
X135551731Y-120919606D02*
X135704019Y-120914288D01*
X135704019Y-120914288D02*
X135778833Y-120873557D01*
X135778833Y-120873557D02*
X135815576Y-120834155D01*
X135815576Y-120834155D02*
X135850989Y-120756682D01*
X135850989Y-120756682D02*
X135845671Y-120604394D01*
X135845671Y-120604394D02*
X135804940Y-120529579D01*
X135804940Y-120529579D02*
X135765538Y-120492837D01*
X135765538Y-120492837D02*
X135688065Y-120457424D01*
X123328388Y-130782203D02*
X123404532Y-130779544D01*
X123404532Y-130779544D02*
X123482006Y-130814957D01*
X123482006Y-130814957D02*
X123521407Y-130851700D01*
X123521407Y-130851700D02*
X123562139Y-130926514D01*
X123562139Y-130926514D02*
X123605529Y-131077473D01*
X123605529Y-131077473D02*
X123612176Y-131267833D01*
X123612176Y-131267833D02*
X123579422Y-131421450D01*
X123579422Y-131421450D02*
X123544009Y-131498924D01*
X123544009Y-131498924D02*
X123507267Y-131538326D01*
X123507267Y-131538326D02*
X123432452Y-131579057D01*
X123432452Y-131579057D02*
X123356308Y-131581716D01*
X123356308Y-131581716D02*
X123278834Y-131546303D01*
X123278834Y-131546303D02*
X123239433Y-131509560D01*
X123239433Y-131509560D02*
X123198702Y-131434746D01*
X123198702Y-131434746D02*
X123155312Y-131283787D01*
X123155312Y-131283787D02*
X123148664Y-131093427D01*
X123148664Y-131093427D02*
X123181418Y-130939809D01*
X123181418Y-130939809D02*
X123216831Y-130862336D01*
X123216831Y-130862336D02*
X123253574Y-130822934D01*
X123253574Y-130822934D02*
X123328388Y-130782203D01*
X123902128Y-130838404D02*
X123938871Y-130799003D01*
X123938871Y-130799003D02*
X124013685Y-130758272D01*
X124013685Y-130758272D02*
X124204045Y-130751624D01*
X124204045Y-130751624D02*
X124281519Y-130787037D01*
X124281519Y-130787037D02*
X124320920Y-130823780D01*
X124320920Y-130823780D02*
X124361651Y-130898594D01*
X124361651Y-130898594D02*
X124364310Y-130974739D01*
X124364310Y-130974739D02*
X124330227Y-131090284D01*
X124330227Y-131090284D02*
X123889317Y-131563103D01*
X123889317Y-131563103D02*
X124384253Y-131545819D01*
X124764974Y-131532524D02*
X124917262Y-131527206D01*
X124917262Y-131527206D02*
X124992076Y-131486475D01*
X124992076Y-131486475D02*
X125028819Y-131447073D01*
X125028819Y-131447073D02*
X125100974Y-131330198D01*
X125100974Y-131330198D02*
X125133728Y-131176581D01*
X125133728Y-131176581D02*
X125123092Y-130872004D01*
X125123092Y-130872004D02*
X125082361Y-130797190D01*
X125082361Y-130797190D02*
X125042960Y-130760447D01*
X125042960Y-130760447D02*
X124965486Y-130725034D01*
X124965486Y-130725034D02*
X124813198Y-130730352D01*
X124813198Y-130730352D02*
X124738383Y-130771083D01*
X124738383Y-130771083D02*
X124701641Y-130810485D01*
X124701641Y-130810485D02*
X124666228Y-130887958D01*
X124666228Y-130887958D02*
X124672875Y-131078319D01*
X124672875Y-131078319D02*
X124713606Y-131153133D01*
X124713606Y-131153133D02*
X124753008Y-131189876D01*
X124753008Y-131189876D02*
X124830482Y-131225289D01*
X124830482Y-131225289D02*
X124982770Y-131219971D01*
X124982770Y-131219971D02*
X125057584Y-131179240D01*
X125057584Y-131179240D02*
X125094327Y-131139838D01*
X125094327Y-131139838D02*
X125129740Y-131062365D01*
X123239743Y-128243750D02*
X123315887Y-128241091D01*
X123315887Y-128241091D02*
X123393361Y-128276504D01*
X123393361Y-128276504D02*
X123432762Y-128313247D01*
X123432762Y-128313247D02*
X123473494Y-128388061D01*
X123473494Y-128388061D02*
X123516884Y-128539020D01*
X123516884Y-128539020D02*
X123523531Y-128729380D01*
X123523531Y-128729380D02*
X123490777Y-128882997D01*
X123490777Y-128882997D02*
X123455364Y-128960471D01*
X123455364Y-128960471D02*
X123418622Y-128999873D01*
X123418622Y-128999873D02*
X123343807Y-129040604D01*
X123343807Y-129040604D02*
X123267663Y-129043263D01*
X123267663Y-129043263D02*
X123190189Y-129007850D01*
X123190189Y-129007850D02*
X123150788Y-128971107D01*
X123150788Y-128971107D02*
X123110057Y-128896293D01*
X123110057Y-128896293D02*
X123066667Y-128745334D01*
X123066667Y-128745334D02*
X123060019Y-128554974D01*
X123060019Y-128554974D02*
X123092773Y-128401356D01*
X123092773Y-128401356D02*
X123128186Y-128323883D01*
X123128186Y-128323883D02*
X123164929Y-128284481D01*
X123164929Y-128284481D02*
X123239743Y-128243750D01*
X123772752Y-128225137D02*
X124267688Y-128207853D01*
X124267688Y-128207853D02*
X124011820Y-128521736D01*
X124011820Y-128521736D02*
X124126036Y-128517748D01*
X124126036Y-128517748D02*
X124203510Y-128553161D01*
X124203510Y-128553161D02*
X124242911Y-128589903D01*
X124242911Y-128589903D02*
X124283642Y-128664718D01*
X124283642Y-128664718D02*
X124290290Y-128855078D01*
X124290290Y-128855078D02*
X124254877Y-128932551D01*
X124254877Y-128932551D02*
X124218134Y-128971953D01*
X124218134Y-128971953D02*
X124143320Y-129012684D01*
X124143320Y-129012684D02*
X123914888Y-129020661D01*
X123914888Y-129020661D02*
X123837414Y-128985248D01*
X123837414Y-128985248D02*
X123798013Y-128948505D01*
X125057049Y-128980776D02*
X124600184Y-128996730D01*
X124828617Y-128988753D02*
X124800697Y-128189240D01*
X124800697Y-128189240D02*
X124728542Y-128306115D01*
X124728542Y-128306115D02*
X124655056Y-128384918D01*
X124655056Y-128384918D02*
X124580242Y-128425649D01*
X122884594Y-125714604D02*
X123179018Y-126504810D01*
X123179018Y-126504810D02*
X123417603Y-125695990D01*
X124166231Y-126394098D02*
X124129489Y-126433500D01*
X124129489Y-126433500D02*
X124016602Y-126475561D01*
X124016602Y-126475561D02*
X123940458Y-126478220D01*
X123940458Y-126478220D02*
X123824913Y-126444136D01*
X123824913Y-126444136D02*
X123746110Y-126370651D01*
X123746110Y-126370651D02*
X123705379Y-126295836D01*
X123705379Y-126295836D02*
X123661988Y-126144878D01*
X123661988Y-126144878D02*
X123658000Y-126030662D01*
X123658000Y-126030662D02*
X123690754Y-125877044D01*
X123690754Y-125877044D02*
X123726167Y-125799571D01*
X123726167Y-125799571D02*
X123799652Y-125720767D01*
X123799652Y-125720767D02*
X123912539Y-125678707D01*
X123912539Y-125678707D02*
X123988683Y-125676048D01*
X123988683Y-125676048D02*
X124104228Y-125710131D01*
X124104228Y-125710131D02*
X124143630Y-125746874D01*
X124965744Y-126366179D02*
X124929002Y-126405580D01*
X124929002Y-126405580D02*
X124816115Y-126447641D01*
X124816115Y-126447641D02*
X124739971Y-126450300D01*
X124739971Y-126450300D02*
X124624425Y-126416216D01*
X124624425Y-126416216D02*
X124545622Y-126342731D01*
X124545622Y-126342731D02*
X124504891Y-126267917D01*
X124504891Y-126267917D02*
X124461501Y-126116958D01*
X124461501Y-126116958D02*
X124457513Y-126002742D01*
X124457513Y-126002742D02*
X124490267Y-125849124D01*
X124490267Y-125849124D02*
X124525680Y-125771651D01*
X124525680Y-125771651D02*
X124599165Y-125692848D01*
X124599165Y-125692848D02*
X124712051Y-125650787D01*
X124712051Y-125650787D02*
X124788195Y-125648128D01*
X124788195Y-125648128D02*
X124903741Y-125682212D01*
X124903741Y-125682212D02*
X124943143Y-125718954D01*
X135133670Y-143878182D02*
X134676806Y-143894136D01*
X134905238Y-143886159D02*
X134877318Y-143086646D01*
X134877318Y-143086646D02*
X134805163Y-143203522D01*
X134805163Y-143203522D02*
X134731678Y-143282325D01*
X134731678Y-143282325D02*
X134656863Y-143323056D01*
X135600687Y-143061386D02*
X135676831Y-143058727D01*
X135676831Y-143058727D02*
X135754305Y-143094140D01*
X135754305Y-143094140D02*
X135793706Y-143130882D01*
X135793706Y-143130882D02*
X135834437Y-143205697D01*
X135834437Y-143205697D02*
X135877827Y-143356656D01*
X135877827Y-143356656D02*
X135884475Y-143547016D01*
X135884475Y-143547016D02*
X135851721Y-143700633D01*
X135851721Y-143700633D02*
X135816308Y-143778107D01*
X135816308Y-143778107D02*
X135779565Y-143817508D01*
X135779565Y-143817508D02*
X135704751Y-143858240D01*
X135704751Y-143858240D02*
X135628607Y-143860899D01*
X135628607Y-143860899D02*
X135551133Y-143825486D01*
X135551133Y-143825486D02*
X135511732Y-143788743D01*
X135511732Y-143788743D02*
X135471001Y-143713928D01*
X135471001Y-143713928D02*
X135427611Y-143562970D01*
X135427611Y-143562970D02*
X135420963Y-143372610D01*
X135420963Y-143372610D02*
X135453717Y-143218992D01*
X135453717Y-143218992D02*
X135489130Y-143141518D01*
X135489130Y-143141518D02*
X135525873Y-143102117D01*
X135525873Y-143102117D02*
X135600687Y-143061386D01*
X136561795Y-143294652D02*
X136580408Y-143827661D01*
X136360799Y-142996724D02*
X136190381Y-143574452D01*
X136190381Y-143574452D02*
X136685317Y-143557168D01*
X123888746Y-139187767D02*
X123431882Y-139203721D01*
X123660314Y-139195744D02*
X123632394Y-138396231D01*
X123632394Y-138396231D02*
X123560239Y-138513107D01*
X123560239Y-138513107D02*
X123486754Y-138591910D01*
X123486754Y-138591910D02*
X123411939Y-138632641D01*
X124650187Y-139161177D02*
X124193323Y-139177131D01*
X124421755Y-139169154D02*
X124393835Y-138369641D01*
X124393835Y-138369641D02*
X124321680Y-138486516D01*
X124321680Y-138486516D02*
X124248195Y-138565320D01*
X124248195Y-138565320D02*
X124173380Y-138606051D01*
X124888772Y-138352358D02*
X125383708Y-138335074D01*
X125383708Y-138335074D02*
X125127840Y-138648957D01*
X125127840Y-138648957D02*
X125242056Y-138644969D01*
X125242056Y-138644969D02*
X125319530Y-138680382D01*
X125319530Y-138680382D02*
X125358931Y-138717124D01*
X125358931Y-138717124D02*
X125399662Y-138791939D01*
X125399662Y-138791939D02*
X125406310Y-138982299D01*
X125406310Y-138982299D02*
X125370897Y-139059772D01*
X125370897Y-139059772D02*
X125334154Y-139099174D01*
X125334154Y-139099174D02*
X125259340Y-139139905D01*
X125259340Y-139139905D02*
X125030908Y-139147882D01*
X125030908Y-139147882D02*
X124953434Y-139112469D01*
X124953434Y-139112469D02*
X124914032Y-139075726D01*
X123401280Y-123955500D02*
X123121481Y-123584087D01*
X122944416Y-123971454D02*
X122916496Y-123171942D01*
X122916496Y-123171942D02*
X123221073Y-123161306D01*
X123221073Y-123161306D02*
X123298546Y-123196719D01*
X123298546Y-123196719D02*
X123337948Y-123233461D01*
X123337948Y-123233461D02*
X123378679Y-123308276D01*
X123378679Y-123308276D02*
X123382667Y-123422492D01*
X123382667Y-123422492D02*
X123347254Y-123499965D01*
X123347254Y-123499965D02*
X123310512Y-123539367D01*
X123310512Y-123539367D02*
X123235697Y-123580098D01*
X123235697Y-123580098D02*
X122931121Y-123590734D01*
X123704527Y-123906792D02*
X123820073Y-123940876D01*
X123820073Y-123940876D02*
X124010433Y-123934228D01*
X124010433Y-123934228D02*
X124085247Y-123893497D01*
X124085247Y-123893497D02*
X124121990Y-123854096D01*
X124121990Y-123854096D02*
X124157403Y-123776622D01*
X124157403Y-123776622D02*
X124154744Y-123700478D01*
X124154744Y-123700478D02*
X124114013Y-123625663D01*
X124114013Y-123625663D02*
X124074611Y-123588921D01*
X124074611Y-123588921D02*
X123997138Y-123553508D01*
X123997138Y-123553508D02*
X123843520Y-123520754D01*
X123843520Y-123520754D02*
X123766047Y-123485341D01*
X123766047Y-123485341D02*
X123726645Y-123448598D01*
X123726645Y-123448598D02*
X123685914Y-123373784D01*
X123685914Y-123373784D02*
X123683255Y-123297640D01*
X123683255Y-123297640D02*
X123718668Y-123220166D01*
X123718668Y-123220166D02*
X123755411Y-123180765D01*
X123755411Y-123180765D02*
X123830225Y-123140034D01*
X123830225Y-123140034D02*
X124020585Y-123133386D01*
X124020585Y-123133386D02*
X124136131Y-123167470D01*
X124363234Y-123121421D02*
X124820098Y-123105466D01*
X124619586Y-123912956D02*
X124591666Y-123113444D01*
X134334282Y-125352890D02*
X134256809Y-125317477D01*
X134256809Y-125317477D02*
X134142593Y-125321466D01*
X134142593Y-125321466D02*
X134029706Y-125363526D01*
X134029706Y-125363526D02*
X133956221Y-125442330D01*
X133956221Y-125442330D02*
X133920808Y-125519803D01*
X133920808Y-125519803D02*
X133888054Y-125673421D01*
X133888054Y-125673421D02*
X133892043Y-125787637D01*
X133892043Y-125787637D02*
X133935433Y-125938595D01*
X133935433Y-125938595D02*
X133976164Y-126013410D01*
X133976164Y-126013410D02*
X134054967Y-126086895D01*
X134054967Y-126086895D02*
X134170512Y-126120979D01*
X134170512Y-126120979D02*
X134246656Y-126118320D01*
X134246656Y-126118320D02*
X134359543Y-126076259D01*
X134359543Y-126076259D02*
X134396286Y-126036858D01*
X134396286Y-126036858D02*
X134386979Y-125770353D01*
X134386979Y-125770353D02*
X134234691Y-125775671D01*
X134741593Y-126101036D02*
X134713673Y-125301523D01*
X134713673Y-125301523D02*
X135198457Y-126085082D01*
X135198457Y-126085082D02*
X135170538Y-125285569D01*
X135579177Y-126071787D02*
X135551258Y-125272274D01*
X135551258Y-125272274D02*
X135741618Y-125265627D01*
X135741618Y-125265627D02*
X135857163Y-125299710D01*
X135857163Y-125299710D02*
X135935967Y-125373195D01*
X135935967Y-125373195D02*
X135976698Y-125448010D01*
X135976698Y-125448010D02*
X136020088Y-125598969D01*
X136020088Y-125598969D02*
X136024076Y-125713185D01*
X136024076Y-125713185D02*
X135991322Y-125866802D01*
X135991322Y-125866802D02*
X135955909Y-125944276D01*
X135955909Y-125944276D02*
X135882424Y-126023079D01*
X135882424Y-126023079D02*
X135769537Y-126065139D01*
X135769537Y-126065139D02*
X135579177Y-126071787D01*
X134485714Y-132964147D02*
X134561858Y-132961488D01*
X134561858Y-132961488D02*
X134639332Y-132996901D01*
X134639332Y-132996901D02*
X134678733Y-133033644D01*
X134678733Y-133033644D02*
X134719465Y-133108458D01*
X134719465Y-133108458D02*
X134762855Y-133259417D01*
X134762855Y-133259417D02*
X134769502Y-133449777D01*
X134769502Y-133449777D02*
X134736748Y-133603394D01*
X134736748Y-133603394D02*
X134701335Y-133680868D01*
X134701335Y-133680868D02*
X134664593Y-133720270D01*
X134664593Y-133720270D02*
X134589778Y-133761001D01*
X134589778Y-133761001D02*
X134513634Y-133763660D01*
X134513634Y-133763660D02*
X134436160Y-133728247D01*
X134436160Y-133728247D02*
X134396759Y-133691504D01*
X134396759Y-133691504D02*
X134356028Y-133616690D01*
X134356028Y-133616690D02*
X134312638Y-133465731D01*
X134312638Y-133465731D02*
X134305990Y-133275371D01*
X134305990Y-133275371D02*
X134338744Y-133121753D01*
X134338744Y-133121753D02*
X134374157Y-133044280D01*
X134374157Y-133044280D02*
X134410900Y-133004878D01*
X134410900Y-133004878D02*
X134485714Y-132964147D01*
X135059454Y-133020348D02*
X135096197Y-132980947D01*
X135096197Y-132980947D02*
X135171011Y-132940216D01*
X135171011Y-132940216D02*
X135361371Y-132933568D01*
X135361371Y-132933568D02*
X135438845Y-132968981D01*
X135438845Y-132968981D02*
X135478246Y-133005724D01*
X135478246Y-133005724D02*
X135518977Y-133080538D01*
X135518977Y-133080538D02*
X135521636Y-133156683D01*
X135521636Y-133156683D02*
X135487553Y-133272228D01*
X135487553Y-133272228D02*
X135046643Y-133745047D01*
X135046643Y-133745047D02*
X135541579Y-133727763D01*
X135820895Y-132993758D02*
X135857637Y-132954357D01*
X135857637Y-132954357D02*
X135932452Y-132913626D01*
X135932452Y-132913626D02*
X136122812Y-132906978D01*
X136122812Y-132906978D02*
X136200286Y-132942391D01*
X136200286Y-132942391D02*
X136239687Y-132979134D01*
X136239687Y-132979134D02*
X136280418Y-133053948D01*
X136280418Y-133053948D02*
X136283077Y-133130092D01*
X136283077Y-133130092D02*
X136248994Y-133245638D01*
X136248994Y-133245638D02*
X135808083Y-133718456D01*
X135808083Y-133718456D02*
X136303020Y-133701173D01*
X123417032Y-133320656D02*
X123493176Y-133317997D01*
X123493176Y-133317997D02*
X123570650Y-133353410D01*
X123570650Y-133353410D02*
X123610051Y-133390153D01*
X123610051Y-133390153D02*
X123650783Y-133464967D01*
X123650783Y-133464967D02*
X123694173Y-133615926D01*
X123694173Y-133615926D02*
X123700820Y-133806286D01*
X123700820Y-133806286D02*
X123668066Y-133959903D01*
X123668066Y-133959903D02*
X123632653Y-134037377D01*
X123632653Y-134037377D02*
X123595911Y-134076779D01*
X123595911Y-134076779D02*
X123521096Y-134117510D01*
X123521096Y-134117510D02*
X123444952Y-134120169D01*
X123444952Y-134120169D02*
X123367478Y-134084756D01*
X123367478Y-134084756D02*
X123328077Y-134048013D01*
X123328077Y-134048013D02*
X123287346Y-133973199D01*
X123287346Y-133973199D02*
X123243956Y-133822240D01*
X123243956Y-133822240D02*
X123237308Y-133631880D01*
X123237308Y-133631880D02*
X123270062Y-133478262D01*
X123270062Y-133478262D02*
X123305475Y-133400789D01*
X123305475Y-133400789D02*
X123342218Y-133361387D01*
X123342218Y-133361387D02*
X123417032Y-133320656D01*
X124178473Y-133294066D02*
X124254617Y-133291407D01*
X124254617Y-133291407D02*
X124332091Y-133326820D01*
X124332091Y-133326820D02*
X124371492Y-133363562D01*
X124371492Y-133363562D02*
X124412223Y-133438377D01*
X124412223Y-133438377D02*
X124455613Y-133589336D01*
X124455613Y-133589336D02*
X124462261Y-133779696D01*
X124462261Y-133779696D02*
X124429507Y-133933313D01*
X124429507Y-133933313D02*
X124394094Y-134010787D01*
X124394094Y-134010787D02*
X124357351Y-134050188D01*
X124357351Y-134050188D02*
X124282537Y-134090920D01*
X124282537Y-134090920D02*
X124206393Y-134093579D01*
X124206393Y-134093579D02*
X124128919Y-134058166D01*
X124128919Y-134058166D02*
X124089518Y-134021423D01*
X124089518Y-134021423D02*
X124048787Y-133946608D01*
X124048787Y-133946608D02*
X124005397Y-133795650D01*
X124005397Y-133795650D02*
X123998749Y-133605290D01*
X123998749Y-133605290D02*
X124031503Y-133451672D01*
X124031503Y-133451672D02*
X124066916Y-133374198D01*
X124066916Y-133374198D02*
X124103659Y-133334797D01*
X124103659Y-133334797D02*
X124178473Y-133294066D01*
X124752213Y-133350267D02*
X124788955Y-133310866D01*
X124788955Y-133310866D02*
X124863770Y-133270135D01*
X124863770Y-133270135D02*
X125054130Y-133263487D01*
X125054130Y-133263487D02*
X125131604Y-133298900D01*
X125131604Y-133298900D02*
X125171005Y-133335643D01*
X125171005Y-133335643D02*
X125211736Y-133410457D01*
X125211736Y-133410457D02*
X125214395Y-133486601D01*
X125214395Y-133486601D02*
X125180312Y-133602147D01*
X125180312Y-133602147D02*
X124739401Y-134074965D01*
X124739401Y-134074965D02*
X125234338Y-134057682D01*
X123977391Y-141726220D02*
X123520527Y-141742174D01*
X123748959Y-141734197D02*
X123721039Y-140934684D01*
X123721039Y-140934684D02*
X123648884Y-141051560D01*
X123648884Y-141051560D02*
X123575399Y-141130363D01*
X123575399Y-141130363D02*
X123500584Y-141171094D01*
X124738832Y-141699630D02*
X124281968Y-141715584D01*
X124510400Y-141707607D02*
X124482480Y-140908094D01*
X124482480Y-140908094D02*
X124410325Y-141024969D01*
X124410325Y-141024969D02*
X124336840Y-141103773D01*
X124336840Y-141103773D02*
X124262025Y-141144504D01*
X125500273Y-141673040D02*
X125043408Y-141688994D01*
X125271841Y-141681017D02*
X125243921Y-140881504D01*
X125243921Y-140881504D02*
X125171766Y-140998379D01*
X125171766Y-140998379D02*
X125098280Y-141077182D01*
X125098280Y-141077182D02*
X125023466Y-141117913D01*
X134307727Y-127867254D02*
X134383871Y-127864595D01*
X134383871Y-127864595D02*
X134461345Y-127900008D01*
X134461345Y-127900008D02*
X134500746Y-127936751D01*
X134500746Y-127936751D02*
X134541478Y-128011565D01*
X134541478Y-128011565D02*
X134584868Y-128162524D01*
X134584868Y-128162524D02*
X134591515Y-128352884D01*
X134591515Y-128352884D02*
X134558761Y-128506501D01*
X134558761Y-128506501D02*
X134523348Y-128583975D01*
X134523348Y-128583975D02*
X134486606Y-128623377D01*
X134486606Y-128623377D02*
X134411791Y-128664108D01*
X134411791Y-128664108D02*
X134335647Y-128666767D01*
X134335647Y-128666767D02*
X134258173Y-128631354D01*
X134258173Y-128631354D02*
X134218772Y-128594611D01*
X134218772Y-128594611D02*
X134178041Y-128519797D01*
X134178041Y-128519797D02*
X134134651Y-128368838D01*
X134134651Y-128368838D02*
X134128003Y-128178478D01*
X134128003Y-128178478D02*
X134160757Y-128024860D01*
X134160757Y-128024860D02*
X134196170Y-127947387D01*
X134196170Y-127947387D02*
X134232913Y-127907985D01*
X134232913Y-127907985D02*
X134307727Y-127867254D01*
X135363592Y-128630870D02*
X134906728Y-128646824D01*
X135135160Y-128638847D02*
X135107240Y-127839334D01*
X135107240Y-127839334D02*
X135035085Y-127956209D01*
X135035085Y-127956209D02*
X134961600Y-128035013D01*
X134961600Y-128035013D02*
X134886785Y-128075744D01*
X135602177Y-127822051D02*
X136135185Y-127803438D01*
X136135185Y-127803438D02*
X135820457Y-128614916D01*
X134956381Y-138801277D02*
X134499517Y-138817231D01*
X134727949Y-138809254D02*
X134700029Y-138009741D01*
X134700029Y-138009741D02*
X134627874Y-138126617D01*
X134627874Y-138126617D02*
X134554389Y-138205420D01*
X134554389Y-138205420D02*
X134479574Y-138246151D01*
X135423398Y-137984481D02*
X135499542Y-137981822D01*
X135499542Y-137981822D02*
X135577016Y-138017235D01*
X135577016Y-138017235D02*
X135616417Y-138053977D01*
X135616417Y-138053977D02*
X135657148Y-138128792D01*
X135657148Y-138128792D02*
X135700538Y-138279751D01*
X135700538Y-138279751D02*
X135707186Y-138470111D01*
X135707186Y-138470111D02*
X135674432Y-138623728D01*
X135674432Y-138623728D02*
X135639019Y-138701202D01*
X135639019Y-138701202D02*
X135602276Y-138740603D01*
X135602276Y-138740603D02*
X135527462Y-138781335D01*
X135527462Y-138781335D02*
X135451318Y-138783994D01*
X135451318Y-138783994D02*
X135373844Y-138748581D01*
X135373844Y-138748581D02*
X135334443Y-138711838D01*
X135334443Y-138711838D02*
X135293712Y-138637023D01*
X135293712Y-138637023D02*
X135250322Y-138486065D01*
X135250322Y-138486065D02*
X135243674Y-138295705D01*
X135243674Y-138295705D02*
X135276428Y-138142087D01*
X135276428Y-138142087D02*
X135311841Y-138064613D01*
X135311841Y-138064613D02*
X135348584Y-138025212D01*
X135348584Y-138025212D02*
X135423398Y-137984481D01*
X136184839Y-137957891D02*
X136260983Y-137955232D01*
X136260983Y-137955232D02*
X136338457Y-137990645D01*
X136338457Y-137990645D02*
X136377858Y-138027387D01*
X136377858Y-138027387D02*
X136418589Y-138102202D01*
X136418589Y-138102202D02*
X136461979Y-138253160D01*
X136461979Y-138253160D02*
X136468627Y-138443521D01*
X136468627Y-138443521D02*
X136435873Y-138597138D01*
X136435873Y-138597138D02*
X136400460Y-138674612D01*
X136400460Y-138674612D02*
X136363717Y-138714013D01*
X136363717Y-138714013D02*
X136288903Y-138754744D01*
X136288903Y-138754744D02*
X136212759Y-138757403D01*
X136212759Y-138757403D02*
X136135285Y-138721990D01*
X136135285Y-138721990D02*
X136095884Y-138685248D01*
X136095884Y-138685248D02*
X136055152Y-138610433D01*
X136055152Y-138610433D02*
X136011762Y-138459475D01*
X136011762Y-138459475D02*
X136005115Y-138269115D01*
X136005115Y-138269115D02*
X136037869Y-138115497D01*
X136037869Y-138115497D02*
X136073282Y-138038023D01*
X136073282Y-138038023D02*
X136110024Y-137998622D01*
X136110024Y-137998622D02*
X136184839Y-137957891D01*
X123800101Y-136649314D02*
X123343237Y-136665268D01*
X123571669Y-136657291D02*
X123543749Y-135857778D01*
X123543749Y-135857778D02*
X123471594Y-135974654D01*
X123471594Y-135974654D02*
X123398109Y-136053457D01*
X123398109Y-136053457D02*
X123323294Y-136094188D01*
X124561542Y-136622724D02*
X124104678Y-136638678D01*
X124333110Y-136630701D02*
X124305190Y-135831188D01*
X124305190Y-135831188D02*
X124233035Y-135948063D01*
X124233035Y-135948063D02*
X124159550Y-136026867D01*
X124159550Y-136026867D02*
X124084735Y-136067598D01*
X125256991Y-135797951D02*
X124876271Y-135811246D01*
X124876271Y-135811246D02*
X124851494Y-136193296D01*
X124851494Y-136193296D02*
X124888236Y-136153894D01*
X124888236Y-136153894D02*
X124963051Y-136113163D01*
X124963051Y-136113163D02*
X125153411Y-136106516D01*
X125153411Y-136106516D02*
X125230885Y-136141929D01*
X125230885Y-136141929D02*
X125270286Y-136178671D01*
X125270286Y-136178671D02*
X125311017Y-136253486D01*
X125311017Y-136253486D02*
X125317665Y-136443846D01*
X125317665Y-136443846D02*
X125282252Y-136521319D01*
X125282252Y-136521319D02*
X125245509Y-136560721D01*
X125245509Y-136560721D02*
X125170695Y-136601452D01*
X125170695Y-136601452D02*
X124980335Y-136608099D01*
X124980335Y-136608099D02*
X124902861Y-136572686D01*
X124902861Y-136572686D02*
X124863459Y-136535944D01*
X133952799Y-117703449D02*
X134028943Y-117700790D01*
X134028943Y-117700790D02*
X134106417Y-117736203D01*
X134106417Y-117736203D02*
X134145818Y-117772946D01*
X134145818Y-117772946D02*
X134186550Y-117847760D01*
X134186550Y-117847760D02*
X134229940Y-117998719D01*
X134229940Y-117998719D02*
X134236587Y-118189079D01*
X134236587Y-118189079D02*
X134203833Y-118342696D01*
X134203833Y-118342696D02*
X134168420Y-118420170D01*
X134168420Y-118420170D02*
X134131678Y-118459572D01*
X134131678Y-118459572D02*
X134056863Y-118500303D01*
X134056863Y-118500303D02*
X133980719Y-118502962D01*
X133980719Y-118502962D02*
X133903245Y-118467549D01*
X133903245Y-118467549D02*
X133863844Y-118430806D01*
X133863844Y-118430806D02*
X133823113Y-118355992D01*
X133823113Y-118355992D02*
X133779723Y-118205033D01*
X133779723Y-118205033D02*
X133773075Y-118014673D01*
X133773075Y-118014673D02*
X133805829Y-117861055D01*
X133805829Y-117861055D02*
X133841242Y-117783582D01*
X133841242Y-117783582D02*
X133877985Y-117744180D01*
X133877985Y-117744180D02*
X133952799Y-117703449D01*
X134714240Y-117676859D02*
X134790384Y-117674200D01*
X134790384Y-117674200D02*
X134867858Y-117709613D01*
X134867858Y-117709613D02*
X134907259Y-117746355D01*
X134907259Y-117746355D02*
X134947990Y-117821170D01*
X134947990Y-117821170D02*
X134991380Y-117972129D01*
X134991380Y-117972129D02*
X134998028Y-118162489D01*
X134998028Y-118162489D02*
X134965274Y-118316106D01*
X134965274Y-118316106D02*
X134929861Y-118393580D01*
X134929861Y-118393580D02*
X134893118Y-118432981D01*
X134893118Y-118432981D02*
X134818304Y-118473713D01*
X134818304Y-118473713D02*
X134742160Y-118476372D01*
X134742160Y-118476372D02*
X134664686Y-118440959D01*
X134664686Y-118440959D02*
X134625285Y-118404216D01*
X134625285Y-118404216D02*
X134584554Y-118329401D01*
X134584554Y-118329401D02*
X134541164Y-118178443D01*
X134541164Y-118178443D02*
X134534516Y-117988083D01*
X134534516Y-117988083D02*
X134567270Y-117834465D01*
X134567270Y-117834465D02*
X134602683Y-117756991D01*
X134602683Y-117756991D02*
X134639426Y-117717590D01*
X134639426Y-117717590D02*
X134714240Y-117676859D01*
X135666041Y-117643621D02*
X135513753Y-117648939D01*
X135513753Y-117648939D02*
X135438939Y-117689670D01*
X135438939Y-117689670D02*
X135402196Y-117729072D01*
X135402196Y-117729072D02*
X135330040Y-117845947D01*
X135330040Y-117845947D02*
X135297286Y-117999565D01*
X135297286Y-117999565D02*
X135307922Y-118304141D01*
X135307922Y-118304141D02*
X135348654Y-118378955D01*
X135348654Y-118378955D02*
X135388055Y-118415698D01*
X135388055Y-118415698D02*
X135465529Y-118451111D01*
X135465529Y-118451111D02*
X135617817Y-118445793D01*
X135617817Y-118445793D02*
X135692631Y-118405062D01*
X135692631Y-118405062D02*
X135729374Y-118365660D01*
X135729374Y-118365660D02*
X135764787Y-118288187D01*
X135764787Y-118288187D02*
X135758139Y-118097827D01*
X135758139Y-118097827D02*
X135717408Y-118023012D01*
X135717408Y-118023012D02*
X135678007Y-117986270D01*
X135678007Y-117986270D02*
X135600533Y-117950857D01*
X135600533Y-117950857D02*
X135448245Y-117956175D01*
X135448245Y-117956175D02*
X135373430Y-117996906D01*
X135373430Y-117996906D02*
X135336688Y-118036307D01*
X135336688Y-118036307D02*
X135301275Y-118113781D01*
X123223989Y-118878595D02*
X122944190Y-118507181D01*
X122767125Y-118894549D02*
X122739205Y-118095036D01*
X122739205Y-118095036D02*
X123043781Y-118084400D01*
X123043781Y-118084400D02*
X123121255Y-118119813D01*
X123121255Y-118119813D02*
X123160656Y-118156556D01*
X123160656Y-118156556D02*
X123201387Y-118231370D01*
X123201387Y-118231370D02*
X123205376Y-118345586D01*
X123205376Y-118345586D02*
X123169963Y-118423060D01*
X123169963Y-118423060D02*
X123133220Y-118462462D01*
X123133220Y-118462462D02*
X123058406Y-118503193D01*
X123058406Y-118503193D02*
X122753830Y-118513829D01*
X123520588Y-118639527D02*
X123901309Y-118626232D01*
X123452421Y-118870618D02*
X123691006Y-118061799D01*
X123691006Y-118061799D02*
X123985430Y-118852005D01*
X124147870Y-118045845D02*
X124366150Y-118838710D01*
X124366150Y-118838710D02*
X124498495Y-118262311D01*
X124498495Y-118262311D02*
X124670726Y-118828074D01*
X124670726Y-118828074D02*
X124833166Y-118021914D01*
%TO.C,T1*%
X139061032Y-115126193D02*
X139160496Y-117974457D01*
X139160496Y-117974457D02*
X145756475Y-117744120D01*
X142359022Y-115011024D02*
X139061032Y-115126193D01*
X142359022Y-115011024D02*
X145657011Y-114895856D01*
X144307834Y-114942970D02*
X140410210Y-115079078D01*
X145756475Y-117744120D02*
X145657011Y-114895856D01*
D12*
%TO.C,D9*%
X184578440Y-115618744D02*
X184976918Y-115583883D01*
X184976918Y-115583883D02*
X184928982Y-115035974D01*
X184976918Y-115583883D02*
X185024854Y-116131789D01*
X184976918Y-115583883D02*
X185539772Y-115133110D01*
X185539772Y-115133110D02*
X185609497Y-115930066D01*
X185574635Y-115531588D02*
X186072732Y-115488010D01*
X185609497Y-115930066D02*
X184976918Y-115583883D01*
%TO.C,D1*%
X115663312Y-189015286D02*
X116039189Y-188878478D01*
X116039189Y-188878478D02*
X115851078Y-188361647D01*
X116039189Y-188878478D02*
X116227300Y-189395309D01*
X116039189Y-188878478D02*
X116466196Y-188297389D01*
X116466196Y-188297389D02*
X116739812Y-189049143D01*
X116603004Y-188673266D02*
X117072850Y-188502256D01*
X116739812Y-189049143D02*
X116039189Y-188878478D01*
%TO.C,D2*%
X139098036Y-182068524D02*
X139489295Y-181985359D01*
X139489295Y-181985359D02*
X139374944Y-181447378D01*
X139489295Y-181985359D02*
X139603647Y-182523340D01*
X139489295Y-181985359D02*
X139993019Y-181469353D01*
X139993019Y-181469353D02*
X140159349Y-182251871D01*
X140076184Y-181860612D02*
X140565258Y-181756656D01*
X140159349Y-182251871D02*
X139489295Y-181985359D01*
%TO.C,D14*%
X239064112Y-140646223D02*
X239464112Y-140646223D01*
X239464112Y-140646223D02*
X239464112Y-140096223D01*
X239464112Y-140646223D02*
X239464112Y-141196223D01*
X239464112Y-140646223D02*
X240064112Y-140246223D01*
X240064112Y-140246223D02*
X240064112Y-141046223D01*
X240064112Y-140646223D02*
X240564112Y-140646223D01*
X240064112Y-141046223D02*
X239464112Y-140646223D01*
%TO.C,D11*%
X213064112Y-130646223D02*
X213464112Y-130646223D01*
X213464112Y-130646223D02*
X213464112Y-130096223D01*
X213464112Y-130646223D02*
X213464112Y-131196223D01*
X213464112Y-130646223D02*
X214064112Y-130246223D01*
X214064112Y-130246223D02*
X214064112Y-131046223D01*
X214064112Y-130646223D02*
X214564112Y-130646223D01*
X214064112Y-131046223D02*
X213464112Y-130646223D01*
%TO.C,D13*%
X213064112Y-92646223D02*
X213464112Y-92646223D01*
X213464112Y-92646223D02*
X213464112Y-92096223D01*
X213464112Y-92646223D02*
X213464112Y-93196223D01*
X213464112Y-92646223D02*
X214064112Y-92246223D01*
X214064112Y-92246223D02*
X214064112Y-93046223D01*
X214064112Y-92646223D02*
X214564112Y-92646223D01*
X214064112Y-93046223D02*
X213464112Y-92646223D01*
%TO.C,D10*%
X182922481Y-96691045D02*
X183320959Y-96656184D01*
X183320959Y-96656184D02*
X183273023Y-96108275D01*
X183320959Y-96656184D02*
X183368895Y-97204090D01*
X183320959Y-96656184D02*
X183883813Y-96205411D01*
X183883813Y-96205411D02*
X183953538Y-97002367D01*
X183918676Y-96603889D02*
X184416773Y-96560311D01*
X183953538Y-97002367D02*
X183320959Y-96656184D01*
D16*
%TO.C,MCU1*%
X120216214Y-114808791D02*
X121368601Y-147808676D01*
X121368601Y-147808676D02*
X139137770Y-147188163D01*
X137985388Y-114188278D02*
X120216214Y-114808791D01*
X139137770Y-147188163D02*
X137985388Y-114188278D01*
D12*
%TO.C,D7*%
X162811108Y-97354754D02*
X163211108Y-97354754D01*
X163211108Y-97354754D02*
X163211108Y-96804754D01*
X163211108Y-97354754D02*
X163211108Y-97904754D01*
X163211108Y-97354754D02*
X163811108Y-96954754D01*
X163811108Y-96954754D02*
X163811108Y-97754754D01*
X163811108Y-97354754D02*
X164311108Y-97354754D01*
X163811108Y-97754754D02*
X163211108Y-97354754D01*
%TO.C,D18*%
X266466332Y-139672279D02*
X266842209Y-139809087D01*
X266842209Y-139809087D02*
X266654098Y-140325918D01*
X266842209Y-139809087D02*
X267030320Y-139292256D01*
X266842209Y-139809087D02*
X267542832Y-139638422D01*
X267269216Y-140390176D02*
X266842209Y-139809087D01*
X267406024Y-140014299D02*
X267875870Y-140185309D01*
X267542832Y-139638422D02*
X267269216Y-140390176D01*
%TO.C,D6*%
X163909505Y-117415949D02*
X164307983Y-117381088D01*
X164307983Y-117381088D02*
X164260047Y-116833179D01*
X164307983Y-117381088D02*
X164355919Y-117928994D01*
X164307983Y-117381088D02*
X164870837Y-116930315D01*
X164870837Y-116930315D02*
X164940562Y-117727271D01*
X164905700Y-117328793D02*
X165403797Y-117285215D01*
X164940562Y-117727271D02*
X164307983Y-117381088D01*
%TO.C,D15*%
X239064112Y-121646223D02*
X239464112Y-121646223D01*
X239464112Y-121646223D02*
X239464112Y-121096223D01*
X239464112Y-121646223D02*
X239464112Y-122196223D01*
X239464112Y-121646223D02*
X240064112Y-121246223D01*
X240064112Y-121246223D02*
X240064112Y-122046223D01*
X240064112Y-121646223D02*
X240564112Y-121646223D01*
X240064112Y-122046223D02*
X239464112Y-121646223D01*
%TO.C,D4*%
X163601477Y-178050146D02*
X163999955Y-178015285D01*
X163999955Y-178015285D02*
X163952019Y-177467376D01*
X163999955Y-178015285D02*
X164047891Y-178563191D01*
X163999955Y-178015285D02*
X164562809Y-177564512D01*
X164562809Y-177564512D02*
X164632534Y-178361468D01*
X164597672Y-177962990D02*
X165095769Y-177919412D01*
X164632534Y-178361468D02*
X163999955Y-178015285D01*
%TO.C,D5*%
X166752170Y-137305074D02*
X167146093Y-137235615D01*
X167146093Y-137235615D02*
X167050587Y-136693971D01*
X167146093Y-137235615D02*
X167241600Y-137777259D01*
X167146093Y-137235615D02*
X167667519Y-136737503D01*
X167667519Y-136737503D02*
X167806437Y-137525349D01*
X167736978Y-137131426D02*
X168229382Y-137044602D01*
X167806437Y-137525349D02*
X167146093Y-137235615D01*
%TO.C,D3*%
X135980205Y-161066815D02*
X136379961Y-161052855D01*
X136379961Y-161052855D02*
X136360766Y-160503190D01*
X136379961Y-161052855D02*
X136399156Y-161602520D01*
X136379961Y-161052855D02*
X136965636Y-160632159D01*
X136965636Y-160632159D02*
X136993562Y-161431671D01*
X136979596Y-161031915D02*
X137479291Y-161014465D01*
X136993562Y-161431671D02*
X136379961Y-161052855D01*
%TO.C,D12*%
X213064112Y-111646223D02*
X213464112Y-111646223D01*
X213464112Y-111646223D02*
X213464112Y-111096223D01*
X213464112Y-111646223D02*
X213464112Y-112196223D01*
X213464112Y-111646223D02*
X214064112Y-111246223D01*
X214064112Y-111246223D02*
X214064112Y-112046223D01*
X214064112Y-111646223D02*
X214564112Y-111646223D01*
X214064112Y-112046223D02*
X213464112Y-111646223D01*
%TO.C,D8*%
X186234399Y-134546443D02*
X186632877Y-134511582D01*
X186632877Y-134511582D02*
X186584941Y-133963673D01*
X186632877Y-134511582D02*
X186680813Y-135059488D01*
X186632877Y-134511582D02*
X187195731Y-134060809D01*
X187195731Y-134060809D02*
X187265456Y-134857765D01*
X187230594Y-134459287D02*
X187728691Y-134415709D01*
X187265456Y-134857765D02*
X186632877Y-134511582D01*
%TO.C,D16*%
X239064112Y-102646223D02*
X239464112Y-102646223D01*
X239464112Y-102646223D02*
X239464112Y-102096223D01*
X239464112Y-102646223D02*
X239464112Y-103196223D01*
X239464112Y-102646223D02*
X240064112Y-102246223D01*
X240064112Y-102246223D02*
X240064112Y-103046223D01*
X240064112Y-102646223D02*
X240564112Y-102646223D01*
X240064112Y-103046223D02*
X239464112Y-102646223D01*
D15*
%TO.C,JST1*%
X145449362Y-148244415D02*
X145655269Y-154140821D01*
X145655269Y-154140821D02*
X153250639Y-153875585D01*
X150005950Y-149786331D02*
X150023399Y-150286027D01*
X150264522Y-150027455D02*
X149764827Y-150044904D01*
X151470136Y-148734592D02*
X153069161Y-148678752D01*
X151627184Y-153231850D02*
X151470136Y-148734592D01*
X153044732Y-147979179D02*
X145449362Y-148244415D01*
X153069161Y-148678752D02*
X153044732Y-147979179D01*
X153226209Y-153176011D02*
X151627184Y-153231850D01*
X153250639Y-153875585D02*
X153226209Y-153176011D01*
D12*
%TO.C,D17*%
X258411611Y-158480218D02*
X258774134Y-158649266D01*
X258774134Y-158649266D02*
X258541694Y-159147735D01*
X258774134Y-158649266D02*
X259006574Y-158150796D01*
X258774134Y-158649266D02*
X259486966Y-158540313D01*
X259148872Y-159265360D02*
X258774134Y-158649266D01*
X259317919Y-158902837D02*
X259771073Y-159114146D01*
X259486966Y-158540313D02*
X259148872Y-159265360D01*
%TD*%
D17*
%TO.C,MCU1*%
X136849129Y-118040279D03*
X136937774Y-120578732D03*
X137026419Y-123117184D03*
X137115063Y-125655637D03*
X137203708Y-128194090D03*
X137292353Y-130732542D03*
X137380997Y-133270995D03*
X137469642Y-135809448D03*
X137558287Y-138347901D03*
X137646932Y-140886353D03*
X137735576Y-143424806D03*
X137824221Y-145963259D03*
X122593505Y-146495127D03*
X122504860Y-143956674D03*
X122416215Y-141418222D03*
X122327571Y-138879769D03*
X122238926Y-136341316D03*
X122150281Y-133802864D03*
X122061637Y-131264411D03*
X121972992Y-128725958D03*
X121884347Y-126187505D03*
X121795702Y-123649053D03*
X121707058Y-121110600D03*
X121618413Y-118572147D03*
%TD*%
M02*
