M48
; DRILL file {KiCad 8.0.6} date 2025-01-06T03:58:54-0700
; FORMAT={-:-/ absolute / inch / decimal}
; #@! TF.CreationDate,2025-01-06T03:58:54-07:00
; #@! TF.GenerationSoftware,Kicad,Pcbnew,8.0.6
; #@! TF.FileFunction,NonPlated,1,2,NPTH
FMAT,2
INCH
; #@! TA.AperFunction,NonPlated,NPTH,ComponentDrill
T1C0.0354
; #@! TA.AperFunction,NonPlated,NPTH,ComponentDrill
T2C0.0670
; #@! TA.AperFunction,NonPlated,NPTH,ComponentDrill
T3C0.0866
; #@! TA.AperFunction,NonPlated,NPTH,ComponentDrill
T4C0.1181
; #@! TA.AperFunction,NonPlated,NPTH,ComponentDrill
T5C0.1350
%
G90
G05
T1
X5.5475Y-4.5832
X5.6656Y-4.579
T2
X4.3241Y-7.3575
X4.731Y-7.2094
X5.1612Y-6.1904
X5.2606Y-7.0529
X5.594Y-6.1752
X5.6842Y-6.9629
X6.2229Y-3.6754
X6.241Y-6.8693
X6.2531Y-4.4821
X6.3535Y-5.2831
X6.6559Y-3.6754
X6.6724Y-6.8315
X6.6845Y-4.4443
X6.78Y-5.2079
X7.0017Y-3.6662
X7.0668Y-4.4113
X7.132Y-5.1565
X7.4331Y-3.6284
X7.4983Y-4.3736
X7.5635Y-5.1188
X8.2013Y-3.49
X8.2013Y-4.238
X8.2013Y-4.9861
X8.6344Y-3.49
X8.6344Y-4.238
X8.6344Y-4.9861
X9.225Y-3.8837
X9.225Y-4.6317
X9.225Y-5.3798
X9.658Y-3.8837
X9.658Y-4.6317
X9.658Y-5.3798
X10.0708Y-6.0176
X10.3689Y-5.287
X10.4632Y-6.2006
X10.7759Y-5.4351
T3
X3.9354Y-7.0071
X4.2071Y-7.8138
X4.6276Y-4.5638
X4.7843Y-5.9862
X5.9496Y-4.4937
X5.9902Y-5.7059
X5.9953Y-3.2378
X6.0232Y-7.3055
X6.8197Y-5.7461
X6.8965Y-4.1402
X7.8193Y-3.1807
X8.9244Y-4.3177
X9.048Y-7.2252
X9.1654Y-5.8358
X9.8559Y-3.4732
X10.5394Y-6.9591
X11.2736Y-5.2358
T4
X4.4474Y-7.0633
X4.662Y-7.0774
X5.3694Y-5.9487
X5.4237Y-6.7787
X5.5691Y-6.0284
X5.6343Y-6.8225
X6.4363Y-6.617
X6.4394Y-3.4411
X6.4484Y-4.2299
X6.5261Y-5.0148
X6.6363Y-3.5277
X6.6399Y-6.6862
X6.6521Y-4.299
X6.735Y-5.0659
X7.1969Y-3.4139
X7.2621Y-4.1591
X7.3273Y-4.9043
X7.4006Y-3.483
X7.4658Y-4.2282
X7.531Y-4.9734
X8.4179Y-3.2558
X8.4179Y-4.0038
X8.4179Y-4.7518
X8.6147Y-3.3424
X8.6147Y-4.0904
X8.6147Y-4.8384
X9.4415Y-3.6495
X9.4415Y-4.3975
X9.4415Y-5.1455
X9.6384Y-3.7361
X9.6384Y-4.4841
X9.6384Y-5.2321
X10.366Y-5.8968
X10.5078Y-6.0585
X10.6525Y-5.1409
X10.8079Y-5.2896
T5
X4.5276Y-7.2835
X5.3776Y-6.1828
X5.4724Y-7.0079
X6.4394Y-3.6754
X6.4567Y-6.8504
X6.4688Y-4.4632
X6.5668Y-5.2455
X7.2174Y-3.6473
X7.2826Y-4.3925
X7.3478Y-5.1376
X8.4179Y-3.49
X8.4179Y-4.238
X8.4179Y-4.9861
X9.4415Y-3.8837
X9.4415Y-4.6317
X9.4415Y-5.3798
X10.267Y-6.1091
X10.5724Y-5.361
M30
