%TF.GenerationSoftware,KiCad,Pcbnew,8.0.6*%
%TF.CreationDate,2025-01-06T03:58:56-07:00*%
%TF.ProjectId,right_circuit,72696768-745f-4636-9972-637569742e6b,v1.0.0*%
%TF.SameCoordinates,Original*%
%TF.FileFunction,Legend,Bot*%
%TF.FilePolarity,Positive*%
%FSLAX46Y46*%
G04 Gerber Fmt 4.6, Leading zero omitted, Abs format (unit mm)*
G04 Created by KiCad (PCBNEW 8.0.6) date 2025-01-06 03:58:56*
%MOMM*%
%LPD*%
G01*
G04 APERTURE LIST*
%ADD10C,0.150000*%
%ADD11C,0.100000*%
%ADD12C,0.381000*%
%ADD13C,1.752600*%
G04 APERTURE END LIST*
D10*
X124866118Y-136612088D02*
X125322982Y-136596134D01*
X125094550Y-136604111D02*
X125066630Y-135804598D01*
X125066630Y-135804598D02*
X125146763Y-135916155D01*
X125146763Y-135916155D02*
X125225566Y-135989640D01*
X125225566Y-135989640D02*
X125303040Y-136025053D01*
X124104677Y-136638678D02*
X124561541Y-136622724D01*
X124333109Y-136630701D02*
X124305189Y-135831188D01*
X124305189Y-135831188D02*
X124385322Y-135942745D01*
X124385322Y-135942745D02*
X124464125Y-136016231D01*
X124464125Y-136016231D02*
X124541599Y-136051644D01*
X123353388Y-135864426D02*
X123734109Y-135851131D01*
X123734109Y-135851131D02*
X123785476Y-136230522D01*
X123785476Y-136230522D02*
X123746074Y-136193779D01*
X123746074Y-136193779D02*
X123668601Y-136158366D01*
X123668601Y-136158366D02*
X123478241Y-136165014D01*
X123478241Y-136165014D02*
X123403426Y-136205745D01*
X123403426Y-136205745D02*
X123366683Y-136245146D01*
X123366683Y-136245146D02*
X123331270Y-136322620D01*
X123331270Y-136322620D02*
X123337918Y-136512980D01*
X123337918Y-136512980D02*
X123378649Y-136587795D01*
X123378649Y-136587795D02*
X123418051Y-136624537D01*
X123418051Y-136624537D02*
X123495524Y-136659950D01*
X123495524Y-136659950D02*
X123685884Y-136653303D01*
X123685884Y-136653303D02*
X123760699Y-136612572D01*
X123760699Y-136612572D02*
X123797441Y-136573170D01*
X136172337Y-135416779D02*
X136096193Y-135419438D01*
X136096193Y-135419438D02*
X136021379Y-135460169D01*
X136021379Y-135460169D02*
X135984636Y-135499570D01*
X135984636Y-135499570D02*
X135949223Y-135577044D01*
X135949223Y-135577044D02*
X135916469Y-135730662D01*
X135916469Y-135730662D02*
X135923117Y-135921022D01*
X135923117Y-135921022D02*
X135966507Y-136071980D01*
X135966507Y-136071980D02*
X136007238Y-136146795D01*
X136007238Y-136146795D02*
X136046639Y-136183537D01*
X136046639Y-136183537D02*
X136124113Y-136218950D01*
X136124113Y-136218950D02*
X136200257Y-136216291D01*
X136200257Y-136216291D02*
X136275071Y-136175560D01*
X136275071Y-136175560D02*
X136311814Y-136136159D01*
X136311814Y-136136159D02*
X136347227Y-136058685D01*
X136347227Y-136058685D02*
X136379981Y-135905068D01*
X136379981Y-135905068D02*
X136373334Y-135714708D01*
X136373334Y-135714708D02*
X136329943Y-135563749D01*
X136329943Y-135563749D02*
X136289212Y-135488934D01*
X136289212Y-135488934D02*
X136249811Y-135452192D01*
X136249811Y-135452192D02*
X136172337Y-135416779D01*
X135603916Y-135512865D02*
X135564514Y-135476123D01*
X135564514Y-135476123D02*
X135487041Y-135440710D01*
X135487041Y-135440710D02*
X135296680Y-135447357D01*
X135296680Y-135447357D02*
X135221866Y-135488088D01*
X135221866Y-135488088D02*
X135185123Y-135527490D01*
X135185123Y-135527490D02*
X135149710Y-135604964D01*
X135149710Y-135604964D02*
X135152369Y-135681108D01*
X135152369Y-135681108D02*
X135194430Y-135793994D01*
X135194430Y-135793994D02*
X135667248Y-136234905D01*
X135667248Y-136234905D02*
X135172312Y-136252188D01*
X134468402Y-135743111D02*
X134487015Y-136276119D01*
X134648126Y-135431887D02*
X134858429Y-135996320D01*
X134858429Y-135996320D02*
X134363492Y-136013603D01*
X125043408Y-141688994D02*
X125500272Y-141673040D01*
X125271840Y-141681017D02*
X125243920Y-140881504D01*
X125243920Y-140881504D02*
X125324053Y-140993061D01*
X125324053Y-140993061D02*
X125402856Y-141066546D01*
X125402856Y-141066546D02*
X125480330Y-141101959D01*
X124281967Y-141715584D02*
X124738831Y-141699630D01*
X124510399Y-141707607D02*
X124482479Y-140908094D01*
X124482479Y-140908094D02*
X124562612Y-141019651D01*
X124562612Y-141019651D02*
X124641415Y-141093137D01*
X124641415Y-141093137D02*
X124718889Y-141128550D01*
X123520526Y-141742174D02*
X123977390Y-141726220D01*
X123748958Y-141734197D02*
X123721039Y-140934684D01*
X123721039Y-140934684D02*
X123801171Y-141046242D01*
X123801171Y-141046242D02*
X123879974Y-141119727D01*
X123879974Y-141119727D02*
X123957448Y-141155140D01*
X135463939Y-122771893D02*
X135538754Y-122731162D01*
X135538754Y-122731162D02*
X135652970Y-122727174D01*
X135652970Y-122727174D02*
X135768515Y-122761257D01*
X135768515Y-122761257D02*
X135847319Y-122834742D01*
X135847319Y-122834742D02*
X135888050Y-122909557D01*
X135888050Y-122909557D02*
X135931440Y-123060516D01*
X135931440Y-123060516D02*
X135935428Y-123174732D01*
X135935428Y-123174732D02*
X135902674Y-123328349D01*
X135902674Y-123328349D02*
X135867261Y-123405823D01*
X135867261Y-123405823D02*
X135793776Y-123484626D01*
X135793776Y-123484626D02*
X135680889Y-123526686D01*
X135680889Y-123526686D02*
X135604745Y-123529345D01*
X135604745Y-123529345D02*
X135489200Y-123495262D01*
X135489200Y-123495262D02*
X135449798Y-123458519D01*
X135449798Y-123458519D02*
X135440492Y-123192015D01*
X135440492Y-123192015D02*
X135592780Y-123186697D01*
X135109809Y-123546629D02*
X135081889Y-122747116D01*
X135081889Y-122747116D02*
X134652945Y-123562583D01*
X134652945Y-123562583D02*
X134625025Y-122763070D01*
X134272225Y-123575878D02*
X134244305Y-122776365D01*
X134244305Y-122776365D02*
X134053945Y-122783013D01*
X134053945Y-122783013D02*
X133941058Y-122825074D01*
X133941058Y-122825074D02*
X133867573Y-122903877D01*
X133867573Y-122903877D02*
X133832160Y-122981350D01*
X133832160Y-122981350D02*
X133799406Y-123134968D01*
X133799406Y-123134968D02*
X133803395Y-123249184D01*
X133803395Y-123249184D02*
X133846785Y-123400143D01*
X133846785Y-123400143D02*
X133887516Y-123474957D01*
X133887516Y-123474957D02*
X133966319Y-123548442D01*
X133966319Y-123548442D02*
X134081864Y-123582526D01*
X134081864Y-123582526D02*
X134272225Y-123575878D01*
X136199687Y-143840956D02*
X136656551Y-143825002D01*
X136428119Y-143832979D02*
X136400199Y-143033466D01*
X136400199Y-143033466D02*
X136480332Y-143145023D01*
X136480332Y-143145023D02*
X136559135Y-143218508D01*
X136559135Y-143218508D02*
X136636609Y-143253921D01*
X135676830Y-143058727D02*
X135600686Y-143061386D01*
X135600686Y-143061386D02*
X135525872Y-143102117D01*
X135525872Y-143102117D02*
X135489129Y-143141518D01*
X135489129Y-143141518D02*
X135453716Y-143218992D01*
X135453716Y-143218992D02*
X135420962Y-143372610D01*
X135420962Y-143372610D02*
X135427610Y-143562970D01*
X135427610Y-143562970D02*
X135471000Y-143713928D01*
X135471000Y-143713928D02*
X135511731Y-143788743D01*
X135511731Y-143788743D02*
X135551132Y-143825486D01*
X135551132Y-143825486D02*
X135628606Y-143860899D01*
X135628606Y-143860899D02*
X135704750Y-143858240D01*
X135704750Y-143858240D02*
X135779565Y-143817509D01*
X135779565Y-143817509D02*
X135816307Y-143778107D01*
X135816307Y-143778107D02*
X135851720Y-143700633D01*
X135851720Y-143700633D02*
X135884474Y-143547016D01*
X135884474Y-143547016D02*
X135877827Y-143356656D01*
X135877827Y-143356656D02*
X135834437Y-143205697D01*
X135834437Y-143205697D02*
X135793706Y-143130882D01*
X135793706Y-143130882D02*
X135754304Y-143094140D01*
X135754304Y-143094140D02*
X135676830Y-143058727D01*
X134734336Y-143358469D02*
X134752949Y-143891477D01*
X134914060Y-143047245D02*
X135124363Y-143611678D01*
X135124363Y-143611678D02*
X134629426Y-143628961D01*
X124954763Y-139150541D02*
X125411627Y-139134587D01*
X125183195Y-139142564D02*
X125155275Y-138343051D01*
X125155275Y-138343051D02*
X125235408Y-138454608D01*
X125235408Y-138454608D02*
X125314211Y-138528093D01*
X125314211Y-138528093D02*
X125391685Y-138563506D01*
X124193322Y-139177131D02*
X124650186Y-139161177D01*
X124421754Y-139169154D02*
X124393834Y-138369641D01*
X124393834Y-138369641D02*
X124473967Y-138481198D01*
X124473967Y-138481198D02*
X124552770Y-138554684D01*
X124552770Y-138554684D02*
X124630244Y-138590097D01*
X123898898Y-138386925D02*
X123403961Y-138404209D01*
X123403961Y-138404209D02*
X123681102Y-138699478D01*
X123681102Y-138699478D02*
X123566886Y-138703467D01*
X123566886Y-138703467D02*
X123492071Y-138744198D01*
X123492071Y-138744198D02*
X123455328Y-138783599D01*
X123455328Y-138783599D02*
X123419915Y-138861073D01*
X123419915Y-138861073D02*
X123426563Y-139051433D01*
X123426563Y-139051433D02*
X123467294Y-139126248D01*
X123467294Y-139126248D02*
X123506696Y-139162990D01*
X123506696Y-139162990D02*
X123584169Y-139198403D01*
X123584169Y-139198403D02*
X123812601Y-139190426D01*
X123812601Y-139190426D02*
X123887416Y-139149695D01*
X123887416Y-139149695D02*
X123924158Y-139110294D01*
X136022398Y-138764051D02*
X136479262Y-138748097D01*
X136250830Y-138756074D02*
X136222910Y-137956561D01*
X136222910Y-137956561D02*
X136303043Y-138068118D01*
X136303043Y-138068118D02*
X136381846Y-138141603D01*
X136381846Y-138141603D02*
X136459320Y-138177016D01*
X135499541Y-137981822D02*
X135423397Y-137984481D01*
X135423397Y-137984481D02*
X135348583Y-138025212D01*
X135348583Y-138025212D02*
X135311840Y-138064613D01*
X135311840Y-138064613D02*
X135276427Y-138142087D01*
X135276427Y-138142087D02*
X135243673Y-138295705D01*
X135243673Y-138295705D02*
X135250321Y-138486065D01*
X135250321Y-138486065D02*
X135293711Y-138637023D01*
X135293711Y-138637023D02*
X135334442Y-138711838D01*
X135334442Y-138711838D02*
X135373843Y-138748581D01*
X135373843Y-138748581D02*
X135451317Y-138783994D01*
X135451317Y-138783994D02*
X135527461Y-138781335D01*
X135527461Y-138781335D02*
X135602276Y-138740604D01*
X135602276Y-138740604D02*
X135639018Y-138701202D01*
X135639018Y-138701202D02*
X135674431Y-138623728D01*
X135674431Y-138623728D02*
X135707185Y-138470111D01*
X135707185Y-138470111D02*
X135700538Y-138279751D01*
X135700538Y-138279751D02*
X135657148Y-138128792D01*
X135657148Y-138128792D02*
X135616417Y-138053977D01*
X135616417Y-138053977D02*
X135577015Y-138017235D01*
X135577015Y-138017235D02*
X135499541Y-137981822D01*
X134738101Y-138008412D02*
X134661957Y-138011071D01*
X134661957Y-138011071D02*
X134587142Y-138051802D01*
X134587142Y-138051802D02*
X134550399Y-138091204D01*
X134550399Y-138091204D02*
X134514986Y-138168677D01*
X134514986Y-138168677D02*
X134482232Y-138322295D01*
X134482232Y-138322295D02*
X134488880Y-138512655D01*
X134488880Y-138512655D02*
X134532270Y-138663614D01*
X134532270Y-138663614D02*
X134573001Y-138738428D01*
X134573001Y-138738428D02*
X134612403Y-138775171D01*
X134612403Y-138775171D02*
X134689876Y-138810584D01*
X134689876Y-138810584D02*
X134766020Y-138807925D01*
X134766020Y-138807925D02*
X134840835Y-138767194D01*
X134840835Y-138767194D02*
X134877577Y-138727792D01*
X134877577Y-138727792D02*
X134912990Y-138650319D01*
X134912990Y-138650319D02*
X134945744Y-138496701D01*
X134945744Y-138496701D02*
X134939097Y-138306341D01*
X134939097Y-138306341D02*
X134895707Y-138155382D01*
X134895707Y-138155382D02*
X134854976Y-138080568D01*
X134854976Y-138080568D02*
X134815574Y-138043825D01*
X134815574Y-138043825D02*
X134738101Y-138008412D01*
X135997486Y-130409831D02*
X135921342Y-130412490D01*
X135921342Y-130412490D02*
X135846528Y-130453221D01*
X135846528Y-130453221D02*
X135809785Y-130492622D01*
X135809785Y-130492622D02*
X135774372Y-130570096D01*
X135774372Y-130570096D02*
X135741618Y-130723714D01*
X135741618Y-130723714D02*
X135748266Y-130914074D01*
X135748266Y-130914074D02*
X135791656Y-131065032D01*
X135791656Y-131065032D02*
X135832387Y-131139847D01*
X135832387Y-131139847D02*
X135871788Y-131176589D01*
X135871788Y-131176589D02*
X135949262Y-131212002D01*
X135949262Y-131212002D02*
X136025406Y-131209343D01*
X136025406Y-131209343D02*
X136100220Y-131168612D01*
X136100220Y-131168612D02*
X136136963Y-131129211D01*
X136136963Y-131129211D02*
X136172376Y-131051737D01*
X136172376Y-131051737D02*
X136205130Y-130898120D01*
X136205130Y-130898120D02*
X136198483Y-130707760D01*
X136198483Y-130707760D02*
X136155092Y-130556801D01*
X136155092Y-130556801D02*
X136114361Y-130481986D01*
X136114361Y-130481986D02*
X136074960Y-130445244D01*
X136074960Y-130445244D02*
X135997486Y-130409831D01*
X135429065Y-130505917D02*
X135389663Y-130469175D01*
X135389663Y-130469175D02*
X135312190Y-130433762D01*
X135312190Y-130433762D02*
X135121829Y-130440409D01*
X135121829Y-130440409D02*
X135047015Y-130481140D01*
X135047015Y-130481140D02*
X135010272Y-130520542D01*
X135010272Y-130520542D02*
X134974859Y-130598016D01*
X134974859Y-130598016D02*
X134977518Y-130674160D01*
X134977518Y-130674160D02*
X135019579Y-130787046D01*
X135019579Y-130787046D02*
X135492397Y-131227957D01*
X135492397Y-131227957D02*
X134997461Y-131245240D01*
X134474605Y-130463011D02*
X134398461Y-130465670D01*
X134398461Y-130465670D02*
X134323646Y-130506401D01*
X134323646Y-130506401D02*
X134286903Y-130545803D01*
X134286903Y-130545803D02*
X134251490Y-130623276D01*
X134251490Y-130623276D02*
X134218736Y-130776894D01*
X134218736Y-130776894D02*
X134225384Y-130967254D01*
X134225384Y-130967254D02*
X134268774Y-131118213D01*
X134268774Y-131118213D02*
X134309505Y-131193027D01*
X134309505Y-131193027D02*
X134348907Y-131229770D01*
X134348907Y-131229770D02*
X134426380Y-131265183D01*
X134426380Y-131265183D02*
X134502524Y-131262524D01*
X134502524Y-131262524D02*
X134577339Y-131221793D01*
X134577339Y-131221793D02*
X134614081Y-131182391D01*
X134614081Y-131182391D02*
X134649494Y-131104918D01*
X134649494Y-131104918D02*
X134682248Y-130951300D01*
X134682248Y-130951300D02*
X134675601Y-130760940D01*
X134675601Y-130760940D02*
X134632211Y-130609981D01*
X134632211Y-130609981D02*
X134591480Y-130535167D01*
X134591480Y-130535167D02*
X134552078Y-130498424D01*
X134552078Y-130498424D02*
X134474605Y-130463011D01*
X124328078Y-118840039D02*
X124581287Y-118450012D01*
X124784942Y-118824085D02*
X124757023Y-118024573D01*
X124757023Y-118024573D02*
X124452446Y-118035209D01*
X124452446Y-118035209D02*
X124377632Y-118075940D01*
X124377632Y-118075940D02*
X124340889Y-118115341D01*
X124340889Y-118115341D02*
X124305476Y-118192815D01*
X124305476Y-118192815D02*
X124309465Y-118307031D01*
X124309465Y-118307031D02*
X124350196Y-118381845D01*
X124350196Y-118381845D02*
X124389597Y-118418588D01*
X124389597Y-118418588D02*
X124467071Y-118454001D01*
X124467071Y-118454001D02*
X124771647Y-118443365D01*
X124015525Y-118622243D02*
X123634804Y-118635538D01*
X124099646Y-118848016D02*
X123805222Y-118057810D01*
X123805222Y-118057810D02*
X123566637Y-118866629D01*
X123348358Y-118073764D02*
X123185917Y-118879924D01*
X123185917Y-118879924D02*
X123013687Y-118314162D01*
X123013687Y-118314162D02*
X122881341Y-118890560D01*
X122881341Y-118890560D02*
X122663061Y-118097695D01*
X124276936Y-123924922D02*
X124530146Y-123534895D01*
X124733801Y-123908968D02*
X124705881Y-123109455D01*
X124705881Y-123109455D02*
X124401305Y-123120091D01*
X124401305Y-123120091D02*
X124326490Y-123160822D01*
X124326490Y-123160822D02*
X124289748Y-123200224D01*
X124289748Y-123200224D02*
X124254335Y-123277697D01*
X124254335Y-123277697D02*
X124258323Y-123391913D01*
X124258323Y-123391913D02*
X124299054Y-123466728D01*
X124299054Y-123466728D02*
X124338456Y-123503470D01*
X124338456Y-123503470D02*
X124415930Y-123538883D01*
X124415930Y-123538883D02*
X124720506Y-123528247D01*
X123971031Y-123897486D02*
X123858144Y-123939546D01*
X123858144Y-123939546D02*
X123667784Y-123946194D01*
X123667784Y-123946194D02*
X123590310Y-123910781D01*
X123590310Y-123910781D02*
X123550909Y-123874038D01*
X123550909Y-123874038D02*
X123510178Y-123799224D01*
X123510178Y-123799224D02*
X123507519Y-123723080D01*
X123507519Y-123723080D02*
X123542932Y-123645606D01*
X123542932Y-123645606D02*
X123579674Y-123606205D01*
X123579674Y-123606205D02*
X123654489Y-123565474D01*
X123654489Y-123565474D02*
X123805448Y-123522083D01*
X123805448Y-123522083D02*
X123880262Y-123481352D01*
X123880262Y-123481352D02*
X123917005Y-123441951D01*
X123917005Y-123441951D02*
X123952418Y-123364477D01*
X123952418Y-123364477D02*
X123949759Y-123288333D01*
X123949759Y-123288333D02*
X123909028Y-123213519D01*
X123909028Y-123213519D02*
X123869626Y-123176776D01*
X123869626Y-123176776D02*
X123792153Y-123141363D01*
X123792153Y-123141363D02*
X123601792Y-123148011D01*
X123601792Y-123148011D02*
X123488906Y-123190071D01*
X123259144Y-123159976D02*
X122802279Y-123175930D01*
X123058631Y-123967466D02*
X123030712Y-123167953D01*
X124927413Y-130726364D02*
X124851269Y-130729023D01*
X124851269Y-130729023D02*
X124776455Y-130769754D01*
X124776455Y-130769754D02*
X124739712Y-130809155D01*
X124739712Y-130809155D02*
X124704299Y-130886629D01*
X124704299Y-130886629D02*
X124671545Y-131040247D01*
X124671545Y-131040247D02*
X124678193Y-131230607D01*
X124678193Y-131230607D02*
X124721583Y-131381565D01*
X124721583Y-131381565D02*
X124762314Y-131456380D01*
X124762314Y-131456380D02*
X124801715Y-131493122D01*
X124801715Y-131493122D02*
X124879189Y-131528535D01*
X124879189Y-131528535D02*
X124955333Y-131525876D01*
X124955333Y-131525876D02*
X125030147Y-131485145D01*
X125030147Y-131485145D02*
X125066890Y-131445744D01*
X125066890Y-131445744D02*
X125102303Y-131368270D01*
X125102303Y-131368270D02*
X125135057Y-131214653D01*
X125135057Y-131214653D02*
X125128410Y-131024293D01*
X125128410Y-131024293D02*
X125085019Y-130873334D01*
X125085019Y-130873334D02*
X125044288Y-130798519D01*
X125044288Y-130798519D02*
X125004887Y-130761777D01*
X125004887Y-130761777D02*
X124927413Y-130726364D01*
X124358992Y-130822450D02*
X124319590Y-130785708D01*
X124319590Y-130785708D02*
X124242117Y-130750295D01*
X124242117Y-130750295D02*
X124051756Y-130756942D01*
X124051756Y-130756942D02*
X123976942Y-130797673D01*
X123976942Y-130797673D02*
X123940199Y-130837075D01*
X123940199Y-130837075D02*
X123904786Y-130914549D01*
X123904786Y-130914549D02*
X123907445Y-130990693D01*
X123907445Y-130990693D02*
X123949506Y-131103579D01*
X123949506Y-131103579D02*
X124422324Y-131544490D01*
X124422324Y-131544490D02*
X123927388Y-131561773D01*
X123546667Y-131575068D02*
X123394379Y-131580386D01*
X123394379Y-131580386D02*
X123316906Y-131544973D01*
X123316906Y-131544973D02*
X123277504Y-131508231D01*
X123277504Y-131508231D02*
X123197371Y-131396674D01*
X123197371Y-131396674D02*
X123153981Y-131245715D01*
X123153981Y-131245715D02*
X123143345Y-130941139D01*
X123143345Y-130941139D02*
X123178758Y-130863665D01*
X123178758Y-130863665D02*
X123215501Y-130824264D01*
X123215501Y-130824264D02*
X123290316Y-130783532D01*
X123290316Y-130783532D02*
X123442604Y-130778214D01*
X123442604Y-130778214D02*
X123520077Y-130813628D01*
X123520077Y-130813628D02*
X123559479Y-130850370D01*
X123559479Y-130850370D02*
X123600210Y-130925185D01*
X123600210Y-130925185D02*
X123606857Y-131115545D01*
X123606857Y-131115545D02*
X123571444Y-131193018D01*
X123571444Y-131193018D02*
X123534702Y-131232420D01*
X123534702Y-131232420D02*
X123459887Y-131273151D01*
X123459887Y-131273151D02*
X123307599Y-131278469D01*
X123307599Y-131278469D02*
X123230126Y-131243056D01*
X123230126Y-131243056D02*
X123190724Y-131206313D01*
X123190724Y-131206313D02*
X123149993Y-131131499D01*
X124838768Y-128187911D02*
X124762624Y-128190570D01*
X124762624Y-128190570D02*
X124687810Y-128231301D01*
X124687810Y-128231301D02*
X124651067Y-128270702D01*
X124651067Y-128270702D02*
X124615654Y-128348176D01*
X124615654Y-128348176D02*
X124582900Y-128501794D01*
X124582900Y-128501794D02*
X124589548Y-128692154D01*
X124589548Y-128692154D02*
X124632938Y-128843112D01*
X124632938Y-128843112D02*
X124673669Y-128917927D01*
X124673669Y-128917927D02*
X124713070Y-128954669D01*
X124713070Y-128954669D02*
X124790544Y-128990082D01*
X124790544Y-128990082D02*
X124866688Y-128987423D01*
X124866688Y-128987423D02*
X124941502Y-128946692D01*
X124941502Y-128946692D02*
X124978245Y-128907291D01*
X124978245Y-128907291D02*
X125013658Y-128829817D01*
X125013658Y-128829817D02*
X125046412Y-128676200D01*
X125046412Y-128676200D02*
X125039765Y-128485840D01*
X125039765Y-128485840D02*
X124996374Y-128334881D01*
X124996374Y-128334881D02*
X124955643Y-128260066D01*
X124955643Y-128260066D02*
X124916242Y-128223324D01*
X124916242Y-128223324D02*
X124838768Y-128187911D01*
X124305760Y-128206524D02*
X123810823Y-128223807D01*
X123810823Y-128223807D02*
X124087964Y-128519077D01*
X124087964Y-128519077D02*
X123973747Y-128523066D01*
X123973747Y-128523066D02*
X123898933Y-128563797D01*
X123898933Y-128563797D02*
X123862190Y-128603198D01*
X123862190Y-128603198D02*
X123826777Y-128680672D01*
X123826777Y-128680672D02*
X123833425Y-128871032D01*
X123833425Y-128871032D02*
X123874156Y-128945847D01*
X123874156Y-128945847D02*
X123913557Y-128982589D01*
X123913557Y-128982589D02*
X123991031Y-129018002D01*
X123991031Y-129018002D02*
X124219463Y-129010025D01*
X124219463Y-129010025D02*
X124294278Y-128969294D01*
X124294278Y-128969294D02*
X124331020Y-128929892D01*
X123077302Y-129049910D02*
X123534166Y-129033956D01*
X123305734Y-129041933D02*
X123277815Y-128242420D01*
X123277815Y-128242420D02*
X123357947Y-128353978D01*
X123357947Y-128353978D02*
X123436750Y-128427463D01*
X123436750Y-128427463D02*
X123514224Y-128462876D01*
X125016057Y-133264817D02*
X124939913Y-133267476D01*
X124939913Y-133267476D02*
X124865099Y-133308207D01*
X124865099Y-133308207D02*
X124828356Y-133347608D01*
X124828356Y-133347608D02*
X124792943Y-133425082D01*
X124792943Y-133425082D02*
X124760189Y-133578700D01*
X124760189Y-133578700D02*
X124766837Y-133769060D01*
X124766837Y-133769060D02*
X124810227Y-133920018D01*
X124810227Y-133920018D02*
X124850958Y-133994833D01*
X124850958Y-133994833D02*
X124890359Y-134031575D01*
X124890359Y-134031575D02*
X124967833Y-134066988D01*
X124967833Y-134066988D02*
X125043977Y-134064329D01*
X125043977Y-134064329D02*
X125118791Y-134023598D01*
X125118791Y-134023598D02*
X125155534Y-133984197D01*
X125155534Y-133984197D02*
X125190947Y-133906723D01*
X125190947Y-133906723D02*
X125223701Y-133753106D01*
X125223701Y-133753106D02*
X125217054Y-133562746D01*
X125217054Y-133562746D02*
X125173663Y-133411787D01*
X125173663Y-133411787D02*
X125132932Y-133336972D01*
X125132932Y-133336972D02*
X125093531Y-133300230D01*
X125093531Y-133300230D02*
X125016057Y-133264817D01*
X124254616Y-133291407D02*
X124178472Y-133294066D01*
X124178472Y-133294066D02*
X124103658Y-133334797D01*
X124103658Y-133334797D02*
X124066915Y-133374198D01*
X124066915Y-133374198D02*
X124031502Y-133451672D01*
X124031502Y-133451672D02*
X123998748Y-133605290D01*
X123998748Y-133605290D02*
X124005396Y-133795650D01*
X124005396Y-133795650D02*
X124048786Y-133946608D01*
X124048786Y-133946608D02*
X124089517Y-134021423D01*
X124089517Y-134021423D02*
X124128918Y-134058166D01*
X124128918Y-134058166D02*
X124206392Y-134093579D01*
X124206392Y-134093579D02*
X124282536Y-134090920D01*
X124282536Y-134090920D02*
X124357351Y-134050189D01*
X124357351Y-134050189D02*
X124394093Y-134010787D01*
X124394093Y-134010787D02*
X124429506Y-133933313D01*
X124429506Y-133933313D02*
X124462260Y-133779696D01*
X124462260Y-133779696D02*
X124455613Y-133589336D01*
X124455613Y-133589336D02*
X124412223Y-133438377D01*
X124412223Y-133438377D02*
X124371492Y-133363562D01*
X124371492Y-133363562D02*
X124332090Y-133326820D01*
X124332090Y-133326820D02*
X124254616Y-133291407D01*
X123686195Y-133387494D02*
X123646793Y-133350751D01*
X123646793Y-133350751D02*
X123569320Y-133315338D01*
X123569320Y-133315338D02*
X123378960Y-133321985D01*
X123378960Y-133321985D02*
X123304145Y-133362717D01*
X123304145Y-133362717D02*
X123267402Y-133402118D01*
X123267402Y-133402118D02*
X123231989Y-133479592D01*
X123231989Y-133479592D02*
X123234648Y-133555736D01*
X123234648Y-133555736D02*
X123276709Y-133668622D01*
X123276709Y-133668622D02*
X123749527Y-134109533D01*
X123749527Y-134109533D02*
X123254591Y-134126816D01*
X136084739Y-132908308D02*
X136008595Y-132910967D01*
X136008595Y-132910967D02*
X135933781Y-132951698D01*
X135933781Y-132951698D02*
X135897038Y-132991099D01*
X135897038Y-132991099D02*
X135861625Y-133068573D01*
X135861625Y-133068573D02*
X135828871Y-133222191D01*
X135828871Y-133222191D02*
X135835519Y-133412551D01*
X135835519Y-133412551D02*
X135878909Y-133563509D01*
X135878909Y-133563509D02*
X135919640Y-133638324D01*
X135919640Y-133638324D02*
X135959041Y-133675066D01*
X135959041Y-133675066D02*
X136036515Y-133710479D01*
X136036515Y-133710479D02*
X136112659Y-133707820D01*
X136112659Y-133707820D02*
X136187473Y-133667089D01*
X136187473Y-133667089D02*
X136224216Y-133627688D01*
X136224216Y-133627688D02*
X136259629Y-133550214D01*
X136259629Y-133550214D02*
X136292383Y-133396597D01*
X136292383Y-133396597D02*
X136285736Y-133206237D01*
X136285736Y-133206237D02*
X136242345Y-133055278D01*
X136242345Y-133055278D02*
X136201614Y-132980463D01*
X136201614Y-132980463D02*
X136162213Y-132943721D01*
X136162213Y-132943721D02*
X136084739Y-132908308D01*
X135516318Y-133004394D02*
X135476916Y-132967652D01*
X135476916Y-132967652D02*
X135399443Y-132932239D01*
X135399443Y-132932239D02*
X135209082Y-132938886D01*
X135209082Y-132938886D02*
X135134268Y-132979617D01*
X135134268Y-132979617D02*
X135097525Y-133019019D01*
X135097525Y-133019019D02*
X135062112Y-133096493D01*
X135062112Y-133096493D02*
X135064771Y-133172637D01*
X135064771Y-133172637D02*
X135106832Y-133285523D01*
X135106832Y-133285523D02*
X135579650Y-133726434D01*
X135579650Y-133726434D02*
X135084714Y-133743717D01*
X134754877Y-133030985D02*
X134715475Y-132994242D01*
X134715475Y-132994242D02*
X134638002Y-132958829D01*
X134638002Y-132958829D02*
X134447642Y-132965476D01*
X134447642Y-132965476D02*
X134372827Y-133006208D01*
X134372827Y-133006208D02*
X134336084Y-133045609D01*
X134336084Y-133045609D02*
X134300671Y-133123083D01*
X134300671Y-133123083D02*
X134303330Y-133199227D01*
X134303330Y-133199227D02*
X134345391Y-133312113D01*
X134345391Y-133312113D02*
X134818209Y-133753024D01*
X134818209Y-133753024D02*
X134323273Y-133770307D01*
X135638026Y-120116105D02*
X135561882Y-120118764D01*
X135561882Y-120118764D02*
X135487068Y-120159495D01*
X135487068Y-120159495D02*
X135450325Y-120198896D01*
X135450325Y-120198896D02*
X135414912Y-120276370D01*
X135414912Y-120276370D02*
X135382158Y-120429988D01*
X135382158Y-120429988D02*
X135388806Y-120620348D01*
X135388806Y-120620348D02*
X135432196Y-120771306D01*
X135432196Y-120771306D02*
X135472927Y-120846121D01*
X135472927Y-120846121D02*
X135512328Y-120882863D01*
X135512328Y-120882863D02*
X135589802Y-120918276D01*
X135589802Y-120918276D02*
X135665946Y-120915617D01*
X135665946Y-120915617D02*
X135740760Y-120874886D01*
X135740760Y-120874886D02*
X135777503Y-120835485D01*
X135777503Y-120835485D02*
X135812916Y-120758011D01*
X135812916Y-120758011D02*
X135845670Y-120604394D01*
X135845670Y-120604394D02*
X135839023Y-120414034D01*
X135839023Y-120414034D02*
X135795632Y-120263075D01*
X135795632Y-120263075D02*
X135754901Y-120188260D01*
X135754901Y-120188260D02*
X135715500Y-120151518D01*
X135715500Y-120151518D02*
X135638026Y-120116105D01*
X134876585Y-120142695D02*
X134800441Y-120145354D01*
X134800441Y-120145354D02*
X134725627Y-120186085D01*
X134725627Y-120186085D02*
X134688884Y-120225486D01*
X134688884Y-120225486D02*
X134653471Y-120302960D01*
X134653471Y-120302960D02*
X134620717Y-120456578D01*
X134620717Y-120456578D02*
X134627365Y-120646938D01*
X134627365Y-120646938D02*
X134670755Y-120797896D01*
X134670755Y-120797896D02*
X134711486Y-120872711D01*
X134711486Y-120872711D02*
X134750887Y-120909454D01*
X134750887Y-120909454D02*
X134828361Y-120944867D01*
X134828361Y-120944867D02*
X134904505Y-120942208D01*
X134904505Y-120942208D02*
X134979320Y-120901477D01*
X134979320Y-120901477D02*
X135016062Y-120862075D01*
X135016062Y-120862075D02*
X135051475Y-120784601D01*
X135051475Y-120784601D02*
X135084229Y-120630984D01*
X135084229Y-120630984D02*
X135077582Y-120440624D01*
X135077582Y-120440624D02*
X135034192Y-120289665D01*
X135034192Y-120289665D02*
X134993461Y-120214850D01*
X134993461Y-120214850D02*
X134954059Y-120178108D01*
X134954059Y-120178108D02*
X134876585Y-120142695D01*
X134165182Y-120510604D02*
X134239997Y-120469873D01*
X134239997Y-120469873D02*
X134276739Y-120430471D01*
X134276739Y-120430471D02*
X134312152Y-120352998D01*
X134312152Y-120352998D02*
X134310823Y-120314926D01*
X134310823Y-120314926D02*
X134270092Y-120240111D01*
X134270092Y-120240111D02*
X134230690Y-120203369D01*
X134230690Y-120203369D02*
X134153217Y-120167955D01*
X134153217Y-120167955D02*
X134000929Y-120173273D01*
X134000929Y-120173273D02*
X133926114Y-120214005D01*
X133926114Y-120214005D02*
X133889371Y-120253406D01*
X133889371Y-120253406D02*
X133853958Y-120330880D01*
X133853958Y-120330880D02*
X133855288Y-120368952D01*
X133855288Y-120368952D02*
X133896019Y-120443766D01*
X133896019Y-120443766D02*
X133935420Y-120480509D01*
X133935420Y-120480509D02*
X134012894Y-120515922D01*
X134012894Y-120515922D02*
X134165182Y-120510604D01*
X134165182Y-120510604D02*
X134242656Y-120546017D01*
X134242656Y-120546017D02*
X134282057Y-120582759D01*
X134282057Y-120582759D02*
X134322788Y-120657574D01*
X134322788Y-120657574D02*
X134328106Y-120809862D01*
X134328106Y-120809862D02*
X134292693Y-120887336D01*
X134292693Y-120887336D02*
X134255951Y-120926737D01*
X134255951Y-120926737D02*
X134181136Y-120967468D01*
X134181136Y-120967468D02*
X134028848Y-120972786D01*
X134028848Y-120972786D02*
X133951375Y-120937373D01*
X133951375Y-120937373D02*
X133911973Y-120900631D01*
X133911973Y-120900631D02*
X133871242Y-120825816D01*
X133871242Y-120825816D02*
X133865924Y-120673528D01*
X133865924Y-120673528D02*
X133901337Y-120596054D01*
X133901337Y-120596054D02*
X133938079Y-120556653D01*
X133938079Y-120556653D02*
X134012894Y-120515922D01*
X124466277Y-120614392D02*
X124541092Y-120573661D01*
X124541092Y-120573661D02*
X124655308Y-120569673D01*
X124655308Y-120569673D02*
X124770853Y-120603756D01*
X124770853Y-120603756D02*
X124849657Y-120677241D01*
X124849657Y-120677241D02*
X124890388Y-120752056D01*
X124890388Y-120752056D02*
X124933778Y-120903015D01*
X124933778Y-120903015D02*
X124937766Y-121017231D01*
X124937766Y-121017231D02*
X124905012Y-121170848D01*
X124905012Y-121170848D02*
X124869599Y-121248322D01*
X124869599Y-121248322D02*
X124796114Y-121327125D01*
X124796114Y-121327125D02*
X124683227Y-121369185D01*
X124683227Y-121369185D02*
X124607083Y-121371844D01*
X124607083Y-121371844D02*
X124491538Y-121337761D01*
X124491538Y-121337761D02*
X124452136Y-121301018D01*
X124452136Y-121301018D02*
X124442830Y-121034514D01*
X124442830Y-121034514D02*
X124595118Y-121029196D01*
X124112147Y-121389128D02*
X124084227Y-120589615D01*
X124084227Y-120589615D02*
X123655283Y-121405082D01*
X123655283Y-121405082D02*
X123627363Y-120605569D01*
X123274563Y-121418377D02*
X123246643Y-120618864D01*
X123246643Y-120618864D02*
X123056283Y-120625512D01*
X123056283Y-120625512D02*
X122943396Y-120667573D01*
X122943396Y-120667573D02*
X122869911Y-120746376D01*
X122869911Y-120746376D02*
X122834498Y-120823849D01*
X122834498Y-120823849D02*
X122801744Y-120977467D01*
X122801744Y-120977467D02*
X122805733Y-121091683D01*
X122805733Y-121091683D02*
X122849123Y-121242642D01*
X122849123Y-121242642D02*
X122889854Y-121317456D01*
X122889854Y-121317456D02*
X122968657Y-121390941D01*
X122968657Y-121390941D02*
X123084202Y-121425025D01*
X123084202Y-121425025D02*
X123274563Y-121418377D01*
X135906752Y-127811415D02*
X135830608Y-127814074D01*
X135830608Y-127814074D02*
X135755794Y-127854805D01*
X135755794Y-127854805D02*
X135719051Y-127894206D01*
X135719051Y-127894206D02*
X135683638Y-127971680D01*
X135683638Y-127971680D02*
X135650884Y-128125298D01*
X135650884Y-128125298D02*
X135657532Y-128315658D01*
X135657532Y-128315658D02*
X135700922Y-128466616D01*
X135700922Y-128466616D02*
X135741653Y-128541431D01*
X135741653Y-128541431D02*
X135781054Y-128578173D01*
X135781054Y-128578173D02*
X135858528Y-128613586D01*
X135858528Y-128613586D02*
X135934672Y-128610927D01*
X135934672Y-128610927D02*
X136009486Y-128570196D01*
X136009486Y-128570196D02*
X136046229Y-128530795D01*
X136046229Y-128530795D02*
X136081642Y-128453321D01*
X136081642Y-128453321D02*
X136114396Y-128299704D01*
X136114396Y-128299704D02*
X136107749Y-128109344D01*
X136107749Y-128109344D02*
X136064358Y-127958385D01*
X136064358Y-127958385D02*
X136023627Y-127883570D01*
X136023627Y-127883570D02*
X135984226Y-127846828D01*
X135984226Y-127846828D02*
X135906752Y-127811415D01*
X134906727Y-128646824D02*
X135363591Y-128630870D01*
X135135159Y-128638847D02*
X135107239Y-127839334D01*
X135107239Y-127839334D02*
X135187372Y-127950891D01*
X135187372Y-127950891D02*
X135266175Y-128024377D01*
X135266175Y-128024377D02*
X135343649Y-128059790D01*
X134612303Y-127856618D02*
X134079294Y-127875231D01*
X134079294Y-127875231D02*
X134449862Y-128662778D01*
X125016628Y-125640151D02*
X124778043Y-126448970D01*
X124778043Y-126448970D02*
X124483619Y-125658764D01*
X123785511Y-126407393D02*
X123824913Y-126444136D01*
X123824913Y-126444136D02*
X123940459Y-126478220D01*
X123940459Y-126478220D02*
X124016603Y-126475561D01*
X124016603Y-126475561D02*
X124129489Y-126433500D01*
X124129489Y-126433500D02*
X124202974Y-126354697D01*
X124202974Y-126354697D02*
X124238387Y-126277223D01*
X124238387Y-126277223D02*
X124271141Y-126123606D01*
X124271141Y-126123606D02*
X124267153Y-126009390D01*
X124267153Y-126009390D02*
X124223763Y-125858431D01*
X124223763Y-125858431D02*
X124183032Y-125783616D01*
X124183032Y-125783616D02*
X124104229Y-125710131D01*
X124104229Y-125710131D02*
X123988683Y-125676048D01*
X123988683Y-125676048D02*
X123912539Y-125678707D01*
X123912539Y-125678707D02*
X123799652Y-125720767D01*
X123799652Y-125720767D02*
X123762910Y-125760169D01*
X122985999Y-126435313D02*
X123025400Y-126472056D01*
X123025400Y-126472056D02*
X123140946Y-126506139D01*
X123140946Y-126506139D02*
X123217090Y-126503480D01*
X123217090Y-126503480D02*
X123329977Y-126461420D01*
X123329977Y-126461420D02*
X123403462Y-126382617D01*
X123403462Y-126382617D02*
X123438875Y-126305143D01*
X123438875Y-126305143D02*
X123471629Y-126151525D01*
X123471629Y-126151525D02*
X123467640Y-126037309D01*
X123467640Y-126037309D02*
X123424250Y-125886351D01*
X123424250Y-125886351D02*
X123383519Y-125811536D01*
X123383519Y-125811536D02*
X123304716Y-125738051D01*
X123304716Y-125738051D02*
X123189170Y-125703967D01*
X123189170Y-125703967D02*
X123113026Y-125706626D01*
X123113026Y-125706626D02*
X123000140Y-125748687D01*
X123000140Y-125748687D02*
X122963397Y-125788089D01*
X135551824Y-117647610D02*
X135475680Y-117650269D01*
X135475680Y-117650269D02*
X135400866Y-117691000D01*
X135400866Y-117691000D02*
X135364123Y-117730401D01*
X135364123Y-117730401D02*
X135328710Y-117807875D01*
X135328710Y-117807875D02*
X135295956Y-117961493D01*
X135295956Y-117961493D02*
X135302604Y-118151853D01*
X135302604Y-118151853D02*
X135345994Y-118302811D01*
X135345994Y-118302811D02*
X135386725Y-118377626D01*
X135386725Y-118377626D02*
X135426126Y-118414368D01*
X135426126Y-118414368D02*
X135503600Y-118449781D01*
X135503600Y-118449781D02*
X135579744Y-118447122D01*
X135579744Y-118447122D02*
X135654558Y-118406391D01*
X135654558Y-118406391D02*
X135691301Y-118366990D01*
X135691301Y-118366990D02*
X135726714Y-118289516D01*
X135726714Y-118289516D02*
X135759468Y-118135899D01*
X135759468Y-118135899D02*
X135752821Y-117945539D01*
X135752821Y-117945539D02*
X135709430Y-117794580D01*
X135709430Y-117794580D02*
X135668699Y-117719765D01*
X135668699Y-117719765D02*
X135629298Y-117683023D01*
X135629298Y-117683023D02*
X135551824Y-117647610D01*
X134790383Y-117674200D02*
X134714239Y-117676859D01*
X134714239Y-117676859D02*
X134639425Y-117717590D01*
X134639425Y-117717590D02*
X134602682Y-117756991D01*
X134602682Y-117756991D02*
X134567269Y-117834465D01*
X134567269Y-117834465D02*
X134534515Y-117988083D01*
X134534515Y-117988083D02*
X134541163Y-118178443D01*
X134541163Y-118178443D02*
X134584553Y-118329401D01*
X134584553Y-118329401D02*
X134625284Y-118404216D01*
X134625284Y-118404216D02*
X134664685Y-118440959D01*
X134664685Y-118440959D02*
X134742159Y-118476372D01*
X134742159Y-118476372D02*
X134818303Y-118473713D01*
X134818303Y-118473713D02*
X134893118Y-118432982D01*
X134893118Y-118432982D02*
X134929860Y-118393580D01*
X134929860Y-118393580D02*
X134965273Y-118316106D01*
X134965273Y-118316106D02*
X134998027Y-118162489D01*
X134998027Y-118162489D02*
X134991380Y-117972129D01*
X134991380Y-117972129D02*
X134947990Y-117821170D01*
X134947990Y-117821170D02*
X134907259Y-117746355D01*
X134907259Y-117746355D02*
X134867857Y-117709613D01*
X134867857Y-117709613D02*
X134790383Y-117674200D01*
X133838582Y-117707438D02*
X133990871Y-117702119D01*
X133990871Y-117702119D02*
X134068344Y-117737533D01*
X134068344Y-117737533D02*
X134107746Y-117774275D01*
X134107746Y-117774275D02*
X134187878Y-117885832D01*
X134187878Y-117885832D02*
X134231268Y-118036791D01*
X134231268Y-118036791D02*
X134241904Y-118341367D01*
X134241904Y-118341367D02*
X134206491Y-118418841D01*
X134206491Y-118418841D02*
X134169749Y-118458242D01*
X134169749Y-118458242D02*
X134094934Y-118498973D01*
X134094934Y-118498973D02*
X133942646Y-118504291D01*
X133942646Y-118504291D02*
X133865173Y-118468878D01*
X133865173Y-118468878D02*
X133825771Y-118432136D01*
X133825771Y-118432136D02*
X133785040Y-118357321D01*
X133785040Y-118357321D02*
X133778392Y-118166961D01*
X133778392Y-118166961D02*
X133813805Y-118089487D01*
X133813805Y-118089487D02*
X133850548Y-118050086D01*
X133850548Y-118050086D02*
X133925363Y-118009355D01*
X133925363Y-118009355D02*
X134077651Y-118004037D01*
X134077651Y-118004037D02*
X134155124Y-118039450D01*
X134155124Y-118039450D02*
X134194526Y-118076192D01*
X134194526Y-118076192D02*
X134235257Y-118151007D01*
X125370636Y-143418627D02*
X125294492Y-143421286D01*
X125294492Y-143421286D02*
X125219678Y-143462017D01*
X125219678Y-143462017D02*
X125182935Y-143501418D01*
X125182935Y-143501418D02*
X125147522Y-143578892D01*
X125147522Y-143578892D02*
X125114768Y-143732510D01*
X125114768Y-143732510D02*
X125121416Y-143922870D01*
X125121416Y-143922870D02*
X125164806Y-144073828D01*
X125164806Y-144073828D02*
X125205537Y-144148643D01*
X125205537Y-144148643D02*
X125244938Y-144185385D01*
X125244938Y-144185385D02*
X125322412Y-144220798D01*
X125322412Y-144220798D02*
X125398556Y-144218139D01*
X125398556Y-144218139D02*
X125473370Y-144177408D01*
X125473370Y-144177408D02*
X125510113Y-144138007D01*
X125510113Y-144138007D02*
X125545526Y-144060533D01*
X125545526Y-144060533D02*
X125578280Y-143906916D01*
X125578280Y-143906916D02*
X125571633Y-143716556D01*
X125571633Y-143716556D02*
X125528242Y-143565597D01*
X125528242Y-143565597D02*
X125487511Y-143490782D01*
X125487511Y-143490782D02*
X125448110Y-143454040D01*
X125448110Y-143454040D02*
X125370636Y-143418627D01*
X124370611Y-144254036D02*
X124827475Y-144238082D01*
X124599043Y-144246059D02*
X124571123Y-143446546D01*
X124571123Y-143446546D02*
X124651256Y-143558103D01*
X124651256Y-143558103D02*
X124730059Y-143631589D01*
X124730059Y-143631589D02*
X124807533Y-143667002D01*
X123847755Y-143471807D02*
X123771611Y-143474466D01*
X123771611Y-143474466D02*
X123696796Y-143515197D01*
X123696796Y-143515197D02*
X123660053Y-143554599D01*
X123660053Y-143554599D02*
X123624640Y-143632072D01*
X123624640Y-143632072D02*
X123591886Y-143785690D01*
X123591886Y-143785690D02*
X123598534Y-143976050D01*
X123598534Y-143976050D02*
X123641924Y-144127009D01*
X123641924Y-144127009D02*
X123682655Y-144201823D01*
X123682655Y-144201823D02*
X123722057Y-144238566D01*
X123722057Y-144238566D02*
X123799530Y-144273979D01*
X123799530Y-144273979D02*
X123875674Y-144271320D01*
X123875674Y-144271320D02*
X123950489Y-144230589D01*
X123950489Y-144230589D02*
X123987231Y-144191187D01*
X123987231Y-144191187D02*
X124022644Y-144113714D01*
X124022644Y-144113714D02*
X124055398Y-143960096D01*
X124055398Y-143960096D02*
X124048751Y-143769736D01*
X124048751Y-143769736D02*
X124005361Y-143618777D01*
X124005361Y-143618777D02*
X123964630Y-143543963D01*
X123964630Y-143543963D02*
X123925228Y-143507220D01*
X123925228Y-143507220D02*
X123847755Y-143471807D01*
X135552586Y-125310346D02*
X135627401Y-125269615D01*
X135627401Y-125269615D02*
X135741617Y-125265627D01*
X135741617Y-125265627D02*
X135857162Y-125299710D01*
X135857162Y-125299710D02*
X135935966Y-125373195D01*
X135935966Y-125373195D02*
X135976697Y-125448010D01*
X135976697Y-125448010D02*
X136020087Y-125598969D01*
X136020087Y-125598969D02*
X136024075Y-125713185D01*
X136024075Y-125713185D02*
X135991321Y-125866802D01*
X135991321Y-125866802D02*
X135955908Y-125944276D01*
X135955908Y-125944276D02*
X135882423Y-126023079D01*
X135882423Y-126023079D02*
X135769536Y-126065139D01*
X135769536Y-126065139D02*
X135693392Y-126067798D01*
X135693392Y-126067798D02*
X135577847Y-126033715D01*
X135577847Y-126033715D02*
X135538445Y-125996972D01*
X135538445Y-125996972D02*
X135529139Y-125730468D01*
X135529139Y-125730468D02*
X135681427Y-125725150D01*
X135198456Y-126085082D02*
X135170536Y-125285569D01*
X135170536Y-125285569D02*
X134741592Y-126101036D01*
X134741592Y-126101036D02*
X134713672Y-125301523D01*
X134360872Y-126114331D02*
X134332952Y-125314818D01*
X134332952Y-125314818D02*
X134142592Y-125321466D01*
X134142592Y-125321466D02*
X134029705Y-125363527D01*
X134029705Y-125363527D02*
X133956220Y-125442330D01*
X133956220Y-125442330D02*
X133920807Y-125519803D01*
X133920807Y-125519803D02*
X133888053Y-125673421D01*
X133888053Y-125673421D02*
X133892042Y-125787637D01*
X133892042Y-125787637D02*
X133935432Y-125938596D01*
X133935432Y-125938596D02*
X133976163Y-126013410D01*
X133976163Y-126013410D02*
X134054966Y-126086895D01*
X134054966Y-126086895D02*
X134170511Y-126120979D01*
X134170511Y-126120979D02*
X134360872Y-126114331D01*
D11*
%TO.C,D9*%
X184578440Y-115618744D02*
X184976918Y-115583883D01*
X184976918Y-115583883D02*
X184928982Y-115035974D01*
X184976918Y-115583883D02*
X185024854Y-116131789D01*
X184976918Y-115583883D02*
X185539772Y-115133110D01*
X185539772Y-115133110D02*
X185609497Y-115930066D01*
X185574635Y-115531588D02*
X186072732Y-115488010D01*
X185609497Y-115930066D02*
X184976918Y-115583883D01*
%TO.C,D1*%
X115663312Y-189015286D02*
X116039189Y-188878478D01*
X116039189Y-188878478D02*
X115851078Y-188361647D01*
X116039189Y-188878478D02*
X116227300Y-189395309D01*
X116039189Y-188878478D02*
X116466196Y-188297389D01*
X116466196Y-188297389D02*
X116739812Y-189049143D01*
X116603004Y-188673266D02*
X117072850Y-188502256D01*
X116739812Y-189049143D02*
X116039189Y-188878478D01*
%TO.C,D2*%
X139098036Y-182068524D02*
X139489295Y-181985359D01*
X139489295Y-181985359D02*
X139374944Y-181447378D01*
X139489295Y-181985359D02*
X139603647Y-182523340D01*
X139489295Y-181985359D02*
X139993019Y-181469353D01*
X139993019Y-181469353D02*
X140159349Y-182251871D01*
X140076184Y-181860612D02*
X140565258Y-181756656D01*
X140159349Y-182251871D02*
X139489295Y-181985359D01*
%TO.C,D14*%
X239064112Y-140646223D02*
X239464112Y-140646223D01*
X239464112Y-140646223D02*
X239464112Y-140096223D01*
X239464112Y-140646223D02*
X239464112Y-141196223D01*
X239464112Y-140646223D02*
X240064112Y-140246223D01*
X240064112Y-140246223D02*
X240064112Y-141046223D01*
X240064112Y-140646223D02*
X240564112Y-140646223D01*
X240064112Y-141046223D02*
X239464112Y-140646223D01*
%TO.C,D11*%
X213064112Y-130646223D02*
X213464112Y-130646223D01*
X213464112Y-130646223D02*
X213464112Y-130096223D01*
X213464112Y-130646223D02*
X213464112Y-131196223D01*
X213464112Y-130646223D02*
X214064112Y-130246223D01*
X214064112Y-130246223D02*
X214064112Y-131046223D01*
X214064112Y-130646223D02*
X214564112Y-130646223D01*
X214064112Y-131046223D02*
X213464112Y-130646223D01*
%TO.C,D13*%
X213064112Y-92646223D02*
X213464112Y-92646223D01*
X213464112Y-92646223D02*
X213464112Y-92096223D01*
X213464112Y-92646223D02*
X213464112Y-93196223D01*
X213464112Y-92646223D02*
X214064112Y-92246223D01*
X214064112Y-92246223D02*
X214064112Y-93046223D01*
X214064112Y-92646223D02*
X214564112Y-92646223D01*
X214064112Y-93046223D02*
X213464112Y-92646223D01*
%TO.C,D10*%
X182922481Y-96691045D02*
X183320959Y-96656184D01*
X183320959Y-96656184D02*
X183273023Y-96108275D01*
X183320959Y-96656184D02*
X183368895Y-97204090D01*
X183320959Y-96656184D02*
X183883813Y-96205411D01*
X183883813Y-96205411D02*
X183953538Y-97002367D01*
X183918676Y-96603889D02*
X184416773Y-96560311D01*
X183953538Y-97002367D02*
X183320959Y-96656184D01*
D12*
%TO.C,MCU1*%
X120216214Y-114808791D02*
X121368601Y-147808676D01*
X121368601Y-147808676D02*
X139137770Y-147188163D01*
X137985388Y-114188278D02*
X120216214Y-114808791D01*
X139137770Y-147188163D02*
X137985388Y-114188278D01*
D11*
%TO.C,D7*%
X162811108Y-97354754D02*
X163211108Y-97354754D01*
X163211108Y-97354754D02*
X163211108Y-96804754D01*
X163211108Y-97354754D02*
X163211108Y-97904754D01*
X163211108Y-97354754D02*
X163811108Y-96954754D01*
X163811108Y-96954754D02*
X163811108Y-97754754D01*
X163811108Y-97354754D02*
X164311108Y-97354754D01*
X163811108Y-97754754D02*
X163211108Y-97354754D01*
%TO.C,D18*%
X266466332Y-139672279D02*
X266842209Y-139809087D01*
X266842209Y-139809087D02*
X266654098Y-140325918D01*
X266842209Y-139809087D02*
X267030320Y-139292256D01*
X266842209Y-139809087D02*
X267542832Y-139638422D01*
X267269216Y-140390176D02*
X266842209Y-139809087D01*
X267406024Y-140014299D02*
X267875870Y-140185309D01*
X267542832Y-139638422D02*
X267269216Y-140390176D01*
%TO.C,D6*%
X163909505Y-117415949D02*
X164307983Y-117381088D01*
X164307983Y-117381088D02*
X164260047Y-116833179D01*
X164307983Y-117381088D02*
X164355919Y-117928994D01*
X164307983Y-117381088D02*
X164870837Y-116930315D01*
X164870837Y-116930315D02*
X164940562Y-117727271D01*
X164905700Y-117328793D02*
X165403797Y-117285215D01*
X164940562Y-117727271D02*
X164307983Y-117381088D01*
%TO.C,D15*%
X239064112Y-121646223D02*
X239464112Y-121646223D01*
X239464112Y-121646223D02*
X239464112Y-121096223D01*
X239464112Y-121646223D02*
X239464112Y-122196223D01*
X239464112Y-121646223D02*
X240064112Y-121246223D01*
X240064112Y-121246223D02*
X240064112Y-122046223D01*
X240064112Y-121646223D02*
X240564112Y-121646223D01*
X240064112Y-122046223D02*
X239464112Y-121646223D01*
%TO.C,D4*%
X163601477Y-178050146D02*
X163999955Y-178015285D01*
X163999955Y-178015285D02*
X163952019Y-177467376D01*
X163999955Y-178015285D02*
X164047891Y-178563191D01*
X163999955Y-178015285D02*
X164562809Y-177564512D01*
X164562809Y-177564512D02*
X164632534Y-178361468D01*
X164597672Y-177962990D02*
X165095769Y-177919412D01*
X164632534Y-178361468D02*
X163999955Y-178015285D01*
%TO.C,D5*%
X166752170Y-137305074D02*
X167146093Y-137235615D01*
X167146093Y-137235615D02*
X167050587Y-136693971D01*
X167146093Y-137235615D02*
X167241600Y-137777259D01*
X167146093Y-137235615D02*
X167667519Y-136737503D01*
X167667519Y-136737503D02*
X167806437Y-137525349D01*
X167736978Y-137131426D02*
X168229382Y-137044602D01*
X167806437Y-137525349D02*
X167146093Y-137235615D01*
%TO.C,D3*%
X135980205Y-161066815D02*
X136379961Y-161052855D01*
X136379961Y-161052855D02*
X136360766Y-160503190D01*
X136379961Y-161052855D02*
X136399156Y-161602520D01*
X136379961Y-161052855D02*
X136965636Y-160632159D01*
X136965636Y-160632159D02*
X136993562Y-161431671D01*
X136979596Y-161031915D02*
X137479291Y-161014465D01*
X136993562Y-161431671D02*
X136379961Y-161052855D01*
%TO.C,D12*%
X213064112Y-111646223D02*
X213464112Y-111646223D01*
X213464112Y-111646223D02*
X213464112Y-111096223D01*
X213464112Y-111646223D02*
X213464112Y-112196223D01*
X213464112Y-111646223D02*
X214064112Y-111246223D01*
X214064112Y-111246223D02*
X214064112Y-112046223D01*
X214064112Y-111646223D02*
X214564112Y-111646223D01*
X214064112Y-112046223D02*
X213464112Y-111646223D01*
%TO.C,D8*%
X186234399Y-134546443D02*
X186632877Y-134511582D01*
X186632877Y-134511582D02*
X186584941Y-133963673D01*
X186632877Y-134511582D02*
X186680813Y-135059488D01*
X186632877Y-134511582D02*
X187195731Y-134060809D01*
X187195731Y-134060809D02*
X187265456Y-134857765D01*
X187230594Y-134459287D02*
X187728691Y-134415709D01*
X187265456Y-134857765D02*
X186632877Y-134511582D01*
%TO.C,D16*%
X239064112Y-102646223D02*
X239464112Y-102646223D01*
X239464112Y-102646223D02*
X239464112Y-102096223D01*
X239464112Y-102646223D02*
X239464112Y-103196223D01*
X239464112Y-102646223D02*
X240064112Y-102246223D01*
X240064112Y-102246223D02*
X240064112Y-103046223D01*
X240064112Y-102646223D02*
X240564112Y-102646223D01*
X240064112Y-103046223D02*
X239464112Y-102646223D01*
%TO.C,D17*%
X258411611Y-158480218D02*
X258774134Y-158649266D01*
X258774134Y-158649266D02*
X258541694Y-159147735D01*
X258774134Y-158649266D02*
X259006574Y-158150796D01*
X258774134Y-158649266D02*
X259486966Y-158540313D01*
X259148872Y-159265360D02*
X258774134Y-158649266D01*
X259317919Y-158902837D02*
X259771073Y-159114146D01*
X259486966Y-158540313D02*
X259148872Y-159265360D01*
%TD*%
D13*
%TO.C,MCU1*%
X136849129Y-118040279D03*
X136937774Y-120578732D03*
X137026419Y-123117184D03*
X137115063Y-125655637D03*
X137203708Y-128194090D03*
X137292353Y-130732542D03*
X137380997Y-133270995D03*
X137469642Y-135809448D03*
X137558287Y-138347901D03*
X137646932Y-140886353D03*
X137735576Y-143424806D03*
X137824221Y-145963259D03*
X122593505Y-146495127D03*
X122504860Y-143956674D03*
X122416215Y-141418222D03*
X122327571Y-138879769D03*
X122238926Y-136341316D03*
X122150281Y-133802864D03*
X122061637Y-131264411D03*
X121972992Y-128725958D03*
X121884347Y-126187505D03*
X121795702Y-123649053D03*
X121707058Y-121110600D03*
X121618413Y-118572147D03*
%TD*%
M02*
