%TF.GenerationSoftware,KiCad,Pcbnew,8.0.6*%
%TF.CreationDate,2025-01-06T03:58:56-07:00*%
%TF.ProjectId,right_circuit,72696768-745f-4636-9972-637569742e6b,v1.0.0*%
%TF.SameCoordinates,Original*%
%TF.FileFunction,Paste,Bot*%
%TF.FilePolarity,Positive*%
%FSLAX46Y46*%
G04 Gerber Fmt 4.6, Leading zero omitted, Abs format (unit mm)*
G04 Created by KiCad (PCBNEW 8.0.6) date 2025-01-06 03:58:56*
%MOMM*%
%LPD*%
G01*
G04 APERTURE LIST*
G04 Aperture macros list*
%AMRotRect*
0 Rectangle, with rotation*
0 The origin of the aperture is its center*
0 $1 length*
0 $2 width*
0 $3 Rotation angle, in degrees counterclockwise*
0 Add horizontal line*
21,1,$1,$2,0,0,$3*%
G04 Aperture macros list end*
%ADD10R,2.600000X2.600000*%
%ADD11RotRect,0.900000X1.200000X5.000000*%
%ADD12RotRect,0.900000X1.200000X20.000000*%
%ADD13RotRect,0.900000X1.200000X12.000000*%
%ADD14RotRect,2.600000X2.600000X5.000000*%
%ADD15R,0.900000X1.200000*%
%ADD16RotRect,0.900000X1.200000X340.000000*%
%ADD17RotRect,2.600000X2.600000X20.000000*%
%ADD18RotRect,2.600000X2.600000X2.000000*%
%ADD19RotRect,2.600000X2.600000X12.000000*%
%ADD20RotRect,0.900000X1.200000X10.000000*%
%ADD21RotRect,0.900000X1.200000X2.000000*%
%ADD22RotRect,2.600000X2.600000X335.000000*%
%ADD23RotRect,2.600000X2.600000X10.000000*%
%ADD24RotRect,2.600000X2.600000X340.000000*%
%ADD25RotRect,0.900000X1.200000X335.000000*%
G04 APERTURE END LIST*
D10*
%TO.C,S14*%
X236539112Y-130696223D03*
X248089112Y-132896223D03*
%TD*%
D11*
%TO.C,D9*%
X183681865Y-115697184D03*
X186969307Y-115409570D03*
%TD*%
D12*
%TO.C,D1*%
X114817588Y-189323104D03*
X117918574Y-188194438D03*
%TD*%
D13*
%TO.C,D2*%
X138217703Y-182255644D03*
X141445591Y-181569536D03*
%TD*%
D10*
%TO.C,S12*%
X210539112Y-101696223D03*
X222089112Y-103896223D03*
%TD*%
%TO.C,S15*%
X236539112Y-111696223D03*
X248089112Y-113896223D03*
%TD*%
D14*
%TO.C,S6*%
X160526914Y-107723881D03*
X172224705Y-108908860D03*
%TD*%
%TO.C,S10*%
X179539890Y-86998976D03*
X191237681Y-88183955D03*
%TD*%
D15*
%TO.C,D14*%
X238164112Y-140646223D03*
X241464112Y-140646223D03*
%TD*%
%TO.C,D11*%
X212164112Y-130646223D03*
X215464112Y-130646223D03*
%TD*%
%TO.C,D13*%
X212164112Y-92646223D03*
X215464112Y-92646223D03*
%TD*%
D11*
%TO.C,D10*%
X182025906Y-96769485D03*
X185313348Y-96481871D03*
%TD*%
D15*
%TO.C,D7*%
X161911108Y-97354754D03*
X165211108Y-97354754D03*
%TD*%
D14*
%TO.C,S4*%
X160218886Y-168358077D03*
X171916677Y-169543056D03*
%TD*%
D16*
%TO.C,D18*%
X265620608Y-139364461D03*
X268721594Y-140493127D03*
%TD*%
D11*
%TO.C,D6*%
X163012930Y-117494389D03*
X166300372Y-117206775D03*
%TD*%
D17*
%TO.C,S1*%
X109887487Y-180528945D03*
X121493381Y-178645936D03*
%TD*%
D10*
%TO.C,S7*%
X160286108Y-87404754D03*
X171836108Y-89604754D03*
%TD*%
%TO.C,S16*%
X236539112Y-92696223D03*
X248089112Y-94896223D03*
%TD*%
D15*
%TO.C,D15*%
X238164112Y-121646223D03*
X241464112Y-121646223D03*
%TD*%
D11*
%TO.C,D4*%
X162704902Y-178128586D03*
X165992344Y-177840972D03*
%TD*%
D18*
%TO.C,S3*%
X133109493Y-151210997D03*
X144729236Y-153006568D03*
%TD*%
D19*
%TO.C,S2*%
X134559492Y-172860933D03*
X146314503Y-172611477D03*
%TD*%
D20*
%TO.C,D5*%
X165865843Y-137461357D03*
X169115709Y-136888319D03*
%TD*%
D21*
%TO.C,D3*%
X135080753Y-161098224D03*
X138378743Y-160983056D03*
%TD*%
D14*
%TO.C,S9*%
X181195849Y-105926675D03*
X192893640Y-107111654D03*
%TD*%
D15*
%TO.C,D12*%
X212164112Y-111646223D03*
X215464112Y-111646223D03*
%TD*%
D11*
%TO.C,D8*%
X185337824Y-134624883D03*
X188625266Y-134337269D03*
%TD*%
D22*
%TO.C,S17*%
X260328236Y-148395345D03*
X269866330Y-155270463D03*
%TD*%
D15*
%TO.C,D16*%
X238164112Y-102646223D03*
X241464112Y-102646223D03*
%TD*%
D23*
%TO.C,S5*%
X162537732Y-127944699D03*
X174294287Y-128105639D03*
%TD*%
D24*
%TO.C,S18*%
X267496709Y-129458736D03*
X277597714Y-135476392D03*
%TD*%
D25*
%TO.C,D17*%
X257595934Y-158099862D03*
X260586750Y-159494502D03*
%TD*%
D10*
%TO.C,S11*%
X210539112Y-120696223D03*
X222089112Y-122896223D03*
%TD*%
%TO.C,S13*%
X210539112Y-82696223D03*
X222089112Y-84896223D03*
%TD*%
D14*
%TO.C,S8*%
X182851808Y-124854374D03*
X194549599Y-126039353D03*
%TD*%
M02*
