%TF.GenerationSoftware,KiCad,Pcbnew,8.0.6*%
%TF.CreationDate,2025-01-06T03:58:56-07:00*%
%TF.ProjectId,right_circuit,72696768-745f-4636-9972-637569742e6b,v1.0.0*%
%TF.SameCoordinates,Original*%
%TF.FileFunction,Soldermask,Top*%
%TF.FilePolarity,Negative*%
%FSLAX46Y46*%
G04 Gerber Fmt 4.6, Leading zero omitted, Abs format (unit mm)*
G04 Created by KiCad (PCBNEW 8.0.6) date 2025-01-06 03:58:56*
%MOMM*%
%LPD*%
G01*
G04 APERTURE LIST*
G04 Aperture macros list*
%AMRoundRect*
0 Rectangle with rounded corners*
0 $1 Rounding radius*
0 $2 $3 $4 $5 $6 $7 $8 $9 X,Y pos of 4 corners*
0 Add a 4 corners polygon primitive as box body*
4,1,4,$2,$3,$4,$5,$6,$7,$8,$9,$2,$3,0*
0 Add four circle primitives for the rounded corners*
1,1,$1+$1,$2,$3*
1,1,$1+$1,$4,$5*
1,1,$1+$1,$6,$7*
1,1,$1+$1,$8,$9*
0 Add four rect primitives between the rounded corners*
20,1,$1+$1,$2,$3,$4,$5,0*
20,1,$1+$1,$4,$5,$6,$7,0*
20,1,$1+$1,$6,$7,$8,$9,0*
20,1,$1+$1,$8,$9,$2,$3,0*%
%AMHorizOval*
0 Thick line with rounded ends*
0 $1 width*
0 $2 $3 position (X,Y) of the first rounded end (center of the circle)*
0 $4 $5 position (X,Y) of the second rounded end (center of the circle)*
0 Add line between two ends*
20,1,$1,$2,$3,$4,$5,0*
0 Add two circle primitives to create the rounded ends*
1,1,$1,$2,$3*
1,1,$1,$4,$5*%
G04 Aperture macros list end*
%ADD10C,2.300000*%
%ADD11RoundRect,0.050000X-0.434021X-0.465431X0.465431X-0.434021X0.434021X0.465431X-0.465431X0.434021X0*%
%ADD12C,1.100000*%
%ADD13RoundRect,0.050000X-0.427914X-0.640324X0.471538X-0.608914X0.427914X0.640324X-0.471538X0.608914X0*%
%ADD14C,1.801800*%
%ADD15C,3.100000*%
%ADD16C,3.529000*%
%ADD17RoundRect,0.050000X-0.808136X-0.963099X0.963099X-0.808136X0.808136X0.963099X-0.963099X0.808136X0*%
%ADD18RoundRect,0.050000X-0.395994X-0.636937X0.500581X-0.558497X0.395994X0.636937X-0.500581X0.558497X0*%
%ADD19C,2.005000*%
%ADD20RoundRect,0.050000X-0.531331X-1.139443X1.139443X-0.531331X0.531331X1.139443X-1.139443X0.531331X0*%
%ADD21RoundRect,0.050000X-0.217650X-0.717725X0.628074X-0.409907X0.217650X0.717725X-0.628074X0.409907X0*%
%ADD22RoundRect,0.050000X-0.684740X-1.054407X1.054407X-0.684740X0.684740X1.054407X-1.054407X0.684740X0*%
%ADD23RoundRect,0.050000X-0.315419X-0.680449X0.564913X-0.493328X0.315419X0.680449X-0.564913X0.493328X0*%
%ADD24RoundRect,0.050000X-0.889000X-0.889000X0.889000X-0.889000X0.889000X0.889000X-0.889000X0.889000X0*%
%ADD25RoundRect,0.050000X-0.450000X-0.600000X0.450000X-0.600000X0.450000X0.600000X-0.450000X0.600000X0*%
%ADD26C,1.852600*%
%ADD27RoundRect,0.050000X-1.139443X-0.531331X0.531331X-1.139443X1.139443X0.531331X-0.531331X1.139443X0*%
%ADD28RoundRect,0.050000X-0.628074X-0.409907X0.217650X-0.717725X0.628074X0.409907X-0.217650X0.717725X0*%
%ADD29RoundRect,0.050000X-0.721121X-1.029867X1.029867X-0.721121X0.721121X1.029867X-1.029867X0.721121X0*%
%ADD30RoundRect,0.050000X-0.338975X-0.669026X0.547352X-0.512743X0.338975X0.669026X-0.547352X0.512743X0*%
%ADD31RoundRect,0.050000X-0.857433X-0.919484X0.919484X-0.857433X0.857433X0.919484X-0.919484X0.857433X0*%
%ADD32RoundRect,0.050000X-0.428786X-0.615339X0.470666X-0.583930X0.428786X0.615339X-0.470666X0.583930X0*%
%ADD33RoundRect,0.050000X-0.870422X0.569970X-0.828543X-0.629299X0.870422X-0.569970X0.828543X0.629299X0*%
%ADD34HorizOval,1.300000X-0.249848X-0.008725X0.249848X0.008725X0*%
%ADD35RoundRect,0.050000X-1.181415X-0.430000X0.430000X-1.181415X1.181415X0.430000X-0.430000X1.181415X0*%
%ADD36RoundRect,0.050000X-0.661409X-0.353606X0.154268X-0.733963X0.661409X0.353606X-0.154268X0.733963X0*%
G04 APERTURE END LIST*
D10*
%TO.C,MH1*%
X175170000Y-105160000D03*
%TD*%
%TO.C,MH1*%
X173220000Y-145950000D03*
%TD*%
%TO.C,MH1*%
X152150000Y-144930000D03*
%TD*%
%TO.C,MH1*%
X226680000Y-109670000D03*
%TD*%
%TO.C,MH1*%
X232800000Y-148230000D03*
%TD*%
%TO.C,MH1*%
X229820000Y-183520000D03*
%TD*%
%TO.C,MH1*%
X152990000Y-185560000D03*
%TD*%
%TO.C,MH1*%
X106860000Y-198470000D03*
%TD*%
%TO.C,MH1*%
X99960000Y-177980000D03*
%TD*%
%TO.C,MH1*%
X121520000Y-152050000D03*
%TD*%
%TO.C,MH1*%
X117540000Y-115920000D03*
%TD*%
%TO.C,MH1*%
X151120000Y-114140000D03*
%TD*%
%TO.C,MH1*%
X152280000Y-82240000D03*
%TD*%
%TO.C,MH1*%
X198610000Y-80790000D03*
%TD*%
%TO.C,MH1*%
X250340000Y-88220000D03*
%TD*%
%TO.C,MH1*%
X267700000Y-176760000D03*
%TD*%
D11*
%TO.C,T1*%
X138670000Y-115390000D03*
X138746779Y-117588660D03*
D12*
X140907050Y-116412551D03*
X143905222Y-116307853D03*
D11*
X146065493Y-115131744D03*
X146142272Y-117330404D03*
D13*
X144727182Y-118355414D03*
X141729009Y-118460113D03*
X140229923Y-118512462D03*
%TD*%
D14*
%TO.C,S14*%
X234314112Y-136646223D03*
D15*
X239814112Y-130696223D03*
D16*
X239814112Y-136646223D03*
D15*
X244814112Y-132896223D03*
D14*
X245314112Y-136646223D03*
%TD*%
D17*
%TO.C,D9*%
X181530084Y-115885440D03*
D18*
X183681865Y-115697184D03*
X186969307Y-115409570D03*
D19*
X189121088Y-115221314D03*
%TD*%
D20*
%TO.C,D1*%
X112787852Y-190061868D03*
D21*
X114817588Y-189323104D03*
X117918574Y-188194438D03*
D19*
X119948310Y-187455674D03*
%TD*%
D22*
%TO.C,D2*%
X136104905Y-182704735D03*
D23*
X138217703Y-182255644D03*
X141445591Y-181569536D03*
D19*
X143558389Y-181120445D03*
%TD*%
D14*
%TO.C,S12*%
X208314112Y-107646223D03*
D15*
X213814112Y-101696223D03*
D16*
X213814112Y-107646223D03*
D15*
X218814112Y-103896223D03*
D14*
X219314112Y-107646223D03*
%TD*%
%TO.C,S15*%
X234314112Y-117646223D03*
D15*
X239814112Y-111696223D03*
D16*
X239814112Y-117646223D03*
D15*
X244814112Y-113896223D03*
D14*
X245314112Y-117646223D03*
%TD*%
%TO.C,S6*%
X158828957Y-113845161D03*
D15*
X163789451Y-107438446D03*
D16*
X164308028Y-113365804D03*
D15*
X168962167Y-109194295D03*
D14*
X169787099Y-112886447D03*
%TD*%
%TO.C,S10*%
X177841933Y-93120256D03*
D15*
X182802427Y-86713541D03*
D16*
X183321004Y-92640899D03*
D15*
X187975143Y-88469390D03*
D14*
X188800075Y-92161542D03*
%TD*%
D24*
%TO.C,D14*%
X236004112Y-140646223D03*
D25*
X238164112Y-140646223D03*
X241464112Y-140646223D03*
D19*
X243624112Y-140646223D03*
%TD*%
D24*
%TO.C,D11*%
X210004112Y-130646223D03*
D25*
X212164112Y-130646223D03*
X215464112Y-130646223D03*
D19*
X217624112Y-130646223D03*
%TD*%
D24*
%TO.C,D13*%
X210004112Y-92646223D03*
D25*
X212164112Y-92646223D03*
X215464112Y-92646223D03*
D19*
X217624112Y-92646223D03*
%TD*%
D17*
%TO.C,D10*%
X179874125Y-96957741D03*
D18*
X182025906Y-96769485D03*
X185313348Y-96481871D03*
D19*
X187465129Y-96293615D03*
%TD*%
D26*
%TO.C,MCU1*%
X136849129Y-118040279D03*
X136937774Y-120578732D03*
X137026419Y-123117184D03*
X137115063Y-125655637D03*
X137203708Y-128194090D03*
X137292353Y-130732542D03*
X137380997Y-133270995D03*
X137469642Y-135809448D03*
X137558287Y-138347901D03*
X137646932Y-140886353D03*
X137735576Y-143424806D03*
X137824221Y-145963259D03*
X122593505Y-146495127D03*
X122504860Y-143956674D03*
X122416215Y-141418222D03*
X122327571Y-138879769D03*
X122238926Y-136341316D03*
X122150281Y-133802864D03*
X122061637Y-131264411D03*
X121972992Y-128725958D03*
X121884347Y-126187505D03*
X121795702Y-123649053D03*
X121707058Y-121110600D03*
X121618413Y-118572147D03*
%TD*%
D24*
%TO.C,D7*%
X159751108Y-97354754D03*
D25*
X161911108Y-97354754D03*
X165211108Y-97354754D03*
D19*
X167371108Y-97354754D03*
%TD*%
D14*
%TO.C,S4*%
X158520929Y-174479357D03*
D15*
X163481423Y-168072642D03*
D16*
X164000000Y-174000000D03*
D15*
X168654139Y-169828491D03*
D14*
X169479071Y-173520643D03*
%TD*%
D27*
%TO.C,D18*%
X263590872Y-138625697D03*
D28*
X265620608Y-139364461D03*
X268721594Y-140493127D03*
D19*
X270751330Y-141231891D03*
%TD*%
D17*
%TO.C,D6*%
X160861149Y-117682645D03*
D18*
X163012930Y-117494389D03*
X166300372Y-117206775D03*
D19*
X168452153Y-117018519D03*
%TD*%
D14*
%TO.C,S1*%
X109831691Y-186881111D03*
D15*
X112964980Y-179408829D03*
D16*
X115000000Y-185000000D03*
D15*
X118415888Y-179766052D03*
D14*
X120168309Y-183118889D03*
%TD*%
%TO.C,S7*%
X158061108Y-93354754D03*
D15*
X163561108Y-87404754D03*
D16*
X163561108Y-93354754D03*
D15*
X168561108Y-89604754D03*
D14*
X169061108Y-93354754D03*
%TD*%
%TO.C,S16*%
X234314112Y-98646223D03*
D15*
X239814112Y-92696223D03*
D16*
X239814112Y-98646223D03*
D15*
X244814112Y-94896223D03*
D14*
X245314112Y-98646223D03*
%TD*%
D24*
%TO.C,D15*%
X236004112Y-121646223D03*
D25*
X238164112Y-121646223D03*
X241464112Y-121646223D03*
D19*
X243624112Y-121646223D03*
%TD*%
D17*
%TO.C,D4*%
X160553121Y-178316842D03*
D18*
X162704902Y-178128586D03*
X165992344Y-177840972D03*
D19*
X168144125Y-177652716D03*
%TD*%
D14*
%TO.C,S3*%
X131093500Y-157235024D03*
D15*
X136382498Y-151096702D03*
D16*
X136590150Y-157043077D03*
D15*
X141456231Y-153120864D03*
D14*
X142086800Y-156851130D03*
%TD*%
%TO.C,S2*%
X133620188Y-179143514D03*
D15*
X137762925Y-172180022D03*
D16*
X139000000Y-178000000D03*
D15*
X143111069Y-173292388D03*
D14*
X144379812Y-176856486D03*
%TD*%
D29*
%TO.C,D5*%
X163738656Y-137836438D03*
D30*
X165865843Y-137461357D03*
X169115709Y-136888319D03*
D19*
X171242896Y-136513238D03*
%TD*%
D31*
%TO.C,D3*%
X132922069Y-161173607D03*
D32*
X135080753Y-161098224D03*
X138378743Y-160983056D03*
D19*
X140537427Y-160907673D03*
%TD*%
D14*
%TO.C,S9*%
X179497892Y-112047955D03*
D15*
X184458386Y-105641240D03*
D16*
X184976963Y-111568598D03*
D15*
X189631102Y-107397089D03*
D14*
X190456034Y-111089241D03*
%TD*%
D10*
%TO.C,MH1*%
X286350000Y-132990000D03*
%TD*%
D24*
%TO.C,D12*%
X210004112Y-111646223D03*
D25*
X212164112Y-111646223D03*
X215464112Y-111646223D03*
D19*
X217624112Y-111646223D03*
%TD*%
D17*
%TO.C,D8*%
X183186043Y-134813139D03*
D18*
X185337824Y-134624883D03*
X188625266Y-134337269D03*
D19*
X190777047Y-134149013D03*
%TD*%
D14*
%TO.C,S17*%
X255797122Y-152847551D03*
D15*
X263296394Y-149779420D03*
D16*
X260781815Y-155171951D03*
D15*
X266898172Y-153886388D03*
D14*
X265766508Y-157496351D03*
%TD*%
D24*
%TO.C,D16*%
X236004112Y-102646223D03*
D25*
X238164112Y-102646223D03*
X241464112Y-102646223D03*
D19*
X243624112Y-102646223D03*
%TD*%
D14*
%TO.C,S5*%
X161379741Y-134190672D03*
D15*
X165762977Y-127376001D03*
D16*
X166796184Y-133235607D03*
D15*
X171069042Y-128674337D03*
D14*
X172212627Y-132280542D03*
%TD*%
D33*
%TO.C,JST1*%
X151763614Y-149975105D03*
D34*
X151833402Y-151973887D03*
%TD*%
D14*
%TO.C,S18*%
X263370873Y-134288912D03*
D15*
X270574202Y-130578852D03*
D16*
X268539182Y-136170023D03*
D15*
X274520221Y-134356276D03*
D14*
X273707491Y-138051134D03*
%TD*%
D35*
%TO.C,D17*%
X255638309Y-157187006D03*
D36*
X257595934Y-158099862D03*
X260586750Y-159494502D03*
D19*
X262544375Y-160407358D03*
%TD*%
D14*
%TO.C,S11*%
X208314112Y-126646223D03*
D15*
X213814112Y-120696223D03*
D16*
X213814112Y-126646223D03*
D15*
X218814112Y-122896223D03*
D14*
X219314112Y-126646223D03*
%TD*%
%TO.C,S13*%
X208314112Y-88646223D03*
D15*
X213814112Y-82696223D03*
D16*
X213814112Y-88646223D03*
D15*
X218814112Y-84896223D03*
D14*
X219314112Y-88646223D03*
%TD*%
%TO.C,S8*%
X181153851Y-130975654D03*
D15*
X186114345Y-124568939D03*
D16*
X186632922Y-130496297D03*
D15*
X191287061Y-126324788D03*
D14*
X192111993Y-130016940D03*
%TD*%
M02*
