%TF.GenerationSoftware,KiCad,Pcbnew,8.0.6*%
%TF.CreationDate,2025-01-06T03:58:56-07:00*%
%TF.ProjectId,right_circuit,72696768-745f-4636-9972-637569742e6b,v1.0.0*%
%TF.SameCoordinates,Original*%
%TF.FileFunction,Profile,NP*%
%FSLAX46Y46*%
G04 Gerber Fmt 4.6, Leading zero omitted, Abs format (unit mm)*
G04 Created by KiCad (PCBNEW 8.0.6) date 2025-01-06 03:58:56*
%MOMM*%
%LPD*%
G01*
G04 APERTURE LIST*
%TA.AperFunction,Profile*%
%ADD10C,0.200000*%
%TD*%
G04 APERTURE END LIST*
D10*
X116360000Y-147512065D02*
X115102589Y-113436233D01*
X222360000Y-75512065D02*
X239360000Y-85512065D01*
X149360000Y-79512065D02*
X173360000Y-79512065D01*
X149360000Y-79512065D02*
X149360000Y-112300000D01*
X241360000Y-179512065D02*
X269760000Y-179512065D01*
X130360000Y-193512065D02*
X105360000Y-202512065D01*
X282760000Y-150512065D02*
X269760000Y-179512065D01*
X173360000Y-79512065D02*
X204360000Y-75512065D01*
X120360000Y-158512065D02*
X116360000Y-147512065D01*
X253360000Y-117512065D02*
X289760000Y-130962065D01*
X241360000Y-179512065D02*
X231360000Y-186512065D01*
X155360000Y-187512065D02*
X130360000Y-193512065D01*
X120360000Y-167512065D02*
X120360000Y-158512065D01*
X289760000Y-130962065D02*
X282760000Y-150512065D01*
X174360000Y-186512065D02*
X231360000Y-186512065D01*
X204360000Y-75512065D02*
X222360000Y-75512065D01*
X253360000Y-85512065D02*
X253360000Y-117512065D01*
X105360000Y-202512065D02*
X96360000Y-176512065D01*
X115102589Y-113436233D02*
X149360000Y-112300000D01*
X96360000Y-176512065D02*
X120360000Y-167512065D01*
X239360000Y-85512065D02*
X253360000Y-85512065D01*
X174360000Y-186512065D02*
X155360000Y-187512065D01*
M02*
