M48
; DRILL file {KiCad 8.0.6} date 2025-01-06T03:58:54-0700
; FORMAT={-:-/ absolute / inch / decimal}
; #@! TF.CreationDate,2025-01-06T03:58:54-07:00
; #@! TF.GenerationSoftware,Kicad,Pcbnew,8.0.6
; #@! TF.FileFunction,Plated,1,2,PTH
FMAT,2
INCH
; #@! TA.AperFunction,Plated,PTH,ViaDrill
T1C0.0118
; #@! TA.AperFunction,Plated,PTH,ComponentDrill
T2C0.0295
; #@! TA.AperFunction,Plated,PTH,ComponentDrill
T3C0.0390
; #@! TA.AperFunction,Plated,PTH,ComponentDrill
T4C0.0430
%
G90
G05
T1
X5.4724Y-4.7244
X5.7087Y-5.5004
X5.748Y-4.7244
X6.811Y-4.6457
X6.811Y-4.8425
X6.9291Y-4.8425
X7.7165Y-4.6457
T2
X5.9749Y-5.9045
X5.9777Y-5.9832
T3
X4.4405Y-7.4828
X4.7224Y-7.3801
X5.2332Y-6.3454
X5.3585Y-7.1931
X5.533Y-6.3349
X5.6519Y-7.1307
X6.2894Y-3.8329
X6.321Y-7.0203
X6.3331Y-4.6332
X6.4464Y-5.4266
X6.5894Y-3.8329
X6.6198Y-6.9942
X6.632Y-4.607
X6.7418Y-5.3745
X7.0817Y-3.8172
X7.1469Y-4.5624
X7.212Y-5.3076
X7.3805Y-3.7911
X7.4457Y-4.5363
X7.5109Y-5.2815
X8.2679Y-3.6475
X8.2679Y-4.3955
X8.2679Y-5.1436
X8.5679Y-3.6475
X8.5679Y-4.3955
X8.5679Y-5.1436
X9.2915Y-4.0412
X9.2915Y-4.7892
X9.2915Y-5.5373
X9.5915Y-4.0412
X9.5915Y-4.7892
X9.5915Y-5.5373
X10.0645Y-6.1885
X10.3364Y-6.3153
X10.3776Y-5.4577
X10.6595Y-5.5603
T4
X4.7881Y-4.6682
X4.7916Y-4.7681
X4.7951Y-4.8681
X4.7986Y-4.968
X4.8021Y-5.068
X4.8056Y-5.1679
X4.8091Y-5.2678
X4.8126Y-5.3678
X4.816Y-5.4677
X4.8195Y-5.5676
X4.823Y-5.6676
X4.8265Y-5.7675
X5.3878Y-4.6473
X5.3913Y-4.7472
X5.3947Y-4.8471
X5.3982Y-4.9471
X5.4017Y-5.047
X5.4052Y-5.147
X5.4087Y-5.2469
X5.4122Y-5.3468
X5.4157Y-5.4468
X5.4192Y-5.5467
X5.4227Y-5.6466
X5.4262Y-5.7466
M30
